<svg width="73" height="80" viewBox="0 0 73 80" fill="none" xmlns="http://www.w3.org/2000/svg">
<g id="Group 459">
<g id="Group 458">
<path id="Polygon 1" opacity="0.15" d="M30.3559 1.56846C33.9781 -0.522818 38.4408 -0.522819 42.063 1.56845L66.5654 15.7149C70.1876 17.8062 72.4189 21.671 72.4189 25.8536V54.1465C72.4189 58.329 70.1876 62.1938 66.5654 64.2851L42.063 78.4315C38.4408 80.5228 33.9781 80.5228 30.3559 78.4315L5.85356 64.2851C2.23136 62.1938 0 58.329 0 54.1465V25.8536C0 21.671 2.23136 17.8062 5.85355 15.7149L30.3559 1.56846Z" fill="#11437F"/>
<path id="Vector" d="M51.2088 55.0262C51.0213 54.4919 50.679 54.0255 50.2254 53.6864C49.7458 53.3289 49.2186 53.0401 48.659 52.8284C48.0629 52.6001 47.4539 52.4069 46.8352 52.2498C46.2436 52.1025 45.6646 51.9083 45.1038 51.669C44.5076 51.4468 44.0434 51.1828 43.709 50.888C43.3746 50.5932 43.1304 50.283 42.9808 49.9574C42.837 49.6479 42.7562 49.3129 42.7432 48.9718C42.7298 48.6424 42.7475 48.3124 42.796 47.9862C42.8586 47.5763 43.0416 47.1942 43.3218 46.8884C43.4472 46.7498 43.588 46.6222 43.7508 46.4924C43.9092 46.3714 44.0918 46.2174 44.2876 46.048C44.4908 45.8867 44.6567 45.6833 44.7738 45.4518C44.9183 45.1886 45.0433 44.915 45.1478 44.6334C45.2468 44.3342 45.3436 43.9998 45.4492 43.6258C45.6751 43.576 45.8816 43.4613 46.0432 43.2958C46.4851 42.8299 46.7484 42.223 46.7868 41.582C46.8398 41.2927 46.8338 40.9956 46.7692 40.7086C46.7177 40.51 46.6485 40.3163 46.5624 40.13C46.477 39.9749 46.3637 39.8369 46.228 39.723C46.2532 38.8764 46.2046 38.0291 46.0828 37.1908C45.9442 36.403 45.7501 35.6259 45.502 34.8654C45.2484 34.0428 44.8366 33.2775 44.2898 32.6126C43.819 32.0186 43.0864 31.4598 42.0942 30.934C41.102 30.4148 39.9712 30.1552 38.7084 30.1552C38.2354 30.1552 37.7404 30.1948 37.219 30.2674C36.095 30.4337 35.0311 30.8809 34.1258 31.5676C33.6308 31.9416 33.1842 32.4278 32.786 33.0218C32.3418 33.6626 32.0086 34.3736 31.8004 35.125C31.5977 35.8401 31.4419 36.5677 31.334 37.303C31.2358 38.1057 31.1983 38.9147 31.2218 39.723C31.0476 39.9218 30.9099 40.1497 30.8148 40.3962C30.7053 40.6374 30.6425 40.8972 30.63 41.1618C30.6058 41.472 30.6542 41.7998 30.7752 42.1474C30.8984 42.495 31.0304 42.7656 31.1668 42.9658C31.2751 43.1335 31.4078 43.284 31.5606 43.4124C31.7058 43.5114 31.8598 43.584 32.0072 43.6412C32.104 44.013 32.203 44.3452 32.3064 44.6466C32.4054 44.9216 32.522 45.19 32.6606 45.4672C32.7992 45.74 32.951 45.9512 33.127 46.0986C33.4768 46.3736 33.8002 46.653 34.0928 46.9368C34.392 47.2206 34.5636 47.6144 34.612 48.1094C34.6362 48.457 34.6516 48.7672 34.6516 49.0422C34.6516 49.3172 34.5988 49.5768 34.4844 49.821C34.3722 50.0718 34.2006 50.3182 33.9652 50.5668C33.7298 50.8154 33.3866 51.086 32.94 51.3874C32.3392 51.7721 31.6792 52.0553 30.9864 52.2256C30.256 52.4126 29.5388 52.6282 28.848 52.879C28.1983 53.1026 27.5885 53.4287 27.0418 53.8448C26.5314 54.2408 26.2168 54.8326 26.0958 55.6312C25.8956 56.9952 25.8604 58.1128 25.9814 58.9796C26.1046 59.8508 26.2674 60.37 26.4676 60.546C26.5908 60.6428 26.8944 60.7528 27.3806 60.8672C28.7393 61.1491 30.1118 61.3599 31.4924 61.4986C33.1826 61.6755 34.8762 61.8178 36.5722 61.9254C37.3774 61.9738 38.0924 61.998 38.7128 61.998C39.331 61.998 40.0504 61.9738 40.871 61.9254C41.6894 61.877 42.5408 61.811 43.4208 61.7384C45.0982 61.5933 46.7693 61.3827 48.4302 61.107C49.1518 60.9816 49.7502 60.8452 50.2342 60.6934C50.7204 60.546 51.0108 60.392 51.1076 60.2468C51.2528 60.0246 51.3672 59.688 51.4398 59.2414C51.5124 58.7948 51.552 58.3174 51.552 57.807C51.552 57.301 51.5212 56.7972 51.4596 56.3022C51.4062 55.8715 51.3224 55.4451 51.2088 55.0262ZM28.5818 50.261C29.3276 50.0124 30.0184 49.6934 30.6674 49.2952C30.9424 49.1236 31.114 48.9652 31.1866 48.8112C31.2614 48.6638 31.3252 48.4526 31.3736 48.1776C31.3332 47.9813 31.3023 47.783 31.2812 47.5836C31.2759 47.4581 31.2364 47.3363 31.1668 47.2316C31.0957 47.1307 31.0154 47.0364 30.927 46.95C30.795 46.8213 30.6586 46.6973 30.5178 46.5782C30.2933 46.3965 30.1204 46.1591 30.0162 45.8896C29.8836 45.5914 29.7661 45.2867 29.6642 44.9766C29.5613 44.6042 29.4615 44.231 29.365 43.8568C29.1934 43.7962 29.0398 43.6933 28.9184 43.5576C28.7952 43.4344 28.6588 43.2584 28.5114 43.0362C28.364 42.814 28.2254 42.4928 28.1022 42.0726C27.8883 41.4298 27.9023 40.733 28.1418 40.0992C28.243 39.8264 28.3948 39.5822 28.5906 39.3556C28.5906 38.4866 28.6544 37.6176 28.7754 36.7486C28.8986 36.0292 29.0856 35.2482 29.3364 34.4056C29.5872 33.563 29.9546 32.7908 30.454 32.0956C30.8522 31.55 31.3186 31.0088 31.8488 30.4742C32.2977 30.0094 32.8032 29.6028 33.3536 29.2642C33.2062 28.7934 33.0896 28.3776 33.0016 28.019C32.9136 27.6604 32.7112 27.2666 32.3878 26.8442C31.8928 26.2502 31.147 25.6914 30.157 25.1656C29.1201 24.6351 27.9689 24.367 26.8042 24.3846C26.3092 24.3846 25.7988 24.4264 25.2796 24.499C24.7482 24.576 24.2286 24.7193 23.733 24.9258C23.1962 25.1515 22.6904 25.445 22.2282 25.7992C21.7332 26.1732 21.2866 26.6572 20.8884 27.2534C20.4418 27.8694 20.1074 28.5668 19.883 29.3368C19.6564 30.1068 19.5002 30.8284 19.3968 31.495C19.2986 32.297 19.2611 33.1052 19.2846 33.9128C19.1005 34.1045 18.9608 34.3344 18.8754 34.586C18.7705 34.8411 18.708 35.1116 18.6906 35.3868C18.6664 35.6948 18.7148 36.0248 18.838 36.3724C18.9612 36.72 19.0932 36.9906 19.2296 37.1908C19.3385 37.3574 19.4703 37.5078 19.6212 37.6374C19.7607 37.7302 19.9106 37.8063 20.0678 37.864C20.1646 38.238 20.2636 38.5702 20.367 38.8694C20.466 39.1444 20.5848 39.415 20.7212 39.69C20.8294 39.9312 21.0032 40.137 21.2228 40.284C21.5704 40.5832 21.885 40.8736 22.1688 41.1574C22.4526 41.4412 22.6198 41.835 22.6704 42.33C22.6946 42.6512 22.71 42.9482 22.71 43.2232C22.71 43.496 22.6594 43.7622 22.5626 44.0218C22.4658 44.2814 22.2986 44.5366 22.061 44.7874C21.749 45.0961 21.4053 45.3711 21.0358 45.608C20.4262 45.9706 19.7685 46.2453 19.0822 46.4242C18.3518 46.6222 17.6346 46.84 16.9416 47.0776C16.2464 47.313 15.648 47.6364 15.1376 48.0434C14.6272 48.4504 14.3126 49.0444 14.1916 49.81C13.9892 51.2004 13.9518 52.3312 14.0574 53.2002C14.1718 54.0692 14.3368 54.5906 14.559 54.7666C14.7064 54.8898 15.0694 55.0152 15.6392 55.1384C16.209 55.2638 16.9108 55.3892 17.7446 55.5124C18.574 55.6378 19.487 55.7478 20.4836 55.8468C21.4736 55.9436 22.4548 56.0316 23.4228 56.1042L23.4954 55.97C23.5196 55.9304 23.5438 55.893 23.5702 55.838C23.5944 55.6114 23.6142 55.3716 23.623 55.112C23.6384 54.8524 23.667 54.5884 23.7154 54.3112C23.8386 53.4224 24.1576 52.7316 24.6636 52.2476C25.174 51.7614 25.768 51.3742 26.45 51.075C27.1232 50.7802 27.836 50.5118 28.5818 50.261ZM56.799 18.0024H45.0972C44.7767 18.0048 44.4702 18.1342 44.245 18.3623C44.0198 18.5904 43.8943 18.8985 43.896 19.219V26.8288C43.896 27.4998 44.4284 28.0454 45.0972 28.0454H46.8968V29.9242C46.8968 30.263 47.1674 30.5314 47.4952 30.5314C47.5746 30.532 47.6532 30.5162 47.7262 30.4852C47.7992 30.4542 47.8651 30.4085 47.9198 30.351L50.1924 28.0454H56.7968C57.1175 28.0431 57.4243 27.9138 57.6498 27.6857C57.8754 27.4577 58.0014 27.1496 58.0002 26.8288V19.2256C58.0017 19.0665 57.9717 18.9085 57.9122 18.7609C57.8526 18.6133 57.7645 18.4788 57.653 18.3653C57.5414 18.2517 57.4086 18.1612 57.2621 18.0989C57.1156 18.0367 56.9582 18.0039 56.799 18.0024ZM47.5018 24.0964C47.2062 24.093 46.9238 23.9729 46.7162 23.7624C46.5086 23.5519 46.3924 23.2679 46.393 22.9722C46.393 22.354 46.888 21.848 47.5018 21.848C48.109 21.848 48.6062 22.354 48.6062 22.9722C48.608 23.2675 48.4928 23.5515 48.2859 23.7621C48.079 23.9728 47.7971 24.093 47.5018 24.0964ZM51.3188 24.0964C51.1718 24.0964 51.0262 24.0675 50.8903 24.0112C50.7544 23.9549 50.631 23.8724 50.527 23.7685C50.423 23.6645 50.3405 23.541 50.2843 23.4052C50.228 23.2693 50.199 23.1237 50.199 22.9766C50.199 22.8296 50.228 22.684 50.2843 22.5481C50.3405 22.4123 50.423 22.2888 50.527 22.1848C50.631 22.0808 50.7544 21.9984 50.8903 21.9421C51.0262 21.8858 51.1718 21.8568 51.3188 21.8568C51.6158 21.8568 51.9006 21.9748 52.1106 22.1848C52.3206 22.3948 52.4386 22.6797 52.4386 22.9766C52.4386 23.2736 52.3206 23.5585 52.1106 23.7685C51.9006 23.9785 51.6158 24.0964 51.3188 24.0964ZM54.9906 24.0964C54.6946 24.0935 54.4117 23.9737 54.2036 23.7632C53.9955 23.5526 53.879 23.2683 53.8796 22.9722C53.8796 22.354 54.3768 21.848 54.9906 21.848C55.5956 21.848 56.0906 22.354 56.0906 22.9722C56.0936 23.2671 55.9794 23.5511 55.7731 23.7619C55.5669 23.9726 55.2855 24.093 54.9906 24.0964Z" fill="#11437F"/>
</g>
</g>
</svg>
