<svg width="73" height="80" viewBox="0 0 73 80" fill="none" xmlns="http://www.w3.org/2000/svg">
<g id="Group 459">
<g id="Group 458">
<path id="Polygon 1" opacity="0.15" d="M30.3559 1.56846C33.9781 -0.522818 38.4408 -0.522819 42.063 1.56845L66.5654 15.7149C70.1876 17.8062 72.4189 21.671 72.4189 25.8536V54.1465C72.4189 58.329 70.1876 62.1938 66.5654 64.2851L42.063 78.4315C38.4408 80.5228 33.9781 80.5228 30.3559 78.4315L5.85356 64.2851C2.23136 62.1938 0 58.329 0 54.1465V25.8536C0 21.671 2.23136 17.8062 5.85355 15.7149L30.3559 1.56846Z" fill="#EBCC25"/>
<path id="Vector" d="M53.2472 43.6603H46.7937C45.3628 43.6603 44.0709 42.8029 43.5121 41.483L41.3036 36.2658C40.9831 35.5083 41.1887 34.6404 41.7995 34.0904C43.9811 32.1272 45.1643 29.0759 44.4694 25.7787C43.782 22.5147 41.1471 19.8769 37.8887 19.1952C32.3013 18.026 27.3822 22.2679 27.3822 27.6613C27.3822 30.2579 28.5314 32.574 30.3404 34.1572C30.9701 34.7082 31.1927 35.5884 30.8661 36.3596L28.6973 41.483C28.1385 42.8029 26.8461 43.6603 25.4157 43.6603H18.7528C17.7847 43.6603 17 44.4467 17 45.4169V52.2989C17 53.2691 17.7847 54.0555 18.7528 54.0555H53.2472C54.2153 54.0555 55 53.2691 55 52.2989V45.4174C55.0005 44.4472 54.2158 43.6603 53.2472 43.6603ZM52.4265 57.5351H19.6023C19.1196 57.5351 18.7287 57.9269 18.7287 58.4106V60.1245C18.7287 60.6082 19.1196 61 19.6023 61H52.4265C52.9092 61 53.3001 60.6082 53.3001 60.1245V58.4106C53.3001 57.9274 52.9092 57.5351 52.4265 57.5351Z" fill="#FBDE4E"/>
</g>
</g>
</svg>
