<svg width="73" height="80" viewBox="0 0 73 80" fill="none" xmlns="http://www.w3.org/2000/svg">
<g id="Group 459">
<g id="Group 458">
<path id="Polygon 1" opacity="0.15" d="M30.3559 1.56846C33.9781 -0.522818 38.4408 -0.522819 42.063 1.56845L66.5654 15.7149C70.1876 17.8062 72.4189 21.671 72.4189 25.8536V54.1465C72.4189 58.329 70.1876 62.1938 66.5654 64.2851L42.063 78.4315C38.4408 80.5228 33.9781 80.5228 30.3559 78.4315L5.85356 64.2851C2.23136 62.1938 0 58.329 0 54.1465V25.8536C0 21.671 2.23136 17.8062 5.85355 15.7149L30.3559 1.56846Z" fill="#00BB98"/>
<path id="Vector" d="M16.9868 49.3623C16.9868 51.2623 17.7468 51.6423 20.6601 51.6423C21.4201 44.2957 25.0935 40.749 28.8935 38.9757C26.3601 35.5557 26.2335 30.6157 28.6401 26.9423C25.7268 26.0557 22.6868 28.0823 21.9268 31.249C21.2935 34.0357 22.5601 37.0757 25.0935 38.2157C20.2801 39.4823 16.9868 44.0423 16.9868 49.3623ZM32.5668 39.609C27.8801 40.6223 22.4335 43.9157 22.4335 53.4157C22.4335 55.949 25.6001 55.949 35.8601 55.949C46.2468 55.949 49.2868 55.949 49.2868 53.4157C49.2868 44.0423 43.8401 40.6223 39.1535 39.609C42.8268 37.5823 44.0935 32.8957 42.3201 29.0957C40.5467 25.2957 36.1135 23.9023 32.6935 25.929C29.2735 27.9557 27.8801 32.6423 29.7801 36.3157C30.4135 37.8357 31.4268 38.849 32.5668 39.609ZM43.0801 38.9757C46.8801 40.749 50.5535 44.4223 51.3135 51.6423C54.2268 51.6423 54.9868 51.2623 54.9868 49.3623C55.2401 44.0423 51.8201 39.3557 47.0068 38.2157C49.7935 36.8223 51.0601 33.4023 49.7935 30.3623C48.6535 27.7023 45.9935 26.309 43.3335 27.069C45.7401 30.6157 45.6135 35.429 43.0801 38.9757Z" fill="#54CCB6"/>
</g>
</g>
</svg>
