<svg width="73" height="80" viewBox="0 0 73 80" fill="none" xmlns="http://www.w3.org/2000/svg">
<g id="Group 459">
<g id="Group 458">
<path id="Polygon 1" opacity="0.15" d="M30.3559 1.56846C33.9781 -0.522818 38.4408 -0.522819 42.063 1.56845L66.5654 15.7149C70.1876 17.8062 72.4189 21.671 72.4189 25.8536V54.1465C72.4189 58.329 70.1876 62.1938 66.5654 64.2851L42.063 78.4315C38.4408 80.5228 33.9781 80.5228 30.3559 78.4315L5.85356 64.2851C2.23136 62.1938 0 58.329 0 54.1465V25.8536C0 21.671 2.23136 17.8062 5.85355 15.7149L30.3559 1.56846Z" fill="#B71309"/>
<g id="Group 460">
<path id="Vector" d="M57.4062 50.0876C56.9429 49.6905 56.3473 49.4699 55.7296 49.4919C54.3618 49.6022 53.0603 50.0655 51.9572 50.8376C47.9202 53.3525 45.6921 54.632 43.2875 54.6541C41.8094 54.5879 40.3755 54.257 39.0298 53.6393C36.6693 52.7348 35.1912 52.0951 34.2647 51.5877C33.9117 51.4112 33.5808 51.1906 33.272 50.9259L32.7425 50.3964L33.3602 49.4919L33.647 49.4037C33.9779 49.2934 34.3309 49.2272 34.6839 49.2493C36.3825 49.4037 38.0591 49.7787 39.6695 50.3523C40.4637 50.595 41.2138 50.8156 41.8094 50.97C42.2065 51.0582 42.6036 51.1023 43.0227 51.1023C44.9199 51.1023 46.3539 49.9552 46.3759 48.411C46.398 46.8667 44.9641 45.7196 42.6918 45.1681C41.4785 44.8813 40.4417 44.5945 39.493 44.3298C37.4194 43.6459 35.2795 43.2488 33.0955 43.1826C32.2351 43.1826 31.3748 43.2488 30.5144 43.3812C26.8083 43.9327 21.5578 46.6902 15.8001 51.1244C15.6677 51.2347 15.5353 51.345 15.3809 51.4112L15.0059 51.6318C14.8294 54.3232 18.6679 60.081 21.1828 60.831C21.2931 60.7869 21.4255 60.7207 21.5358 60.6766L21.6682 60.6104C22.3741 60.3898 23.1021 60.1913 23.8301 60.0368C25.5067 59.6618 27.2053 59.4633 28.904 59.4633C30.5365 59.5736 32.1469 59.9045 33.6691 60.5001C36.0737 61.3825 38.6106 61.8679 41.1917 61.9561C46.1994 61.9561 49.7953 59.2647 52.6852 57.1249C53.5015 56.4851 54.3618 55.8895 55.2443 55.338C56.965 54.3232 57.9356 52.9113 57.9356 51.4994C57.9798 51.0141 57.7812 50.4846 57.4062 50.0876Z" fill="#F56E63"/>
<path id="Vector_2" d="M35.8979 51.5877C35.5449 51.4112 35.214 51.1906 34.9052 50.9259L34.3757 50.3964L34.9934 49.4919L35.2802 49.4037C35.6111 49.2934 35.9641 49.2272 36.3391 49.2493C38.0378 49.4037 39.7144 49.7787 41.3248 50.3523C42.119 50.595 42.869 50.8156 43.4647 50.97C43.8617 51.0582 44.2588 51.1023 44.678 51.1023C46.5752 51.1023 48.0091 49.9552 48.0312 48.411C48.0532 46.8667 46.6193 45.7196 44.3471 45.1681C43.1337 44.8813 42.0969 44.5945 41.1483 44.3298C39.0746 43.6459 36.9347 43.2488 34.7507 43.1826C33.8904 43.1826 33.03 43.2488 32.1697 43.3812C29.6548 43.8665 27.2281 44.771 25 46.0725C28.3311 50.8817 33.8242 53.7496 39.6702 53.7496C40.1115 53.7496 40.5527 53.7496 40.9718 53.6834L40.5968 53.5511C38.3025 52.6907 36.8024 52.0951 35.8979 51.5877Z" fill="#F56E63"/>
<path id="Vector_3" d="M30.8778 41.4617C32.1352 41.4837 33.4147 41.6161 34.6501 41.9029V39.2997H30.3263C29.6645 39.3218 29.1129 38.8144 29.0909 38.1746C29.0688 37.5128 29.5762 36.9613 30.216 36.9393H34.6722V34.8435H30.3263C29.6645 34.8656 29.1129 34.3582 29.0909 33.7184C29.0688 33.0566 29.5762 32.5051 30.216 32.483H32.4L30.3042 28.1592C30.0174 27.5856 30.2601 26.8797 30.8337 26.5929H30.8557C31.4514 26.3061 32.1573 26.5488 32.4441 27.1444L35.0472 32.5051H36.3047L38.9078 27.1444C39.1946 26.5488 39.9226 26.3061 40.5182 26.5929C41.1139 26.8797 41.3565 27.5856 41.0697 28.1592L38.974 32.483H41.3565C42.0183 32.5051 42.5257 33.0566 42.4816 33.7184C42.4596 34.3361 41.9742 34.8214 41.3565 34.8435H37.0327V36.9393H41.3565C42.0183 36.9613 42.5257 37.5128 42.4816 38.1746C42.4596 38.7923 41.9742 39.2777 41.3565 39.2997H37.0327V42.4544L37.7607 42.6529C38.6431 42.8956 39.702 43.1824 40.8933 43.4692C43.9817 44.1972 45.923 46.1606 45.9451 48.4548C45.923 49.6682 45.3936 50.8153 44.4671 51.6095C53.1368 46.8665 56.3136 35.9907 51.5705 27.3209C46.8275 18.6511 35.9738 15.4523 27.304 20.1953C18.6342 24.9383 15.4575 35.8362 20.2005 44.506L20.2667 44.6384C22.6713 43.2044 25.2965 42.2117 28.054 41.6602C29.0026 41.5278 29.9512 41.4617 30.8778 41.4617Z" fill="#F56E63"/>
</g>
</g>
</g>
</svg>
