<svg width="73" height="80" viewBox="0 0 73 80" fill="none" xmlns="http://www.w3.org/2000/svg">
<g id="Group 459">
<g id="Group 458">
<path id="Polygon 1" opacity="0.15" d="M30.3559 1.56846C33.9781 -0.522818 38.4408 -0.522819 42.063 1.56845L66.5654 15.7149C70.1876 17.8062 72.4189 21.671 72.4189 25.8536V54.1465C72.4189 58.329 70.1876 62.1938 66.5654 64.2851L42.063 78.4315C38.4408 80.5228 33.9781 80.5228 30.3559 78.4315L5.85356 64.2851C2.23136 62.1938 0 58.329 0 54.1465V25.8536C0 21.671 2.23136 17.8062 5.85355 15.7149L30.3559 1.56846Z" fill="#BB009D"/>
<g id="Group 461">
<path id="Vector" d="M26.2305 35.1153C26.2305 36.386 26.4807 37.6442 26.967 38.8181C27.4533 39.992 28.166 41.0587 29.0645 41.9572C29.9629 42.8557 31.0296 43.5684 32.2035 44.0546C33.3775 44.5409 34.6357 44.7912 35.9063 44.7912C37.177 44.7912 38.4352 44.5409 39.6091 44.0546C40.783 43.5684 41.8497 42.8557 42.7482 41.9572C43.6467 41.0587 44.3594 39.992 44.8457 38.8181C45.3319 37.6442 45.5822 36.386 45.5822 35.1153C45.5822 33.8447 45.3319 32.5864 44.8457 31.4125C44.3594 30.2386 43.6467 29.1719 42.7482 28.2734C41.8497 27.375 40.783 26.6622 39.6091 26.176C38.4352 25.6897 37.177 25.4395 35.9063 25.4395C34.6357 25.4395 33.3775 25.6897 32.2035 26.176C31.0296 26.6622 29.9629 27.375 29.0645 28.2734C28.166 29.1719 27.4533 30.2386 26.967 31.4125C26.4807 32.5864 26.2305 33.8447 26.2305 35.1153Z" fill="#DE5EC7"/>
<path id="Vector_2" d="M43.404 43.8952C41.6297 46.0682 38.93 47.4619 35.9059 47.4619C32.8818 47.4619 30.1821 46.0651 28.4078 43.8922C22.833 45.7794 19 50.5629 19 55.1C19 59.2328 52.8118 59.2328 52.8118 55.1C52.8118 50.5629 48.9788 45.7825 43.404 43.8952ZM49.2427 31.2168C47.6599 25.3264 42.2809 21 35.9059 21C29.5351 21 24.159 25.3207 22.5723 31.2051C21.0931 31.5069 19.9344 32.9965 19.9344 34.79C19.9344 36.8012 21.3911 38.4245 23.1234 38.4245C23.9864 38.4245 24.4194 36.6371 24.4225 34.7953H24.4585C24.4585 28.5063 29.5938 23.355 35.906 23.355C42.0693 23.355 47.1096 28.2672 47.344 34.3626C47.2714 36.3132 47.7015 38.4299 48.635 38.4299C50.3673 38.4299 51.8241 36.8004 51.8241 34.7891C51.824 33.0184 50.6948 31.5445 49.2427 31.2168Z" fill="#DE5EC7"/>
</g>
</g>
</g>
</svg>
