<svg width="73" height="80" viewBox="0 0 73 80" fill="none" xmlns="http://www.w3.org/2000/svg">
<g id="Group 459">
<g id="Group 458">
<path id="Polygon 1" opacity="0.15" d="M30.3559 1.56846C33.9781 -0.522818 38.4408 -0.522819 42.063 1.56845L66.5654 15.7149C70.1876 17.8062 72.4189 21.671 72.4189 25.8536V54.1465C72.4189 58.329 70.1876 62.1938 66.5654 64.2851L42.063 78.4315C38.4408 80.5228 33.9781 80.5228 30.3559 78.4315L5.85356 64.2851C2.23136 62.1938 0 58.329 0 54.1465V25.8536C0 21.671 2.23136 17.8062 5.85355 15.7149L30.3559 1.56846Z" fill="#00BB1E"/>
<path id="Vector" d="M57.3268 34.7296C57.1918 37.2119 56.2212 39.2246 55.4314 40.1938C54.8543 40.9011 53.3126 42.5624 52.4827 43.4494L43.1364 33.7118L38.3888 38.1147L38.3778 38.1251C36.3206 40.1094 33.5908 40.2387 33.5656 40.2395L33.5326 40.2415C33.4238 40.2499 33.3117 40.2541 33.1997 40.2541C30.9643 40.2541 28.7713 38.5889 27.7903 37.7318C29.8861 35.5613 37.5703 27.6383 40.5325 25.0672C41.631 24.1139 43.8727 23 46.5753 23H46.5755C49.3932 23 51.9335 24.1858 54.1252 26.5239C56.9744 29.564 57.4389 32.6642 57.3268 34.7296ZM25.6558 37.7605L26.161 38.2861C26.2975 38.4281 29.5523 41.7716 33.1997 41.7716C33.3457 41.7716 33.4921 41.7664 33.6353 41.7556C33.9308 41.7425 37.0093 41.5501 39.4267 39.222L43.0744 35.8395L48.2469 41.2287L48.2395 41.2357L52.9939 46.2639L53.0075 46.2783C53.6767 46.9495 53.6213 48.2639 52.8942 49.0419C52.0628 49.8624 50.8315 49.9707 50.1443 49.2812L43.9146 43.3922L43.3105 44.031L42.847 44.4935L48.8774 50.5295C49.5666 51.2208 49.4551 52.4534 48.6285 53.2764C48.2152 53.6878 47.6918 53.933 47.1541 53.9659C46.6531 53.9969 46.2003 53.8366 45.8793 53.5144L39.7163 47.3373L38.6413 48.4091L44.71 54.6905L44.7184 54.6989C45.0391 55.0209 45.1979 55.4741 45.1651 55.9748C45.1296 56.5121 44.8829 57.0344 44.4697 57.4461C44.0563 57.8574 43.5326 58.1024 42.9949 58.1355C42.494 58.1667 42.0411 58.0064 41.72 57.6841L41.0625 57.0251C42.293 55.735 42.2706 53.6854 40.9994 52.4239C40.3792 51.808 39.5561 51.4695 38.682 51.4695C38.4679 51.4695 38.2568 51.49 38.0512 51.5297C38.1598 50.5648 37.8438 49.5615 37.1025 48.8259C36.4823 48.2102 35.6592 47.8711 34.785 47.8711C34.5758 47.8711 34.3699 47.8912 34.169 47.9291C34.1818 47.808 34.1888 47.6857 34.1882 47.5624C34.1851 46.6839 33.8401 45.8594 33.2165 45.2409C32.596 44.625 31.7729 44.286 30.8986 44.286C30.647 44.286 30.3998 44.3151 30.1597 44.3696C30.1803 44.2198 30.1903 44.0673 30.19 43.9135C30.1868 43.0353 29.8418 42.2109 29.2182 41.592C28.5975 40.9763 27.7747 40.6373 26.9007 40.6373C26.0175 40.6373 25.1884 40.9823 24.5662 41.6085L21.6238 44.5711L21.8417 44.3197C21.0139 43.6013 18.7147 41.4768 18.0242 40.2911C17.9883 40.23 17.9518 40.1693 17.9147 40.1088C14.9543 35.2309 15.4341 30.5546 19.3031 26.5853C22.071 23.7454 25.2395 23.3213 27.4098 23.4659C30.2857 23.6573 32.6008 24.8772 33.7097 25.8638C34.0794 26.1928 34.7108 26.7948 35.5889 27.6553C31.501 31.6804 26.4523 36.9318 26.161 37.2347L25.6558 37.7604L25.6558 37.7605ZM25.6438 42.678C25.9785 42.3408 26.425 42.1551 26.9007 42.1551C27.3713 42.1551 27.8147 42.3376 28.1486 42.669C28.4842 43.0025 28.6703 43.446 28.6717 43.9191C28.6732 44.3921 28.491 44.8373 28.1578 45.1729L23.5221 49.8397C23.1874 50.177 22.7407 50.3626 22.2653 50.3626C21.7944 50.3626 21.3513 50.1801 21.0171 49.8486C20.6814 49.5154 20.4956 49.0716 20.4941 48.5989C20.4922 48.1254 20.6748 47.6805 21.0082 47.3447L25.6438 42.678ZM28.6717 43.9192V43.9191V43.919V43.9192ZM29.6417 46.3268C29.9766 45.9893 30.4231 45.8039 30.8988 45.8039C31.3695 45.8039 31.8126 45.9863 32.1466 46.3177C32.4824 46.651 32.6683 47.095 32.6698 47.5679C32.6715 48.0409 32.4889 48.486 32.1557 48.8218L27.52 53.4883C27.1853 53.8259 26.7388 54.0114 26.2632 54.0114C25.7924 54.0114 25.3493 53.8289 25.0155 53.4975C24.6798 53.1639 24.4938 52.7202 24.4921 52.2473C24.4904 51.7745 24.673 51.3292 25.0063 50.9936L29.6418 46.3268H29.6417ZM33.5274 49.912C33.8628 49.5747 34.3093 49.389 34.7847 49.389C35.2552 49.389 35.6987 49.5716 36.0326 49.9029V49.9031C36.7258 50.5909 36.7298 51.7141 36.0417 52.407L31.4064 57.0737C31.0712 57.411 30.6249 57.5967 30.1493 57.5967C29.6787 57.5967 29.2355 57.4141 28.9014 57.0828C28.5657 56.7492 28.3799 56.3056 28.3781 55.8326C28.3763 55.3596 28.5591 54.9147 28.8924 54.5787L33.5274 49.912ZM37.4246 53.5101C37.7597 53.1727 38.206 52.987 38.6818 52.987C39.1525 52.987 39.5956 53.1695 39.9295 53.5009H39.9297C40.6227 54.1888 40.6268 55.3121 39.9387 56.0048L35.3031 60.6716C34.968 61.0087 34.5217 61.1947 34.0463 61.1947C33.5756 61.1947 33.1323 61.0124 32.7984 60.6804C32.4627 60.3476 32.2768 59.9036 32.2751 59.4306C32.2732 58.9577 32.4558 58.5125 32.7896 58.1769L37.4246 53.5101ZM40.5163 58.9526C41.2057 59.6447 41.1059 60.8649 40.294 61.6735C39.482 62.4821 38.2607 62.5771 37.5708 61.8854L36.9027 61.2152L39.8318 58.2664L40.5163 58.9526Z" fill="#67DC77"/>
</g>
</g>
</svg>
