<svg width="73" height="80" viewBox="0 0 73 80" fill="none" xmlns="http://www.w3.org/2000/svg">
<g id="Group 459">
<path id="Polygon 1" opacity="0.15" d="M30.3559 1.56846C33.9781 -0.522818 38.4408 -0.522819 42.063 1.56845L66.5654 15.7149C70.1876 17.8062 72.4189 21.671 72.4189 25.8536V54.1465C72.4189 58.329 70.1876 62.1938 66.5654 64.2851L42.063 78.4315C38.4408 80.5228 33.9781 80.5228 30.3559 78.4315L5.85356 64.2851C2.23136 62.1938 0 58.329 0 54.1465V25.8536C0 21.671 2.23136 17.8062 5.85355 15.7149L30.3559 1.56846Z" fill="#EE6112"/>
<path id="Vector" d="M50.0936 23.8938H41.678C40.8324 21.5584 38.6178 19.8672 36.0005 19.8672C33.3832 19.8672 31.1686 21.5584 30.323 23.8938H21.9074C19.6928 23.8938 17.8809 25.7057 17.8809 27.9203V56.1065C17.8809 58.3211 19.6928 60.133 21.9074 60.133H50.0936C52.3082 60.133 54.1201 58.3211 54.1201 56.1065V27.9204C54.1202 25.7057 52.3082 23.8938 50.0936 23.8938ZM36.0005 23.8938C37.1078 23.8938 38.0138 24.7997 38.0138 25.9071C38.0138 27.0144 37.1078 27.9204 36.0005 27.9204C34.8932 27.9204 33.9872 27.0144 33.9872 25.9071C33.9872 24.7997 34.8932 23.8938 36.0005 23.8938ZM40.0271 52.0799H25.934V48.0533H40.0271V52.0799ZM46.067 44.0267H25.934V40.0001H46.067L46.067 44.0267ZM46.067 35.9736H25.934V31.947H46.067L46.067 35.9736Z" fill="#FFA16C"/>
</g>
</svg>
