<svg width="73" height="80" viewBox="0 0 73 80" fill="none" xmlns="http://www.w3.org/2000/svg">
<g id="Group 459">
<g id="Group 458">
<path id="Polygon 1" opacity="0.15" d="M30.3559 1.56846C33.9781 -0.522818 38.4408 -0.522819 42.063 1.56845L66.5654 15.7149C70.1876 17.8062 72.4189 21.671 72.4189 25.8536V54.1465C72.4189 58.329 70.1876 62.1938 66.5654 64.2851L42.063 78.4315C38.4408 80.5228 33.9781 80.5228 30.3559 78.4315L5.85356 64.2851C2.23136 62.1938 0 58.329 0 54.1465V25.8536C0 21.671 2.23136 17.8062 5.85355 15.7149L30.3559 1.56846Z" fill="#1C58CB"/>
<path id="Vector" d="M55.2832 39.38L37.2832 21.38C37.0291 21.1362 36.6905 21 36.3382 21C35.986 21 35.6474 21.1362 35.3932 21.38L17.3932 39.38C17.2093 39.5631 17.0828 39.7957 17.029 40.0496C16.9752 40.3034 16.9966 40.5674 17.0905 40.8093C17.1844 41.0512 17.3467 41.2605 17.5577 41.4116C17.7686 41.5626 18.019 41.649 18.2782 41.66H21.1132V57.005C21.115 57.7034 21.3801 58.3755 21.8555 58.8871C22.331 59.3987 22.9818 59.7122 23.6782 59.765H48.8782C49.5653 59.6982 50.2032 59.3791 50.6687 58.8693C51.1341 58.3595 51.3941 57.6953 51.3982 57.005V41.66H54.3982C54.6575 41.649 54.9079 41.5626 55.1188 41.4116C55.3298 41.2605 55.4921 41.0512 55.586 40.8093C55.6799 40.5674 55.7013 40.3034 55.6475 40.0496C55.5937 39.7957 55.4671 39.5631 55.2832 39.38ZM43.8532 54.545C43.8532 54.7678 43.7647 54.9815 43.6072 55.139C43.4497 55.2965 43.236 55.385 43.0132 55.385H29.5132C29.2905 55.385 29.0768 55.2965 28.9193 55.139C28.7617 54.9815 28.6732 54.7678 28.6732 54.545V53.045C28.6732 52.8222 28.7617 52.6086 28.9193 52.451C29.0768 52.2935 29.2905 52.205 29.5132 52.205H43.0132C43.236 52.205 43.4497 52.2935 43.6072 52.451C43.7647 52.6086 43.8532 52.8222 43.8532 53.045V54.545ZM43.8532 47.375C43.8494 47.5966 43.7596 47.808 43.6029 47.9647C43.4462 48.1214 43.2348 48.2112 43.0132 48.215H29.5132C29.2917 48.2112 29.0802 48.1214 28.9235 47.9647C28.7668 47.808 28.6771 47.5966 28.6732 47.375V45.875C28.6732 45.6522 28.7617 45.4386 28.9193 45.281C29.0768 45.1235 29.2905 45.035 29.5132 45.035H43.0132C43.236 45.035 43.4497 45.1235 43.6072 45.281C43.7647 45.4386 43.8532 45.6522 43.8532 45.875V47.375Z" fill="#679CFF"/>
</g>
</g>
</svg>
