<svg xml:space="preserve" style="enable-background:new 0 0 4000 4000;" viewBox="0 0 4000 4000" y="0px" x="0px" xmlns:xlink="http://www.w3.org/1999/xlink" xmlns="http://www.w3.org/2000/svg" id="Layer_1" version="1.1">
<style type="text/css">
	.st0{fill:url(#SVGID_1_);}
	.st1{fill:url(#SVGID_2_);}
	.st2{fill:#FFFFFF;}
	.st3{fill:#DBD2DB;}
	.st4{fill:#B5AEB5;}
	.st5{fill:#3B546B;}
	.st6{fill:#6584C6;}
	.st7{fill:#106347;}
	.st8{fill:#127755;}
	.st9{fill:#287A62;}
	.st10{fill:#339E7E;}
	.st11{fill:#FFDE70;}
	.st12{fill:#FFB114;}
	.st13{fill:#B0A9B0;}
	.st14{fill:#D9D9D9;}
	.st15{fill:#CCCCCC;}
	.st16{fill:#C7C7C7;}
	.st17{fill:#B080B0;}
	.st18{fill:#102140;}
	.st19{fill:#EB485C;}
	.st20{fill:#EF5668;}
	.st21{fill:#DBBCBC;}
	.st22{fill:#D1334A;}
	.st23{fill:#FC9590;}
	.st24{fill:#DB6767;}
	.st25{fill:url(#SVGID_3_);}
	.st26{fill:url(#SVGID_4_);}
	.st27{fill:url(#SVGID_5_);}
	.st28{fill:url(#SVGID_6_);}
	.st29{fill:#E6E6E6;}
	.st30{fill:#E4E4F5;}
	.st31{fill:#1A1A1A;}
	.st32{fill:#1B51C6;}
</style>
<g>
	<linearGradient y2="2494.1162" x2="3857.2593" y1="2494.1162" x1="441.3069" gradientUnits="userSpaceOnUse" id="SVGID_1_">
		<stop style="stop-color:#4085F0" offset="0"></stop>
		<stop style="stop-color:#275DC9" offset="1"></stop>
	</linearGradient>
	<path d="M475.5,2608.9c-169.1,161.2,328,662.6,649,702.7c237.9,29.7,73.1,68,540.3,266.7
		c629,324.7,912.2,308.5,1053.5,225.8c189.5-110.9,113-334.9,356.3-480.6c256-153.2,117.8-429.1,306.3-577.7
		c175.1-138.1,563-533.9,458.9-732.4c-156-297.8-471.4,302.9-642.7,19.9c-194.9-322.1,68-607.7-157.1-787
		c-24.1-19.2-84-61.2-425.2-90.3c-261.8-22.3-616.9-49.9-1122.5,38.7c-453.4,79.5-699.3,122.6-789.2,287.1
		c-68.1,124.6,0.5,232.5-111.1,338.7C471.1,1935.4,559.6,2528.7,475.5,2608.9z" class="st0"></path>
	<linearGradient y2="3416.21" x2="2129.3306" y1="150.5434" x1="2066.6777" gradientUnits="userSpaceOnUse" id="SVGID_2_">
		<stop style="stop-color:#68B2FC" offset="0"></stop>
		<stop style="stop-color:#529BF7" offset="1"></stop>
	</linearGradient>
	<path d="M621.4,1208.6c-8.4-50.4-67.7-450.6,223.2-769.4c18.6-20.4,283.6-301.9,669.6-293.7
		c341,7.3,622.7,237.5,681.3,287.8c47.9,41.1,81.3,77.5,152.7,117.5c189.5,106.2,293.4,40.3,452.3,94
		c294.8,99.7,427.2,492.7,466.9,610.8c54.6,162.2,21.3,179.6,85.2,331.9c93.3,222.5,201.1,272.8,287.8,428.8
		c147.9,266,83.6,567.6,67.5,643.1c-108.8,510.7-632,756.2-810.5,839.9c-134.1,62.9-691.2,313.2-1330.3,70.5
		c-652.4-247.7-907.3-825.5-977-1008.3C340.3,1905.8,568.9,1332,621.4,1208.6z" class="st1"></path>
	<path d="M3707.9,2659.4c-108.8,510.7-632,756.2-810.5,839.9c-134.1,62.9-691.1,313.2-1330.3,70.5
		c-652.4-247.7-907.3-825.5-977-1008.3C480.5,2273.9,463,2002,482.3,1777c174.3,225.1,458.1,458.7,901.1,510.4
		c905.4,105.5,1282.6-99.2,1611.8,154c229.1,176.2,548.2-24.1,721.2-219.1C3758.6,2421.3,3719.9,2603.1,3707.9,2659.4z" class="st2"></path>
	<path d="M3699.7,2694.6c-124.7,486.8-627.9,722.9-802.3,804.7c-134.1,62.9-691.1,313.2-1330.3,70.5
		c-534.8-203-802.5-627.9-920-875.1H3699.7z" class="st3"></path>
	<ellipse ry="37.7" rx="113.9" cy="3041.8" cx="2872.2" class="st4"></ellipse>
	<path d="M1581.7,2694.6c0,0-14.4,71,182.9,61s26.8-64.9,218.4-55.7c191.6,9.1,283-7.3,256.9,25.7
		c-26.1,33-82.2,133.5-82.2,133.5s122.7,3.3,201-56.4c78.3-59.7,142.3-108,142.3-108H1581.7z" class="st4"></path>
	<path d="M1773.9,3073.9c0,0,48.4-15.4,171.5-11.5c123.1,3.9,136.7,48.4,160.1,62.2c23.4,13.7,33.5,15.1,72.8,11.1
		c39.3-3.9,125.5-10.4,129.4,20.9c3.9,31.3-9.7,59.2,51.3,41.3c61-17.8,256.7-146.2,252.8-174.7c-3.9-28.5-121.7-85-172.6-95.4
		c-50.9-10.4-65.3-77.9-190.4-32.2C2123.7,2941.3,1708.7,3056.5,1773.9,3073.9z" class="st4"></path>
	<g>
		<g>
			<path d="M1175.6,3145.9l-1.2-0.1l-244.8-22.4C748.8,2917.7,645.9,2704,591.4,2561c-31.8-83.4-57.3-169.7-75.8-256.4
				l783.4,79.4l134,785.6L1175.6,3145.9z" class="st2"></path>
			<path d="M517.3,2306.2l780.5,79.1l133.5,782.8l-254.2-23.3v0l-2.5-0.2L930.3,3122c-180.4-205.4-283.2-418.7-337.6-561.5
				C561.1,2477.8,535.8,2392.2,517.3,2306.2 M513.8,2303c17.9,84.1,42.8,170.6,76.3,258.5c39.7,104.1,139.5,336.5,338.7,563l0.1,0.1
				l245.3,22.5v0l260.3,23.9l-134.4-788.4L513.8,2303L513.8,2303z"></path>
		</g>
		<g>
			<path d="M1329.6,3454.9c-19.3-11.3-38.7-23.2-57.6-35.3c-45.7-29.4-90.6-61.7-133.4-96l64.4-53.4l-13.2-59.2
				l340,43.6l4.4,60.1L1329.6,3454.9z" class="st2"></path>
			<path d="M1191.7,3212.5l336.9,43.2l4.3,58.2l-203.3,139.4c-19.1-11.2-38.1-22.9-56.8-34.9c-45.2-29.1-89.6-61-131.9-94.9
				l62.5-51.8l1.3-1.1l-0.4-1.6L1191.7,3212.5 M1188.1,3209.2l13.5,60.3l-65.1,54c42,33.8,86.9,66.3,134.8,97.1
				c19,12.2,38.4,24.2,58.4,35.8l206-141.2l-4.6-62L1188.1,3209.2L1188.1,3209.2z"></path>
		</g>
		<g>
			<path d="M1174.3,3147.2L1174.3,3147.2l-245.3-22.5l-0.1-0.1c-199.2-226.5-299.1-458.9-338.7-563
				c-33.5-87.9-58.4-174.4-76.3-258.5l786.3,79.6l134.4,788.4L1174.3,3147.2z" class="st5"></path>
			<polygon points="1300.1,2382.7 1349.7,2377.5 1466.7,3145.7 1434.6,3171" class="st6"></polygon>
			<g>
				<path d="M1097.8,3293.3c-8.3-6.5-16.5-13.3-24.7-20.4c-28.3-24.3-56.6-51.7-85.5-82.9c28,28.7,56.8,56.2,86.3,82.4
					C1081.8,3279.5,1089.8,3286.4,1097.8,3293.3z" class="st2"></path>
				<path d="M929.4,3125.2c46.1,56.1,93.6,106.5,142.9,148.8c21,18,42.3,34.5,64,49.4c-21.2-17-41.7-34.4-61.4-51.9
					C1021.4,3223.9,973,3174.7,929.4,3125.2L929.4,3125.2z"></path>
			</g>
			<path d="M1201.6,3269.6l-65.1,54c-0.1-0.1-0.2-0.1-0.2-0.2c-21.2-17-41.7-34.4-61.4-51.9
				c-53.5-47.5-101.9-96.8-145.5-146.3c-0.2-0.2-0.3-0.4-0.4-0.5l245.3,22.5v0l13.9,62.1L1201.6,3269.6z" class="st6"></path>
			<g>
				<path d="M1097.8,3293.3c-7.9-6.2-15.7-12.7-23.5-19.4c0.2-0.2,0.4-0.4,0.6-0.6
					C1082.5,3280.1,1090.1,3286.7,1097.8,3293.3z" class="st2"></path>
				<path d="M1074.9,3271.5c-0.9,0.8-1.7,1.7-2.6,2.5c21,18,42.3,34.5,64,49.4C1115.1,3306.4,1094.6,3289,1074.9,3271.5
					L1074.9,3271.5z"></path>
			</g>
			<path d="M1531.2,3253.3l-259.8,167.4c-47.9-30.8-92.8-63.4-134.8-97.1l65.1-54l-13.5-60.3L1531.2,3253.3z" class="st5"></path>
			<path d="M1535.7,3315.3l-206,141.2c-19.9-11.6-39.4-23.6-58.4-35.8l259.8-167.4L1535.7,3315.3z" class="st6"></path>
		</g>
	</g>
	<g>
		<path d="M2455.5,3499.7c-2.1,3.3-4,6.4-5.5,9.4c214.1-28.9,325.6-8,383.4,18.9c26.7-11.4,48.3-21.4,64-28.7
			c10-4.7,21.2-9.9,33.3-15.7c-42.6-13.6-89.2-18.6-131.6-22.5C2681.5,3453.6,2559.4,3441.6,2455.5,3499.7z" class="st7"></path>
		<path d="M3092,3400.1c-48.5-22.7-95.5-38.3-140.6-48c-255.4-55-449.1,76.1-495.8,147.6
			c103.9-58.1,226-46.1,343.6-38.6c42.4,3.9,88.9,8.9,131.6,22.5c31.7-15.1,69.9-33.8,112.3-56.5
			C3058.7,3418.7,3075.1,3409.7,3092,3400.1z" class="st8"></path>
		<path d="M2807.3,3211.2c-48.1-10.5-94.6-1.8-140.7,1.7c75.7,16.4,258.8,62.4,279.4,126c1.5,4.6,3.3,9,5.4,13.2
			c18.5,38.1,58.8,61.6,91.6,75c15.8-8.5,32.2-17.5,49.1-27.1c10.9-6.2,22.1-12.8,33.4-19.5c-0.7-0.6-1.5-1.2-2.2-1.8
			C3029.8,3299.1,2928.2,3238.7,2807.3,3211.2z" class="st9"></path>
		<path d="M3209.4,3327.6c-21.9-56.5-61.8-94-110.8-118.2c-174.6-86.2-464.5-3.1-464.5-3.1s12.5,2.3,32.6,6.6
			c46.1-3.5,92.6-12.2,140.7-1.7c120.8,27.5,222.5,87.9,315.8,167.5c0.7,0.6,1.5,1.2,2.2,1.8c13.9-8.3,28-16.8,42.2-25.8
			C3181.4,3346,3195.3,3337,3209.4,3327.6z" class="st10"></path>
		<path d="M3105.7,2912.2c-4.9,1-7.7,1.7-7.7,1.7s21.6,139,2.1,256.3c-2.2,13.2-2.6,26.3-1.5,39.1
			c4.9,58.7,40.3,111.8,69,145.4c13.8-8.7,27.7-17.8,41.7-27.2c23.3-15.6,46.9-32.3,70.5-49.9
			C3276,3134.5,3227.2,2990.7,3105.7,2912.2z" class="st8"></path>
		<path d="M3336.7,3184.3c-3.2-66.5-15.7-152.1-42.8-209.7c-14.1-29.9-37.3-47.3-62.9-57.1
			c-48.2-18.4-104.9-9.5-125.2-5.3c121.6,78.6,170.3,222.4,174.2,365.5c19.2-14.4,38.4-29.4,57.5-45.2
			C3337.7,3218.3,3337.5,3202,3336.7,3184.3z" class="st7"></path>
		<path d="M3418.7,3082.3c-1.1,30.4-2.3,57.8-3.4,80.7c-14.2,13.7-28.6,27-43.2,39.8c-7.8-71.2-20.1-198.6-34.6-400.2
			c-19.9-276.7-134.7-454-180-514c19.3,13.8,194.5,143.1,247.1,322.4c7.9,26.8,13,54.8,14.5,83.6
			C3425.6,2822.1,3422.6,2972.3,3418.7,3082.3z" class="st10"></path>
		<path d="M3372.1,3202.8c-2.4,2.1-4.8,4.3-7.3,6.3c-4.1,3.6-8.2,7.1-12.3,10.6c-4.7-10.3-10-22.2-15.9-35.5
			c0,0,0,0,0,0c-30.4-68.8-74.2-172.4-105.7-266.8c-9.8-29.3-18.5-57.7-25.2-83.9c-33-129.1-44.7-381.3-48.4-491.9
			c-1.1-33.7-1.5-54.3-1.5-54.3s0.6,0.4,1.7,1.2c45.3,60,160.1,237.4,180,514C3352,3004.3,3364.3,3131.6,3372.1,3202.8z" class="st9"></path>
		<path d="M3539.9,2320.3c-19.4,24.1-95.7,126.2-135.2,290.7c-29.7,123.9-38.4,283.3,14,471.3
			c5.4,19.5,11.5,39.2,18.3,59.3c22.8-23,44.9-47.1,66.1-72.5c-0.4-5.7-0.7-11.5-0.9-17.3C3497,2807.4,3489.3,2560.4,3539.9,2320.3z" class="st9"></path>
		<path d="M3616.7,2613.7c-19.4-185.9-72.2-298.9-72.2-298.9s-1.7,1.9-4.6,5.5c-50.5,240.1-42.9,487.1-37.7,731.6
			c0.2,5.8,0.5,11.5,0.9,17.3c38.3-45.7,73.7-95.3,104.5-149c2.4-4.1,4.7-8.2,6.9-12.3v-0.1
			C3627.4,2797.3,3625.5,2698,3616.7,2613.7z" class="st10"></path>
		<path d="M3725.2,2562.2C3725.2,2562.2,3725.2,2562.2,3725.2,2562.2c-6,44.1-13.2,78-17.3,97.2
			c-19.4,91.1-52,173.7-93.5,248.5v0.1c-2.3,4.1-4.6,8.2-6.9,12.3c-16.3-75.9-11.3-206.6,9.1-306.5c13.1-64,32.6-115.4,57-131.5
			C3700,2505.8,3716.1,2537.9,3725.2,2562.2z" class="st8"></path>
	</g>
	<g>
		<g>
			<rect height="234.9" width="534.5" class="st11" y="603.7" x="1632.6"></rect>
			<rect height="100.5" width="114.9" class="st12" y="662.4" x="1666.9"></rect>
			<polygon points="1545.5,838.6 1545.5,686.9 1632.6,603.7 1632.6,838.6" class="st12"></polygon>
			<rect height="263.8" width="38.2" class="st12" y="588" x="1867.6"></rect>
		</g>
		<g>
			<path d="M3090.6,882.7H1392V821h1651.6C3060.2,840.9,3075.9,861.6,3090.6,882.7z" class="st2"></path>
			<polygon points="1392,821 1091.3,1114 1091.3,1162.3 1392,882.7" class="st13"></polygon>
			<path d="M3231.1,1154.3l-2139.8,8L1392,882.7h1698.6C3155.2,975.5,3200.8,1076.3,3231.1,1154.3" class="st14"></path>
		</g>
		<g>
			<rect height="234.9" width="534.5" class="st11" y="1185.1" x="1643.9"></rect>
			<rect height="24.1" width="61.3" class="st2" y="1193" x="1944.3"></rect>
			<rect height="30.7" width="74.4" class="st2" y="1196.9" x="2083.3"></rect>
			<rect height="57.5" width="52.1" class="st2" y="1258.8" x="2105.6"></rect>
			<rect height="68.3" width="52.1" class="st2" y="1327" x="2105.6"></rect>
			<polygon points="1556.8,1420.1 1556.8,1268.3 1643.9,1185.1 1643.9,1420.1" class="st12"></polygon>
			<rect height="263.8" width="38.2" class="st12" y="1169.5" x="1878.8"></rect>
		</g>
		<g>
			<rect height="143.5" width="342.9" class="st11" y="1258.8" x="2356.8"></rect>
			<path d="M2305.6,1402.3c0,0,1.2-94.9,0-96.9c-1.2-2,51.2-46.7,51.2-46.7v143.5H2305.6z" class="st12"></path>
			<rect height="150.6" width="20.4" class="st12" y="1251.7" x="2512.6"></rect>
		</g>
		<g>
			<path d="M3303.1,1401.8h-319.2V1100h225.1c28.2,65.5,47.1,121.8,58.5,155.6
				C3289.9,1322.4,3297.5,1364.6,3303.1,1401.8z" class="st11"></path>
			<rect height="55.5" width="107.7" class="st2" y="1133.6" x="3030.9"></rect>
			<rect height="8.8" width="107.7" class="st2" y="1205.7" x="3030.9"></rect>
			<path d="M2889.5,1401.7c0,0,2.2-199.5,0-203.6c-2.2-4.1,94.3-98.1,94.3-98.1v301.7H2889.5z" class="st12"></path>
		</g>
		<g>
			<path d="M3313.1,1464.1H1407.7v-61.7h1895.5C3306.3,1423.4,3308.9,1442.8,3313.1,1464.1z" class="st2"></path>
			<polygon points="1407.7,1402.5 1101.6,1625.4 1101.6,1667.5 1407.7,1464.1" class="st13"></polygon>
			<path d="M3378.7,1644.7l-2277.1,22.8l306.1-203.4h1905.5c6.5,32.5,16.9,69.5,39.5,123.3
				C3361.2,1607.9,3369.9,1626.9,3378.7,1644.7z" class="st15"></path>
		</g>
		<g>
			<rect height="175.6" width="419.6" class="st11" y="1715.5" x="2667"></rect>
			<rect height="35.9" width="143.6" class="st2" y="1725.8" x="2923.5"></rect>
			<rect height="39.2" width="39.2" class="st2" y="1768.9" x="3027.9"></rect>
			<rect height="37.9" width="43.1" class="st2" y="1834.8" x="3027.9"></rect>
			<path d="M2604.4,1891.1c0,0,1.4-116.1,0-118.5c-1.4-2.4,62.6-57.1,62.6-57.1v175.6H2604.4z" class="st12"></path>
			<rect height="184.3" width="25" class="st12" y="1706.9" x="2857.7"></rect>
		</g>
		<g>
			<path d="M3552.9,1891.1h-334.4v-175.6h199.4c44.2,71.5,89.7,120.8,133.2,173.5
				C3551.7,1889.7,3552.3,1890.4,3552.9,1891.1z" class="st11"></path>
			<path d="M3155.9,1891.1c0,0,1.4-116.1,0-118.5c-1.4-2.4,62.6-57.1,62.6-57.1v175.6H3155.9z" class="st12"></path>
		</g>
		<polygon points="2340.4,1891.4 2438.9,1818.2 2442.2,1891.4" class="st12"></polygon>
		<polygon points="2604.3,1820.8 2438.9,1818.2 2442.2,1891.4 2604.4,1891.1" class="st11"></polygon>
		<g>
			<path d="M3598.9,1950.7h-2156V1889h2108.2c0.6,0.7,1.2,1.4,1.8,2.1C3568.5,1910.1,3583.9,1929.5,3598.9,1950.7z" class="st2"></path>
			<polygon points="1442.9,1889 1073.7,2033.9 1073.7,2076 1442.9,1950.7" class="st13"></polygon>
			<path d="M3659.7,2053.5l-2586,22.4l369.2-125.3h2156c14.2,20,28.1,41.6,41.5,65.6
				C3647.3,2028.6,3653.7,2041,3659.7,2053.5z" class="st16"></path>
		</g>
		<rect height="458.1" width="52.9" class="st17" y="944.3" x="1464.3"></rect>
		<rect height="372.5" width="52.9" class="st17" y="1518.9" x="1464.3"></rect>
		<rect height="664.1" width="52.9" class="st17" y="2028.1" x="1464.3"></rect>
		<rect height="458.1" width="52.9" class="st3" y="944.3" x="1490.7"></rect>
		<rect height="372.5" width="52.9" class="st3" y="1518.9" x="1490.7"></rect>
		<rect height="664.1" width="52.9" class="st3" y="2028.1" x="1490.7"></rect>
		<rect height="458.1" width="52.9" class="st17" y="944.3" x="2659.5"></rect>
		<rect height="372.5" width="52.9" class="st17" y="1518.9" x="2659.5"></rect>
		<rect height="664.1" width="52.9" class="st17" y="2028.1" x="2659.5"></rect>
		<rect height="458.1" width="52.9" class="st3" y="944.3" x="2686"></rect>
		<rect height="372.5" width="52.9" class="st3" y="1518.9" x="2686"></rect>
		<rect height="664.1" width="52.9" class="st3" y="2028.1" x="2686"></rect>
	</g>
	<g>
		<path d="M1624.8,2176.8c0,0-55.8-88.1,26.4-201.7c82.2-113.6,105.7-103.8,144.9-265.3c39.2-161.5,70.7-279,213-241.8
			c69.9-48,159.9-28.4,195.2,91c35.2,119.4-10.8,231.2-69.5,251.2c-58.7,20-89.1,127.6-89.1,127.6L1624.8,2176.8z" class="st18"></path>
		<path d="M2148.2,2634.5c-30.2-54.9-13.7-115.3-30.2-173c-33-109.9-167.5-126.3-266.4-159.3
			c-43.9-15.3-93-51.7-115.3-99.2c-4.3,193.6,16.8,422.4,16.8,468.2c0,8.8,0.7,16.6,2,23.5h477
			C2197.2,2686.5,2166.9,2668.7,2148.2,2634.5z" class="st19"></path>
		<path d="M2269.9,2547.8c37.2-168.4,31.3-591.3-41.1-624.6c-72.4-33.3-297.9-36.1-420-4.9
			c-51.7,13.2-69.3,139-72.6,284.6c22.3,47.5,71.4,84,115.3,99.2c98.9,33,233.4,49.4,266.4,159.3c16.5,57.7,0,118.1,30.2,173
			c18.8,34.2,49,52,83.9,60.1h13.4C2248.1,2663.2,2254.8,2616.4,2269.9,2547.8z" class="st20"></path>
		<path d="M2039.5,2021.1c0,0-43.1,10.4-54.2,50.3c-49.6-17.6-118.2-173.6-118.2-173.6l80.3-17.6
			C1947.5,1880.2,1991.9,1999.6,2039.5,2021.1z" class="st11"></path>
		<g>
			<path d="M2427.9,2878.1l-285.8,220.4c24.1-6.9,69.7-42.2,102.3-42.2c33.6,0,80.1,63.7,84.2,115.1l272.1-201.7
				C2602.7,2872.3,2495,2870.1,2427.9,2878.1z" class="st2"></path>
			<path d="M2328.7,3171.4c1,13.1,0.1,26.6-3.3,40.1c24.1,1,270.5-205.6,270.5-205.6c3.1-13.4,4.7-25.4,4.9-36.2
				L2328.7,3171.4z" class="st2"></path>
			<path d="M2375.6,2887.5l-259,196.3l14.3,18.1c0,0,4.2-1.3,11.2-3.3l285.8-220.4
				C2397.7,2881.8,2375.6,2887.5,2375.6,2887.5z" class="st14"></path>
			<path d="M1802,3068.6c0,0,185.3-112.9,316.5,43.7c29.4,6.5,29.4,6.5,29.4,6.5s56.6-75.2,108.8-51.7
				c52.2,23.5,74.5,88.5,62.2,139.1l6.5,5.3c0,0,34.1-40.1-5.4-105.7c-46.4-77.2-116-63.3-176-19.6c-23.5,2-23.5,2-23.5,2
				s-105.1-135.1-318.5-26.8C1802,3068.6,1802,3068.6,1802,3068.6z" class="st21"></path>
			<path d="M2095.7,2861L1802,3061.4c116.9-62.9,213.4-35.8,267.5-8.3l280.4-215C2265.6,2727.7,2095.7,2861,2095.7,2861
				z" class="st2"></path>
			<path d="M2375.6,2887.5c-7.1-20.2-15.8-36.4-25.7-49.4l-280.4,215c30.1,15.3,47.1,30.7,47.1,30.7
				S2176.8,3038.2,2375.6,2887.5z" class="st2"></path>
		</g>
		<path d="M1723,2441.4c22.2-174.9,100.5-372,100.5-372l87.5,13c0,0-18.3,639.6-201,638.3
			c-182.7-1.3-103.1-631.7-54.8-715.3c24.1-41.8,98.2-70.9,166.3-89.6" class="st20"></path>
		<path d="M1771.7,2222.1c-8.7,29.2-17.4,61.1-25.2,94l-22.6,120.8c0.1-1.2,0.1-2.5,0.2-3.7c0,0,0,0,0-0.1
			c8.4-133.7,42.7-300.4,42.7-300.4c-1.3,20.8-0.3,43,1.9,64.9C1769.5,2205.8,1770.5,2214.1,1771.7,2222.1z" class="st22"></path>
		<path d="M1855.8,2062.2c0,0-98.1,218-132.7,386.5c16-153.7,84.8-384.9,103.4-395.5
			C1845.1,2042.7,1855.8,2062.2,1855.8,2062.2z" class="st19"></path>
		<path d="M1724.1,2433.2c-0.1,1.2-0.2,2.5-0.2,3.7l-0.9,4.5C1723.4,2438.7,1723.7,2435.9,1724.1,2433.2z" class="st20"></path>
		<path d="M1897.5,2080.5c-1.4,17.5-4.4,55.8-9.2,121.9c-7,96.4-98.9,600.3-223.4,471.2c-89-92.4-16.3-373.1-4.6-532.4
			c7.5-101.6,57-167.9,91.8-202.6c-43.4,17.2-81.1,39.3-97.1,66.8c-48.3,83.5-127.9,714,54.8,715.3c182.7,1.3,201-638.3,201-638.3
			L1897.5,2080.5z" class="st22"></path>
		<path d="M2205.9,2799.3c-7.4-3.7-17.1-5.7-27.5-6.1c-38.7,25.6-81.5,45.6-123.8,55.5
			c-96.9,22.7-106.1,28.6-138.7,63.9c-32.6,35.2-57.7,118.9-31.6,100.6c11-5.8,41.2-72.5,61.7-74.7c20.8-2.3,2.7,45.5,39.5,43.4
			c72.9-4.2,134.4-44.4,173.6-75.4c14.1-11.2,48.6-31.1,89.9-55.9C2241.2,2828.6,2226,2809.4,2205.9,2799.3z" class="st23"></path>
		<path d="M2382.5,2107.3c-31.3-182.1-194.8-195.8-195.8-197.8l0.1,0.9c16.9,3.6,31.1,7.9,42,12.9
			c55.2,25.3,71.7,276.9,60,469.7c1.9,6,3.9,12.1,5.9,18.5c41.7,131.8,48.3,188,2.3,263.7c-25.9,42.6-68.8,85.1-118.6,118.1
			c10.4,0.4,20,2.4,27.5,6.1c20.2,10.1,35.3,29.3,43,51.2c73.5-44.2,168.5-104,208-158C2518.4,2608,2413.8,2289.4,2382.5,2107.3z" class="st20"></path>
		<path d="M2375.6,2571.3c-6.9-81.7-83.2-138.1-83.2-394.5c-0.4,32.5-1.7,185.4-3.6,216.2c1.9,6,3.9,12.1,5.9,18.5
			c41.7,131.8,48.3,188,2.3,263.7c-25.9,42.6-68.8,85.1-118.6,118.1c10.4,0.4,20,2.4,27.5,6.1c0.1,0.1,0.2,0.1,0.4,0.2
			C2262.7,2765.2,2384.7,2678.4,2375.6,2571.3z" class="st22"></path>
		<path d="M2096,1862.7c10.9-21.9,16.5-45.3,19.3-69.7l-158.6,17.2c0,0,18.3,54.9,7.1,102.3
			C2009.7,1931.5,2075.8,1905.4,2096,1862.7z" class="st24"></path>
		<path d="M2130.3,1791.4l-15,1.6c-2.8,24.4-8.4,47.8-19.3,69.7c-20.2,42.7-86.3,68.8-132.3,49.9
			c-1.7,7-4,13.9-7.1,20.4c45.7,79.6,93.3,101.2,93.3,101.2s90.7-62.7,100.5-124.7C2125.7,1880.2,2130.3,1791.4,2130.3,1791.4z" class="st23"></path>
		<path d="M2052.6,1883.4c-102,4.2-137.3-95-151.5-178.2c20.1-20.2,94.7-11.8,52.3-105.6c15-22.4,66-17,60.1-58.7
			c0,0,4.7,50.2,92.1,55.5c39.5,1.3,58.8,29.1,59.3,31.6c0,0.1,3.3,39.6,3.3,39.6C2179.2,1758.6,2132.2,1880.2,2052.6,1883.4z" class="st23"></path>
		<path d="M2145.1,1901.2c7.2,23.5-34,92.4-83.9,122.4c51.2,13.1,70.7,43.2,70.7,43.2s81.4-84.5,77.5-156.9
			C2170.1,1883.5,2145.1,1901.2,2145.1,1901.2z" class="st11"></path>
		<path d="M1892.1,1657.3l93.4,198.1c2.9,6.1,3,13.1,0.5,19.3l-34.5,83.2c-5.8,8.1-11.8,14.2-18.9,5.1l-76.7-215.7
			l20.2-91.5C1881.8,1652.5,1887.4,1650.9,1892.1,1657.3z" class="st5"></path>
		<path d="M1876,1655.9l96.9,215.9l-38.5,93l-92.5-203.7c-2-4.4-2.2-9.5-0.4-14.1L1876,1655.9z" class="st14"></path>
		<path d="M1869.9,1715.3l-5.1,9.6c-0.7,1.4-0.7,3.1,0.1,4.4l9.2,14.8c1.6,2.6,5.3,2.8,7.2,0.5l6.3-7.8
			c1.2-1.5,1.3-3.5,0.3-5.1l-10.4-16.6C1875.7,1712.1,1871.5,1712.3,1869.9,1715.3z" class="st5"></path>
		<path d="M1923,1824.3c-5.5,2.7-16.5,2.7-16.5,8.2c-12.5,72.8,18.4,154.7-18,220.7l14.9,3.6c0,0,44.5-80.3,31.3-125.8
			c-13.2-45.5-24-60.2-22-76.3c2-16.1,30.3-20.1,51.9-19.7c12.8,0.3,21.7-4.8,20.5-10.3C1964.3,1824.2,1943.1,1821.9,1923,1824.3z" class="st24"></path>
		<path d="M1948.3,1705.9c-0.1-0.1-0.3-0.1-0.4-0.2c-15.7,13-39.1,17.3-55.2,33.4c-5.3,5.3-13.3,15.9-11.2,26.6
			C1897.3,1730.7,1963.8,1714.1,1948.3,1705.9z" class="st24"></path>
		<path d="M1967,1742.1c-15.3,12-41.2,11.5-57.8,21.8c-5.2,5.2-3,12.8-2.8,18.3c7.2-9,18.6-18.2,34.1-22.5
			C1971.4,1752,1975.6,1748.2,1967,1742.1z" class="st24"></path>
		<path d="M1943.7,1798.7c-15.1,5.5-23.1,14.3-25.9,17.9c8.2-24.7,32.7-22.5,54.7-30.7c2.4-0.8,3.4-2.6,3.4-4.8
			c0-0.5-0.1-1.1-0.2-1.6c1.7,0.8,3.3,1.8,4.8,3C1991.3,1796.1,1961.8,1793,1943.7,1798.7z" class="st24"></path>
		<path d="M1985,1824.8c-20.7-0.7-41.9-2.9-62-0.5c-5.5,2.7-16.5,2.7-16.5,8.2c-12.6,72.8,18.4,154.7-18,220.7
			l-43.4-10.6c0,0,23.5-63.9,13.7-136.2c-9.7-72.3-20.8-138.9,11.3-166.3c31.9-27.2,61.2-42.8,77.9-34.4
			c-15.7,13-39.1,17.3-55.2,33.4c-5.4,5.4-13.3,15.9-11.2,26.6c-1.3,2.8-2.2,5.7-2.8,8.7c22.5-25.9,64.1-45.5,87.6-32.8
			c0.2,0.1,0.4,0.3,0.6,0.4c-15.3,12-41.2,11.5-57.8,21.8c-5.2,5.2-3,12.9-2.8,18.3c-2.3,2.9-4.2,5.7-5.6,8.4
			c25.9-8.5,56.8-19.9,74.8-11.1c0.1,0.5,0.2,1.1,0.2,1.6c0,2.2-1,4-3.4,4.8c-22,8.2-46.4,6-54.7,30.7c-0.7,0.9-1,1.4-1.1,1.6
			c1-0.4,21.6-9.8,50.3-3.5C1978.8,1817.1,1984.2,1821.1,1985,1824.8z" class="st23"></path>
		<path d="M1832.7,2013.3c0,0-16.7,26.7-17.7,42.3c-1,15.7,10,21.6,48.5,30.2c38.4,8.7,51.4,16.5,53.6-6.5
			c2.2-23,6.1-36.7-5.6-40.9C1899.6,2034.3,1837,2005.8,1832.7,2013.3z" class="st11"></path>
	</g>
	<path d="M2159.6,2798.4c0,0,71.8-3,72.3,45.7c0.2,16.5-14.2,28.7-24,28.1c0,0,46.9-4.1,68.8-38.6
		c10.2-43.7-51.2-79.6-62.9-75C2202,2763.2,2146.6,2791.2,2159.6,2798.4z" class="st11"></path>
	<linearGradient y2="1602.3503" x2="383.8338" y1="1602.3503" x1="142.7408" gradientUnits="userSpaceOnUse" id="SVGID_3_">
		<stop style="stop-color:#4085F0" offset="0"></stop>
		<stop style="stop-color:#275DC9" offset="1"></stop>
	</linearGradient>
	<circle r="120.5" cy="1602.4" cx="263.3" class="st25"></circle>
	<linearGradient y2="3491.3752" x2="916.1769" y1="3491.3752" x1="490.7544" gradientUnits="userSpaceOnUse" id="SVGID_4_">
		<stop style="stop-color:#68B2FC" offset="0"></stop>
		<stop style="stop-color:#529BF7" offset="1"></stop>
	</linearGradient>
	<circle r="212.7" cy="3491.4" cx="703.5" class="st26"></circle>
	<linearGradient y2="3675.3113" x2="3448.3372" y1="3675.3113" x1="3323.0261" gradientUnits="userSpaceOnUse" id="SVGID_5_">
		<stop style="stop-color:#4085F0" offset="0"></stop>
		<stop style="stop-color:#275DC9" offset="1"></stop>
	</linearGradient>
	<circle r="62.7" cy="3675.3" cx="3385.7" class="st27"></circle>
	<linearGradient y2="1565.8113" x2="3793.8457" y1="1565.8113" x1="3529.2568" gradientUnits="userSpaceOnUse" id="SVGID_6_">
		<stop style="stop-color:#68B2FC" offset="0"></stop>
		<stop style="stop-color:#529BF7" offset="1"></stop>
	</linearGradient>
	<circle r="132.3" cy="1565.8" cx="3661.6" class="st28"></circle>
	<g>
		<path d="M2827.7,2821.1c0.3,51.9,23.3,102.2,56.5,140.2c22.9,26.4,54.8,29.1,86.3,20.4l21.3-160.6H2827.7z" class="st2"></path>
		<path d="M2884.2,2961.3c-33.2-38-56.2-88.2-56.5-140.2h-38.3l32.7,233.7c32.7,26.9,94.2,24.1,138.7,0l9.7-73.1
			C2939,2990.4,2907.1,2987.7,2884.2,2961.3z" class="st29"></path>
		<ellipse ry="18.4" rx="101.2" cy="2821.1" cx="2890.6" class="st30"></ellipse>
		<path d="M2979.9,2821.1c0,6.9-40,12.5-89.2,12.5c-49.3,0-89.2-5.6-89.2-12.5c0-6.9,40-12.5,89.2-12.5
			C2939.9,2808.7,2979.9,2814.2,2979.9,2821.1z" class="st31"></path>
		<polygon points="2969.8,2656.8 2978.8,2616.7 2965,2616.4 2956.9,2655.3 2945.7,2653.9 2924.1,2831.3 2950.3,2829.2 
			2980.8,2658.1" class="st12"></polygon>
		<path d="M2895.8,2544l0.3-26.9l-14.2-2.8c0,0,0.3,14.4,0.6,29l-10.4-0.5l6,290.1h27.7l3.1-288.2L2895.8,2544z" class="st18"></path>
		<path d="M2829.1,2664.8l-9.7,3.7l-11.8-50.4l-9.3,4.8l10.3,49.6l-12.3,4.7c0,0,32.7,148,32.7,151.3l28.6,4.2
			L2829.1,2664.8z" class="st32"></path>
		<path d="M3033.4,2700.5c0,0-7.8-7.4-8.5-7.4c-0.4,0-5.5,12.6-10,23.6l-6.9-4.9l-41,115.3l19.1-2.7l43.1-97.4
			l-6.9-4.9L3033.4,2700.5z" class="st19"></path>
		<path d="M2886.5,2559.3c-0.6,2.7,0.3,31.1,0.3,31.1s23.2-5.9,24.6-1c1.4,4.8-0.7,73.7-0.7,73.7h5.2l1.4-107.9
			C2917.3,2555.1,2887.9,2552.7,2886.5,2559.3z" class="st5"></path>
		<path d="M2962.6,2670.3l-3.5,12.5c0,0,19-1.4,15.9,23.2c-4.2,33-13.8,75.4-13.8,75.4s4.5,3.5,4.5,1.4
			c0-2.1,21.1-105.5,21.1-105.5S2970.5,2666.9,2962.6,2670.3z" class="st5"></path>
	</g>
	<g>
		<g>
			<path d="M480.8,1814.2c3.7-56.5,10.1-113.7,19-170.3c12.6-3.9,32.1-11.5,56-25.7c-0.6,23.5-3.8,61.5-15,113
				c-4,18.2-8.5,36.5-13.4,54.3C511.4,1794,495.8,1803.7,480.8,1814.2z" class="st2"></path>
			<path d="M554.4,1620.6c-0.8,23.6-4.1,60.6-14.9,110.2c-3.9,18-8.4,36.1-13.2,53.7c-15,8.1-29.7,17.1-43.9,26.9
				c3.7-55.2,10-111.2,18.7-166.5C513.4,1641,531.9,1633.7,554.4,1620.6 M557.2,1615.6c-21.6,13.1-42,22-58.6,27.1
				c-8.6,54.4-15.4,112.7-19.4,174.2c14.6-10.4,31.1-20.8,49.3-30.6c4.9-17.7,9.4-36.3,13.5-55
				C553.7,1678.5,556.8,1639.6,557.2,1615.6L557.2,1615.6z"></path>
		</g>
		<path d="M703.5,1355.8c-78.6,30.7-129.5,61.9-162.8,88.7c-7.4,27.6-14.6,57.2-21.4,88.4c28.4-14,55.4-31.3,79.9-54.7
			C638.8,1438.6,664.7,1391.1,703.5,1355.8z" class="st10"></path>
		<path d="M599.2,1478.2c-24.5,23.3-51.5,40.7-79.9,54.7c-3.1,14.3-6.1,28.9-9.1,43.9c-4.1,21.3-8,43.3-11.6,65.9
			c16.6-5.1,37-14,58.6-27.1c69.2-41.9,151.1-126.3,160.8-265.4c-5,1.8-9.8,3.7-14.5,5.6C664.7,1391.1,638.8,1438.6,599.2,1478.2z" class="st8"></path>
		<path d="M686.3,2012.7c-28.9-10.2-58.5-12-86.7-8.6c-46.9,5.5-90.1,24.9-120.7,42.1c1.2,19.9,2.8,40,4.8,60.3
			c2.8,29.1,6.4,58.6,10.8,88.4C569.5,2149.5,633.6,2085,686.3,2012.7z" class="st8"></path>
		<path d="M686.3,2012.7c-52.7,72.3-116.8,136.8-191.9,182.2c9.1,61.6,21.7,124.7,38.6,189
			c80.1-96.6,177.6-305.7,155-370.6C687.4,2013.1,686.9,2012.9,686.3,2012.7z" class="st7"></path>
		<path d="M519.6,1950.6c-14.9,7.9-29.4,14.1-43.7,20c0.5,24.8,1.5,50,3,75.6c30.6-17.2,73.8-36.6,120.7-42.1
			c67.4-71.8,127.5-164.9,128.8-269.4C671.9,1818,611,1897.3,519.6,1950.6z" class="st8"></path>
		<path d="M728.4,1734.7c0-1.1,0.1-2.2,0.1-3.3c-81.2,3.8-147.9,27.1-199.9,55c-18.3,9.8-34.7,20.2-49.3,30.6
			c-1.9,30.2-3.2,61.1-3.6,92.7c-0.3,20-0.2,40.4,0.2,61c14.3-5.9,28.8-12.1,43.7-20C611,1897.3,671.9,1818,728.4,1734.7z" class="st10"></path>
		<path d="M557.2,1615.6c-0.5,23.9-3.6,62.9-15.1,115.7c-4.1,18.7-8.7,37.2-13.5,55c-18.3,9.8-34.7,20.2-49.3,30.6
			c4-61.5,10.8-119.7,19.4-174.1C515.2,1637.7,535.6,1628.7,557.2,1615.6z" class="st7"></path>
	</g>
</g>
</svg>
