<svg xml:space="preserve" style="enable-background:new 0 0 4000 4000;" viewBox="0 0 4000 4000" y="0px" x="0px" xmlns:xlink="http://www.w3.org/1999/xlink" xmlns="http://www.w3.org/2000/svg" id="Layer_1" version="1.1">
<style type="text/css">
	.st0{fill:url(#SVGID_1_);}
	.st1{fill:url(#SVGID_2_);}
	.st2{fill:#1A1A1A;}
	.st3{fill:#B080B0;}
	.st4{fill:#DBD2DB;}
	.st5{fill:#0D573E;}
	.st6{fill:none;stroke:#10663F;stroke-width:2;stroke-linecap:round;stroke-linejoin:round;stroke-miterlimit:10;}
	.st7{fill:#339E7E;}
	.st8{fill:none;stroke:#3DBE88;stroke-width:2;stroke-linecap:round;stroke-linejoin:round;stroke-miterlimit:10;}
	.st9{fill:#127755;}
	.st10{fill:#572658;}
	.st11{fill:#CCC4CC;}
	.st12{fill:#B0A9B0;}
	.st13{fill:none;stroke:#99112B;stroke-width:2;stroke-linecap:round;stroke-linejoin:round;stroke-miterlimit:10;}
	.st14{fill:#102140;}
	.st15{fill:#152A52;}
	.st16{fill:#D9D9D9;}
	.st17{fill:#3B546B;}
	.st18{fill:#6584C6;}
	.st19{fill:#4D73C6;}
	.st20{fill:#FFFFFF;}
	.st21{fill:#EF5668;}
	.st22{fill:#EB485C;}
	.st23{fill:#969096;}
	.st24{fill:#FC9590;}
	.st25{fill:#2A3C4D;}
	.st26{fill:#FFB114;}
	.st27{fill:#FFDE70;}
	.st28{fill:#3AB38E;}
	.st29{fill:#825A0A;}
	.st30{fill:#C78A10;}
	.st31{fill:#DB6767;}
	.st32{fill:url(#SVGID_3_);}
	.st33{fill:url(#SVGID_4_);}
	.st34{fill:url(#SVGID_5_);}
	.st35{fill:url(#SVGID_6_);}
</style>
<g>
	<g>
		<linearGradient y2="1968.0597" x2="3613.3091" y1="1968.0597" x1="454.3797" gradientUnits="userSpaceOnUse" id="SVGID_1_">
			<stop style="stop-color:#68B2FC" offset="0"></stop>
			<stop style="stop-color:#529BF7" offset="1"></stop>
		</linearGradient>
		<path d="M476.2,2812.5c58,103.1,191.5,67.6,348.5,158.6c173.3,100.4,150.4,224.7,320.3,408.2
			c24.4,26.3,204.8,216.8,467.8,285.7c312.4,81.8,404.3-96.1,844.6-65.9c289.8,19.9,325.1,102.2,499.2,56.5
			c267-70,414-324,477.2-433.3C3625,2892,3599.5,2558.4,3594,2497c-34.1-375.5-221.4-439.3-197.8-791.2
			c7.1-105.2,36.1-212.5,94.2-427c87.4-322.8,143-392,116.2-530.6c-40-206.8-217.3-329.8-266.9-364.2
			c-202.9-140.8-497.6-182.9-693.9-69.1c-99.5,57.7-104.3,115.1-204.1,138.2c-148.7,34.3-219.6-74.7-364.2-40.8
			c-79.3,18.6-73.4,55-229.2,169.5c-142.1,104.5-239.6,176.2-367.4,197.8c-201.7,34-287-89.3-379.9-25.1
			c-105.8,73.1-82.1,292.9-53.4,405c32.6,127.3,77.1,137,131.9,263.7c132,305.6,28.7,609.1,22,628
			c-66,185.1-186.4,304.1-263.7,367.4c-148.6,50.2-297.2,100.5-445.8,150.7C462.8,2636.4,432.8,2735.4,476.2,2812.5z" class="st0"></path>
		<linearGradient y2="1986.5573" x2="3618.5923" y1="1986.5573" x1="457.3281" gradientUnits="userSpaceOnUse" id="SVGID_2_">
			<stop style="stop-color:#4085F0" offset="0"></stop>
			<stop style="stop-color:#275DC9" offset="1"></stop>
		</linearGradient>
		<path d="M457.3,2550.4c163.1,496,346.5,632.5,489.8,659.4c79.8,15,102.6-12.4,364.2-25.1
			c258.3-12.6,387.5-18.9,489.8,25.1c160.3,68.9,131.8,159.4,364.2,357.9c122.6,104.7,247.7,211.6,433.3,251.2
			c274,58.5,502.6-67.4,527.5-81.6c395.7-225.5,411.5-748.8,414.4-847.7c1.5-48.1-49-230.8-138.1-596.6
			c-22.8-93.5-45-182.5-29.3-299.3c19-140.9,76.7-199.9,136.1-328.6c19.8-43,138.9-308.4,102.6-563.1
			c-28.2-197.6-140.1-319.9-320.3-517c-157.9-172.7-379.3-414.9-699.1-441.7c-72-6-224-18.8-301.4,71.2
			c-55.4,64.4-24.3,125-92.1,299.3c-36.9,94.7-61.6,155.8-123.5,196.8c-87,57.6-191.8,38.7-232.3,31.4
			c-182.7-32.9-202.2-156.1-389.3-198.9c-29.5-6.7-188.6-43.1-249.1,31.4c-22.4,27.6-18.5,54.7-8.4,244.9
			c9.4,177.5,8.3,195.5,2.1,219.8c-31.2,122.1-117.9,120.9-171.6,221.9c-94.1,176.7,100.7,314.1,56.5,625.9
			c-19,133.8-72.2,230.9-104.7,288.9c-45.4,81.1-125.2,223.6-293,309.8C595.1,2531.9,510.9,2545.7,457.3,2550.4z" class="st1"></path>
	</g>
	<g>
		<path d="M2642.9,996.8c-144.3-28.9-71.5-157.1,0-244.3V996.8z M3158.9,439.6v968.5h27.2V466.7
			C3177.2,457.7,3168.1,448.6,3158.9,439.6z M2874.2,505.3c-131.9,98.4-353.8,278.4-358,410.3c-3.5,111,95.3,113.8,126.6,111.8
			v774.3h27.2V721c13.9-15.2,26.5-28,35.9-37.1c23.4-22.4,114.7-92.9,219.8-172.5v1064.2h27.2V490.8
			c47.9-36.2,97.7-73.5,144.5-108.5c-9-8.1-18.2-16-27.5-23.9C2997.8,412.8,2924.2,468.1,2874.2,505.3z" class="st2"></path>
		<path d="M3378.7,1993.6c-15.7,116.8,6.5,205.8,29.3,299.3c37.8,155.2,68.6,277.4,91.6,370.4L2483,2558.4l-45.3-4.7
			l167.8-777.1h314v-231.6h233.1v-233.8h213.5v-219.8h249.6c0.6,3.5,1.1,7,1.6,10.5c2.5,17.5,4.3,35.1,5.4,52.6
			c15,237.5-89.5,470.4-108,510.5C3455.3,1793.7,3397.6,1852.6,3378.7,1993.6z" class="st3"></path>
		<path d="M3378.7,1993.6c-15.7,116.8,6.5,205.8,29.3,299.3c37.8,155.2,68.6,277.4,91.6,370.4L2483,2558.4l155.2-718.7
			h314V1608h233.1v-233.8h213.5v-219.8h223.9c15,237.5-89.5,470.4-108,510.5C3455.3,1793.7,3397.6,1852.6,3378.7,1993.6z" class="st4"></path>
	</g>
	<g>
		<path d="M967.3,2582.8c-56.2-61.7-94.8-70.6-120.4-65.9c-32.4,5.9-41,33.1-87.9,39.8c-19,2.7-38.1,0.4-76.4-4.2
			c-45.5-5.5-44.1-9.8-62.8-8.4c-36.4,2.8-65.4,21.1-81.6,31.4c-24.9,15.7-23.5,21.2-41.9,29.3c-33.4,14.6-65.6,8.5-71.2,7.3
			c-5.6-1.1-76.4-16.8-87.9-74.3c-11-54.6,41.9-95.3,46-98.4c23.8-17.8,48.8-21.1,62.8-23c37.3-5,47.7,6.9,108.8,10.5
			c31.8,1.8,48.1,2.6,65.9-3.1c32.4-10.5,52.1-33.4,68-52.3c37.6-44.7,27.1-63.7,58.6-90c30.2-25.2,65.2-29.1,78.5-30.4
			c43.9-4.2,76.6,11.6,91.1,18.8c35.1,17.6,54.8,41.8,70.1,60.7c7.5,9.3,27.2,33.8,40.8,68c27.5,68.9,13.9,134.4,6.3,162.2
			C1012,2568.1,989.6,2575.5,967.3,2582.8z" class="st5"></path>
		<path d="M522.2,2481.3c0,0,152.1,19.5,255.4-48.8s188.4,34.9,188.4,34.9" class="st6"></path>
		<path d="M714.7,2396.2c-41.1,2.7-106,1.8-180-22.3c-51.6-16.9-96.5-31.5-131.2-72.6c-9.3-11-26.2-33.8-50.2-196.8
			c-18.5-125.7-14.6-153.8-2.8-181.4c7.8-18.3,29.9-69.9,82.3-85.1c52.5-15.2,112.9,12.6,135.4,53c11.6,20.9,3.7,28.3,11.2,113
			c6.5,74.2,14.2,86.9,20.9,94.9c18.4,21.7,44,23.8,97.7,30.7c106.2,13.6,159.3,20.4,187,32.1c70.2,29.6,109.6,84.9,125.6,107.5
			c41.6,58.5,53.3,114.4,58.6,140.9c9.3,46.9,8.3,87,5.6,114.4c-26.6,15.8-51,23.1-71.2,26.5
			C850.1,2576.8,723.7,2408.5,714.7,2396.2z" class="st7"></path>
		<path d="M446.8,2034.7c0,9.8,5.6,149.3,152.1,178.6c146.5,29.3,168.9-10,266.6,23.6s154.9,203.5,154.9,203.5" class="st8"></path>
		<path d="M1218.5,1769.6c22.2-97.1,18-147.3,58.6-169.5c29.5-16.2,51.8-0.6,100.5-24.1c14.1-6.8,44.9-23.8,70.1-56.5
			c37.9-49.1,23-81.4,52.3-100.5c31.9-20.7,90.3-9.2,120.4,27.2c39,47.2,11.5,113.3,7.3,123.5c-9.9,23.9-19.5,28.5-90,101.5
			c-58.1,60.2-63.3,69.3-67,81.6c-3.2,10.7-6.7,29,17.8,121.4c22.7,85.7,29.2,83.1,29.3,108.8c0.3,54.1-28.1,94.2-60.7,140.2
			c-33.7,47.5-61.7,87.1-113,99.4c-34.2,8.2-64.6,0.9-82.7-5.2c-54.8-9.4-109.5-18.8-164.3-28.3c5.7-35.6,16.1-92.5,34.5-161.2
			C1171.1,1881,1192.2,1885,1218.5,1769.6z" class="st5"></path>
		<path d="M1176.6,2498.4c6.6-45.3,42.7-337.9,71.2-416.9c40.1-111.4,70.5-132.5,69.1-196.8
			c-1.8-79.8-51.2-162.8-117.2-205.1c-55.3-35.5-80.3-15.6-138.1-58.6c-16.7-12.4-87.8-65.3-89-137.1
			c-0.8-48.8,31.5-55.1,54.4-130.8c10-32.9,28.4-93.7,6.3-158c-19.2-55.7-71-120.7-150.7-134c-76.9-12.8-134.6,30.1-144.4,37.7
			c-12.4,9.5-67.7,52.3-60.7,98.4c5.4,35.4,42,36,57.6,78.5c10.4,28.5,2.9,52.5-16.7,117.2c-21.2,70.1-36.8,121.5-42.9,143.4
			c-21.7,77.8-43.6,156.3-17.8,232.3c2.4,7.1,38.2,104,127.7,142.3c54.2,23.2,77.7,3.3,122.5,32.4c58.2,37.9,77,109.7,80.6,124.5
			c14.3,60-3.9,99.3,27.2,164.3c6.7,14,47.5,257.8,55.8,266.2C1119.5,2547.8,1159.1,2504.3,1176.6,2498.4z" class="st7"></path>
		<path d="M698,1976.1c-13.1-44-5.8-106.6,33.5-136.8c41.4-31.8,99.4-13.1,161.9,7c37.4,12,98.4,31.6,147.9,87.9
			c40.2,45.7,50.9,90.6,69.8,170.2c7.6,32.2,29.4,133,16.7,267.9c-4.9,52.1-13.6,95.2-20.9,125.6c-33.5,12.1-67,24.2-100.5,36.3
			c-8.6-174.3-72.4-276.2-100.5-315.4c-54.2-75.5-115.8-135.4-115.8-135.4C738.1,2033.1,710.4,2017.7,698,1976.1z" class="st9"></path>
		<path d="M798.5,1938.4c0,0,167.5,84.4,228.9,255.3c42.8,119.2,55.8,323.8,55.8,323.8" class="st8"></path>
		<path d="M825,1277c0,0,106.1,65.6,68.4,181.4c-37.7,115.8-173,251.2,26.5,344.7c199.5,93.5,254.1,210.4,204.5,374.5" class="st8"></path>
		<path d="M1483.6,1579.8c0,0-109.1,18.1-114.6,110.2c-5.4,92.1,82.5,124.2,32.9,254
			c-49.5,129.8-176.5,207.5-176.5,207.5" class="st6"></path>
	</g>
	<g>
		<polygon points="648.1,2654 2758,2870.6 2758,2971.1 648.1,2745" class="st10"></polygon>
		<polygon points="2758,2870.6 3225.9,2550.4 3225.9,2654 2758,2971.1" class="st10"></polygon>
		<polygon points="648.1,2654 1229,2440.5 3225.9,2550.4 2758,2870.6" class="st3"></polygon>
		<path d="M2758,2971.1l-2.5,863.1c-48,0.3-98.9-4.1-151.4-15.4c-185.7-39.6-310.7-146.5-433.3-251.2
			c-232.4-198.6-203.9-289-364.2-357.9c-102.3-44-231.5-37.7-489.8-25.1c-261.6,12.7-284.4,40.1-364.2,25.1
			c-83.7-15.7-181.1-68.8-280.1-209v-253L2758,2971.1z" class="st4"></path>
		<path d="M2767.3,3690.8c2.9-67.5-2.9-132.1,11.7-202.6c2.9-11.7,11.7-20.6,11.7-29.4c2.9-26.4,2.9-52.9,8.8-79.3
			c20.6-88.1,38.2-173.2,73.4-252.5c63.4-147,218.6-213,356.2-288.8l-3.3-184.3L2758,2971.1l-2.5,863.1c3.6,0,7.1-0.1,10.6-0.1
			C2763.5,3786.6,2763.3,3738.9,2767.3,3690.8z" class="st11"></path>
		<path d="M2873,3127c-35.2,79.3-52.9,164.4-73.4,252.5c-5.9,26.4-5.9,52.9-8.8,79.3c0,8.8-8.8,17.6-11.7,29.4
			c-14.7,70.5-8.8,135.1-11.7,202.6c-4,48.1-3.7,95.8-1.1,143.2c197.4-3.9,345.7-85.5,365.5-96.8c41.4-23.6,78.6-50.4,112.1-79.7
			l-14.6-819.2C3091.6,2914,2936.3,2980,2873,3127z" class="st12"></path>
		<polyline points="648.1,2687.5 2758,2904.4 3225.9,2583.1" class="st13"></polyline>
	</g>
	<polygon points="1229,2707.3 1806,2737 2168.8,2600.2 2168.8,2546.9 1546.4,2570.9 1229,2654" class="st14"></polygon>
	<g>
		<polygon points="1229,2654 1806,2683.6 2168.8,2546.9 1546.4,2517.6" class="st15"></polygon>
	</g>
	<g>
		<polygon points="1384.8,2636.3 1770.5,2656.1 2013,2564.7 1597,2545.1" class="st16"></polygon>
	</g>
	<path d="M1305,745.3v58.6c2.8,8.4,0,526.1,0,526.1l101.9,23.7l5.6-1.6V727.9L1305,745.3z" class="st17"></path>
	<polygon points="1683.2,752.5 1412.5,727.9 1412.5,1352.2 1683.2,1277" class="st18"></polygon>
	<polygon points="1668.4,784 1427.3,762.1 1427.3,1318 1668.4,1251" class="st19"></polygon>
	<g>
		<path d="M1827.6,2144.3c-39.8,159.1-221.9,182.1-221.9,182.1s-16.5,39.8,4.9,73.3c18-7.2,37.5-5.4,58.5-9.6
			c5.9-2.9,8.8-8.8,14.7-11.7c8.8-2.9,17.6,2.9,26.4,0c35.2-23.5,76.3-26.4,111.6-47c47-26.4,111.6-41.1,123.3-88.1
			c32.3-140.9-2.9-281.9-8.8-422.8c0-26.4,26.4-49.9,49.9-35.2c18.6,9.3,35.3,20.4,50.3,33.2c0.7-56.2,1.6-135,2.9-245.5
			C1803.2,1631.4,1867.4,1985.2,1827.6,2144.3z" class="st20"></path>
		<path d="M1936.3,1820.4c5.9,140.9,41.1,281.9,8.8,422.8c-11.7,47-76.3,61.7-123.3,88.1
			c-35.2,20.6-76.3,23.5-111.6,47c-8.8,2.9-17.6-2.9-26.4,0c-5.9,2.9-8.8,8.8-14.7,11.7c-21,4.2-40.5,2.4-58.5,9.6
			c8.1,12.6,21.5,24.3,43.2,32.7c104.7-15.4,251.2-74.6,322.3-171.6c71.2-97,58.6-302.8,58.6-302.8s0,0,1.6-139.6
			c-15-12.9-31.7-24-50.3-33.2C1962.7,1770.5,1936.3,1794,1936.3,1820.4z" class="st16"></path>
		<path d="M2133.6,1524.7c0,0-58.2,36.1-94.2,48.2c-36,12.1-99.4,254-68.7,404.7c30.7,150.7,46.1,411.7,32.1,468.9
			c308.4,87.9,503.8,33.1,503.8,33.1s-22.3-340.5-11.5-531c10.8-190.5,0.3-332.8-62.4-375.7c-62.8-42.9-162.2-91.1-162.2-91.1
			L2133.6,1524.7z" class="st20"></path>
		<path d="M2232.9,2266.7c32.3-23.5,61.7-49.9,94-76.3c67.5-49.9,73.4-138,61.7-214.3c-2.9-23.5-14.7-49.9-29.4-73.4
			c-5.9-8.8-2.9-23.5-8.8-35.2c-2.9-5.9-5.9-14.7-5.9-20.6c-8.8-38.2-8.8-76.3,0-111.6c8.8-20.6,17.6-41.1,26.4-61.7
			c15.6-41.6,30-83.2,45.1-124.2l-20.1-16.3c0,0-61,200.3-100.8,230.9c-39.8,30.7-233.8,34.2-248.4-14.7
			c-11.3-37.7,14.8-142.6,26.9-190c0.9-3.4,5.8-2.3,6.6-5c2.2-8.5-4.3-13.1-4.3-13.1l-32.3,11.3c0,0-34.8,111.3-47.4,183.5
			c-12.6,72.2-74.3,128.4-85.5,216.6c-11.2,88.2,55.8,157.4,65,323.4c1.8,33.1,2.4,62,2.1,87.1
			C2069.7,2368.5,2156.4,2325.9,2232.9,2266.7z" class="st21"></path>
		<path d="M2538.9,2512.5c-21.6-110.1-27.1-419.4-46.8-494.9c-22.1-84.8-54.3-79.2-54.3-79.2
			c-24.1,0-66.6-87.9-70.8-136.8c-4.2-48.8,50.9-250.8,50.9-250.8l-1.9-1.5c-15.1,41.1-29.5,82.7-45.1,124.2
			c-8.8,20.6-17.6,41.1-26.4,61.7c-8.8,35.2-8.8,73.4,0,111.6c0,5.9,2.9,14.7,5.9,20.6c5.9,11.7,2.9,26.4,8.8,35.2
			c14.7,23.5,26.4,49.9,29.4,73.4c11.7,76.3,5.9,164.4-61.7,214.3c-32.3,26.4-61.7,52.9-94,76.3c-76.4,59.2-163.2,101.8-255.1,96.5
			c-0.6,59.3-5.8,97-10,117.9L2538.9,2512.5z" class="st22"></path>
		<path d="M2561.7,2272.6c55.8-170.3,44-343.5,11.7-522.7c-8.8-47.6-21.9-94.2-46.8-133.9
			c-50.2-35.9-107.3-51.9-107.3-51.9l31.3,323.4c-23.7,38.4,19.5,169.5-7,264c-48.1,123.7-264.4,189.5-352.4,262.7
			c-59.3,49.5-24.7,69.3,19.8,76c133.1-33.4,249.8-100.7,377.1-153.1C2517.7,2325.4,2550,2301.9,2561.7,2272.6z" class="st20"></path>
		<path d="M2595.8,1702.6c-11.5-36.6-39.1-65.1-69.1-86.6c24.9,39.8,38,86.3,46.8,133.9
			c32.3,179.1,44,352.4-11.7,522.7c-11.7,29.4-44,52.9-73.4,64.6c-127.3,52.4-244,119.7-377.1,153.1c21.5,3.2,45.2,3.3,61.9,2.2
			c66.1-33.9,336.9-97,422.7-190.3C2681.6,2208.7,2626.5,1800.3,2595.8,1702.6z" class="st16"></path>
		<path d="M2076,2446.7c0,0-5.6-22.5,48.8-20c54.4,2.5,46.7,56.8,41.2,66.3c-5.6,9.5-110.4,9.8-97.7-28.2
			C2071.8,2454.4,2076,2446.7,2076,2446.7z" class="st23"></path>
		<path d="M2095.5,2436.6c0,0-120.4,42-147.6,51c-27.2,9.1-74.3,107.3-74.3,112.9s37.6,4,74.8,4.5
			c75.9,1,115.6-51.3,137.6-73.3c22-22,71.2-44.2,71.2-44.2s8.4-24.3-8.9-40.6C2131.1,2430.9,2095.5,2436.6,2095.5,2436.6z" class="st24"></path>
		<path d="M2059.8,1100.8c0,0-34.4-0.7-29.1-37c5.2-36.3-23-46.8,37.7-90.7s118.4-47.1,160.2-20.9
			c74.2,0,137,3.1,160.1,80.6c23,77.4,47.1,85.8,49.2,99.4c2.1,13.6-2.1,26.2-15.7,26.2c30.4,12.6,40.8,27.2,23,47.1
			s-6.6,35.2-32.1,35.2c-25.5,0-78.8,3.8-102.9,0C2286,1236.9,2059.8,1100.8,2059.8,1100.8z" class="st15"></path>
		<path d="M2131.1,1528.2c0,0,80.6,72.2,171.6,11.9c29.3-17.5,13.6-150.4,10.5-184.9c-3.1-34.5,3.5-70.5,3.5-70.5
			s53,0,47.4-51.6c-5.6-51.6-30-71.2-60-37c-19.5-7-26.5-48.8-72-27.6c-45.5,21.3-108.3-21.1-94.7-52.5
			c13.6-31.4,6.3-114.6-53.7-69.2c-37,25.1-36.3,38.4-36.3,38.4s-57,329.9,107.4,337C2159.7,1491.9,2131.1,1528.2,2131.1,1528.2z" class="st24"></path>
		<path d="M2302.8,1540.1c-9.8,6.5-19.5,11.5-29,15.2c18.8-56.6,39.9-125.4,39.5-200.1
			C2316.4,1389.7,2332.1,1522.6,2302.8,1540.1z" class="st24"></path>
		<path d="M2470.2,1459.8c-4.4,119.1,5.6,338.5-65.6,362.5c-71.2,24-166.7-108.2-158.7-170.5
			c3.2-25.2,15-58.1,27.8-96.6c18.8-56.6,39.9-125.4,39.5-200.1c0.2-7.1-0.2-13.8-0.9-20.1c0-27.1,4.3-50.4,4.3-50.4
			s47.6,0,47.9-43.9h48.4C2413,1240.7,2474.7,1340.7,2470.2,1459.8z" class="st15"></path>
	</g>
	<g>
		<polygon points="1034.3,2171.5 1630.2,2212 1769.7,2675.2 1752.5,2687.5 1175.2,2639 1017.1,2183.8" class="st25"></polygon>
		<polygon points="1017.1,2183.8 1612.9,2224.2 1752.5,2687.5 1158,2651.2" class="st17"></polygon>
		
			<ellipse ry="41.4" rx="34.5" cy="2410.3" cx="1362.3" class="st18" transform="matrix(0.901 -0.4338 0.4338 0.901 -910.7813 829.6031)"></ellipse>
	</g>
	<g>
		<path d="M2920.3,2686.4v-292l-56.5-123.5c-4.7-2.7-9.5-4.9-14.2-6.8c80.9,133.7,55.4,298.2,15.2,450.1
			C2890.6,2709.4,2911.9,2700.1,2920.3,2686.4z" class="st26"></path>
		<path d="M2849.5,2264.1c-26-10.5-51.9-9.2-77.9,6.8l-51.3,120.4l9.4,306.7c30.6,19.3,89.9,24.6,135,16.3
			C2904.9,2562.3,2930.4,2397.8,2849.5,2264.1z" class="st27"></path>
		<path d="M3001.9,2147.1c19.6-16.8,75.5-44.4,80.2-51.6c20.2-40.9-35.2-91.7-78.8-67c41-36.9-1.1-124.4-66.3-76.8
			c38.5-63.8-55.8-56.7-86.5-36.3c23-67.8-82.6-60.8-55.8,9.8c-11.3-15-28.7-25.6-55.8-22.3c-30.9-0.3-55.2,10.2-71.9,26.5
			c13.1-2.4,27.5-1.7,38.7-0.3c41.1,5.9,76.3,52.9,102.8,67.5c41.1,14.7,126.3-35.2,149.7,20.6c8.8,20.6-23.5,55.8,8.8,82.2
			c17.6,14.7-29.4,32.3-35.2,55.8c0,11.7,17.6,23.5,11.7,38.2c-2.9,5.9-14.7,5.9-20.6,11.7c-11.7,17.6,26.4,23.5,14.7,29.4
			c-38.2,20.6-105.7-26.4-120.4,20.6c-4.3,12.1-7.8,25.4-10.2,39.3c11.5,3.9,23.5,6.1,29.6,1.5c10-8-3.9-27.4,7.7-41.2
			c14.9-13.6,52.1-18.9,55.1,7c5.9,37.5,26.6,52.1,55.8,30.7c8.4-7.3,9.1-16,16-16.7c11.2,2.3,22.1,17.8,41.9,11.2
			c39.3-18.4,12.2-72.5-12.6-84.4c-11.5-2.5-19,7.3-26.5,2.8c-5.7-3.4-8.1-13.1-4.9-17.4c3-4,9.2-1,26.5-0.7c18.6,0.3,21.3-3,31.4,0
			C3121.4,2241.9,3106.5,2120.5,3001.9,2147.1z" class="st9"></path>
		<path d="M2629.3,2166.9c5.9-2.9,11.7-14.7,17.6-14.7c20.6-8.8,32.3,8.8,47,14.7c44,17.6,96.9,20.6,140.9-8.8
			c8.8-5.9,11.7-23.5,8.8-38.2c11.7,0,29.4,2.9,35.2-2.9c17.6-20.6,8.8-58.7-14.7-67.5c-26.4-11.7-61.7,5.9-85.2-20.6
			c-32.3-35.2-55.8-76.3-108.6-88.1c-4.8-0.6-9.2-0.4-13.4,0.2c-23.8,33.2-22.4,81.3,10,115.3c-29,4.4-67.3,2.5-83.7,16.7
			c-9.8,15.7-16.9,76.6-14.8,100.6C2588.8,2177.8,2609.8,2175.5,2629.3,2166.9z" class="st28"></path>
		<path d="M2966.9,2099.3c-32.3-26.4,0-61.7-8.8-82.2c-23.5-55.8-108.6-5.9-149.7-20.6c-26.4-14.7-61.7-61.7-102.8-67.5
			c-11.1-1.4-25.6-2.1-38.7,0.3c-3.7,3.6-7,7.5-10,11.7c4.2-0.7,8.6-0.8,13.4-0.2c52.9,11.7,76.3,52.9,108.6,88.1
			c23.5,26.4,58.7,8.8,85.2,20.6c23.5,8.8,32.3,47,14.7,67.5c-5.9,5.9-23.5,2.9-35.2,2.9c2.9,14.7,0,32.3-8.8,38.2
			c-44,29.4-96.9,26.4-140.9,8.8c-14.7-5.9-26.4-23.5-47-14.7c-5.9,0-11.7,11.7-17.6,14.7c-19.5,8.6-40.5,10.9-60.8,6.8
			c0,0.4,0.1,0.9,0.1,1.3c13.9,51.1,47.9,64.3,74.7,69.1c21.6,1.3,28.3-10.6,50.9-15.3c31.7-9.5,82.5,11.2,89.3,55.1
			c5.3,2.9,14.2,7.3,23.5,10.4c2.4-13.9,6-27.2,10.2-39.3c14.7-47,82.2,0,120.4-20.6c11.7-5.9-26.4-11.7-14.7-29.4
			c5.9-5.9,17.6-5.9,20.6-11.7c5.9-14.7-11.7-26.4-11.7-38.2C2937.6,2131.6,2984.6,2114,2966.9,2099.3z" class="st7"></path>
		<path d="M2697.3,2175.7c0,0,93.1,35.6,115.1,102.6" class="st8"></path>
		<path d="M2776.9,2075.2c0,0,49.2,127.7,43.4,194.7" class="st8"></path>
		<path d="M2860.6,2130.7c0,0-57.3,84.4-61.8,144.8" class="st8"></path>
		<path d="M2874.2,2180.6c0,0-42.9,34.2-41.9,91.1" class="st8"></path>
		<path d="M2770.2,2290.2c-9.6-1.9-18-9-21.8-18.5c-0.5,2.9-0.2,6.3,1.9,10.4c7.3,14.3,35.9,20.2,67.7,20.4
			c25.1,0.1,47.6-5.9,57.5-14.9C2843.6,2300.4,2805.3,2299,2770.2,2290.2z" class="st29"></path>
		<path d="M2874.9,2265.6c-10.9-10.8-21.6-4.5-21.6-4.5s-72.2,12.9-96.6,0c0,0-2.1,1.1-4.2,3.2
			C2792.2,2280.1,2836.8,2281.6,2874.9,2265.6z" class="st26"></path>
		<path d="M2874.9,2265.6c-38,16-82.6,14.5-122.4-1.3c-1.7,1.7-3.4,4.1-4,7.3c3.8,9.6,12.1,16.6,21.8,18.5
			c35.1,8.8,73.3,10.2,105.3-2.6c6-5.4,7.4-11.9,2.2-18.8C2876.8,2267.6,2875.8,2266.5,2874.9,2265.6z" class="st30"></path>
	</g>
	<path d="M2234.5,1393.9c0,0-16.9,26.5-79.7,28.3c-0.4,36-0.5,49.5-5.7,65.6
		C2178.6,1474.1,2245.1,1465.7,2234.5,1393.9z" class="st31"></path>
	<linearGradient y2="1564.1141" x2="3667.106" y1="1564.1141" x1="3409.3457" gradientUnits="userSpaceOnUse" id="SVGID_3_">
		<stop style="stop-color:#4085F0" offset="0"></stop>
		<stop style="stop-color:#275DC9" offset="1"></stop>
	</linearGradient>
	<circle r="128.9" cy="1564.1" cx="3538.2" class="st32"></circle>
	<linearGradient y2="2870.6074" x2="633.7266" y1="2870.6074" x1="178.8943" gradientUnits="userSpaceOnUse" id="SVGID_4_">
		<stop style="stop-color:#68B2FC" offset="0"></stop>
		<stop style="stop-color:#529BF7" offset="1"></stop>
	</linearGradient>
	<circle r="227.4" cy="2870.6" cx="406.3" class="st33"></circle>
	<linearGradient y2="3794.1089" x2="2095.5178" y1="3794.1089" x1="1961.5446" gradientUnits="userSpaceOnUse" id="SVGID_5_">
		<stop style="stop-color:#4085F0" offset="0"></stop>
		<stop style="stop-color:#275DC9" offset="1"></stop>
	</linearGradient>
	<circle r="67" cy="3794.1" cx="2028.5" class="st34"></circle>
	<linearGradient y2="2517.5576" x2="3821.1057" y1="2517.5576" x1="3538.2258" gradientUnits="userSpaceOnUse" id="SVGID_6_">
		<stop style="stop-color:#68B2FC" offset="0"></stop>
		<stop style="stop-color:#529BF7" offset="1"></stop>
	</linearGradient>
	<circle r="141.4" cy="2517.6" cx="3679.7" class="st35"></circle>
</g>
</svg>
