<?xml version="1.0" standalone="no"?><!DOCTYPE svg PUBLIC "-//W3C//DTD SVG 1.1//EN" "http://www.w3.org/Graphics/SVG/1.1/DTD/svg11.dtd"><svg height="4000" node-id="1" sillyvg="true" template-height="4000" template-width="4000" version="1.1" viewBox="0 0 4000 4000" width="4000" xmlns="http://www.w3.org/2000/svg" xmlns:xlink="http://www.w3.org/1999/xlink"><defs node-id="152"><linearGradient gradientUnits="userSpaceOnUse" id="SVGID_1_" node-id="6" spreadMethod="pad" x1="282.4336" x2="3508.346" y1="2176.8484" y2="2176.8484"><stop offset="0" stop-color="#68b2fc"></stop><stop offset="1" stop-color="#529bf7"></stop></linearGradient><linearGradient gradientUnits="userSpaceOnUse" id="SVGID_2_" node-id="10" spreadMethod="pad" x1="3637.5002" x2="3807.064" y1="2341.1992" y2="2341.1992"><stop offset="0" stop-color="#4085f0"></stop><stop offset="1" stop-color="#275dc9"></stop></linearGradient><linearGradient gradientUnits="userSpaceOnUse" id="SVGID_3_" node-id="14" spreadMethod="pad" x1="759.361" x2="928.9249" y1="3417.9946" y2="3417.9946"><stop offset="0" stop-color="#4085f0"></stop><stop offset="1" stop-color="#275dc9"></stop></linearGradient><linearGradient gradientUnits="userSpaceOnUse" id="XMLID_2_" node-id="22" spreadMethod="pad" x1="244.6485" x2="3506.879" y1="2000" y2="2000"><stop offset="0" stop-color="#4085f0"></stop><stop offset="1" stop-color="#275dc9"></stop></linearGradient><linearGradient gradientUnits="userSpaceOnUse" id="SVGID_4_" node-id="28" spreadMethod="pad" x1="86.5567" x2="3421.332" y1="3086.4402" y2="3086.4402"><stop offset="0" stop-color="#68b2fc"></stop><stop offset="1" stop-color="#529bf7"></stop></linearGradient><linearGradient gradientUnits="userSpaceOnUse" id="SVGID_5_" node-id="49" spreadMethod="pad" x1="1521.34" x2="1875.7638" y1="1246.645" y2="1246.645"><stop offset="0" stop-color="#4085f0"></stop><stop offset="1" stop-color="#275dc9"></stop></linearGradient><linearGradient gradientUnits="userSpaceOnUse" id="SVGID_6_" node-id="53" spreadMethod="pad" x1="1620.4225" x2="1974.8462" y1="1615.407" y2="1615.407"><stop offset="0" stop-color="#4085f0"></stop><stop offset="1" stop-color="#275dc9"></stop></linearGradient><linearGradient gradientUnits="userSpaceOnUse" id="SVGID_7_" node-id="59" spreadMethod="pad" x1="1688.7388" x2="2043.1625" y1="1975.3125" y2="1975.3125"><stop offset="0" stop-color="#4085f0"></stop><stop offset="1" stop-color="#275dc9"></stop></linearGradient><linearGradient gradientUnits="userSpaceOnUse" id="SVGID_8_" node-id="90" spreadMethod="pad" x1="1450.9822" x2="1953.6874" y1="2638.6545" y2="2638.6545"><stop offset="0" stop-color="#4085f0"></stop><stop offset="1" stop-color="#275dc9"></stop></linearGradient><linearGradient gradientUnits="userSpaceOnUse" id="SVGID_9_" node-id="95" spreadMethod="pad" x1="1167.0642" x2="1783.7179" y1="2821.1824" y2="2821.1824"><stop offset="0" stop-color="#4085f0"></stop><stop offset="1" stop-color="#275dc9"></stop></linearGradient><linearGradient gradientUnits="userSpaceOnUse" id="SVGID_10_" node-id="131" spreadMethod="pad" x1="1969.8533" x2="2104.935" y1="3365.3638" y2="3365.3638"><stop offset="0" stop-color="#4085f0"></stop><stop offset="1" stop-color="#275dc9"></stop></linearGradient><linearGradient gradientUnits="userSpaceOnUse" id="SVGID_11_" node-id="143" spreadMethod="pad" x1="3296.5364" x2="3720.1558" y1="2938.101" y2="2938.101"><stop offset="0" stop-color="#68b2fc"></stop><stop offset="1" stop-color="#529bf7"></stop></linearGradient><linearGradient gradientUnits="userSpaceOnUse" id="SVGID_12_" node-id="147" spreadMethod="pad" x1="192.9359" x2="536.4113" y1="1456.0615" y2="1456.0615"><stop offset="0" stop-color="#68b2fc"></stop><stop offset="1" stop-color="#529bf7"></stop></linearGradient><clipPath id="XMLID_3_" node-id="26"><path d="M 669.40 1545.70 C 699.30 1325.10 676.30 1100.90 689.20 878.60 C 702.10 656.40 757.60 423.70 914.10 265.40 C 1064.90 112.80 1289.70 52.30 1504.10 56.40 C 1718.60 60.50 1927.20 122.30 2132.80 183.50 C 2362.50 251.90 2600.30 324.80 2778.80 484.70 C 2898.50 591.90 2983.50 731.60 3066.80 869.00 C 3151.80 1009.40 3236.80 1149.80 3321.90 1290.20 C 3408.70 1433.50 3497.90 1584.60 3506.20 1751.90 C 3522.80 2087.50 3213.50 2366.30 3202.70 2702.20 C 3196.80 2886.00 3282.30 3065.90 3263.10 3248.80 C 3243.90 3431.20 3119.90 3590.50 2966.20 3690.40 C 2812.50 3790.40 2631.10 3838.60 2451.00 3872.90 C 2169.00 3926.60 1881.30 3949.90 1594.30 3942.20 C 1416.00 3937.40 1206.50 3900.30 1128.80 3739.80 C 1070.60 3619.60 1107.50 3463.10 1027.20 3356.40 C 956.60 3262.50 825.70 3245.90 714.60 3207.70 C 496.70 3132.80 321.90 2943.20 265.00 2720.00 C 142.70 2240.70 609.90 1985.50 669.40 1545.70 Z" fill="#000000" fill-rule="nonzero" node-id="233" stroke="none" target-height="3897.5999" target-width="3380.1" target-x="142.7" target-y="52.3"></path></clipPath></defs><path d="M 1950.10 1954.70 C 1950.10 1954.70 1982.80 2036.90 2049.90 2045.30 C 2048.40 2007.90 2048.40 2007.90 2048.40 2007.90 C 2048.40 2007.90 1969.00 1985.50 1950.10 1954.70 Z" fill="#db6767" fill-rule="nonzero" node-id="237" stroke="none" target-height="90.6001" target-width="99.79993" target-x="1950.1" target-y="1954.7"></path><g node-id="458"><path d="M 892.50 472.80 C 491.90 677.60 343.10 900.20 297.00 1092.30 C 239.90 1330.00 366.10 1412.70 416.10 1878.50 C 460.90 2296.00 371.60 2341.10 416.10 2807.60 C 451.70 3180.10 469.50 3367.10 594.70 3534.20 C 864.40 3894.10 1424.30 3884.00 1666.60 3879.70 C 1745.20 3878.30 3148.90 3834.90 3453.10 2938.60 C 3628.00 2423.10 3340.70 1915.60 3238.70 1735.50 C 2599.50 606.50 1105.10 486.70 892.50 472.80 Z" fill="url(#SVGID_1_)" fill-rule="nonzero" group-id="1" node-id="241" stroke="none" target-height="3421.3" target-width="3388.1" target-x="239.9" target-y="472.8"></path><path d="M 3807.10 2341.20 C 3807.10 2388.03 3769.13 2426.00 3722.30 2426.00 C 3675.47 2426.00 3637.50 2388.03 3637.50 2341.20 C 3637.50 2294.37 3675.47 2256.40 3722.30 2256.40 C 3769.13 2256.40 3807.10 2294.37 3807.10 2341.20 Z" fill="url(#SVGID_2_)" fill-rule="nonzero" group-id="1" node-id="243" stroke="none" target-height="169.6001" target-width="169.6001" target-x="3637.5" target-y="2256.4"></path><path d="M 928.90 3418.00 C 928.90 3464.83 890.93 3502.80 844.10 3502.80 C 797.27 3502.80 759.30 3464.83 759.30 3418.00 C 759.30 3371.17 797.27 3333.20 844.10 3333.20 C 890.93 3333.20 928.90 3371.17 928.90 3418.00 Z" fill="url(#SVGID_3_)" fill-rule="nonzero" group-id="1" node-id="245" stroke="none" target-height="169.6001" target-width="169.60004" target-x="759.3" target-y="3333.2"></path><path d="M 669.40 1545.70 C 699.30 1325.10 676.30 1100.90 689.20 878.60 C 702.10 656.40 757.60 423.70 914.10 265.40 C 1064.90 112.80 1289.70 52.30 1504.10 56.40 C 1718.60 60.50 1927.20 122.30 2132.80 183.50 C 2362.50 251.90 2600.30 324.80 2778.80 484.70 C 2898.50 591.90 2983.50 731.60 3066.80 869.00 C 3151.80 1009.40 3236.80 1149.80 3321.90 1290.20 C 3408.70 1433.50 3497.90 1584.60 3506.20 1751.90 C 3522.80 2087.50 3213.50 2366.30 3202.70 2702.20 C 3196.80 2886.00 3282.30 3065.90 3263.10 3248.80 C 3243.90 3431.20 3119.90 3590.50 2966.20 3690.40 C 2812.50 3790.40 2631.10 3838.60 2451.00 3872.90 C 2169.00 3926.60 1881.30 3949.90 1594.30 3942.20 C 1416.00 3937.40 1206.50 3900.30 1128.80 3739.80 C 1070.60 3619.60 1107.50 3463.10 1027.20 3356.40 C 956.60 3262.50 825.70 3245.90 714.60 3207.70 C 496.70 3132.80 321.90 2943.20 265.00 2720.00 C 142.70 2240.70 609.90 1985.50 669.40 1545.70 Z" fill="#d9d9d9" fill-rule="nonzero" group-id="1" node-id="247" stroke="none" target-height="3897.5999" target-width="3380.1" target-x="142.7" target-y="52.3"></path><g node-id="459"><g node-id="466"><path d="M 669.40 1545.70 C 699.30 1325.10 676.30 1100.90 689.20 878.60 C 702.10 656.40 757.60 423.70 914.10 265.40 C 1064.90 112.80 1289.70 52.30 1504.10 56.40 C 1718.60 60.50 1927.20 122.30 2132.80 183.50 C 2362.50 251.90 2600.30 324.80 2778.80 484.70 C 2898.50 591.90 2983.50 731.60 3066.80 869.00 C 3151.80 1009.40 3236.80 1149.80 3321.90 1290.20 C 3408.70 1433.50 3497.90 1584.60 3506.20 1751.90 C 3522.80 2087.50 3213.50 2366.30 3202.70 2702.20 C 3196.80 2886.00 3282.30 3065.90 3263.10 3248.80 C 3243.90 3431.20 3119.90 3590.50 2966.20 3690.40 C 2812.50 3790.40 2631.10 3838.60 2451.00 3872.90 C 2169.00 3926.60 1881.30 3949.90 1594.30 3942.20 C 1416.00 3937.40 1206.50 3900.30 1128.80 3739.80 C 1070.60 3619.60 1107.50 3463.10 1027.20 3356.40 C 956.60 3262.50 825.70 3245.90 714.60 3207.70 C 496.70 3132.80 321.90 2943.20 265.00 2720.00 C 142.70 2240.70 609.90 1985.50 669.40 1545.70 Z" fill="url(#XMLID_2_)" fill-rule="nonzero" group-id="1,2,9" node-id="253" stroke="none" target-height="3897.5999" target-width="3380.1" target-x="142.7" target-y="52.3"></path></g><g clip-path="url(#XMLID_3_)" group-id="1,2,10" node-id="256"><path d="M 86.60 2751.00 C 86.60 2751.00 205.20 2270.90 658.30 2341.20 C 1111.40 2411.50 1522.00 2290.70 1890.40 2178.00 C 2258.80 2065.30 2704.20 2178.20 3003.20 2582.30 C 3302.20 2986.30 3064.10 3194.30 3214.90 3340.50 C 3365.70 3486.70 3421.30 3502.80 3421.30 3502.80 C 3421.30 3502.80 3211.50 3899.60 3054.40 3986.90 C 2897.30 4074.30 928.20 4018.70 928.20 4018.70 L 244.70 3253.40 L 86.60 2751.00 Z" fill="url(#SVGID_4_)" fill-rule="nonzero" group-id="1,2,10" node-id="258" stroke="none" target-height="2009" target-width="3334.7" target-x="86.6" target-y="2065.3"></path></g></g><g node-id="460"><path d="M 1443.60 1594.00 L 968.90 2762.00 L 1010.60 2762.00 L 1489.90 1594.00 Z" fill="#787878" fill-rule="nonzero" group-id="1,3" node-id="264" stroke="none" target-height="1168" target-width="521" target-x="968.9" target-y="1594"></path><path d="M 968.90 1090.10 L 1295.20 2457.70 L 1254.60 2456.20 L 928.20 1088.30 L 1863.80 1065.30 L 1864.30 1068.10 Z" fill="#bdbdbd" fill-rule="nonzero" group-id="1,3" node-id="266" stroke="none" target-height="1392.3999" target-width="936.10004" target-x="928.2" target-y="1065.3"></path><path d="M 2191.60 2490.80 L 1295.30 2458.00 L 1295.20 2457.70 L 968.90 1090.10 L 1864.30 1068.10 L 1904.50 1067.20 Z" fill="#ffffff" fill-rule="nonzero" group-id="1,3" node-id="268" stroke="none" target-height="1423.6001" target-width="1222.7001" target-x="968.9" target-y="1067.2"></path><path d="M 904.00 1028.20 L 902.90 1086.50 L 966.10 1086.50 L 945.30 1023.50 Z" fill="#102140" fill-rule="nonzero" group-id="1,3" node-id="270" stroke="none" target-height="63" target-width="63.19995" target-x="902.9" target-y="1023.5"></path><path d="M 1900.80 1011.10 L 945.30 1023.50 L 966.10 1086.50 L 1916.70 1065.30 Z" fill="#1e3f7a" fill-rule="nonzero" group-id="1,3" node-id="272" stroke="none" target-height="75.400024" target-width="971.39996" target-x="945.3" target-y="1011.1"></path><path d="M 1457.30 1351.40 C 1457.30 1416.60 1397.10 1469.50 1322.80 1469.50 C 1248.50 1469.50 1188.30 1416.60 1188.30 1351.40 C 1188.30 1286.10 1248.50 1233.30 1322.80 1233.30 C 1328.00 1233.30 1333.20 1233.60 1338.20 1234.10 C 1378.60 1238.10 1413.60 1257.90 1435.00 1286.20 C 1449.10 1304.80 1457.30 1327.20 1457.30 1351.40 Z" fill="#dbd2db" fill-rule="nonzero" group-id="1,3" node-id="274" stroke="none" target-height="236.19995" target-width="269" target-x="1188.3" target-y="1233.3"></path><path d="M 1435.00 1286.10 L 1322.80 1351.30 L 1338.20 1233.90 C 1378.50 1238.00 1413.50 1257.80 1435.00 1286.10 Z" fill="#1b51c6" fill-rule="nonzero" group-id="1,3" node-id="276" stroke="none" target-height="117.400024" target-width="112.19995" target-x="1322.8" target-y="1233.9"></path><path d="M 1551.20 1720.10 C 1551.20 1736.10 1547.60 1751.50 1540.90 1765.40 L 1416.60 1720.10 L 1528.80 1654.90 C 1543.00 1673.60 1551.20 1696.00 1551.20 1720.10 Z" fill="#dbd2db" fill-rule="nonzero" group-id="1,3" node-id="278" stroke="none" target-height="110.5" target-width="134.59998" target-x="1416.6" target-y="1654.9"></path><path d="M 1432.10 1602.80 L 1416.70 1720.20 L 1309.20 1791.10 C 1292.30 1771.40 1282.20 1746.80 1282.20 1720.20 C 1282.20 1654.90 1342.40 1602.10 1416.70 1602.10 C 1421.90 1602.00 1427.10 1602.20 1432.10 1602.80 Z" fill="#dbd2db" fill-rule="nonzero" group-id="1,3" node-id="280" stroke="none" target-height="189.09998" target-width="149.90002" target-x="1282.2" target-y="1602"></path><path d="M 1528.90 1654.90 L 1416.70 1720.10 L 1432.10 1602.70 C 1472.50 1606.80 1507.50 1626.50 1528.90 1654.90 Z" fill="#1b51c6" fill-rule="nonzero" group-id="1,3" node-id="282" stroke="none" target-height="117.400024" target-width="112.20007" target-x="1416.7" target-y="1602.7"></path><path d="M 1645.20 2088.90 C 1645.20 2102.90 1642.40 2116.30 1637.30 2128.80 L 1510.60 2088.90 L 1622.80 2023.70 C 1637.00 2042.30 1645.20 2064.80 1645.20 2088.90 Z" fill="#ffde70" fill-rule="nonzero" group-id="1,3" node-id="284" stroke="none" target-height="105.1001" target-width="134.59998" target-x="1510.6" target-y="2023.7"></path><path d="M 1601.10 2176.40 C 1577.20 2195.40 1545.50 2207.10 1510.70 2207.10 C 1436.40 2207.10 1376.20 2154.20 1376.20 2089.00 C 1376.20 2023.70 1436.40 1970.90 1510.70 1970.90 C 1515.90 1970.90 1521.10 1971.20 1526.10 1971.70 L 1510.70 2089.10 L 1601.10 2176.40 Z" fill="#dbd2db" fill-rule="nonzero" group-id="1,3" node-id="286" stroke="none" target-height="236.20007" target-width="224.90002" target-x="1376.2" target-y="1970.9"></path><path d="M 1622.90 2023.70 L 1510.70 2088.90 L 1526.10 1971.50 C 1566.50 1975.60 1601.50 1995.30 1622.90 2023.70 Z" fill="#1b51c6" fill-rule="nonzero" group-id="1,3" node-id="288" stroke="none" target-height="117.3999" target-width="112.20007" target-x="1510.7" target-y="1971.5"></path><path d="M 1637.40 2128.70 C 1629.90 2147.10 1617.30 2163.40 1601.10 2176.30 L 1510.70 2088.80 L 1637.40 2128.70 Z" fill="#eb485c" fill-rule="nonzero" group-id="1,3" node-id="290" stroke="none" target-height="87.5" target-width="126.70007" target-x="1510.7" target-y="2088.8"></path><path d="M 1541.00 1765.40 C 1536.80 1774.40 1531.30 1782.80 1524.80 1790.40 C 1500.30 1819.40 1461.00 1838.20 1416.70 1838.20 C 1383.60 1838.20 1353.20 1827.70 1329.80 1810.20 C 1322.10 1804.50 1315.20 1798.10 1309.20 1791.00 L 1416.70 1720.10 L 1541.00 1765.40 Z" fill="#ffde70" fill-rule="nonzero" group-id="1,3" node-id="292" stroke="none" target-height="118.099976" target-width="231.80005" target-x="1309.2" target-y="1720.1"></path><path d="M 1541.00 1283.40 L 1887.50 1283.40 L 1895.40 1308.70 L 1551.20 1308.70 Z" fill="#d9d9d9" fill-rule="nonzero" group-id="1,3" node-id="294" stroke="none" target-height="25.299927" target-width="354.40002" target-x="1541" target-y="1283.4"></path><path d="M 1521.30 1234.00 L 1867.80 1234.00 L 1875.80 1259.30 L 1531.60 1259.30 Z" fill="url(#SVGID_5_)" fill-rule="nonzero" group-id="1,3" node-id="296" stroke="none" target-height="25.300049" target-width="354.5" target-x="1521.3" target-y="1234"></path><path d="M 1620.40 1602.80 L 1966.90 1602.80 L 1974.80 1628.10 L 1630.70 1628.10 Z" fill="url(#SVGID_6_)" fill-rule="nonzero" group-id="1,3" node-id="298" stroke="none" target-height="25.299927" target-width="354.40002" target-x="1620.4" target-y="1602.8"></path><path d="M 1732.90 1675.10 L 1969.40 1675.10 L 1977.30 1700.40 L 1743.10 1700.40 Z" fill="#d9d9d9" fill-rule="nonzero" group-id="1,3" node-id="300" stroke="none" target-height="25.300049" target-width="244.40002" target-x="1732.9" target-y="1675.1"></path><path d="M 1708.40 2012.00 L 2054.90 2012.00 L 2062.80 2037.30 L 1718.60 2037.30 Z" fill="#d9d9d9" fill-rule="nonzero" group-id="1,3" node-id="302" stroke="none" target-height="25.300049" target-width="354.40002" target-x="1708.4" target-y="2012"></path><path d="M 1688.70 1962.70 L 2035.20 1962.70 L 2043.20 1988.00 L 1699.00 1988.00 Z" fill="url(#SVGID_7_)" fill-rule="nonzero" group-id="1,3" node-id="304" stroke="none" target-height="25.300049" target-width="354.5" target-x="1688.7" target-y="1962.7"></path></g><g node-id="461"><path d="M 1940.80 1844.30 C 2018.70 1866.10 2112.10 1869.20 2162.00 1794.50 C 2183.80 1761.70 2203.50 1729.30 2222.30 1697.20 L 2231.70 1285.60 C 2231.70 1285.60 2189.40 1304.10 2153.60 1469.60 C 2117.90 1635.00 2098.70 1740.40 2004.10 1713.80 C 1894.60 1683.00 1855.90 1666.80 1855.90 1666.80 C 1822.10 1680.70 1798.30 1699.10 1793.40 1728.10 C 1829.80 1779.80 1879.60 1825.60 1940.80 1844.30 Z" fill="#ffffff" fill-rule="nonzero" group-id="1,4" node-id="309" stroke="none" target-height="583.6" target-width="438.29993" target-x="1793.4" target-y="1285.6"></path><path d="M 2162.00 1794.40 C 2112.20 1869.20 2018.70 1866.00 1940.80 1844.20 C 1879.60 1825.60 1829.80 1779.70 1793.30 1727.90 C 1791.30 1739.90 1792.50 1753.80 1797.60 1769.90 C 1797.60 1769.90 1925.30 1926.10 2041.80 1918.10 C 2158.30 1910.20 2221.90 1715.40 2221.90 1715.40 L 2222.30 1697.00 C 2203.40 1729.20 2183.80 1761.60 2162.00 1794.40 Z" fill="#d9d9d9" fill-rule="nonzero" group-id="1,4" node-id="311" stroke="none" target-height="229.09998" target-width="431" target-x="1791.3" target-y="1697"></path><path d="M 1807.50 1777.10 C 1807.50 1777.10 1858.50 1789.10 1876.20 1751.90 C 1893.90 1714.70 1889.40 1682.90 1872.00 1676.50 C 1854.60 1670.00 1825.40 1687.90 1818.40 1703.30 C 1811.50 1718.60 1782.70 1758.20 1807.50 1777.10 Z" fill="#1a1a1a" fill-rule="nonzero" group-id="1,4" node-id="313" stroke="#1a1a1a" stroke-linecap="round" stroke-width="2" target-height="119.099976" target-width="111.20007" target-x="1782.7" target-y="1670"></path><path d="M 1868.40 1689.20 C 1868.40 1689.20 1818.80 1643.20 1802.90 1595.70 C 1787.00 1548.20 1759.90 1538.90 1750.60 1538.30 C 1742.00 1551.50 1763.80 1600.50 1765.80 1603.20 C 1767.80 1605.80 1734.00 1570.80 1691.70 1557.50 C 1649.40 1544.30 1599.70 1557.50 1599.70 1557.50 C 1599.70 1557.50 1603.70 1637.00 1630.80 1661.10 C 1657.90 1685.20 1726.10 1696.50 1751.90 1713.70 C 1777.70 1730.90 1829.60 1761.50 1832.80 1762.40 C 1857.60 1769.60 1891.80 1699.20 1868.40 1689.20 Z" fill="#fc9590" fill-rule="nonzero" group-id="1,4" node-id="315" stroke="none" target-height="231.29993" target-width="292.1001" target-x="1599.7" target-y="1538.3"></path><path d="M 2513.40 1161.80 C 2536.50 1154.10 2545.00 1131.70 2550.80 1107.50 C 2530.00 1109.30 2498.20 1112.00 2449.40 1116.10 C 2446.00 1132.00 2440.20 1145.80 2433.20 1157.70 C 2453.90 1176.80 2488.20 1169.30 2513.40 1161.80 Z" fill="#db6767" fill-rule="nonzero" group-id="1,4" node-id="317" stroke="none" target-height="69.30005" target-width="117.6001" target-x="2433.2" target-y="1107.5"></path><path d="M 2619.10 1196.50 C 2590.30 1173.00 2589.60 1104.20 2589.60 1104.20 C 2589.60 1104.20 2589.60 1104.20 2550.70 1107.50 C 2544.90 1131.60 2536.50 1154.10 2513.30 1161.80 C 2488.10 1169.40 2453.90 1176.90 2433.10 1157.70 C 2408.30 1199.70 2368.50 1217.40 2368.50 1217.40 C 2368.50 1217.40 2505.50 1290.20 2573.60 1282.90 C 2641.80 1275.60 2659.00 1224.70 2659.00 1224.70 C 2659.00 1224.70 2647.80 1220.00 2619.10 1196.50 Z" fill="#fc9590" fill-rule="nonzero" group-id="1,4" node-id="319" stroke="none" target-height="186" target-width="290.5" target-x="2368.5" target-y="1104.2"></path><path d="M 2410.30 2083.60 C 2401.90 2086.40 2429.80 2117.00 2424.20 2119.80 C 2313.60 2144.40 2203.10 2099.50 2121.20 2025.50 C 2102.70 2086.20 2077.80 2185.40 2069.40 2301.30 C 2055.50 2493.90 2069.40 2698.40 2069.40 2698.40 L 2616.40 2752.00 C 2616.40 2752.00 2686.20 2432.50 2693.40 2254.50 C 2695.10 2212.20 2695.50 2178.90 2695.10 2152.70 C 2637.90 2143.70 2581.60 2129.80 2527.10 2108.70 C 2491.10 2094.70 2443.80 2066.90 2410.30 2083.60 Z" fill="#102140" fill-rule="nonzero" group-id="1,4" node-id="321" stroke="none" target-height="726.5" target-width="640" target-x="2055.5" target-y="2025.5"></path><path d="M 2143.00 1962.10 C 2143.00 1962.10 2133.60 1985.40 2121.30 2025.60 C 2203.20 2099.60 2313.70 2144.40 2424.30 2119.90 C 2429.90 2117.10 2402.00 2086.50 2410.40 2083.70 C 2443.80 2067.00 2491.20 2094.80 2527.30 2108.80 C 2581.90 2129.90 2638.10 2143.80 2695.30 2152.80 C 2694.10 2068.80 2684.90 2057.90 2684.90 2057.90 L 2143.00 1962.10 Z" fill="#1a1a1a" fill-rule="nonzero" group-id="1,4" node-id="323" stroke="#1a1a1a" stroke-linecap="round" stroke-width="2" target-height="190.70007" target-width="574" target-x="2121.3" target-y="1962.1"></path><path d="M 2381.20 1205.40 C 2381.20 1205.40 2491.30 1291.50 2643.30 1219.00 C 2674.90 1298.70 2551.90 1596.50 2551.90 1596.50 L 2532.10 2049.20 C 2532.10 2049.20 2420.90 2083.60 2353.50 2014.80 C 2377.20 1846.70 2381.20 1205.40 2381.20 1205.40 Z" fill="#ffffff" fill-rule="nonzero" group-id="1,4" node-id="325" stroke="none" target-height="878.2001" target-width="321.3999" target-x="2353.5" target-y="1205.4"></path><path d="M 2227.40 1828.70 C 2221.20 1869.20 2211.80 1912.80 2233.60 1947.10 C 2270.00 2006.50 2333.50 2015.20 2398.80 2019.70 C 2439.40 1785.60 2453.70 1341.10 2389.10 1191.60 C 2389.10 1191.60 2275.10 1236.90 2224.70 1268.70 C 2289.40 1448.30 2254.20 1641.30 2227.40 1828.70 Z" fill="#ef5164" fill-rule="nonzero" group-id="1,4" node-id="327" stroke="none" target-height="828.1" target-width="241.8999" target-x="2211.8" target-y="1191.6"></path><path d="M 2233.60 1947.00 C 2211.80 1912.70 2221.10 1869.10 2227.40 1828.60 C 2254.20 1641.30 2289.40 1448.20 2224.80 1268.50 C 2210.70 1277.40 2201.60 1285.20 2201.30 1290.70 C 2225.10 1540.90 2114.50 1975.60 2114.50 1975.60 C 2114.50 1975.60 2236.30 2108.60 2389.20 2068.90 C 2392.60 2053.80 2395.80 2037.20 2398.90 2019.40 C 2333.50 2015.20 2270.00 2006.40 2233.60 1947.00 Z" fill="#d1334a" fill-rule="nonzero" group-id="1,4" node-id="329" stroke="none" target-height="840.1001" target-width="284.3999" target-x="2114.5" target-y="1268.5"></path><path d="M 2722.60 1606.90 C 2717.00 1665.80 2712.80 1726.20 2709.60 1783.80 C 2680.10 1771.90 2649.40 1754.90 2619.40 1732.90 C 2603.50 1674.70 2659.10 1623.80 2659.10 1623.80 C 2659.10 1623.80 2693.70 1609.50 2722.60 1606.90 Z" fill="#ffffff" fill-rule="nonzero" group-id="1,4" node-id="331" stroke="#1a1a1a" stroke-linecap="round" stroke-width="2" target-height="176.90002" target-width="119.1001" target-x="2603.5" target-y="1606.9"></path><path d="M 2497.90 1997.10 C 2495.70 2038.50 2494.30 2065.10 2494.30 2065.10 C 2494.30 2065.10 2587.60 2137.50 2700.70 2076.50 C 2700.70 2021.80 2702.60 1909.40 2709.50 1783.80 C 2696.30 1778.50 2682.80 1772.10 2669.20 1764.70 C 2661.20 1809.70 2651.40 1853.90 2638.50 1897.30 C 2620.20 1954.80 2562.20 1999.20 2497.90 1997.10 Z" fill="#d1334a" fill-rule="nonzero" group-id="1,4" node-id="333" stroke="none" target-height="372.80005" target-width="215.19995" target-x="2494.3" target-y="1764.7"></path><path d="M 2713.30 1523.40 C 2717.90 1439.70 2710.50 1352.60 2729.70 1271.00 C 2675.70 1210.70 2649.20 1205.40 2649.20 1205.40 C 2649.20 1205.40 2528.10 1481.40 2518.20 1638.20 C 2511.40 1745.80 2502.70 1906.60 2497.90 1997.00 C 2562.20 1999.20 2620.20 1954.80 2638.60 1897.10 C 2651.50 1853.70 2661.30 1809.50 2669.30 1764.50 C 2652.70 1755.40 2635.90 1744.90 2619.40 1732.70 C 2603.50 1674.50 2659.10 1623.60 2659.10 1623.60 C 2659.10 1623.60 2673.40 1617.70 2691.30 1612.80 C 2694.50 1587.30 2697.60 1561.60 2700.80 1535.70 C 2704.00 1529.60 2713.30 1526.50 2713.30 1523.40 Z" fill="#ef5164" fill-rule="nonzero" group-id="1,4" node-id="335" stroke="none" target-height="793.7999" target-width="231.80005" target-x="2497.9" target-y="1205.4"></path><path d="M 2729.70 1271.10 C 2710.50 1352.60 2718.00 1439.80 2713.30 1523.50 C 2713.30 1526.60 2704.00 1529.70 2700.80 1536.00 C 2697.60 1561.80 2694.50 1587.50 2691.30 1613.10 C 2701.20 1610.40 2712.20 1607.90 2722.50 1607.00 C 2722.60 1606.30 2722.70 1605.50 2722.70 1604.80 C 2732.10 1506.80 2745.30 1413.10 2763.80 1343.30 C 2765.90 1335.50 2768.00 1328.00 2770.20 1320.80 C 2755.30 1300.90 2741.80 1284.60 2729.70 1271.10 Z" fill="#d1334a" fill-rule="nonzero" group-id="1,4" node-id="337" stroke="none" target-height="342" target-width="78.8999" target-x="2691.3" target-y="1271.1"></path><path d="M 2426.20 817.60 C 2426.20 817.60 2412.30 869.90 2448.70 885.10 C 2485.10 900.30 2604.90 1082.30 2604.90 1082.30 L 2577.20 1124.90 C 2577.20 1124.90 2596.30 1147.80 2631.10 1118.00 C 2665.80 1088.20 2733.30 1063.10 2726.70 983.00 C 2712.80 920.10 2687.00 908.90 2667.20 914.20 C 2672.50 865.20 2667.90 856.60 2618.20 824.20 C 2568.60 791.80 2479.30 836.10 2452.80 826.80 C 2426.20 817.60 2426.20 817.60 2426.20 817.60 Z" fill="#102140" fill-rule="nonzero" group-id="1,4" node-id="339" stroke="none" target-height="356.00006" target-width="321" target-x="2412.3" target-y="791.8"></path><path d="M 2448.70 885.10 C 2448.70 885.10 2370.60 1041.30 2424.20 1116.10 C 2477.80 1190.90 2586.30 1122.70 2600.90 1108.80 C 2629.40 1070.40 2629.40 1070.40 2629.40 1070.40 C 2629.40 1070.40 2683.70 1044.60 2670.40 1006.90 C 2657.10 969.20 2625.40 1001.60 2625.40 1001.60 L 2606.20 1017.80 L 2592.30 1012.20 C 2592.30 1012.20 2610.20 971.20 2595.60 953.30 C 2581.00 935.40 2575.30 938.70 2575.30 938.70 C 2575.30 938.70 2580.30 900.30 2526.80 887.10 C 2473.20 873.90 2477.80 891.10 2448.70 885.10 Z" fill="#fc9590" fill-rule="nonzero" group-id="1,4" node-id="341" stroke="none" target-height="317" target-width="313.09985" target-x="2370.6" target-y="873.9"></path><path d="M 2407.00 2259.70 C 2407.00 2259.70 2399.00 2332.20 2385.60 2458.20 C 2368.70 2616.00 2353.40 2718.30 2353.40 2718.30" fill="none" group-id="1,4" node-id="343" stroke="#ffffff" stroke-linecap="round" stroke-width="3" target-height="458.6001" target-width="53.600098" target-x="2353.4" target-y="2259.7"></path><path d="M 2800.50 1744.60 C 2825.40 1741.50 2847.20 1729.00 2859.70 1707.20 C 2875.30 1662.90 2873.50 1616.50 2863.40 1571.50 C 2830.90 1483.50 2786.00 1388.50 2763.80 1343.10 C 2745.30 1412.90 2732.10 1506.60 2722.70 1604.60 L 2732.80 1606.40 C 2729.50 1606.30 2726.00 1606.50 2722.50 1606.80 C 2693.70 1609.40 2659.00 1623.70 2659.00 1623.70 C 2659.00 1623.70 2616.00 1663.10 2616.50 1712.20 C 2666.50 1752.60 2737.20 1758.30 2800.50 1744.60 Z" fill="#ffffff" fill-rule="nonzero" group-id="1,4" node-id="345" stroke="none" target-height="415.20007" target-width="259.30005" target-x="2616" target-y="1343.1"></path><path d="M 2863.40 1571.50 C 2873.50 1616.50 2875.30 1662.90 2859.70 1707.20 C 2847.20 1729.00 2825.40 1741.50 2800.50 1744.60 C 2737.10 1758.40 2666.50 1752.60 2616.50 1712.40 C 2616.60 1719.10 2617.40 1726.00 2619.30 1732.90 C 2649.30 1754.90 2679.90 1771.90 2709.50 1783.80 C 2802.60 1821.30 2884.80 1807.90 2899.90 1739.60 C 2907.20 1706.60 2889.20 1641.30 2863.40 1571.50 Z" fill="#d9d9d9" fill-rule="nonzero" group-id="1,4" node-id="347" stroke="none" target-height="249.80005" target-width="290.69995" target-x="2616.5" target-y="1571.5"></path><path d="M 2658.10 1639.20 C 2658.10 1639.20 2640.50 1631.30 2616.50 1606.40 C 2592.60 1581.60 2531.00 1582.60 2537.00 1591.50 C 2543.00 1600.40 2567.80 1612.30 2584.10 1618.30 C 2509.20 1625.20 2477.40 1593.50 2477.40 1593.50 C 2477.40 1593.50 2458.50 1601.10 2456.60 1638.50 C 2454.60 1675.90 2498.30 1707.70 2528.60 1710.10 C 2558.90 1712.50 2625.50 1718.30 2642.20 1725.00 C 2671.80 1736.80 2677.90 1642.50 2658.10 1639.20 Z" fill="#fc9590" fill-rule="nonzero" group-id="1,4" node-id="349" stroke="none" target-height="155.20007" target-width="223.2998" target-x="2454.6" target-y="1581.6"></path></g><path d="M 2656.50 3496.90 C 2538.30 3367.80 2467.70 3206.60 2355.20 3068.40 C 2302.20 2999.90 2218.10 2981.20 2143.40 2940.70 C 2053.10 2897.10 1947.20 2931.40 1850.60 2909.60 C 1844.40 2909.60 1831.90 2903.40 1835.00 2897.10 C 1841.20 2781.80 1754.00 2679.10 1638.80 2663.50 C 1632.60 2660.40 1629.50 2651.00 1623.20 2651.00 C 1507.90 2651.00 1395.80 2635.40 1277.40 2660.30 C 1243.10 2669.60 1212.00 2675.90 1174.60 2682.10 C 1168.40 2685.20 1162.10 2691.40 1155.90 2694.60 C 1143.40 2697.70 1134.10 2694.60 1121.60 2694.60 C 1112.30 2697.70 1102.90 2707.10 1096.70 2707.10 C 1034.40 2719.60 981.40 2741.40 925.40 2763.20 C 916.10 2769.40 900.50 2769.40 891.10 2772.50 C 875.00 2781.10 859.60 2790.80 844.50 2801.20 C 848.90 2924.10 892.40 3065.30 954.00 3204.10 C 957.90 3205.60 961.90 3207.20 965.80 3208.60 C 1096.60 3258.40 1236.80 3389.30 1377.00 3330.10 C 1464.20 3295.80 1479.80 3186.80 1554.60 3127.60 C 1598.20 3096.50 1657.40 3087.10 1704.10 3108.90 C 1772.60 3143.20 1825.60 3199.20 1866.10 3261.50 C 1915.90 3345.60 1909.70 3445.30 1934.60 3541.80 C 1950.20 3613.40 2009.40 3663.30 2077.90 3685.10 C 2098.30 3691.90 2118.00 3699.80 2137.20 3708.30 C 2272.60 3664.60 2419.40 3605.90 2577.40 3534.10 C 2605.00 3521.70 2631.30 3509.20 2656.50 3496.90 Z" fill="#ccc4cc" fill-rule="nonzero" group-id="1" node-id="352" stroke="none" target-height="1072.9001" target-width="1812" target-x="844.5" target-y="2635.4"></path><path d="M 1934.60 3541.90 C 1909.70 3445.30 1915.90 3345.70 1866.10 3261.60 C 1825.60 3199.30 1772.70 3143.20 1704.10 3109.00 C 1657.40 3087.20 1598.20 3096.50 1554.60 3127.70 C 1479.80 3186.90 1464.30 3295.90 1377.00 3330.20 C 1236.80 3389.40 1096.70 3258.60 965.80 3208.70 C 961.90 3207.20 957.90 3205.70 954.00 3204.20 C 1005.40 3319.90 1069.30 3434.00 1133.60 3534.40 C 1323.80 3831.30 1660.20 3862.60 2137.20 3708.60 C 2117.90 3700.10 2098.30 3692.20 2077.90 3685.40 C 2009.30 3663.40 1950.20 3613.50 1934.60 3541.90 Z" fill="#dbd2db" fill-rule="nonzero" group-id="1" node-id="354" stroke="none" target-height="775.40015" target-width="1183.2" target-x="954" target-y="3087.2"></path><path d="M 2770.30 2718.30 C 1950.50 2200.10 1084.40 2456.20 1084.40 2456.20 C 902.10 2506.30 838.70 2637.50 844.60 2801.20 C 859.60 2790.90 875.00 2781.10 891.20 2772.50 C 900.50 2769.40 916.10 2769.40 925.50 2763.20 C 981.60 2741.40 1034.50 2719.60 1096.80 2707.10 C 1103.00 2707.10 1112.40 2697.80 1121.70 2694.60 C 1134.20 2694.60 1143.50 2697.70 1156.00 2694.60 C 1162.20 2691.50 1168.50 2685.30 1174.70 2682.10 C 1212.10 2675.90 1243.20 2669.60 1277.50 2660.30 C 1395.90 2635.40 1508.00 2651.00 1623.30 2651.00 C 1629.50 2651.00 1632.60 2660.30 1638.90 2663.50 C 1754.20 2679.10 1841.40 2781.90 1835.10 2897.10 C 1832.00 2903.30 1844.40 2909.60 1850.70 2909.60 C 1947.30 2931.40 2053.20 2897.10 2143.50 2940.70 C 2218.30 2981.20 2302.40 2999.90 2355.30 3068.40 C 2467.80 3206.50 2538.40 3367.70 2656.60 3496.90 C 3280.70 3190.10 3140.40 2947.30 2770.30 2718.30 Z" fill="#dbd2db" fill-rule="nonzero" group-id="1" node-id="356" stroke="none" target-height="1296.7998" target-width="2442" target-x="838.7" target-y="2200.1"></path><path d="M 1426.40 2667.90 L 1797.60 2853.80 L 1978.20 2585.20 L 1601.10 2423.50 Z" fill="#ffffff" fill-rule="nonzero" group-id="1,5" node-id="360" stroke="none" target-height="430.30005" target-width="551.7999" target-x="1426.4" target-y="2423.5"></path><path d="M 1451.00 2665.30 L 1789.10 2834.60 L 1953.70 2590.00 L 1610.10 2442.70 Z" fill="url(#SVGID_8_)" fill-rule="nonzero" group-id="1,5" node-id="362" stroke="none" target-height="391.90015" target-width="502.69995" target-x="1451" target-y="2442.7"></path><path d="M 1983.10 2604.80 L 1978.20 2585.20 L 1797.60 2853.80 L 1803.40 2873.90 Z" fill="#425373" fill-rule="nonzero" group-id="1,5" node-id="364" stroke="none" target-height="288.69995" target-width="185.5" target-x="1797.6" target-y="2585.2"></path><path d="M 1783.70 2864.50 L 1515.70 2955.90 L 1167.10 2765.20 L 1421.10 2686.50 Z" fill="url(#SVGID_9_)" fill-rule="nonzero" group-id="1,5" node-id="366" stroke="none" target-height="269.3999" target-width="616.6" target-x="1167.1" target-y="2686.5"></path><path d="M 1731.10 2857.10 L 1508.90 2932.90 L 1219.70 2774.80 L 1430.40 2709.50 Z" fill="#1b51c6" fill-rule="nonzero" group-id="1,5" node-id="368" stroke="none" target-height="223.3999" target-width="511.40002" target-x="1219.7" target-y="2709.5"></path><path d="M 1783.70 2864.50 L 1783.70 2907.60 L 1515.70 2998.90 L 1167.10 2808.40 L 1167.10 2765.20 L 1515.70 2955.90 Z" fill="#425373" fill-rule="nonzero" group-id="1,5" node-id="370" stroke="none" target-height="233.69995" target-width="616.6" target-x="1167.1" target-y="2765.2"></path><path d="M 1026.70 2703.90 C 1026.70 2703.90 1104.60 2579.50 1132.70 2590.30 C 1160.80 2601.10 1211.70 2644.80 1211.70 2646.80 C 1211.70 2648.80 1158.70 2828.40 1132.70 2829.50 C 1106.70 2830.50 1026.70 2703.90 1026.70 2703.90 Z" fill="#d1334a" fill-rule="nonzero" group-id="1,6" node-id="375" stroke="none" target-height="251" target-width="185" target-x="1026.7" target-y="2579.5"></path><path d="M 1165.20 2607.40 C 1189.00 2565.80 1214.00 2522.90 1245.90 2489.20 C 1239.40 2492.50 1233.40 2496.00 1228.20 2499.70 C 1198.30 2520.60 1142.00 2605.00 1140.60 2607.20 C 1133.90 2637.80 1144.40 2653.60 1167.70 2658.30 C 1156.10 2641.00 1157.20 2620.80 1165.20 2607.40 Z" fill="#db6767" fill-rule="nonzero" group-id="1,6" node-id="377" stroke="none" target-height="169.1001" target-width="112" target-x="1133.9" target-y="2489.2"></path><path d="M 1331.00 2461.50 C 1317.90 2461.50 1276.70 2473.30 1245.90 2489.30 C 1214.00 2523.00 1189.00 2565.90 1165.20 2607.50 C 1157.20 2620.90 1156.10 2641.10 1167.70 2658.40 C 1173.50 2659.60 1180.10 2660.10 1187.50 2660.00 C 1187.50 2660.00 1221.40 2616.70 1247.40 2602.30 C 1273.40 2587.90 1336.10 2559.70 1342.60 2525.80 C 1349.10 2491.80 1346.90 2461.50 1331.00 2461.50 Z" fill="#fc9590" fill-rule="nonzero" group-id="1,6" node-id="379" stroke="none" target-height="198.6001" target-width="193" target-x="1156.1" target-y="2461.5"></path><path d="M 1305.40 2507.70 C 1308.50 2504.60 1308.50 2495.20 1305.40 2492.10 C 1304.60 2492.10 1303.70 2491.70 1302.90 2491.10 C 1294.30 2493.00 1285.30 2496.60 1274.10 2498.30 C 1254.60 2501.20 1254.60 2501.20 1254.60 2501.20 L 1230.80 2578.40 C 1230.80 2578.40 1234.10 2572.70 1239.50 2565.10 C 1248.50 2537.00 1279.10 2523.50 1305.40 2507.70 Z" fill="#fc9590" fill-rule="nonzero" group-id="1,6" node-id="381" stroke="none" target-height="87.299805" target-width="77.69995" target-x="1230.8" target-y="2491.1"></path><path d="M 1321.70 2490.90 C 1315.30 2489.10 1309.20 2489.70 1302.90 2491.10 C 1303.70 2491.70 1304.60 2492.10 1305.40 2492.10 C 1308.50 2495.20 1308.50 2504.60 1305.40 2507.70 C 1279.20 2523.40 1248.50 2537.00 1239.50 2565.00 C 1249.70 2550.60 1267.50 2529.50 1284.90 2527.10 C 1311.60 2523.50 1336.80 2495.10 1321.70 2490.90 Z" fill="#db6767" fill-rule="nonzero" group-id="1,6" node-id="383" stroke="none" target-height="75.8999" target-width="97.30005" target-x="1239.5" target-y="2489.1"></path><path d="M 1392.60 2660.40 C 1410.60 2615.50 1396.90 2553.40 1346.00 2534.80 C 1342.00 2548.20 1338.20 2561.90 1333.60 2571.50 C 1321.70 2596.40 1345.50 2617.30 1362.80 2659.90 C 1367.40 2671.20 1370.10 2680.70 1371.60 2688.80 C 1381.90 2682.10 1389.30 2671.70 1392.60 2660.40 Z" fill="#db6767" fill-rule="nonzero" group-id="1,6" node-id="385" stroke="none" target-height="154" target-width="88.900024" target-x="1321.7" target-y="2534.8"></path><path d="M 1448.60 2583.40 C 1434.20 2530.00 1384.40 2488.20 1368.50 2491.10 C 1358.80 2492.90 1352.30 2513.40 1346.00 2534.80 C 1396.80 2553.40 1410.50 2615.50 1392.60 2660.40 C 1389.40 2671.70 1381.90 2682.20 1371.60 2688.80 C 1375.80 2711.10 1370.80 2721.30 1370.80 2721.30 L 1439.30 2733.60 C 1439.20 2733.40 1463.00 2636.80 1448.60 2583.40 Z" fill="#fc9590" fill-rule="nonzero" group-id="1,6" node-id="387" stroke="none" target-height="245.40015" target-width="117" target-x="1346" target-y="2488.2"></path><path d="M 1349.70 2553.50 C 1348.30 2560.50 1350.90 2571.70 1357.70 2582.30 C 1373.60 2599.50 1374.20 2642.60 1373.80 2659.10 C 1394.20 2634.40 1360.50 2585.90 1349.70 2553.50 Z" fill="#db6767" fill-rule="nonzero" group-id="1,6" node-id="389" stroke="none" target-height="105.6001" target-width="45.899902" target-x="1348.3" target-y="2553.5"></path><path d="M 1419.40 2620.90 C 1419.40 2620.90 1403.90 2625.20 1400.60 2607.60 C 1397.40 2589.90 1375.70 2554.20 1361.30 2547.70 C 1354.70 2544.70 1350.80 2547.70 1349.60 2553.50 C 1360.40 2585.90 1376.60 2606.30 1379.70 2652.40 C 1378.30 2673.50 1392.30 2676.90 1392.30 2676.90 L 1419.40 2620.90 Z" fill="#fc9590" fill-rule="nonzero" group-id="1,6" node-id="391" stroke="none" target-height="132.19995" target-width="69.80005" target-x="1349.6" target-y="2544.7"></path><path d="M 1055.00 3089.00 L 862.20 2742.80 C 862.20 2742.80 947.80 2933.90 1055.00 3089.00 Z" fill="#ef5164" fill-rule="nonzero" group-id="1,6" node-id="393" stroke="none" target-height="346.19995" target-width="192.79999" target-x="862.2" target-y="2742.8"></path><path d="M 648.10 2853.50 C 595.10 2685.30 626.30 2498.40 738.40 2358.20 C 741.30 2354.80 744.50 2351.30 747.90 2347.80 C 464.00 2389.80 461.40 3052.00 461.40 3052.00 C 578.70 3209.00 806.10 3228.60 941.00 3290.50 C 935.40 3278.10 928.80 3266.30 922.20 3255.30 C 838.10 3108.90 698.00 3012.40 648.10 2853.50 Z" fill="#d1334a" fill-rule="nonzero" group-id="1,6" node-id="395" stroke="none" target-height="942.69995" target-width="479.6" target-x="461.4" target-y="2347.8"></path><path d="M 1457.30 2725.50 C 1457.30 2725.50 1457.30 2695.20 1368.60 2693.60 C 1321.00 2707.20 1290.70 2868.30 1260.40 3041.40 C 1232.30 2978.60 1048.40 2316.40 756.30 2346.70 C 753.50 2347.00 750.80 2347.40 748.10 2347.80 C 744.60 2351.30 741.50 2354.80 738.60 2358.20 C 626.50 2498.40 595.30 2685.30 648.30 2853.50 C 698.10 3012.40 838.30 3108.90 922.40 3255.30 C 929.00 3266.30 935.60 3278.10 941.20 3290.50 C 983.50 3309.90 1016.70 3333.40 1034.60 3366.50 C 1040.40 3377.20 1050.20 3236.80 1061.30 3232.40 C 1053.20 3203.20 1051.70 3132.30 1055.10 3088.90 L 1055.10 3088.90 C 947.90 2933.90 862.30 2742.70 862.30 2742.70 L 1055.00 3089.00 C 1128.10 3194.80 1211.30 3283.90 1284.20 3283.90 C 1463.70 3283.80 1457.30 2725.50 1457.30 2725.50 Z" fill="#ef5164" fill-rule="nonzero" group-id="1,6" node-id="397" stroke="none" target-height="1060.8" target-width="868.39996" target-x="595.3" target-y="2316.4"></path><path d="M 1071.70 2174.40 C 1058.90 2132.20 1048.20 2090.00 1039.70 2047.80 C 968.30 2042.70 915.70 2082.50 864.30 2161.40 C 854.90 2226.00 822.70 2278.50 785.10 2336.30 C 774.40 2353.20 764.40 2369.30 757.00 2386.50 C 809.50 2411.20 895.60 2446.10 934.30 2429.60 C 935.70 2380.50 981.90 2335.80 981.90 2335.80 C 981.90 2335.80 981.90 2335.80 1013.40 2330.10 C 1014.30 2326.50 1015.70 2323.80 1015.70 2323.80 C 1071.70 2289.70 1093.60 2230.50 1071.70 2174.40 Z" fill="#fc9590" fill-rule="nonzero" group-id="1,6" node-id="399" stroke="none" target-height="403.40015" target-width="336.59998" target-x="757" target-y="2042.7"></path><path d="M 1059.90 2050.30 C 1053.00 2049.10 1046.30 2048.30 1039.80 2047.80 C 1048.30 2090.00 1058.90 2132.20 1071.80 2174.40 C 1093.60 2230.50 1071.80 2289.70 1015.70 2323.90 C 1015.70 2323.90 1014.40 2326.60 1013.40 2330.20 C 1022.00 2328.60 1032.90 2326.60 1046.90 2324.10 C 1132.00 2299.30 1107.50 2229.20 1059.90 2050.30 Z" fill="#fc9590" fill-rule="nonzero" group-id="1,6" node-id="401" stroke="none" target-height="282.3999" target-width="118.599976" target-x="1013.4" target-y="2047.8"></path><path d="M 864.40 2161.50 C 848.40 2186.10 832.50 2214.50 816.10 2246.60 C 780.00 2324.50 713.70 2364.90 713.70 2364.90 C 713.70 2364.90 731.40 2374.60 757.10 2386.70 C 764.50 2369.50 774.40 2353.30 785.20 2336.50 C 822.80 2278.60 855.00 2226.00 864.40 2161.50 Z" fill="#db6767" fill-rule="nonzero" group-id="1,6" node-id="403" stroke="none" target-height="225.19995" target-width="150.70001" target-x="713.7" target-y="2161.5"></path><path d="M 788.10 2271.60 C 788.10 2271.60 851.40 2326.20 920.60 2319.80 C 941.20 2285.20 959.60 2251.60 959.60 2251.60 C 959.60 2251.60 932.50 2230.00 949.80 2183.40 C 974.70 2149.90 998.50 2197.50 998.50 2197.50 L 1005.50 2214.30 L 1023.40 2210.00 C 1023.40 2210.00 1022.30 2171.00 1023.40 2167.30 C 1024.50 2163.50 1036.40 2122.90 1060.70 2111.60 C 1085.00 2100.20 1095.30 2091.60 1096.40 2081.80 C 1097.50 2072.10 1097.50 2072.10 1097.50 2072.10 C 1098.00 2067.20 1072.60 2031.10 1059.10 2032.40 C 1088.90 2033.70 1103.20 2016.90 1103.20 2016.90 C 1103.20 2016.90 1071.60 2021.90 1048.80 2004.20 C 1026.10 1986.60 972.50 1981.70 943.90 1996.80 C 902.20 1999.00 866.00 2003.30 866.50 2042.20 C 817.30 2047.10 787.00 2114.70 784.80 2179.10 C 782.60 2243.50 788.10 2271.60 788.10 2271.60 Z" fill="#102140" fill-rule="nonzero" group-id="1,6" node-id="405" stroke="none" target-height="344.5" target-width="320.59998" target-x="782.6" target-y="1981.7"></path><path d="M 1779.00 3040.00 L 2041.40 2938.10 L 2401.00 3180.20 L 2152.60 3304.90 Z" fill="#ffffff" fill-rule="nonzero" group-id="1,7" node-id="410" stroke="none" target-height="366.7998" target-width="622" target-x="1779" target-y="2938.1"></path><path d="M 2103.90 3163.00 C 2087.50 3170.00 2071.40 3178.60 2056.00 3189.90 C 1997.10 3232.00 2006.40 3296.80 2033.90 3350.20 C 2055.20 3342.70 2078.60 3331.40 2074.60 3318.30 C 2067.60 3295.10 2119.50 3259.60 2119.50 3259.60 L 2104.80 3233.90 C 2104.90 3234.00 2104.90 3234.00 2103.90 3163.00 Z" fill="#fc9590" fill-rule="nonzero" group-id="1,7" node-id="412" stroke="none" target-height="187.19995" target-width="122.400024" target-x="1997.1" target-y="3163"></path><path d="M 2056.10 3189.90 C 2071.50 3178.50 2087.60 3169.90 2104.00 3163.00 C 2103.90 3158.10 2103.90 3152.80 2103.80 3147.20 C 2085.50 3148.40 1995.40 3206.90 1988.90 3253.40 C 1982.40 3299.90 2002.10 3359.60 2002.10 3359.60 C 2002.10 3359.60 2017.40 3356.20 2034.00 3350.30 C 2006.50 3296.80 1997.20 3232.00 2056.10 3189.90 Z" fill="#db6767" fill-rule="nonzero" group-id="1,7" node-id="414" stroke="none" target-height="212.40015" target-width="121.599976" target-x="1982.4" target-y="3147.2"></path><path d="M 2085.40 3052.10 L 2101.70 3295.40 C 2115.70 3316.60 2161.70 3324.90 2196.20 3318.00 L 2185.00 3052.20 L 2085.40 3052.20 Z" fill="#813782" fill-rule="nonzero" group-id="1,7" node-id="416" stroke="none" target-height="272.7998" target-width="110.80005" target-x="2085.4" target-y="3052.1"></path><path d="M 2185.00 3052.10 L 2196.20 3317.90 C 2215.80 3314.00 2231.70 3305.20 2236.10 3291.00 L 2239.50 3052.00 L 2185.00 3052.00 Z" fill="#572658" fill-rule="nonzero" group-id="1,7" node-id="418" stroke="none" target-height="265.8999" target-width="54.5" target-x="2185" target-y="3052"></path><path d="M 2239.60 3052.10 C 2239.60 3062.81 2205.08 3071.50 2162.50 3071.50 C 2119.92 3071.50 2085.40 3062.81 2085.40 3052.10 C 2085.40 3041.39 2119.92 3032.70 2162.50 3032.70 C 2205.08 3032.70 2239.60 3041.39 2239.60 3052.10 Z" fill="#102140" fill-rule="nonzero" group-id="1,7" node-id="420" stroke="none" target-height="38.80005" target-width="154.2002" target-x="2085.4" target-y="3032.7"></path><path d="M 2666.60 2803.70 C 2692.60 2737.20 2681.10 2665.30 2659.30 2595.50 C 2605.30 2581.20 2545.20 2593.70 2520.50 2616.60 C 2470.40 2663.10 2501.20 2722.10 2501.20 2722.10 C 2501.20 2722.10 2507.90 2747.80 2499.30 2802.80 C 2490.70 2857.80 2517.20 2928.30 2584.10 2944.90 C 2590.20 2984.00 2570.60 3106.80 2570.60 3106.80 C 2578.80 3118.40 2601.40 3115.00 2628.90 3104.60 C 2609.90 3005.20 2626.90 2901.80 2666.60 2803.70 Z" fill="#fc9590" fill-rule="nonzero" group-id="1,7" node-id="422" stroke="none" target-height="537.19995" target-width="222.2002" target-x="2470.4" target-y="2581.2"></path><path d="M 2734.50 2899.00 C 2734.50 2899.00 2752.80 2861.10 2761.40 2743.70 C 2764.50 2653.60 2715.20 2610.20 2659.30 2595.50 C 2681.00 2665.30 2692.60 2737.20 2666.60 2803.70 C 2626.90 2901.80 2609.90 3005.20 2628.90 3104.70 C 2690.40 3081.50 2776.00 3023.70 2776.00 3023.70 L 2734.50 2899.00 Z" fill="#db6767" fill-rule="nonzero" group-id="1,7" node-id="424" stroke="none" target-height="509.19995" target-width="166.1001" target-x="2609.9" target-y="2595.5"></path><path d="M 2439.60 3481.10 L 2439.60 3481.10 C 2464.20 3434.10 2482.10 3391.20 2489.60 3365.30 L 2439.60 3481.10 Z" fill="#ffde70" fill-rule="nonzero" group-id="1,7" node-id="426" stroke="none" target-height="115.80005" target-width="50" target-x="2439.6" target-y="3365.3"></path><path d="M 2988.30 3640.70 C 2965.50 3551.00 3017.60 3332.60 2988.30 3184.20 C 2959.00 3035.90 2776.40 2991.80 2776.40 2991.80 C 2776.40 2991.80 2748.90 3026.40 2654.30 3044.50 C 2713.10 3133.20 2713.20 3247.50 2772.50 3339.40 C 2791.20 3367.40 2819.20 3323.80 2831.70 3308.30 C 2894.00 3420.40 2884.70 3563.70 2884.70 3691.40 C 2883.80 3707.40 2881.10 3723.10 2877.30 3738.60 C 2948.20 3702.30 2992.20 3672.70 2992.20 3672.70 C 2992.20 3672.70 2992.20 3672.70 2988.30 3640.70 Z" fill="#ffb114" fill-rule="nonzero" group-id="1,7" node-id="428" stroke="none" target-height="746.80005" target-width="363.30005" target-x="2654.3" target-y="2991.8"></path><path d="M 2339.50 3594.80 C 2286.50 3625.90 2205.60 3613.50 2161.90 3566.80 C 2103.20 3508.10 2071.40 3434.10 2034.90 3362.90 C 2011.90 3372.80 1997.90 3389.90 1997.90 3389.90 C 1997.90 3389.90 2070.60 3675.00 2191.20 3712.50 C 2269.10 3736.70 2360.00 3622.30 2421.50 3514.00 C 2387.10 3530.10 2371.40 3574.60 2339.50 3594.80 Z" fill="#ffb114" fill-rule="nonzero" group-id="1,7" node-id="430" stroke="none" target-height="373.80005" target-width="423.59998" target-x="1997.9" target-y="3362.9"></path><path d="M 2831.70 3308.30 C 2819.20 3323.90 2791.20 3367.50 2772.50 3339.40 C 2713.30 3247.60 2713.10 3133.20 2654.30 3044.50 C 2638.30 3047.60 2620.40 3050.20 2600.40 3052.00 C 2558.00 3055.10 2408.10 3122.20 2369.00 3223.30 C 2329.90 3324.40 2289.10 3415.70 2219.00 3493.90 C 2184.80 3441.70 2090.00 3359.40 2090.00 3359.40 C 2068.70 3353.00 2049.90 3356.30 2035.00 3362.80 C 2071.60 3434.10 2103.40 3508.10 2162.00 3566.70 C 2205.60 3613.40 2286.60 3625.90 2339.60 3594.70 C 2371.40 3574.40 2387.20 3530.00 2421.70 3513.80 C 2428.00 3502.80 2434.00 3491.80 2439.60 3481.00 L 2439.60 3481.00 L 2489.60 3365.20 C 2482.10 3391.10 2464.20 3433.90 2439.60 3481.00 C 2434.90 3490.00 2471.70 3741.30 2497.80 3863.60 C 2644.50 3845.40 2784.10 3786.30 2877.30 3738.50 C 2881.10 3723.00 2883.70 3707.30 2884.70 3691.30 C 2884.60 3563.70 2894.00 3420.40 2831.70 3308.30 Z" fill="#ffde70" fill-rule="nonzero" group-id="1,7" node-id="432" stroke="none" target-height="819.1001" target-width="859" target-x="2035" target-y="3044.5"></path><path d="M 1969.90 3356.30 C 1969.90 3356.30 1968.70 3322.70 2019.40 3314.70 C 2070.10 3306.80 2085.40 3325.70 2085.40 3325.70 L 2105.00 3359.50 C 2105.00 3359.50 2001.70 3367.90 2004.10 3418.00 C 1984.50 3392.30 1969.90 3356.30 1969.90 3356.30 Z" fill="url(#SVGID_10_)" fill-rule="nonzero" group-id="1,7" node-id="434" stroke="none" target-height="111.19995" target-width="136.30005" target-x="1968.7" target-y="3306.8"></path><path d="M 2485.10 2685.00 C 2485.10 2685.00 2503.40 2743.10 2530.30 2752.90 C 2539.50 2789.60 2539.50 2789.60 2539.50 2789.60 L 2552.90 2797.50 C 2552.90 2797.50 2560.80 2751.00 2589.60 2759.00 C 2618.30 2766.90 2601.80 2836.60 2574.90 2840.30 C 2570.00 2870.30 2544.10 2933.20 2623.20 2943.00 C 2702.30 2952.80 2740.60 2922.60 2747.90 2899.00 C 2755.20 2875.40 2846.90 2711.90 2780.90 2636.10 C 2714.90 2560.30 2633.00 2559.10 2604.90 2567.60 C 2576.80 2576.20 2480.20 2587.20 2485.10 2685.00 Z" fill="#102140" fill-rule="nonzero" group-id="1,7" node-id="436" stroke="none" target-height="393.69995" target-width="366.69995" target-x="2480.2" target-y="2559.1"></path><path d="M 2687.60 2711.50 C 2687.60 2711.50 2686.00 2639.80 2741.40 2632.40 L 2767.50 2646.30 C 2767.50 2646.30 2704.70 2642.20 2709.60 2741.70 C 2690.90 2728.60 2687.60 2711.50 2687.60 2711.50 Z" fill="#ffffff" fill-rule="nonzero" group-id="1,7" node-id="438" stroke="#1a1a1a" stroke-linecap="round" stroke-width="2" target-height="109.30005" target-width="81.5" target-x="2686" target-y="2632.4"></path><path d="M 2739.20 2650.70 C 2739.20 2650.70 2845.80 2599.00 2903.60 2666.70 C 2961.50 2734.40 2939.50 2821.60 2914.20 2901.50 C 2888.90 2981.40 2791.70 3243.00 2804.70 3324.50 C 2750.90 3225.10 2664.00 3031.10 2667.20 2928.40 C 2670.40 2825.70 2709.60 2741.70 2709.60 2741.70 L 2702.10 2696.10 L 2739.20 2650.70 Z" fill="#102140" fill-rule="nonzero" group-id="1,7" node-id="440" stroke="none" target-height="725.5" target-width="297.5" target-x="2664" target-y="2599"></path><path d="M 3199.80 551.80 L 2887.60 551.80 C 2796.50 551.80 2722.60 625.70 2722.60 716.80 L 2722.60 718.50 C 2722.60 804.40 2788.30 875.00 2872.20 882.80 C 2867.10 902.40 2860.50 926.50 2854.50 948.40 C 2849.50 966.70 2871.20 980.50 2885.60 968.10 L 2984.40 883.50 L 3199.80 883.50 C 3290.90 883.50 3364.80 809.60 3364.80 718.50 L 3364.80 716.80 C 3364.70 625.60 3290.90 551.80 3199.80 551.80 Z" fill="#ffffff" fill-rule="nonzero" group-id="1,8" node-id="445" stroke="none" target-height="428.7" target-width="642.19995" target-x="2722.6" target-y="551.8"></path><path d="M 2922.50 708.10 C 2922.50 724.01 2909.61 736.90 2893.70 736.90 C 2877.79 736.90 2864.90 724.01 2864.90 708.10 C 2864.90 692.19 2877.79 679.30 2893.70 679.30 C 2909.61 679.30 2922.50 692.19 2922.50 708.10 Z" fill="#ffde70" fill-rule="nonzero" group-id="1,8" node-id="447" stroke="none" target-height="57.600037" target-width="57.600098" target-x="2864.9" target-y="679.3"></path><path d="M 3083.20 708.10 C 3083.20 724.01 3070.31 736.90 3054.40 736.90 C 3038.49 736.90 3025.60 724.01 3025.60 708.10 C 3025.60 692.19 3038.49 679.30 3054.40 679.30 C 3070.31 679.30 3083.20 692.19 3083.20 708.10 Z" fill="#ffde70" fill-rule="nonzero" group-id="1,8" node-id="449" stroke="none" target-height="57.600037" target-width="57.599854" target-x="3025.6" target-y="679.3"></path><path d="M 3247.50 708.10 C 3247.50 724.01 3234.61 736.90 3218.70 736.90 C 3202.79 736.90 3189.90 724.01 3189.90 708.10 C 3189.90 692.19 3202.79 679.30 3218.70 679.30 C 3234.61 679.30 3247.50 692.19 3247.50 708.10 Z" fill="#ffde70" fill-rule="nonzero" group-id="1,8" node-id="451" stroke="none" target-height="57.600037" target-width="57.600098" target-x="3189.9" target-y="679.3"></path><path d="M 3720.10 2938.10 C 3720.10 3054.14 3625.27 3148.20 3508.30 3148.20 C 3391.33 3148.20 3296.50 3054.14 3296.50 2938.10 C 3296.50 2822.06 3391.33 2728.00 3508.30 2728.00 C 3625.27 2728.00 3720.10 2822.06 3720.10 2938.10 Z" fill="url(#SVGID_11_)" fill-rule="nonzero" group-id="1" node-id="454" stroke="none" target-height="420.19995" target-width="423.6001" target-x="3296.5" target-y="2728"></path><path d="M 536.40 1456.10 C 536.40 1550.21 459.53 1626.50 364.70 1626.50 C 269.87 1626.50 193.00 1550.21 193.00 1456.10 C 193.00 1361.99 269.87 1285.70 364.70 1285.70 C 459.53 1285.70 536.40 1361.99 536.40 1456.10 Z" fill="url(#SVGID_12_)" fill-rule="nonzero" group-id="1" node-id="456" stroke="none" target-height="340.80005" target-width="343.40002" target-x="193" target-y="1285.7"></path></g></svg>