<?xml version="1.0" standalone="no"?><!DOCTYPE svg PUBLIC "-//W3C//DTD SVG 1.1//EN" "http://www.w3.org/Graphics/SVG/1.1/DTD/svg11.dtd"><svg height="4000" node-id="1" sillyvg="true" template-height="4000" template-width="4000" version="1.1" viewBox="0 0 4000 4000" width="4000" xmlns="http://www.w3.org/2000/svg" xmlns:xlink="http://www.w3.org/1999/xlink"><defs node-id="222"><linearGradient gradientUnits="userSpaceOnUse" id="SVGID_3_" node-id="23" spreadMethod="pad" x1="2126.4604" x2="2126.4604" y1="1920.1039" y2="2972.514"><stop offset="0" stop-color="#68b2fc"></stop><stop offset="1" stop-color="#ebf0f7"></stop></linearGradient><linearGradient gradientUnits="userSpaceOnUse" id="SVGID_4_" node-id="27" spreadMethod="pad" x1="37.1744" x2="3810.136" y1="3139.0244" y2="3139.0244"><stop offset="0" stop-color="#68b2fc"></stop><stop offset="1" stop-color="#529bf7"></stop></linearGradient><linearGradient gradientUnits="userSpaceOnUse" id="SVGID_5_" node-id="202" spreadMethod="pad" x1="3614.0405" x2="3842.7256" y1="1406.0068" y2="1406.0068"><stop offset="0" stop-color="#68b2fc"></stop><stop offset="1" stop-color="#529bf7"></stop></linearGradient><linearGradient gradientUnits="userSpaceOnUse" id="SVGID_6_" node-id="206" spreadMethod="pad" x1="244.967" x2="401.9089" y1="2472.1423" y2="2472.1423"><stop offset="0" stop-color="#4085f0"></stop><stop offset="1" stop-color="#275dc9"></stop></linearGradient><linearGradient gradientUnits="userSpaceOnUse" id="SVGID_7_" node-id="210" spreadMethod="pad" x1="3377.541" x2="3503.9604" y1="1605.9279" y2="1605.9279"><stop offset="0" stop-color="#4085f0"></stop><stop offset="1" stop-color="#275dc9"></stop></linearGradient></defs><path d="M 3250.20 844.50 L 3540.20 844.50 L 3540.20 1164.70 L 3250.20 1164.70 Z" fill="#1a1a1a" fill-rule="nonzero" node-id="257" stroke="none" target-height="320.19995" target-width="290" target-x="3250.2" target-y="844.5"></path><path d="M 3429.30 1069.60 C 3402.20 1072.10 3377.60 1047.50 3350.60 1057.30 C 3316.20 1067.10 3294.00 1091.70 3262.00 1111.40 C 3261.30 1111.90 3260.70 1112.50 3260.00 1113.00 L 3260.00 1154.90 L 3530.30 1154.90 L 3530.30 979.00 C 3514.40 989.80 3497.80 1000.00 3480.90 1010.50 C 3463.70 1022.80 3461.20 1064.60 3429.30 1069.60 Z" fill="#ffde70" fill-rule="nonzero" node-id="259" stroke="none" target-height="175.90002" target-width="270.30005" target-x="3260" target-y="979"></path><path d="M 3260.00 854.30 L 3260.00 1112.90 C 3260.70 1112.40 3261.30 1111.90 3262.00 1111.30 C 3294.00 1091.60 3316.10 1067.00 3350.60 1057.20 C 3377.70 1047.40 3402.30 1072.00 3429.30 1069.50 C 3461.30 1064.60 3463.70 1022.80 3481.00 1010.50 C 3497.90 1000.00 3514.60 989.80 3530.40 979.00 L 3530.40 854.30 L 3260.00 854.30 Z" fill="#ffffff" fill-rule="nonzero" node-id="261" stroke="none" target-height="258.60004" target-width="270.3999" target-x="3260" target-y="854.3"></path><path d="M 160.50 822.30 L 420.70 822.30 L 420.70 1167.50 L 160.50 1167.50 Z" fill="#1a1a1a" fill-rule="nonzero" node-id="263" stroke="none" target-height="345.2" target-width="260.2" target-x="160.5" target-y="822.3"></path><path d="M 170.30 890.60 L 410.80 890.60 L 410.80 1119.10 L 170.30 1119.10 Z" fill="#ffffff" fill-rule="nonzero" node-id="265" stroke="none" target-height="228.5" target-width="240.49998" target-x="170.3" target-y="890.6"></path><path d="M 170.30 832.10 L 410.80 832.10 L 410.80 890.50 L 170.30 890.50 Z" fill="#ccc4cc" fill-rule="nonzero" node-id="267" stroke="none" target-height="58.400024" target-width="240.49998" target-x="170.3" target-y="832.1"></path><path d="M 170.30 1119.10 L 410.80 1119.10 L 410.80 1157.60 L 170.30 1157.60 Z" fill="#ccc4cc" fill-rule="nonzero" node-id="269" stroke="none" target-height="38.5" target-width="240.49998" target-x="170.3" target-y="1119.1"></path><path d="M 442.90 1173.90 L 703.10 1173.90 L 703.10 1524.00 L 442.90 1524.00 Z" fill="#1a1a1a" fill-rule="nonzero" node-id="271" stroke="none" target-height="350.09998" target-width="260.19998" target-x="442.9" target-y="1173.9"></path><path d="M 452.80 1183.70 L 496.60 1183.70 L 496.60 1236.50 L 452.80 1236.50 Z" fill="#ffcf4a" fill-rule="nonzero" node-id="273" stroke="none" target-height="52.80005" target-width="43.80002" target-x="452.8" target-y="1183.7"></path><path d="M 452.80 1236.60 L 496.60 1236.60 L 496.60 1514.20 L 452.80 1514.20 Z" fill="#ffffff" fill-rule="nonzero" node-id="275" stroke="none" target-height="277.59998" target-width="43.80002" target-x="452.8" target-y="1236.6"></path><path d="M 496.60 1236.60 L 693.30 1236.60 L 693.30 1514.20 L 496.60 1514.20 Z" fill="#ffcf4a" fill-rule="nonzero" node-id="277" stroke="none" target-height="277.59998" target-width="196.69998" target-x="496.6" target-y="1236.6"></path><path d="M 496.60 1183.70 L 693.30 1183.70 L 693.30 1236.50 L 496.60 1236.50 Z" fill="#ffffff" fill-rule="nonzero" node-id="279" stroke="none" target-height="52.80005" target-width="196.69998" target-x="496.6" target-y="1183.7"></path><path d="M 331.80 3021.50 C 443.80 2883.90 675.80 2638.90 1050.70 2488.50 C 1670.50 2239.80 2230.30 2430.20 2376.40 2485.00 C 2422.20 2422.30 2564.30 2245.90 2800.80 2200.90 C 3108.00 2142.50 3449.60 2329.60 3625.00 2674.30 C 3697.10 2624.40 3789.80 2623.60 3853.00 2670.80 C 3933.70 2731.00 3934.50 2845.60 3898.60 2919.80 C 3857.20 3005.40 3770.00 3031.30 3754.80 3035.50 C 2613.70 3030.90 1472.70 3026.20 331.80 3021.50 Z" fill="url(#SVGID_3_)" fill-rule="nonzero" node-id="281" stroke="none" target-height="893" target-width="3602.7" target-x="331.8" target-y="2142.5"></path><path d="M 3810.10 3041.50 C 3810.10 2967.50 2965.50 2907.60 1923.60 2907.60 C 881.70 2907.60 37.10 2967.60 37.10 3041.50 C 37.10 3068.90 153.30 3094.40 352.50 3115.70 C 322.60 3131.60 306.70 3148.20 306.70 3165.40 C 306.70 3278.70 1000.30 3370.50 1856.00 3370.50 C 2711.70 3370.50 3405.30 3278.70 3405.30 3165.40 C 3405.30 3152.20 3395.90 3139.30 3378.00 3126.90 C 3648.00 3103.60 3810.10 3073.90 3810.10 3041.50 Z" fill="url(#SVGID_4_)" fill-rule="nonzero" node-id="283" stroke="none" target-height="462.8999" target-width="3773" target-x="37.1" target-y="2907.6"></path><g node-id="667"><path d="M 1596.40 3059.60 C 1501.30 3059.60 1412.60 3064.70 1337.30 3073.50 C 1283.30 3033.40 1090.50 3003.70 860.90 3003.70 C 589.40 3003.70 369.40 3045.20 369.40 3096.30 C 369.40 3147.50 589.50 3188.90 860.90 3188.90 C 956.00 3188.90 1044.70 3183.80 1120.00 3175.00 C 1174.00 3215.10 1366.80 3244.80 1596.40 3244.80 C 1867.90 3244.80 2087.90 3203.30 2087.90 3152.20 C 2087.90 3101.10 1867.90 3059.60 1596.40 3059.60 Z" fill="#152a52" fill-opacity="0.5" fill-rule="nonzero" group-id="1" node-id="287" stroke="none" target-height="241.1001" target-width="1718.4999" target-x="369.4" target-y="3003.7"></path></g><g node-id="668"><path d="M 3285.00 3197.70 C 3285.00 3222.26 3233.22 3245.81 3141.04 3263.18 C 3048.87 3280.54 2923.85 3290.30 2793.50 3290.30 C 2663.15 3290.30 2538.13 3280.54 2445.96 3263.18 C 2353.78 3245.81 2302.00 3222.26 2302.00 3197.70 C 2302.00 3173.14 2353.78 3149.59 2445.96 3132.22 C 2538.13 3114.86 2663.15 3105.10 2793.50 3105.10 C 2923.85 3105.10 3048.87 3114.86 3141.04 3132.22 C 3233.22 3149.59 3285.00 3173.14 3285.00 3197.70 Z" fill="#152a52" fill-opacity="0.5" fill-rule="nonzero" group-id="2" node-id="292" stroke="none" target-height="185.19995" target-width="983" target-x="2302" target-y="3105.1"></path></g><g node-id="669"><path d="M 3357.60 2296.40 L 3314.20 2964.70 C 3339.90 2962.70 3365.00 2961.50 3388.20 2970.10 C 3432.60 2983.20 3491.10 3004.70 3532.50 2991.10 L 3518.00 2296.40 L 3357.60 2296.40 Z" fill="#b080b0" fill-rule="nonzero" group-id="3" node-id="297" stroke="none" target-height="708.30005" target-width="218.30005" target-x="3314.2" target-y="2296.4"></path><path d="M 3403.60 2389.00 C 3403.60 2389.00 3402.60 2671.00 3391.30 2660.20 C 3380.00 2649.50 3392.60 2370.80 3397.50 2372.90 C 3402.30 2375.00 3403.60 2389.00 3403.60 2389.00 Z" fill="#ffffff" fill-rule="nonzero" group-id="3" node-id="299" stroke="none" target-height="300.19995" target-width="23.600098" target-x="3380" target-y="2370.8"></path><path d="M 3388.20 2970.10 C 3365.00 2961.60 3339.90 2962.80 3314.20 2964.70 L 3308.20 3056.70 C 3385.10 3071.80 3460.30 3075.60 3534.00 3068.30 L 3532.40 2991.00 C 3491.10 3004.60 3432.60 2983.20 3388.20 2970.10 Z" fill="#1a1a1a" fill-rule="nonzero" group-id="3" node-id="301" stroke="none" target-height="114" target-width="225.80005" target-x="3308.2" target-y="2961.6"></path><path d="M 3517.90 2296.40 L 3532.40 2991.10 C 3548.60 2985.80 3562.20 2975.10 3571.20 2956.40 C 3582.50 2933.80 3588.30 2902.00 3598.20 2874.70 L 3560.70 2296.50 L 3517.90 2296.50 Z" fill="#572658" fill-rule="nonzero" group-id="3" node-id="303" stroke="none" target-height="694.7002" target-width="80.30005" target-x="3517.9" target-y="2296.4"></path><path d="M 3532.50 2991.10 L 3534.10 3068.40 C 3559.60 3065.90 3585.00 3062.00 3610.10 3056.80 L 3598.30 2874.70 C 3588.40 2902.10 3582.60 2933.80 3571.30 2956.40 C 3562.20 2975.00 3548.70 2985.70 3532.50 2991.10 Z" fill="#1a1a1a" fill-rule="nonzero" group-id="3" node-id="305" stroke="none" target-height="193.69995" target-width="77.6001" target-x="3532.5" target-y="2874.7"></path><g node-id="676"><g node-id="678"><path d="M 3531.70 2087.30 C 3523.60 2023.30 3516.80 1969.10 3546.60 1945.30 C 3548.40 1943.90 3566.70 1929.70 3588.60 1935.00 C 3610.70 1940.30 3620.70 1961.50 3622.20 1964.90 C 3611.20 1897.50 3624.80 1846.00 3651.20 1836.90 C 3662.60 1833.00 3680.30 1835.60 3693.20 1846.20 C 3712.00 1861.60 3711.10 1886.10 3711.00 1889.20 C 3713.80 1871.00 3726.50 1801.10 3776.40 1777.10 C 3786.30 1772.30 3805.30 1763.20 3820.30 1772.40 C 3837.50 1783.00 3836.30 1809.50 3836.20 1811.60 C 3861.00 1766.80 3898.50 1744.90 3924.00 1753.70 C 3935.50 1757.70 3945.80 1768.30 3949.20 1780.80 C 3955.30 1803.10 3939.70 1831.60 3908.10 1847.10 C 3926.50 1846.10 3943.20 1853.40 3951.10 1866.70 C 3963.80 1888.30 3946.40 1914.00 3943.60 1918.10 C 3926.10 1943.90 3888.30 1954.50 3847.40 1947.10 C 3880.90 1973.80 3896.60 2006.30 3887.60 2028.40 C 3881.70 2042.70 3866.80 2049.30 3850.20 2056.40 C 3833.30 2063.60 3799.00 2074.90 3750.20 2067.60 C 3780.10 2083.40 3800.30 2105.70 3797.80 2125.50 C 3794.50 2152.00 3751.80 2163.50 3719.30 2172.20 C 3695.60 2178.60 3588.60 2207.40 3547.40 2154.50 C 3538.70 2143.20 3536.40 2124.50 3531.70 2087.30 Z" fill="#00593b" fill-rule="nonzero" group-id="3,10,12" node-id="311" stroke="none" target-height="462.49988" target-width="447" target-x="3516.8" target-y="1744.9"></path><path d="M 3450.30 2180.00 C 3473.50 2193.30 3503.00 2188.80 3527.50 2178.00 C 3573.40 2157.80 3607.90 2118.50 3636.70 2077.40 C 3665.40 2036.30 3690.10 1992.10 3724.00 1955.20 C 3756.10 1920.30 3795.50 1893.00 3830.40 1860.90 C 3856.70 1836.70 3880.50 1809.70 3901.30 1780.60" fill="none" group-id="3,10,12" node-id="313" stroke="#ffffff" stroke-linecap="round" stroke-width="2" target-height="412.70007" target-width="451" target-x="3450.3" target-y="1780.6"></path><path d="M 3580.40 2002.40 C 3607.50 2044.80 3616.10 2093.30 3588.50 2135.40" fill="none" group-id="3,10,12" node-id="315" stroke="#ffffff" stroke-linecap="round" stroke-width="2" target-height="132.99988" target-width="35.700195" target-x="3580.4" target-y="2002.4"></path><path d="M 3614.00 2108.30 C 3649.10 2090.40 3718.80 2120.90 3755.00 2115.60" fill="none" group-id="3,10,12" node-id="317" stroke="#ffffff" stroke-linecap="round" stroke-width="2" target-height="30.5" target-width="141" target-x="3614" target-y="2090.4"></path><path d="M 3668.30 2029.90 C 3683.40 1985.60 3672.80 1944.20 3675.90 1906.40" fill="none" group-id="3,10,12" node-id="319" stroke="#ffffff" stroke-linecap="round" stroke-width="2" target-height="123.5" target-width="15.0998535" target-x="3668.3" target-y="1906.4"></path><path d="M 3788.30 1820.70 C 3785.20 1854.80 3776.30 1888.40 3762.20 1919.60" fill="none" group-id="3,10,12" node-id="321" stroke="#ffffff" stroke-linecap="round" stroke-width="2" target-height="98.900024" target-width="26.100098" target-x="3762.2" target-y="1820.7"></path><path d="M 3802.50 1885.40 C 3834.80 1873.50 3871.00 1872.70 3903.80 1883.30" fill="none" group-id="3,10,12" node-id="323" stroke="#ffffff" stroke-linecap="round" stroke-width="2" target-height="12.700073" target-width="101.30005" target-x="3802.5" target-y="1872.7"></path><path d="M 3694.60 1991.40 C 3730.70 1973.40 3773.00 1971.30 3810.70 1985.80" fill="none" group-id="3,10,12" node-id="325" stroke="#ffffff" stroke-linecap="round" stroke-width="2" target-height="20.099976" target-width="116.09985" target-x="3694.6" target-y="1971.3"></path></g><g node-id="679"><path d="M 3482.60 2224.40 C 3522.60 2153.10 3551.10 2138.40 3546.80 2110.10 C 3544.10 2092.40 3529.30 2073.60 3510.60 2071.40 C 3487.50 2068.70 3470.30 2092.80 3469.50 2094.00 C 3502.60 2025.40 3501.80 1966.30 3476.90 1950.20 C 3465.10 1942.50 3441.50 1940.40 3422.40 1951.30 C 3407.50 1959.90 3400.80 1973.30 3398.30 1979.10 C 3399.50 1907.70 3383.30 1855.90 3358.70 1851.00 C 3349.10 1849.10 3331.40 1853.00 3320.20 1865.90 C 3311.10 1876.40 3309.90 1888.80 3309.70 1893.90 C 3299.00 1850.20 3266.20 1827.30 3243.10 1832.80 C 3228.70 1836.20 3217.20 1850.80 3213.80 1865.70 C 3209.00 1886.50 3219.50 1909.30 3240.50 1921.30 C 3238.40 1920.80 3206.50 1913.00 3192.70 1929.30 C 3177.70 1947.10 3194.10 1981.80 3213.30 1999.30 C 3232.40 2016.70 3255.90 2018.40 3264.20 2018.60 C 3260.70 2018.40 3227.40 2016.60 3214.60 2036.80 C 3197.00 2064.60 3235.20 2106.80 3237.70 2109.40 C 3272.90 2147.50 3327.70 2143.80 3338.70 2142.80 C 3307.50 2157.70 3289.30 2184.30 3292.90 2207.00 C 3297.40 2235.40 3334.50 2247.20 3354.60 2253.60 C 3403.70 2269.20 3449.00 2254.70 3471.30 2245.40 C 3473.60 2240.90 3477.50 2233.40 3482.60 2224.40 Z" fill="#127755" fill-rule="nonzero" group-id="3,10,13" node-id="330" stroke="none" target-height="441.8999" target-width="373.40015" target-x="3177.7" target-y="1827.3"></path><path d="M 3252.60 1875.20 C 3271.60 1914.20 3295.50 1950.80 3323.60 1983.90 C 3364.10 2031.50 3414.00 2073.10 3439.30 2130.30 C 3447.00 2147.70 3452.20 2166.10 3457.30 2184.40 C 3463.20 2205.30 3469.10 2226.60 3468.40 2248.30 C 3467.80 2268.40 3459.90 2276.40 3450.10 2294.00" fill="none" group-id="3,10,13" node-id="332" stroke="#10663f" stroke-linecap="round" stroke-width="2" target-height="418.80005" target-width="216.5" target-x="3252.6" target-y="1875.2"></path><path d="M 3461.30 2198.50 C 3459.40 2196.10 3416.20 2170.30 3357.70 2209.00" fill="none" group-id="3,10,13" node-id="334" stroke="#10663f" stroke-linecap="round" stroke-width="2" target-height="38.69995" target-width="103.6001" target-x="3357.7" target-y="2170.3"></path><path d="M 3388.90 2054.90 C 3370.90 2043.40 3347.70 2045.00 3326.50 2048.10 C 3305.30 2051.10 3283.00 2055.10 3263.10 2047.30" fill="none" group-id="3,10,13" node-id="336" stroke="#10663f" stroke-linecap="round" stroke-width="2" target-height="11.700073" target-width="125.799805" target-x="3263.1" target-y="2043.4"></path><path d="M 3337.70 1998.90 C 3329.00 1991.20 3328.00 1977.70 3331.00 1966.50 C 3334.10 1955.30 3340.50 1945.20 3344.50 1934.30 C 3348.60 1923.40 3350.10 1910.40 3343.80 1900.70" fill="none" group-id="3,10,13" node-id="338" stroke="#10663f" stroke-linecap="round" stroke-width="2" target-height="98.20007" target-width="22.100098" target-x="3328" target-y="1900.7"></path><path d="M 3305.70 1961.00 C 3303.60 1958.10 3301.50 1955.20 3298.60 1953.10 C 3294.30 1950.00 3288.80 1949.10 3283.50 1948.70 C 3272.60 1947.90 3261.60 1948.90 3250.60 1948.40 C 3239.70 1947.90 3228.40 1945.70 3219.50 1939.30" fill="none" group-id="3,10,13" node-id="340" stroke="#10663f" stroke-linecap="round" stroke-width="2" target-height="21.699951" target-width="86.19995" target-x="3219.5" target-y="1939.3"></path><path d="M 3428.50 2107.70 C 3425.60 2099.50 3422.70 2091.20 3421.90 2082.60 C 3420.40 2066.00 3426.90 2049.90 3432.60 2034.30 C 3438.30 2018.70 3443.40 2001.70 3439.20 1985.70" fill="none" group-id="3,10,13" node-id="342" stroke="#10663f" stroke-linecap="round" stroke-width="2" target-height="122" target-width="23" target-x="3420.4" target-y="1985.7"></path><path d="M 3492.70 2117.70 C 3481.20 2120.80 3470.80 2127.80 3463.70 2137.40 C 3456.60 2147.00 3453.70 2160.30 3454.00 2172.20" fill="none" group-id="3,10,13" node-id="344" stroke="#10663f" stroke-linecap="round" stroke-width="2" target-height="54.5" target-width="39" target-x="3453.7" target-y="2117.7"></path></g><g node-id="680"><path d="M 3487.20 2359.70 C 3558.10 2417.10 3568.80 2451.20 3600.70 2451.80 C 3620.60 2452.20 3644.10 2439.40 3650.00 2419.30 C 3657.40 2394.40 3634.10 2371.00 3632.90 2369.90 C 3702.10 2419.20 3767.10 2429.40 3789.60 2405.20 C 3800.20 2393.70 3807.10 2368.10 3798.60 2345.10 C 3792.00 2327.10 3778.50 2317.20 3772.50 2313.30 C 3850.80 2328.10 3910.70 2320.00 3920.80 2294.00 C 3924.70 2283.80 3923.80 2263.60 3911.60 2248.90 C 3901.70 2236.90 3888.40 2233.30 3882.80 2232.10 C 3932.90 2228.50 3964.20 2196.80 3962.60 2170.40 C 3961.60 2154.00 3947.70 2138.60 3932.00 2132.00 C 3910.10 2122.80 3883.00 2130.10 3865.80 2150.80 C 3866.80 2148.60 3881.40 2115.00 3866.00 2096.80 C 3849.30 2077.00 3808.00 2088.40 3785.20 2106.20 C 3762.50 2123.90 3756.20 2149.40 3754.40 2158.50 C 3755.30 2154.70 3763.50 2118.40 3743.70 2100.60 C 3716.50 2076.10 3662.90 2110.10 3659.50 2112.30 C 3611.00 2143.90 3604.80 2204.70 3603.80 2217.00 C 3593.30 2179.90 3567.50 2154.90 3541.80 2154.60 C 3509.70 2154.20 3489.80 2192.70 3478.90 2213.60 C 3452.50 2264.60 3459.90 2317.20 3465.90 2343.40 C 3470.80 2346.80 3478.30 2352.40 3487.20 2359.70 Z" fill="#339e7e" fill-rule="nonzero" group-id="3,10,14" node-id="349" stroke="none" target-height="376.09985" target-width="511.69995" target-x="3452.5" target-y="2076.1"></path><path d="M 3914.50 2172.80 C 3868.00 2186.30 3823.30 2205.70 3781.70 2230.30 C 3721.70 2265.80 3666.60 2312.90 3599.00 2329.90 C 3578.40 2335.10 3557.20 2337.30 3536.10 2339.50 C 3512.00 2342.00 3487.50 2344.50 3463.70 2339.70 C 3441.70 2335.20 3444.90 2324.30 3427.40 2310.30 C 3427.40 2310.30 3415.70 2278.70 3395.30 2297.10" fill="none" group-id="3,10,14" node-id="351" stroke="#10663f" stroke-linecap="round" stroke-width="2" target-height="171.69995" target-width="519.19995" target-x="3395.3" target-y="2172.8"></path><path d="M 3521.20 2341.90 C 3524.20 2340.30 3526.40 2337.50 3528.20 2334.70 C 3539.10 2317.80 3540.40 2296.60 3539.90 2276.50 C 3539.40 2256.40 3537.70 2235.80 3543.70 2216.60" fill="none" group-id="3,10,14" node-id="353" stroke="#10663f" stroke-linecap="round" stroke-width="2" target-height="125.299805" target-width="22.5" target-x="3521.2" target-y="2216.6"></path><path d="M 3691.20 2288.70 C 3707.20 2271.00 3709.80 2245.30 3710.50 2221.40 C 3711.10 2197.60 3711.00 2172.30 3723.30 2151.90" fill="none" group-id="3,10,14" node-id="355" stroke="#10663f" stroke-linecap="round" stroke-width="2" target-height="136.80005" target-width="32.100098" target-x="3691.2" target-y="2151.9"></path><path d="M 3762.40 2243.00 C 3772.50 2234.90 3787.60 2236.30 3799.30 2241.80 C 3811.10 2247.30 3820.90 2256.20 3832.10 2262.70 C 3843.30 2269.20 3857.30 2273.40 3869.20 2268.20" fill="none" group-id="3,10,14" node-id="357" stroke="#10663f" stroke-linecap="round" stroke-width="2" target-height="38.5" target-width="106.80005" target-x="3762.4" target-y="2234.9"></path><path d="M 3810.10 2215.00 C 3813.70 2213.30 3817.30 2211.50 3820.10 2208.70 C 3824.40 2204.60 3826.40 2198.70 3827.80 2193.00 C 3830.70 2181.10 3831.70 2168.90 3834.40 2157.00 C 3837.00 2145.10 3841.60 2133.10 3850.30 2124.50" fill="none" group-id="3,10,14" node-id="359" stroke="#10663f" stroke-linecap="round" stroke-width="2" target-height="90.5" target-width="40.19995" target-x="3810.1" target-y="2124.5"></path><path d="M 3625.80 2322.20 C 3635.30 2320.60 3645.00 2318.90 3654.60 2319.70 C 3673.10 2321.20 3689.50 2331.40 3705.60 2340.60 C 3721.70 2349.80 3739.40 2358.60 3757.80 2357.00" fill="none" group-id="3,10,14" node-id="361" stroke="#10663f" stroke-linecap="round" stroke-width="2" target-height="39.700195" target-width="132" target-x="3625.8" target-y="2318.9"></path><path d="M 3602.60 2390.90 C 3601.40 2377.70 3595.60 2364.90 3586.40 2355.30 C 3577.20 2345.70 3564.80 2339.20 3551.60 2337.30" fill="none" group-id="3,10,14" node-id="363" stroke="#10663f" stroke-linecap="round" stroke-width="2" target-height="53.599854" target-width="51" target-x="3551.6" target-y="2337.3"></path></g></g></g><path d="M 897.20 2581.10 C 886.80 2582.20 876.50 2583.10 866.30 2583.80 L 819.10 2267.20 L 893.30 2272.30 L 897.20 2581.10 Z" fill="#ffffff" fill-rule="nonzero" node-id="368" stroke="#1a1a1a" stroke-linecap="round" stroke-width="2" target-height="316.6001" target-width="78.10004" target-x="819.1" target-y="2267.2"></path><path d="M 1564.20 2284.00 L 1550.20 2434.70 C 1525.30 2437.80 1500.70 2441.50 1476.60 2445.70 L 1452.50 2283.90 L 1564.20 2283.90 Z" fill="#ffffff" fill-rule="nonzero" node-id="370" stroke="#1a1a1a" stroke-linecap="round" stroke-width="2" target-height="161.80005" target-width="111.69995" target-x="1452.5" target-y="2283.9"></path><path d="M 2015.30 2209.90 L 2048.50 3034.00 C 2053.60 3035.60 2058.60 3035.20 2063.50 3034.50 L 2061.30 2202.60 L 2015.30 2209.90 Z" fill="#504650" fill-rule="nonzero" node-id="372" stroke="none" target-height="833" target-width="48.19995" target-x="2015.3" target-y="2202.6"></path><path d="M 2061.30 2202.50 L 2063.50 3034.40 C 2070.30 3033.40 2076.90 3031.70 2083.50 3033.90 L 2088.70 2198.00 L 2061.30 2202.50 Z" fill="#3c353c" fill-rule="nonzero" node-id="374" stroke="none" target-height="836.3999" target-width="27.399902" target-x="2061.3" target-y="2198"></path><path d="M 1769.50 1042.00 C 1773.90 1047.30 1820.70 1053.20 1827.80 1122.70 C 1834.90 1192.20 1839.30 1475.70 1842.00 1577.20 C 1844.60 1678.80 1833.20 1775.00 1833.20 1775.00 L 1746.60 1584.20 L 1769.50 1042.00 Z" fill="#ffcf4a" fill-rule="nonzero" group-id="4" node-id="378" stroke="none" target-height="733" target-width="98" target-x="1746.6" target-y="1042"></path><path d="M 1807.50 1107.00 C 1804.70 1079.20 1797.30 1062.60 1790.10 1052.90 C 1782.70 1048.20 1776.20 1045.80 1772.40 1043.90 C 1771.50 1046.50 1770.30 1050.00 1768.90 1054.10 L 1747.80 1552.60 C 1747.60 1564.80 1747.40 1576.00 1747.30 1586.10 L 1787.50 1674.80 C 1791.20 1672.80 1794.40 1667.80 1796.60 1658.40 C 1807.80 1609.70 1813.70 1167.00 1807.50 1107.00 Z" fill="#ffb114" fill-rule="nonzero" group-id="4" node-id="380" stroke="none" target-height="630.9" target-width="66.3999" target-x="1747.3" target-y="1043.9"></path><path d="M 1392.10 2971.30 C 1392.10 2971.30 1368.20 3043.80 1373.00 3086.80 C 1375.80 3112.20 1381.70 3121.60 1381.70 3121.60 C 1381.70 3121.60 1445.20 3172.50 1467.30 3159.80 C 1475.60 3150.70 1478.30 3151.30 1478.30 3151.30 C 1478.30 3151.30 1568.60 3214.10 1672.80 3193.70 C 1703.30 3192.00 1642.60 3123.30 1587.20 3090.20 C 1535.40 3059.30 1521.50 3005.40 1521.50 3005.40 L 1392.10 2971.30 Z" fill="#1a1a1a" fill-rule="nonzero" group-id="4" node-id="382" stroke="#1a1a1a" stroke-linecap="round" stroke-width="2" target-height="242.80005" target-width="335.1001" target-x="1368.2" target-y="2971.3"></path><path d="M 1663.30 2981.80 C 1663.30 2981.80 1633.00 3076.00 1636.70 3119.00 C 1640.50 3162.00 1640.50 3162.00 1640.50 3162.00 C 1640.50 3162.00 1713.30 3180.40 1736.10 3167.30 C 1744.00 3152.40 1744.00 3152.40 1744.00 3152.40 C 1744.00 3152.40 1826.40 3207.60 1934.30 3186.60 C 1965.90 3184.80 1911.60 3131.40 1855.00 3105.10 C 1798.40 3078.80 1776.50 3029.70 1776.50 3029.70 L 1663.30 2981.80 Z" fill="#1a1a1a" fill-rule="nonzero" group-id="4" node-id="384" stroke="#1a1a1a" stroke-linecap="round" stroke-width="2" target-height="225.80005" target-width="332.90002" target-x="1633" target-y="2981.8"></path><path d="M 1794.40 3023.30 C 1733.50 3037.90 1696.70 3016.00 1642.20 3005.30 C 1652.00 2920.30 1637.00 2243.60 1627.60 2148.30 C 1622.70 2098.50 1658.50 2047.60 1644.30 2002.10 C 1583.80 1808.10 1592.00 1700.20 1601.30 1655.00 C 1604.90 1637.40 1608.80 1629.30 1608.80 1629.30 L 1789.80 1646.50 C 1789.80 1646.50 1865.00 1780.30 1880.90 1939.30 C 1890.00 2031.20 1818.70 2849.10 1794.40 3023.30 Z" fill="#152a52" fill-rule="nonzero" group-id="4" node-id="386" stroke="none" target-height="1408.5999" target-width="306.19995" target-x="1583.8" target-y="1629.3"></path><path d="M 1596.40 1769.90 C 1600.50 1827.10 1613.50 1903.40 1644.30 2002.10 C 1658.50 2047.60 1622.80 2098.50 1627.60 2148.30 C 1637.00 2243.60 1652.00 2920.30 1642.20 3005.30 C 1654.50 3007.70 1665.90 3010.70 1676.90 3013.70 C 1678.60 2996.30 1680.00 2978.80 1680.90 2963.30 C 1684.90 2898.20 1716.40 2289.30 1730.40 2061.90 C 1741.90 1876.90 1636.20 1794.30 1596.40 1769.90 Z" fill="#102140" fill-rule="nonzero" group-id="4" node-id="388" stroke="none" target-height="1243.7999" target-width="145.5" target-x="1596.4" target-y="1769.9"></path><path d="M 1706.50 1934.90 C 1702.00 1993.90 1689.20 2067.90 1672.30 2146.20 C 1651.90 2240.50 1568.00 2914.60 1543.30 3002.80 C 1471.50 3009.10 1437.70 3003.50 1376.70 2986.40 C 1378.40 2978.60 1408.00 2400.70 1410.50 2382.90 C 1441.40 2166.20 1372.50 1999.60 1376.90 1841.30 C 1381.70 1670.00 1436.60 1629.30 1436.60 1629.30 L 1601.40 1655.00 L 1680.40 1667.30 L 1684.80 1680.60 C 1684.70 1680.60 1720.90 1744.20 1706.50 1934.90 Z" fill="#152a52" fill-rule="nonzero" group-id="4" node-id="390" stroke="none" target-height="1379.8" target-width="348.40002" target-x="1372.5" target-y="1629.3"></path><path d="M 1706.50 1935.00 C 1702.00 1994.00 1689.20 2068.00 1672.20 2146.30 C 1651.80 2240.60 1567.90 2914.70 1543.20 3002.90 C 1487.10 3007.80 1454.20 3005.50 1413.20 2996.00 C 1401.80 2993.40 1389.80 2990.20 1376.50 2986.50 C 1378.20 2978.70 1407.80 2400.80 1410.30 2383.00 C 1441.20 2166.30 1372.30 1999.70 1376.70 1841.40 C 1381.50 1670.10 1436.40 1629.40 1436.40 1629.40 L 1467.40 1634.20 L 1601.20 1655.00 L 1680.20 1667.30 L 1684.60 1680.50 C 1684.70 1680.60 1720.90 1744.20 1706.50 1935.00 Z" fill="#152a52" fill-rule="nonzero" group-id="4" node-id="392" stroke="none" target-height="1378.4" target-width="348.59998" target-x="1372.3" target-y="1629.4"></path><path d="M 1436.00 1971.80 C 1464.20 2235.70 1437.60 2794.70 1421.50 2929.90 C 1418.30 2956.60 1415.60 2978.40 1413.30 2996.00 C 1401.90 2993.40 1389.90 2990.20 1376.60 2986.50 C 1378.30 2978.70 1407.90 2400.80 1410.40 2383.00 C 1441.30 2166.30 1372.40 1999.70 1376.80 1841.40 C 1381.60 1670.10 1436.50 1629.40 1436.50 1629.40 L 1467.50 1634.20 C 1445.30 1692.80 1418.00 1803.90 1436.00 1971.80 Z" fill="#102140" fill-rule="nonzero" group-id="4" node-id="394" stroke="none" target-height="1366.6" target-width="95.099976" target-x="1372.4" target-y="1629.4"></path><path d="M 1692.70 1699.10 C 1803.70 1678.20 1799.40 1665.20 1799.40 1665.20 L 1790.00 1641.60 C 1790.00 1641.60 1436.30 1619.40 1436.30 1620.00 C 1436.30 1620.60 1427.20 1639.20 1427.20 1639.20 C 1427.20 1639.20 1581.70 1720.00 1692.70 1699.10 Z" fill="#1a1a1a" fill-rule="nonzero" group-id="4" node-id="396" stroke="none" target-height="100.599976" target-width="376.5" target-x="1427.2" target-y="1619.4"></path><path d="M 1448.20 1584.30 C 1448.20 1584.30 1425.00 1626.00 1429.00 1634.00 C 1607.20 1704.90 1711.90 1720.10 1796.70 1650.60 C 1789.20 1608.40 1783.50 1606.90 1783.50 1606.90 L 1448.20 1584.30 Z" fill="#445575" fill-rule="nonzero" group-id="4" node-id="398" stroke="none" target-height="135.79993" target-width="371.69995" target-x="1425" target-y="1584.3"></path><path d="M 1673.80 1646.90 L 1667.70 1702.60 L 1733.70 1695.60 L 1731.40 1641.00 Z" fill="#1a1a1a" fill-rule="nonzero" group-id="4" node-id="400" stroke="none" target-height="61.599976" target-width="66" target-x="1667.7" target-y="1641"></path><path d="M 1505.20 1547.00 C 1583.00 1606.50 1702.00 1636.20 1782.00 1569.90 C 1786.20 1566.50 1790.10 1562.80 1793.60 1558.90 C 1805.40 1407.00 1815.10 1098.10 1782.70 1045.10 C 1729.70 968.30 1571.40 977.50 1571.40 977.50 C 1571.40 977.50 1417.70 987.40 1403.10 1144.40 C 1396.00 1220.90 1405.00 1329.60 1416.00 1420.90 C 1439.70 1467.60 1461.60 1514.70 1505.20 1547.00 Z" fill="#ffde70" fill-rule="nonzero" group-id="4" node-id="402" stroke="none" target-height="667.89996" target-width="419.09998" target-x="1396" target-y="968.3"></path><path d="M 1782.10 1569.90 C 1702.00 1636.30 1583.00 1606.50 1505.30 1547.00 C 1461.70 1514.70 1439.80 1467.60 1416.20 1421.00 C 1427.80 1516.90 1441.70 1593.60 1441.70 1593.60 C 1441.70 1593.60 1683.90 1712.40 1788.20 1617.90 C 1790.00 1603.30 1791.90 1583.10 1793.80 1558.90 C 1790.20 1562.80 1786.30 1566.50 1782.10 1569.90 Z" fill="#ffb114" fill-rule="nonzero" group-id="4" node-id="404" stroke="none" target-height="291.40002" target-width="377.6001" target-x="1416.2" target-y="1421"></path><path d="M 1796.80 1099.30 C 1729.40 1173.80 1600.50 1118.00 1600.50 1118.00 C 1600.50 1118.00 1601.70 1131.20 1630.00 1233.50 C 1654.80 1322.90 1454.90 1178.10 1403.70 1139.90 C 1403.50 1141.40 1403.30 1142.90 1403.20 1144.50 C 1401.50 1162.50 1400.80 1182.20 1400.70 1203.00 C 1442.30 1258.90 1543.00 1386.60 1636.80 1446.00 C 1708.10 1491.10 1766.30 1446.70 1802.30 1402.10 C 1806.20 1292.00 1806.40 1170.50 1796.80 1099.30 Z" fill="#ffcf4a" fill-rule="nonzero" group-id="4" node-id="406" stroke="none" target-height="391.79993" target-width="405.70007" target-x="1400.7" target-y="1099.3"></path><path d="M 1421.50 1140.10 C 1421.50 1140.10 1576.50 1422.70 1677.40 1421.80 C 1753.20 1421.10 1847.70 1246.90 1913.30 1152.50 C 1886.40 1140.60 1862.90 1124.10 1856.20 1097.80 C 1839.70 1112.90 1823.30 1127.00 1809.10 1137.40 C 1757.20 1175.40 1668.90 1223.10 1668.90 1223.10 C 1668.90 1223.10 1604.40 1138.30 1583.20 1103.00 C 1562.00 1067.70 1538.20 1042.10 1511.70 1045.60" fill="#ffde70" fill-rule="nonzero" group-id="4" node-id="408" stroke="none" target-height="380.59998" target-width="491.80005" target-x="1421.5" target-y="1042.1"></path><path d="M 1902.00 1147.10 C 1799.80 1305.30 1681.00 1434.40 1577.90 1306.90 C 1515.80 1230.10 1466.30 1187.40 1436.00 1165.30 C 1476.80 1234.50 1595.10 1422.50 1677.40 1421.80 C 1753.20 1421.10 1847.70 1246.90 1913.30 1152.50 C 1909.40 1150.80 1905.70 1149.00 1902.00 1147.10 Z" fill="#ffb114" fill-rule="nonzero" group-id="4" node-id="410" stroke="none" target-height="287.30005" target-width="477.30005" target-x="1436" target-y="1147.1"></path><path d="M 1810.10 703.80 C 1773.30 655.80 1612.30 638.00 1600.80 786.80 C 1598.40 817.60 1609.90 847.70 1628.50 874.00 L 1602.80 977.20 C 1627.60 1025.20 1663.50 1067.00 1711.30 1102.10 L 1731.60 1082.20 L 1732.50 1023.90 L 1744.80 959.30 C 1772.60 966.90 1799.00 966.40 1808.00 947.10 C 1830.10 899.40 1864.90 775.30 1810.10 703.80 Z" fill="#fc9590" fill-rule="nonzero" group-id="4" node-id="412" stroke="none" target-height="464.09998" target-width="266.5" target-x="1598.4" target-y="638"></path><path d="M 1645.70 887.70 C 1651.80 856.70 1648.60 790.70 1659.60 794.30 C 1670.60 798.00 1681.60 825.70 1681.60 825.70 L 1699.10 820.00 C 1699.10 820.00 1689.70 771.10 1697.10 770.10 C 1704.40 769.10 1770.10 787.00 1814.50 776.80 C 1822.90 774.90 1830.40 773.20 1837.10 771.80 C 1833.40 747.00 1825.20 723.40 1810.20 703.80 C 1773.40 655.80 1612.40 638.00 1600.90 786.80 C 1598.50 817.60 1610.00 847.70 1628.60 874.00 L 1620.20 907.60 C 1631.10 907.20 1642.70 902.90 1645.70 887.70 Z" fill="#db6767" fill-rule="nonzero" group-id="4,11" node-id="416" stroke="none" target-height="269.59998" target-width="238.59998" target-x="1598.5" target-y="638"></path><path d="M 1814.50 776.80 C 1770.10 787.00 1704.40 769.10 1697.10 770.10 C 1689.80 771.10 1699.10 820.00 1699.10 820.00 L 1681.60 825.70 C 1681.60 825.70 1670.60 798.00 1659.60 794.30 C 1648.60 790.60 1651.90 856.70 1645.70 887.70 C 1642.70 902.90 1631.10 907.20 1620.10 907.70 L 1602.70 977.30 C 1627.50 1025.30 1663.40 1067.10 1711.20 1102.20 L 1731.50 1082.30 L 1732.40 1024.00 L 1744.70 959.40 C 1772.50 967.00 1798.90 966.50 1807.90 947.20 C 1824.00 912.60 1846.70 837.70 1837.00 771.90 C 1830.40 773.20 1822.90 774.80 1814.50 776.80 Z" fill="#fc9590" fill-rule="nonzero" group-id="4,11" node-id="418" stroke="none" target-height="333.09998" target-width="244" target-x="1602.7" target-y="769.1"></path><path d="M 1690.00 925.20 C 1690.00 925.20 1727.60 962.20 1744.70 959.30 C 1740.00 991.50 1740.00 991.50 1740.00 991.50 C 1740.00 991.50 1693.30 960.70 1690.00 925.20 Z" fill="#db6767" fill-rule="nonzero" group-id="4" node-id="421" stroke="none" target-height="66.29999" target-width="54.69995" target-x="1690" target-y="925.2"></path><path d="M 1602.70 846.00 C 1602.70 846.00 1610.40 897.20 1622.40 898.30 C 1634.40 899.40 1643.20 874.20 1640.50 854.40 C 1637.90 834.50 1653.70 771.80 1664.80 783.70 C 1675.80 795.60 1683.30 818.60 1683.30 818.60 L 1694.80 816.20 C 1694.80 816.20 1682.00 774.00 1694.80 766.00 C 1707.60 758.10 1855.00 795.60 1865.70 737.30 C 1873.70 703.70 1848.90 647.20 1848.90 647.20 C 1848.90 647.20 1820.60 669.30 1765.00 649.80 C 1709.40 630.40 1655.00 647.60 1656.40 682.00 C 1636.60 675.50 1557.40 736.50 1602.70 846.00 Z" fill="#102140" fill-rule="nonzero" group-id="4" node-id="423" stroke="none" target-height="269" target-width="316.29993" target-x="1557.4" target-y="630.4"></path><path d="M 799.00 1131.00 C 795.40 1174.40 804.50 1226.60 821.00 1276.00 C 833.80 1283.40 848.40 1288.70 863.80 1292.00 C 845.90 1231.10 837.80 1166.50 835.20 1104.40 C 816.50 1121.00 799.10 1129.90 799.00 1131.00 Z" fill="#db6767" fill-rule="nonzero" group-id="5" node-id="428" stroke="none" target-height="187.59998" target-width="68.39996" target-x="795.4" target-y="1104.4"></path><path d="M 912.70 1430.20 C 916.40 1428.70 920.20 1426.10 924.10 1422.50 C 897.00 1383.00 877.50 1338.50 863.80 1291.90 C 848.40 1288.70 833.80 1283.40 821.00 1275.90 C 842.80 1341.50 877.60 1402.00 912.70 1430.20 Z" fill="#dbd2db" fill-rule="nonzero" group-id="5" node-id="430" stroke="none" target-height="154.29993" target-width="103.099976" target-x="821" target-y="1275.9"></path><path d="M 1059.90 876.70 C 1059.90 876.70 1055.90 826.50 997.80 832.20 C 939.70 837.90 869.60 919.40 859.30 1019.70 C 866.90 1024.60 873.80 1028.60 879.90 1032.00 C 874.30 1063.50 854.10 1087.80 835.30 1104.30 C 837.80 1166.40 845.90 1231.00 863.90 1291.90 C 908.70 1301.30 960.60 1293.00 997.70 1267.70 C 1010.70 1224.40 1021.70 1176.90 1028.70 1131.20 C 1014.20 1117.90 986.80 1095.10 981.80 1070.90 C 998.30 1077.10 1016.50 1078.30 1032.00 1065.90 C 1071.80 1034.00 1059.90 876.70 1059.90 876.70 Z" fill="#fc9590" fill-rule="nonzero" group-id="5" node-id="432" stroke="none" target-height="474.80005" target-width="236.50006" target-x="835.3" target-y="826.5"></path><path d="M 863.80 1292.00 C 877.50 1338.60 897.00 1383.00 924.10 1422.60 C 948.50 1400.20 975.90 1339.70 997.60 1267.80 C 960.50 1293.00 908.60 1301.30 863.80 1292.00 Z" fill="#ffffff" fill-rule="nonzero" group-id="5" node-id="434" stroke="none" target-height="154.79993" target-width="133.79999" target-x="863.8" target-y="1267.8"></path><path d="M 695.30 2933.50 C 706.70 2922.10 720.50 2940.40 718.20 2954.10 C 714.00 3023.60 762.10 3081.40 823.30 3100.90 C 822.70 3095.80 820.20 3089.60 814.60 3082.30 C 794.90 3056.70 777.10 3018.60 777.30 2987.00 C 777.40 2977.60 775.50 2962.70 773.30 2945.00 C 766.30 2944.90 759.80 2943.00 754.90 2937.90 C 717.50 2900.60 702.00 2851.40 693.60 2800.00 L 683.00 2851.20 L 640.10 2969.60 C 641.00 2970.00 641.90 2970.20 642.70 2970.20 C 665.60 2972.40 677.00 2947.20 695.30 2933.50 Z" fill="#572658" fill-rule="nonzero" group-id="5" node-id="436" stroke="none" target-height="300.8999" target-width="183.20001" target-x="640.1" target-y="2800"></path><path d="M 718.20 2954.10 C 720.50 2940.40 706.80 2922.10 695.30 2933.50 C 677.00 2947.20 665.60 2972.40 642.70 2970.10 C 641.90 2970.10 641.10 2969.90 640.10 2969.50 L 621.50 3020.90 L 646.20 3029.80 C 646.20 3029.80 704.20 2917.30 699.60 2940.90 C 695.00 2964.50 715.40 3067.90 757.40 3093.40 C 799.50 3118.90 815.00 3119.80 815.00 3119.80 C 815.00 3119.80 824.90 3113.60 823.30 3100.80 C 762.10 3081.40 714.00 3023.60 718.20 2954.10 Z" fill="#1a1a1a" fill-rule="nonzero" group-id="5" node-id="438" stroke="none" target-height="202.5" target-width="203.40002" target-x="621.5" target-y="2917.3"></path><path d="M 772.00 2806.00 C 787.90 2749.30 886.40 2480.70 886.40 2480.70 L 807.00 2435.00 C 804.10 2440.80 801.60 2446.70 800.60 2453.00 C 784.60 2521.60 770.90 2588.00 750.30 2654.30 C 725.00 2732.10 721.10 2814.20 724.00 2896.00 C 732.20 2911.00 742.40 2925.10 755.10 2937.80 C 760.00 2942.90 766.50 2944.80 773.50 2944.90 C 768.20 2903.20 760.90 2845.80 772.00 2806.00 Z" fill="#fc9590" fill-rule="nonzero" group-id="5" node-id="440" stroke="none" target-height="509.8999" target-width="165.30005" target-x="721.1" target-y="2435"></path><path d="M 750.20 2654.40 C 770.80 2588.00 784.50 2521.70 800.50 2453.10 C 801.60 2446.80 804.10 2440.90 806.90 2435.10 L 790.40 2425.60 L 693.50 2800.00 C 699.10 2834.00 707.80 2866.90 723.80 2896.20 C 721.00 2814.20 724.90 2732.10 750.20 2654.40 Z" fill="#db6767" fill-rule="nonzero" group-id="5" node-id="442" stroke="none" target-height="470.59985" target-width="113.400024" target-x="693.5" target-y="2425.6"></path><path d="M 999.60 2990.70 C 999.60 2988.40 1006.50 2977.00 1013.30 2981.50 C 1047.60 3011.20 1054.50 3059.30 1095.70 3084.50 C 1121.40 3101.00 1153.00 3105.70 1182.20 3098.70 C 1179.80 3096.00 1176.50 3093.30 1172.30 3090.60 C 1145.10 3073.30 1115.30 3043.50 1104.80 3013.60 C 1101.70 3004.70 1094.90 2991.40 1086.70 2975.50 C 1080.10 2977.80 1073.30 2978.30 1067.00 2975.10 C 1019.10 2952.80 987.80 2911.80 962.30 2866.30 L 969.80 2918.10 L 969.80 3050.80 C 970.60 3050.70 971.30 3050.50 972.10 3050.20 C 992.70 3036.40 990.40 3011.30 999.60 2990.70 Z" fill="#572658" fill-rule="nonzero" group-id="5" node-id="444" stroke="none" target-height="239.3999" target-width="219.89996" target-x="962.3" target-y="2866.3"></path><path d="M 1095.70 3084.50 C 1054.50 3059.30 1047.70 3011.30 1013.30 2981.50 C 1006.40 2976.90 999.60 2988.40 999.60 2990.70 C 990.40 3011.30 992.70 3036.50 972.10 3050.20 C 971.30 3050.50 970.50 3050.70 969.80 3050.80 L 969.80 3098.70 L 996.10 3098.70 C 996.10 3098.70 1012.30 2973.20 1016.00 2996.90 C 1019.70 3020.70 1074.10 3111.00 1122.30 3120.60 C 1170.50 3130.20 1185.40 3125.90 1185.40 3125.90 C 1185.40 3125.90 1195.40 3113.10 1182.10 3098.70 C 1153.00 3105.70 1121.40 3101.00 1095.70 3084.50 Z" fill="#1a1a1a" fill-rule="nonzero" group-id="5" node-id="446" stroke="none" target-height="157" target-width="225.60004" target-x="969.8" target-y="2973.2"></path><path d="M 970.00 2473.20 L 947.90 2472.10 L 962.40 2866.30 C 981.30 2900.10 1003.50 2931.40 1033.20 2954.40 C 1016.00 2923.00 1004.50 2888.70 999.60 2855.70 C 984.40 2727.40 971.30 2601.20 970.00 2473.20 Z" fill="#db6767" fill-rule="nonzero" group-id="5" node-id="448" stroke="none" target-height="482.2998" target-width="85.29993" target-x="947.9" target-y="2472.1"></path><path d="M 1086.70 2975.50 C 1067.60 2938.10 1041.20 2886.50 1038.10 2845.30 C 1033.70 2786.60 1068.20 2477.80 1068.20 2477.80 L 969.90 2473.10 C 971.20 2601.10 984.30 2727.30 999.50 2855.60 C 1004.40 2888.60 1015.80 2922.90 1033.10 2954.30 C 1043.40 2962.30 1054.60 2969.30 1066.90 2975.00 C 1073.30 2978.30 1080.10 2977.80 1086.70 2975.50 Z" fill="#fc9590" fill-rule="nonzero" group-id="5" node-id="450" stroke="none" target-height="505.19995" target-width="116.79993" target-x="969.9" target-y="2473.1"></path><path d="M 844.00 2091.50 C 819.40 1978.90 778.40 1857.10 822.50 1754.00 C 774.80 1770.00 732.20 1794.30 732.20 1794.30 C 721.60 1794.70 679.00 1843.00 743.20 2361.70 C 747.10 2392.80 739.60 2541.10 745.50 2574.90 C 755.30 2575.80 766.50 2576.80 778.60 2577.70 C 838.10 2422.20 880.50 2259.50 844.00 2091.50 Z" fill="#102140" fill-rule="nonzero" group-id="5" node-id="452" stroke="none" target-height="823.69995" target-width="201.5" target-x="679" target-y="1754"></path><path d="M 1144.50 1754.60 L 924.60 1740.30 L 924.50 1746.50 C 898.80 1734.40 859.20 1741.80 822.60 1754.10 C 778.50 1857.20 819.50 1978.90 844.10 2091.60 C 880.50 2259.60 838.20 2422.30 778.80 2577.90 C 822.50 2581.30 877.20 2583.90 914.10 2579.20 C 920.80 2578.30 927.60 2577.40 934.40 2576.30 C 982.60 2569.00 1031.90 2557.60 1082.80 2544.40 C 1117.50 2336.70 1159.40 2118.00 1166.20 1970.80 C 1172.50 1828.90 1144.50 1754.60 1144.50 1754.60 Z" fill="#152a52" fill-rule="nonzero" group-id="5" node-id="454" stroke="none" target-height="849.4999" target-width="394" target-x="778.5" target-y="1734.4"></path><path d="M 725.30 1827.60 C 767.20 1864.30 866.60 1830.70 916.90 1777.70 C 916.90 1777.70 934.70 1796.60 979.60 1805.50 C 1034.70 1816.50 1121.40 1805.20 1145.10 1779.80 C 1145.40 1767.90 1149.40 1742.90 1149.40 1742.90 L 908.20 1713.20 L 795.00 1756.90 L 718.50 1798.60 L 725.30 1827.60 Z" fill="#1a1a1a" fill-rule="nonzero" group-id="5" node-id="456" stroke="none" target-height="151.1001" target-width="430.90002" target-x="718.5" target-y="1713.2"></path><path d="M 703.50 1480.60 C 698.20 1452.70 649.70 1221.40 649.70 1221.40 C 649.70 1221.40 524.10 1390.70 573.10 1592.20 C 577.40 1609.90 593.70 1603.60 600.90 1621.90 C 626.50 1570.50 641.90 1545.20 677.20 1499.60 C 675.90 1498.60 704.50 1481.60 703.50 1480.60 Z" fill="#ffffff" fill-rule="nonzero" group-id="5" node-id="458" stroke="none" target-height="400.5" target-width="180.40002" target-x="524.1" target-y="1221.4"></path><path d="M 821.20 1112.00 C 821.20 1112.00 635.40 1210.10 649.60 1221.30 C 664.50 1233.10 728.60 1754.20 715.20 1804.20 C 705.20 1841.60 919.90 1867.90 927.80 1676.10 C 935.70 1484.30 917.20 1423.30 894.00 1393.50 C 870.90 1363.70 788.70 1208.10 821.20 1112.00 Z" fill="#152a52" fill-rule="nonzero" group-id="5" node-id="460" stroke="none" target-height="755.9" target-width="300.3" target-x="635.4" target-y="1112"></path><path d="M 831.30 1107.80 L 759.30 1131.00 L 803.50 1226.20 L 776.60 1291.60 C 776.60 1291.60 895.10 1436.70 911.00 1425.20 C 871.60 1353.20 819.80 1183.30 831.30 1107.80 Z" fill="#3b546b" fill-rule="nonzero" group-id="5" node-id="462" stroke="none" target-height="328.8999" target-width="151.70001" target-x="759.3" target-y="1107.8"></path><path d="M 1177.20 1828.00 L 1170.20 1830.60 C 1171.30 1848.30 1172.50 1866.00 1173.60 1883.70 C 1174.50 1897.70 1175.40 1911.80 1179.00 1925.30 C 1182.30 1937.90 1187.90 1949.90 1195.50 1960.60 C 1196.10 1961.40 1196.90 1962.20 1197.80 1962.00 C 1198.40 1961.80 1198.70 1961.30 1199.00 1960.80 C 1201.80 1955.40 1201.00 1949.20 1199.60 1943.10 C 1167.50 1921.70 1181.80 1866.60 1177.20 1828.00 Z" fill="#db6767" fill-rule="nonzero" group-id="5" node-id="464" stroke="none" target-height="134.19995" target-width="34.30005" target-x="1167.5" target-y="1828"></path><path d="M 1235.30 1894.80 C 1226.80 1869.30 1214.30 1843.70 1214.50 1814.50 L 1177.30 1828.10 C 1181.80 1866.70 1167.60 1921.80 1199.70 1943.10 C 1199.20 1940.90 1198.60 1938.60 1198.10 1936.50 C 1196.60 1930.30 1195.70 1923.90 1196.00 1917.60 C 1196.10 1915.10 1196.40 1912.50 1197.70 1910.30 C 1199.00 1908.10 1201.50 1906.50 1204.00 1907.00 C 1206.40 1907.40 1208.10 1909.60 1209.40 1911.70 C 1217.90 1925.30 1220.30 1941.80 1222.50 1957.80 C 1223.60 1966.00 1224.70 1974.10 1225.90 1982.30 C 1249.70 1964.90 1245.00 1920.00 1235.30 1894.80 Z" fill="#fc9590" fill-rule="nonzero" group-id="5" node-id="466" stroke="none" target-height="167.80005" target-width="82.099976" target-x="1167.6" target-y="1814.5"></path><path d="M 1246.10 1877.60 C 1241.80 1866.50 1235.20 1856.50 1230.10 1845.80 C 1225.00 1835.10 1221.20 1823.20 1222.80 1811.40 L 1214.40 1814.50 C 1214.30 1843.70 1226.70 1869.30 1235.20 1894.80 C 1244.90 1920.00 1249.70 1965.00 1225.80 1982.20 C 1226.70 1988.80 1227.60 1995.50 1228.50 2002.10 C 1229.10 2006.70 1229.90 2011.50 1233.00 2014.90 C 1233.70 2015.70 1234.70 2016.40 1235.70 2016.00 C 1236.30 2015.80 1236.70 2015.20 1237.10 2014.60 C 1244.90 2001.40 1249.90 1986.70 1252.00 1971.60 C 1253.00 1963.90 1253.30 1956.10 1253.50 1948.30 C 1254.20 1924.50 1254.80 1899.80 1246.10 1877.60 Z" fill="#fc9590" fill-rule="nonzero" group-id="5" node-id="468" stroke="none" target-height="205" target-width="40.5" target-x="1214.3" target-y="1811.4"></path><path d="M 1118.60 1175.90 C 1118.60 1175.90 1208.70 1185.00 1202.10 1315.80 C 1195.50 1446.50 1229.90 1821.40 1229.90 1821.40 L 1162.30 1838.60 C 1162.30 1838.60 1088.10 1628.90 1081.50 1507.20 C 1074.90 1385.50 1118.60 1175.90 1118.60 1175.90 Z" fill="#ffffff" fill-rule="nonzero" group-id="5" node-id="470" stroke="none" target-height="662.69995" target-width="155" target-x="1074.9" target-y="1175.9"></path><path d="M 1185.80 1832.70 C 1182.90 1818.50 1176.90 1799.60 1170.30 1778.10 C 1157.40 1736.10 1121.20 1425.10 1141.90 1349.00 C 1153.60 1305.80 1137.60 1254.70 1156.10 1191.50 C 1136.80 1177.80 1118.70 1175.90 1118.70 1175.90 C 1118.70 1175.90 1075.00 1385.60 1081.60 1507.30 C 1088.20 1629.00 1162.40 1838.70 1162.40 1838.70 L 1185.80 1832.70 Z" fill="#dbd2db" fill-rule="nonzero" group-id="5" node-id="472" stroke="none" target-height="662.7999" target-width="110.80005" target-x="1075" target-y="1175.9"></path><path d="M 1017.90 1124.60 C 1018.30 1119.80 1160.60 1163.90 1155.30 1189.10 C 1150.00 1214.30 1070.90 1561.80 1162.30 1740.70 C 1176.90 1757.90 1149.10 1781.80 1072.20 1788.40 C 995.40 1795.00 927.80 1810.90 913.20 1735.40 C 898.60 1659.90 910.90 1427.20 910.90 1427.20 C 910.90 1427.20 1008.70 1235.90 1017.90 1124.60 Z" fill="#152a52" fill-rule="nonzero" group-id="5" node-id="474" stroke="none" target-height="691.1" target-width="278.30005" target-x="898.6" target-y="1119.8"></path><path d="M 1008.10 1112.00 C 1008.20 1110.40 1079.40 1136.10 1079.40 1136.10 L 1039.70 1198.80 L 1061.50 1274.30 C 1061.50 1274.30 909.00 1405.50 909.00 1471.40 C 902.40 1369.30 1004.70 1214.50 1008.10 1112.00 Z" fill="#3b546b" fill-rule="nonzero" group-id="5" node-id="476" stroke="none" target-height="361" target-width="177" target-x="902.4" target-y="1110.4"></path><path d="M 1001.90 1434.90 C 985.90 1428.00 965.30 1430.30 949.30 1439.50 C 911.20 1462.80 869.10 1460.60 828.60 1478.30 L 813.20 1611.60 C 854.70 1599.40 896.10 1596.00 933.20 1567.60 C 940.10 1563.00 951.50 1563.00 958.40 1565.30 C 969.50 1569.30 979.80 1575.60 990.10 1581.00 L 1010.80 1439.30 C 1007.90 1437.70 1004.90 1436.30 1001.90 1434.90 Z" fill="#d1334a" fill-rule="nonzero" group-id="5" node-id="478" stroke="none" target-height="183.59998" target-width="197.59998" target-x="813.2" target-y="1428"></path><path d="M 933.20 1567.60 C 896.00 1596.00 854.70 1599.40 813.20 1611.60 L 810.70 1633.50 L 980.30 1648.50 L 990.10 1581.00 C 979.80 1575.60 969.50 1569.40 958.40 1565.30 C 951.60 1563.00 940.10 1563.00 933.20 1567.60 Z" fill="#ef5668" fill-rule="nonzero" group-id="5" node-id="480" stroke="none" target-height="85.5" target-width="179.39996" target-x="810.7" target-y="1563"></path><path d="M 839.70 1381.90 L 828.60 1478.30 C 869.10 1460.60 911.10 1462.80 949.30 1439.50 C 965.30 1430.30 985.90 1428.10 1001.90 1434.90 C 1004.90 1436.30 1007.90 1437.80 1010.80 1439.30 L 1017.40 1394.10 L 839.70 1381.90 Z" fill="#ef5668" fill-rule="nonzero" group-id="5" node-id="482" stroke="none" target-height="96.400024" target-width="188.80005" target-x="828.6" target-y="1381.9"></path><path d="M 846.10 1543.00 C 846.10 1551.40 846.20 1557.80 846.40 1558.50 C 847.10 1560.50 947.10 1545.30 960.30 1543.30 C 968.20 1542.10 988.20 1555.20 1003.20 1566.00 C 1003.70 1565.60 1004.10 1565.00 1004.60 1564.60 C 966.90 1518.50 901.20 1528.60 846.10 1543.00 Z" fill="#db6767" fill-rule="nonzero" group-id="5" node-id="484" stroke="none" target-height="47.5" target-width="158.5" target-x="846.1" target-y="1518.5"></path><path d="M 1022.30 1475.90 C 1009.50 1465.60 993.00 1459.30 974.90 1459.40 C 925.90 1459.70 846.40 1499.50 846.40 1499.50 C 846.40 1499.50 846.10 1525.50 846.10 1543.00 C 901.20 1528.50 966.90 1518.50 1004.60 1564.50 C 1026.00 1543.00 1027.60 1505.10 1022.30 1475.90 Z" fill="#fc9590" fill-rule="nonzero" group-id="5" node-id="486" stroke="none" target-height="105.19995" target-width="181.5" target-x="846.1" target-y="1459.3"></path><path d="M 573.00 1592.20 C 575.60 1604.20 593.80 1635.80 611.40 1640.60 C 681.00 1659.50 877.10 1562.30 877.10 1562.30 C 883.80 1533.40 875.30 1507.50 856.80 1483.70 C 856.80 1483.70 735.50 1530.10 693.00 1498.00 L 691.90 1489.00 L 689.20 1466.70" fill="#ffffff" fill-rule="nonzero" group-id="5" node-id="488" stroke="none" target-height="192.80005" target-width="310.8" target-x="573" target-y="1466.7"></path><path d="M 598.10 1588.50 C 536.80 1497.00 596.70 1330.00 636.10 1241.80 C 605.10 1292.70 534.10 1432.30 573.00 1592.10 C 575.60 1604.10 593.80 1635.70 611.40 1640.50 C 681.00 1659.40 877.10 1562.20 877.10 1562.20 C 879.00 1554.00 879.60 1546.00 879.20 1538.20 C 807.80 1569.10 637.90 1635.60 598.10 1588.50 Z" fill="#dbd2db" fill-rule="nonzero" group-id="5" node-id="490" stroke="none" target-height="417.59998" target-width="345.5" target-x="534.1" target-y="1241.8"></path><path d="M 792.90 1152.00 C 793.30 1149.70 773.50 1102.60 792.90 1072.60 C 768.20 1100.00 766.30 1105.30 766.30 1105.30 C 766.30 1105.30 775.80 1029.70 805.80 1010.70 C 835.80 991.70 855.60 966.20 856.70 965.90 C 857.80 965.50 899.30 991.40 875.70 1064.30 C 852.20 1137.20 792.90 1152.00 792.90 1152.00 Z" fill="#102140" fill-rule="nonzero" group-id="5" node-id="492" stroke="none" target-height="186.5" target-width="133" target-x="766.3" target-y="965.5"></path><path d="M 851.80 976.10 C 851.80 976.10 962.90 980.50 977.20 895.00 C 991.40 809.50 1061.50 863.10 1061.50 863.10 C 1061.50 863.10 1037.60 790.10 948.10 797.60 C 858.70 804.90 819.90 894.20 851.80 976.10 Z" fill="#102140" fill-rule="nonzero" group-id="5" node-id="494" stroke="none" target-height="190.40002" target-width="241.59998" target-x="819.9" target-y="790.1"></path><path d="M 934.40 1052.00 C 934.40 1052.00 969.30 1070.80 981.80 1070.90 C 991.20 1105.10 991.20 1105.10 991.20 1105.10 C 991.20 1105.10 945.20 1098.70 934.40 1052.00 Z" fill="#db6767" fill-rule="nonzero" group-id="5" node-id="496" stroke="none" target-height="53.099976" target-width="56.799988" target-x="934.4" target-y="1052"></path><path d="M 819.10 2267.20 L 858.10 3151.80 C 863.50 3151.50 871.00 3151.80 878.50 3152.00 L 877.00 2271.20 L 819.10 2267.20 Z" fill="#504650" fill-rule="nonzero" node-id="499" stroke="none" target-height="884.80005" target-width="59.400024" target-x="819.1" target-y="2267.2"></path><path d="M 897.20 3151.90 L 893.30 2272.40 L 877.10 2271.30 L 878.60 3152.10 C 885.50 3152.30 892.30 3152.40 897.20 3151.90 Z" fill="#3c353c" fill-rule="nonzero" node-id="501" stroke="none" target-height="881.09985" target-width="20.100037" target-x="877.1" target-y="2271.3"></path><path d="M 1452.40 2284.00 L 1491.30 3294.20 C 1508.80 3291.10 1515.70 3294.10 1527.70 3294.80 L 1521.60 2284.00 L 1452.40 2284.00 Z" fill="#504650" fill-rule="nonzero" node-id="503" stroke="none" target-height="1010.80005" target-width="75.29993" target-x="1452.4" target-y="2284"></path><path d="M 1521.60 2284.00 L 1527.70 3294.80 C 1532.20 3295.10 1537.50 3295.00 1544.30 3294.20 L 1564.10 2284.00 L 1521.60 2284.00 Z" fill="#3c353c" fill-rule="nonzero" node-id="505" stroke="none" target-height="1011.1001" target-width="42.5" target-x="1521.6" target-y="2284"></path><path d="M 754.00 2231.50 L 754.00 2277.20 L 1544.30 2303.00 L 1543.10 2257.30 Z" fill="#b9b4b9" fill-rule="nonzero" node-id="507" stroke="none" target-height="71.5" target-width="790.30005" target-x="754" target-y="2231.5"></path><path d="M 2660.40 2199.80 L 2655.20 3035.70 C 2646.10 3042.60 2636.10 3045.80 2623.70 3041.90 L 2587.00 2211.60 L 2660.40 2199.80 Z" fill="#504650" fill-rule="nonzero" node-id="509" stroke="none" target-height="846" target-width="73.3999" target-x="2587" target-y="2199.8"></path><path d="M 2661.80 2167.90 L 1545.00 2257.30 L 754.00 2231.50 L 2067.40 2136.90 Z" fill="#dbd2db" fill-rule="nonzero" group-id="6" node-id="513" stroke="none" target-height="120.40015" target-width="1907.8" target-x="754" target-y="2136.9"></path><path d="M 2661.80 2213.60 L 2661.80 2167.90 L 1545.00 2257.30 L 1543.10 2257.30 L 1544.30 2303.00 L 1545.00 2303.00 Z" fill="#545154" fill-rule="nonzero" group-id="6" node-id="515" stroke="none" target-height="135.1001" target-width="1118.7001" target-x="1543.1" target-y="2167.9"></path><path d="M 832.20 2201.00 L 1234.40 2167.90 L 1230.50 2206.90 L 1090.70 2215.50 Z" fill="#6584c6" fill-rule="nonzero" group-id="7" node-id="520" stroke="none" target-height="47.600098" target-width="402.2" target-x="832.2" target-y="2167.9"></path><path d="M 835.00 2201.00 C 837.60 2200.30 1147.70 2208.30 1147.70 2208.30 L 1147.70 2235.50 L 835.00 2225.90 L 835.00 2201.00 Z" fill="#1a1a1a" fill-rule="nonzero" group-id="7" node-id="522" stroke="none" target-height="35.19995" target-width="312.69995" target-x="835" target-y="2200.3"></path><path d="M 1412.80 2190.00 L 1409.30 2209.30 L 1144.80 2235.50 L 1144.80 2208.30 Z" fill="#152a52" fill-rule="nonzero" group-id="7" node-id="524" stroke="none" target-height="45.5" target-width="268" target-x="1144.8" target-y="2190"></path><path d="M 1307.60 1898.30 L 1154.80 2225.50 L 1421.50 2201.00 L 1564.20 1895.60 Z" fill="#6584c6" fill-rule="nonzero" group-id="7" node-id="526" stroke="none" target-height="329.90002" target-width="409.3999" target-x="1154.8" target-y="1895.6"></path><path d="M 1389.20 2016.20 C 1389.20 2016.20 1340.60 2037.90 1355.10 2050.50 C 1369.60 2063.00 1403.30 2058.10 1405.50 2056.50 C 1407.70 2054.90 1389.20 2016.20 1389.20 2016.20 Z" fill="#ffb114" fill-rule="nonzero" group-id="7" node-id="528" stroke="none" target-height="46.80005" target-width="67.099976" target-x="1340.6" target-y="2016.2"></path><path d="M 1137.60 2222.20 L 1297.50 1887.40 L 1307.60 1898.30 L 1154.80 2225.50 Z" fill="#3b546b" fill-rule="nonzero" group-id="7" node-id="530" stroke="none" target-height="338.09998" target-width="170" target-x="1137.6" target-y="1887.4"></path><path d="M 1563.90 1895.30 L 1541.60 1887.40 L 1297.50 1887.40 L 1307.60 1898.30 Z" fill="#102140" fill-rule="nonzero" group-id="7" node-id="532" stroke="none" target-height="10.900024" target-width="266.40002" target-x="1297.5" target-y="1887.4"></path><path d="M 2025.20 1118.00 C 2024.50 1115.40 1986.10 1086.90 1962.30 1076.90 C 1938.50 1067.00 1894.10 1054.40 1891.40 1039.10 C 1888.80 1023.90 1894.40 966.90 1905.80 959.60 C 1917.20 952.30 1990.70 947.10 2006.00 963.00 C 2021.20 978.90 2074.70 1082.20 2074.70 1082.20" fill="#fc9590" fill-rule="nonzero" node-id="535" stroke="none" target-height="170.90002" target-width="185.8999" target-x="1888.8" target-y="947.1"></path><path d="M 1935.40 1029.90 C 1974.40 1028.10 2012.10 1033.20 2050.50 1036.70 C 2034.30 1006.80 2014.40 971.80 2006.00 963.10 C 1990.80 947.20 1917.20 952.50 1905.80 959.70 C 1898.90 964.10 1894.10 986.60 1892.00 1007.10 C 1906.50 1015.40 1920.90 1032.00 1935.40 1029.90 Z" fill="#fc9590" fill-rule="nonzero" node-id="537" stroke="none" target-height="89.49994" target-width="158.5" target-x="1892" target-y="947.2"></path><path d="M 1935.40 1029.90 C 1920.90 1032.00 1906.50 1015.40 1892.00 1007.10 C 1890.60 1020.50 1890.30 1033.10 1891.40 1039.20 C 1894.00 1054.40 1938.40 1067.00 1962.30 1077.00 C 1986.10 1086.90 2024.60 1115.40 2025.20 1118.10 L 2074.70 1082.30 C 2074.70 1082.30 2063.80 1061.30 2050.50 1036.80 C 2012.10 1033.20 1974.40 1028.10 1935.40 1029.90 Z" fill="#db6767" fill-rule="nonzero" node-id="539" stroke="none" target-height="111" target-width="184.3999" target-x="1890.3" target-y="1007.1"></path><path d="M 1990.50 1092.30 C 1990.50 1092.30 2046.30 1077.30 2055.30 1060.30 C 2049.80 1056.80 2047.10 1053.30 2047.10 1053.30 L 1977.00 1082.30 L 1990.50 1092.30 Z" fill="#691a25" fill-rule="nonzero" node-id="541" stroke="none" target-height="39" target-width="78.30005" target-x="1977" target-y="1053.3"></path><path d="M 2003.40 943.80 C 1984.90 935.40 1924.00 923.40 1907.80 928.00 C 1925.10 945.50 1955.20 936.00 1972.00 959.00 C 1980.20 970.90 1985.90 983.10 1989.60 995.60 L 2077.60 1082.20 C 2077.50 1082.20 2025.20 953.70 2003.40 943.80 Z" fill="#fc9590" fill-rule="nonzero" node-id="543" stroke="none" target-height="158.79993" target-width="169.80005" target-x="1907.8" target-y="923.4"></path><path d="M 1907.80 928.00 C 1904.80 928.80 1903.40 930.20 1904.00 932.30 C 1908.00 945.80 1949.70 956.40 1949.70 956.40 L 1989.50 995.60 C 1985.80 983.10 1980.20 970.90 1971.90 959.00 C 1955.20 936.00 1925.10 945.50 1907.80 928.00 Z" fill="#9e2738" fill-rule="nonzero" node-id="545" stroke="none" target-height="67.599976" target-width="86.099976" target-x="1903.4" target-y="928"></path><path d="M 2041.30 937.50 C 2017.90 942.60 1993.90 944.00 1972.80 953.00 L 1949.60 967.80 L 1943.40 1011.10 C 1943.40 1011.10 1899.80 1057.70 1856.00 1097.80 C 1860.90 1116.70 1874.40 1130.50 1891.60 1141.20 C 1909.40 1111.90 1916.70 1074.10 1953.50 1061.90 C 1992.40 1050.50 2054.20 1066.50 2065.60 1020.70 C 2073.80 990.50 2055.30 963.80 2041.30 937.50 Z" fill="#fc9590" fill-rule="nonzero" node-id="547" stroke="none" target-height="203.69995" target-width="217.80005" target-x="1856" target-y="937.5"></path><path d="M 1907.80 1048.00 C 1907.80 1048.00 1945.00 1057.20 1953.90 1040.70 C 1962.90 1024.20 1988.10 969.80 1972.80 953.00 C 1951.40 968.80 1951.40 968.80 1951.40 968.80 L 1915.90 1029.10 L 1907.80 1048.00 Z" fill="#691a25" fill-rule="nonzero" node-id="549" stroke="none" target-height="104.19995" target-width="80.29993" target-x="1907.8" target-y="953"></path><path d="M 2037.60 930.20 L 1993.90 939.60 L 1972.90 953.00 C 1994.00 944.00 2018.00 942.60 2041.40 937.50 C 2040.00 935.10 2038.80 932.70 2037.60 930.20 Z" fill="#db6767" fill-rule="nonzero" node-id="551" stroke="none" target-height="22.799988" target-width="68.5" target-x="1972.9" target-y="930.2"></path><path d="M 2043.30 929.00 L 2037.60 930.20 C 2051.60 958.90 2074.60 987.70 2065.80 1020.70 C 2054.40 1066.50 1992.60 1050.40 1953.70 1061.90 C 1916.90 1074.20 1909.60 1111.90 1891.80 1141.20 C 1898.50 1145.40 1905.80 1149.10 1913.30 1152.40 C 1935.10 1121.00 1953.70 1098.50 1967.40 1094.10 C 2022.20 1076.40 2053.10 1058.80 2053.10 1058.80 L 2092.80 1023.50 L 2043.30 929.00 Z" fill="#db6767" fill-rule="nonzero" node-id="553" stroke="none" target-height="223.40002" target-width="201" target-x="1891.8" target-y="929"></path><path d="M 2454.70 1235.80 C 2501.20 1204.20 2534.40 1164.30 2558.80 1117.60 C 2493.50 1147.00 2400.00 1185.20 2338.30 1193.10 C 2235.00 1206.30 2083.90 1055.30 2083.90 1055.30 C 2083.90 1055.30 2006.20 1088.90 2015.90 1123.30 C 2019.60 1136.50 2053.40 1177.20 2100.70 1221.20 C 2219.80 1252.40 2342.60 1312.80 2454.70 1235.80 Z" fill="#ef5668" fill-rule="nonzero" node-id="555" stroke="none" target-height="257.5" target-width="552.6001" target-x="2006.2" target-y="1055.3"></path><path d="M 2558.80 1117.60 C 2534.40 1164.30 2501.20 1204.30 2454.70 1235.80 C 2342.50 1312.80 2219.80 1252.30 2100.70 1221.10 C 2176.00 1291.20 2285.70 1369.60 2363.00 1359.10 C 2488.90 1341.90 2597.50 1287.60 2597.50 1287.60 L 2634.00 1081.90 C 2634.10 1081.90 2602.80 1097.80 2558.80 1117.60 Z" fill="#eb485c" fill-rule="nonzero" node-id="557" stroke="none" target-height="287.69995" target-width="533.40015" target-x="2100.7" target-y="1081.9"></path><path d="M 2612.70 1202.40 C 2574.70 1229.30 2513.60 1269.50 2430.00 1315.00 C 2283.40 1379.00 2076.30 1172.90 2016.30 1109.90 C 2014.90 1114.30 2014.70 1118.80 2016.00 1123.30 C 2025.70 1157.50 2237.30 1376.30 2363.10 1359.10 C 2489.00 1341.90 2597.60 1287.60 2597.60 1287.60 L 2612.70 1202.40 Z" fill="#d1334a" fill-rule="nonzero" node-id="559" stroke="none" target-height="269.09998" target-width="598" target-x="2014.7" target-y="1109.9"></path><path d="M 2516.80 1314.50 C 2516.80 1314.50 2550.10 1167.00 2587.80 1128.00 C 2616.80 1090.50 2639.10 1109.90 2639.10 1109.90 C 2639.10 1109.90 2598.30 1287.80 2598.30 1290.60 C 2598.30 1293.30 2561.30 1305.80 2561.30 1305.80 L 2514.40 1321.60 L 2516.80 1314.50 Z" fill="#d1334a" fill-rule="nonzero" node-id="561" stroke="none" target-height="231.09998" target-width="124.700195" target-x="2514.4" target-y="1090.5"></path><path d="M 2706.00 3112.70 C 2706.00 3112.70 2545.80 3171.10 2542.30 3202.70 C 2538.80 3234.30 2690.20 3220.20 2756.20 3194.50 C 2761.50 3206.20 2761.50 3206.20 2761.50 3206.20 C 2761.50 3206.20 2835.10 3193.90 2841.00 3186.30 C 2850.40 3138.40 2834.00 3089.30 2822.30 3083.40 C 2810.70 3077.70 2706.00 3112.70 2706.00 3112.70 Z" fill="#1a1a1a" fill-rule="nonzero" node-id="563" stroke="#1a1a1a" stroke-linecap="round" stroke-width="2" target-height="156.6001" target-width="311.59985" target-x="2538.8" target-y="3077.7"></path><path d="M 2813.50 1867.80 C 2775.30 1988.70 2772.10 2365.60 2772.90 2551.90 C 2768.10 2553.00 2827.00 3084.60 2827.00 3084.60 C 2832.20 3109.00 2710.90 3155.90 2672.70 3117.50 C 2603.20 2573.80 2586.90 1748.50 2586.90 1748.50 L 2716.40 1696.60 L 2808.20 1659.80 L 2813.40 1657.70 C 2813.40 1657.70 2814.50 1658.70 2816.20 1660.80 C 2826.20 1673.80 2857.60 1728.50 2813.50 1867.80 Z" fill="#152a52" fill-rule="nonzero" node-id="565" stroke="none" target-height="1498.2" target-width="270.7002" target-x="2586.9" target-y="1657.7"></path><path d="M 2827.00 3084.70 C 2827.00 3084.70 2768.10 2553.10 2772.90 2552.00 C 2772.20 2403.20 2774.10 2132.70 2794.40 1968.30 C 2733.10 1963.00 2656.90 1997.30 2668.50 2208.30 C 2684.40 2499.80 2774.10 2969.10 2802.10 3110.30 C 2818.30 3101.70 2828.60 3092.10 2827.00 3084.70 Z" fill="#102140" fill-rule="nonzero" node-id="567" stroke="none" target-height="1147.3" target-width="171.7002" target-x="2656.9" target-y="1963"></path><path d="M 2871.80 3101.30 C 2871.80 3101.30 2849.00 3170.60 2838.50 3195.10 C 2828.00 3219.60 2806.10 3244.20 2811.30 3257.30 C 2816.60 3270.50 2841.70 3310.50 2932.90 3221.90 C 2954.50 3203.50 2964.80 3188.30 2964.80 3188.30 L 2967.40 3198.50 C 2967.40 3198.50 2997.60 3197.60 3010.80 3179.20 C 3014.40 3142.40 2997.20 3072.20 2997.20 3072.20 L 2871.80 3101.30 Z" fill="#1a1a1a" fill-rule="nonzero" node-id="569" stroke="#1a1a1a" stroke-linecap="round" stroke-width="2" target-height="238.30005" target-width="208.2998" target-x="2806.1" target-y="3072.2"></path><path d="M 3017.50 1934.10 C 3001.40 2069.40 2978.90 2816.70 3007.30 3081.20 C 2989.30 3091.10 2972.00 3098.20 2955.90 3103.20 C 2905.80 3119.10 2867.80 3115.80 2857.90 3117.60 C 2837.10 2996.60 2679.30 2222.30 2678.50 2056.00 L 2719.40 1648.00 L 2808.30 1660.00 L 2816.20 1661.10 L 2911.20 1673.90 L 2961.80 1680.70 C 2961.90 1680.60 3037.00 1770.70 3017.50 1934.10 Z" fill="#152a52" fill-rule="nonzero" node-id="571" stroke="none" target-height="1471.1001" target-width="358.5" target-x="2678.5" target-y="1648"></path><path d="M 3017.50 1934.10 C 3001.40 2069.40 2978.90 2816.70 3007.30 3081.20 C 2989.30 3091.10 2972.00 3098.20 2955.90 3103.20 C 2947.00 3018.10 2933.80 2819.10 2955.50 2489.30 C 2980.10 2115.70 2930.10 1782.60 2911.20 1673.70 L 2961.80 1680.50 C 2961.90 1680.60 3037.00 1770.70 3017.50 1934.10 Z" fill="#102140" fill-rule="nonzero" node-id="573" stroke="none" target-height="1429.5" target-width="125.80005" target-x="2911.2" target-y="1673.7"></path><path d="M 2761.80 1736.50 C 2830.00 1727.40 2915.60 1717.10 2967.00 1669.10 C 2955.70 1641.50 2955.70 1636.40 2955.70 1636.40 L 2574.10 1693.80 C 2574.10 1693.80 2572.90 1707.20 2573.30 1722.40 C 2633.00 1742.70 2698.90 1744.80 2761.80 1736.50 Z" fill="#1a1a1a" fill-rule="nonzero" node-id="575" stroke="none" target-height="108.400024" target-width="394.1001" target-x="2572.9" target-y="1636.4"></path><path d="M 2761.80 1736.50 C 2698.80 1744.80 2632.90 1742.70 2573.30 1722.40 C 2573.70 1738.80 2576.00 1757.20 2583.80 1762.70 C 2598.80 1773.30 2945.00 1773.30 2974.20 1686.30 C 2971.40 1679.80 2969.00 1674.10 2967.00 1669.10 C 2915.60 1717.00 2830.10 1727.40 2761.80 1736.50 Z" fill="#445575" fill-rule="nonzero" node-id="577" stroke="none" target-height="104.20007" target-width="400.8999" target-x="2573.3" target-y="1669.1"></path><path d="M 2789.70 985.50 C 2787.40 987.10 2612.70 1035.80 2566.10 1193.80 C 2544.30 1267.70 2519.40 1655.80 2577.70 1704.80 C 2636.00 1753.80 2963.20 1716.70 2963.20 1639.90 C 2963.20 1563.10 3042.70 1117.90 2988.40 1070.20 C 2934.10 1022.60 2857.20 936.50 2789.70 985.50 Z" fill="#ef5668" fill-rule="nonzero" node-id="579" stroke="none" target-height="817.30005" target-width="523.30005" target-x="2519.4" target-y="936.5"></path><path d="M 2684.00 1727.00 C 2800.40 1728.60 2963.20 1694.20 2963.20 1640.00 C 2963.20 1616.70 2970.50 1559.60 2979.20 1489.90 C 2957.00 1555.60 2946.30 1628.00 2900.90 1682.00 C 2829.80 1698.60 2756.80 1718.20 2684.00 1727.00 Z" fill="#d1334a" fill-rule="nonzero" node-id="581" stroke="none" target-height="238.69995" target-width="295.19995" target-x="2684" target-y="1489.9"></path><path d="M 2998.10 1086.50 C 2993.90 1217.00 2965.20 1343.80 2875.70 1444.00 C 2792.60 1540.20 2661.50 1540.30 2542.20 1536.10 C 2545.90 1619.20 2556.70 1687.20 2577.70 1704.80 C 2594.90 1719.20 2635.40 1726.20 2684.00 1726.90 C 2756.90 1718.20 2829.80 1698.50 2900.90 1681.90 C 2946.30 1627.90 2957.00 1555.50 2979.20 1489.80 C 2997.10 1346.30 3020.70 1149.60 2998.10 1086.50 Z" fill="#eb485c" fill-rule="nonzero" node-id="583" stroke="none" target-height="640.4" target-width="478.5" target-x="2542.2" target-y="1086.5"></path><path d="M 2881.00 1210.10 C 2881.50 1211.70 2954.40 1398.20 2954.40 1453.10 C 2954.40 1508.00 2973.90 1532.60 2973.90 1532.60 L 2984.90 1426.50 L 2933.00 1203.60 L 2881.00 1210.10 Z" fill="#d1334a" fill-rule="nonzero" node-id="585" stroke="none" target-height="329" target-width="103.8999" target-x="2881" target-y="1203.6"></path><path d="M 2866.50 815.20 C 2890.30 706.80 2824.90 660.80 2764.80 651.10 C 2704.70 641.40 2641.50 685.30 2629.70 722.40 C 2629.70 722.40 2583.70 944.30 2639.40 955.10 C 2649.90 957.10 2663.80 957.30 2679.50 955.40 C 2684.70 994.40 2679.60 1046.40 2681.00 1077.30 C 2680.70 1082.70 2682.20 1089.60 2686.60 1092.20 C 2688.90 1093.50 2693.40 1090.30 2695.50 1089.30 C 2744.20 1066.50 2826.50 1006.40 2835.10 978.60 C 2830.20 951.70 2822.90 917.90 2825.10 888.30 C 2844.90 868.40 2860.10 844.20 2866.50 815.20 Z" fill="#fc9590" fill-rule="nonzero" node-id="587" stroke="none" target-height="452.09998" target-width="306.6001" target-x="2583.7" target-y="641.4"></path><path d="M 2825.00 888.20 C 2845.00 868.40 2860.20 844.20 2866.50 815.20 C 2890.30 706.80 2824.90 660.80 2764.80 651.10 C 2704.70 641.40 2641.50 685.30 2629.70 722.40 C 2629.70 722.40 2628.00 730.70 2625.60 744.10 C 2648.00 753.80 2684.60 761.60 2730.40 743.10 C 2741.90 737.10 2756.60 742.00 2754.40 782.20 C 2752.20 822.40 2766.90 831.10 2783.80 824.10 C 2800.70 817.00 2813.50 811.00 2816.70 826.30 C 2820.00 841.50 2788.70 881.80 2798.40 897.50 C 2808.20 913.30 2816.90 916.50 2816.90 916.50 C 2816.90 916.50 2816.50 987.50 2816.80 1004.00 C 2826.30 994.20 2832.90 985.40 2835.00 978.50 C 2830.00 951.60 2822.80 917.90 2825.00 888.20 Z" fill="#db6767" fill-rule="nonzero" node-id="589" stroke="none" target-height="362.59998" target-width="264.69995" target-x="2625.6" target-y="641.4"></path><path d="M 2740.20 936.10 C 2740.20 936.10 2695.30 954.30 2679.40 955.50 C 2680.50 978.50 2680.60 982.50 2680.60 982.50 C 2680.60 982.50 2735.70 967.00 2740.20 936.10 Z" fill="#db6767" fill-rule="nonzero" node-id="591" stroke="none" target-height="46.400024" target-width="60.80005" target-x="2679.4" target-y="936.1"></path><path d="M 3088.40 1852.10 L 3064.00 1857.70 C 3041.60 1901.00 3044.70 1955.00 3042.70 2002.20 C 3040.40 2029.70 3024.40 2057.10 2996.90 2064.00 C 2989.20 2066.10 2979.90 2067.30 2970.70 2067.10 C 2970.60 2075.50 2972.90 2083.50 2980.80 2088.20 C 2990.30 2093.80 3003.60 2091.40 3014.00 2086.90 C 3043.80 2073.90 3061.20 2046.30 3067.60 2018.70 C 3074.00 1991.00 3071.20 1962.60 3070.80 1934.40 C 3070.40 1906.30 3072.80 1877.10 3088.40 1852.10 Z" fill="#db6767" fill-rule="nonzero" node-id="593" stroke="none" target-height="241.70007" target-width="117.799805" target-x="2970.6" target-y="1852.1"></path><path d="M 2997.00 2064.10 C 3024.50 2057.20 3040.50 2029.80 3042.80 2002.30 C 3044.80 1955.10 3041.70 1901.10 3064.10 1857.80 L 3019.10 1868.20 C 2996.50 1906.00 2941.20 1983.60 2959.30 2016.90 C 2966.80 2030.00 2981.80 1982.00 2989.30 1979.60 C 2983.80 2004.10 2978.30 2028.50 2972.80 2053.00 C 2971.80 2057.50 2970.90 2062.50 2970.90 2067.30 C 2980.00 2067.40 2989.20 2066.20 2997.00 2064.10 Z" fill="#fc9590" fill-rule="nonzero" node-id="595" stroke="none" target-height="209.59985" target-width="122.90015" target-x="2941.2" target-y="1857.8"></path><path d="M 2950.40 1035.80 C 2950.40 1035.80 3059.90 1113.50 3086.40 1267.20 C 3119.30 1457.70 3172.50 1606.80 3098.30 1903.50 C 3044.00 1908.80 2991.00 1885.00 2991.00 1885.00 C 2991.00 1885.00 3022.10 1674.20 2973.00 1450.20 C 2933.60 1270.80 2873.50 1217.30 2873.50 1217.30" fill="#ef5668" fill-rule="nonzero" node-id="597" stroke="none" target-height="873" target-width="299" target-x="2873.5" target-y="1035.8"></path><path d="M 2009.00 2032.70 L 1993.20 2032.70 C 1971.20 2077.90 1995.80 2148.10 1978.90 2196.80 C 1978.80 2197.00 1978.70 2197.20 1978.70 2197.30 C 1983.60 2197.50 1988.60 2197.40 1993.70 2196.90 C 2003.10 2196.00 2012.70 2193.90 2021.40 2189.70 C 2029.60 2087.10 2033.50 2032.60 2033.50 2032.60 L 2009.00 2032.60 Z" fill="#572658" fill-rule="nonzero" group-id="8" node-id="601" stroke="none" target-height="164.90002" target-width="62.30005" target-x="1971.2" target-y="2032.6"></path><path d="M 1993.10 2032.70 L 1921.20 2032.70 L 1935.80 2189.80 C 1935.80 2189.80 1955.30 2196.50 1978.60 2197.40 C 1978.70 2197.20 1978.80 2197.00 1978.80 2196.90 C 1995.70 2148.00 1971.10 2077.80 1993.10 2032.70 Z" fill="#b080b0" fill-rule="nonzero" group-id="8" node-id="603" stroke="none" target-height="164.69995" target-width="74.5" target-x="1921.2" target-y="2032.7"></path><path d="M 2033.40 2032.70 C 2033.40 2037.50 2008.30 2041.40 1977.30 2041.40 C 1946.30 2041.40 1921.20 2037.50 1921.20 2032.70 C 1921.20 2027.90 1946.30 2024.00 1977.30 2024.00 C 2008.30 2024.00 2033.40 2027.80 2033.40 2032.70 Z" fill="#152a52" fill-rule="nonzero" group-id="8" node-id="605" stroke="none" target-height="17.400024" target-width="112.20007" target-x="1921.2" target-y="2024"></path><path d="M 2846.00 810.30 C 2836.80 780.60 2795.70 808.00 2784.20 787.40 C 2772.80 766.80 2793.40 718.80 2763.60 714.20 C 2707.80 701.80 2642.70 732.30 2591.90 704.70 C 2591.20 706.80 2590.80 708.80 2590.60 710.90 C 2590.60 710.90 2664.90 769.80 2718.70 734.00 C 2772.50 698.10 2761.60 805.10 2761.60 805.10 C 2761.60 805.10 2777.00 825.00 2781.50 817.30 C 2786.00 809.60 2832.10 794.20 2819.90 841.60 C 2807.70 889.00 2798.10 886.40 2814.10 902.40 C 2821.30 909.60 2837.60 895.00 2853.20 872.60 C 2851.30 870.50 2849.70 868.10 2848.30 865.30 C 2841.40 851.50 2852.80 828.60 2846.00 810.30 Z" fill="#1a1a1a" fill-rule="nonzero" node-id="608" stroke="none" target-height="211.5" target-width="262.59985" target-x="2590.6" target-y="698.1"></path><path d="M 2889.70 778.70 C 2887.80 731.30 2871.80 673.80 2789.80 639.50 C 2711.60 606.70 2605.50 661.70 2591.90 704.70 C 2642.70 732.30 2707.80 701.80 2763.60 714.20 C 2793.30 718.80 2772.80 766.80 2784.20 787.40 C 2795.60 808.00 2836.80 780.50 2846.00 810.30 C 2852.90 828.60 2841.40 851.50 2848.30 865.20 C 2849.70 868.00 2851.40 870.40 2853.20 872.50 C 2872.50 844.70 2890.80 804.90 2889.70 778.70 Z" fill="#102140" fill-rule="nonzero" node-id="610" stroke="none" target-height="265.8" target-width="298.90015" target-x="2591.9" target-y="606.7"></path><path d="M 2687.60 1092.20 L 2730.40 1039.90 C 2730.40 1039.90 2829.30 974.50 2840.40 948.00 C 2845.90 971.80 2857.90 974.80 2857.90 974.80 C 2857.90 974.80 2791.00 1055.10 2687.60 1092.20 Z" fill="#340d13" fill-rule="nonzero" node-id="612" stroke="none" target-height="144.19995" target-width="170.2998" target-x="2687.6" target-y="948"></path><path d="M 2764.50 1082.20 C 2764.50 1082.20 2728.80 1043.10 2730.50 1039.80 C 2732.30 1036.20 2829.90 969.20 2840.50 947.90 C 2848.30 966.60 2858.00 974.70 2858.00 974.70 C 2858.00 974.70 2786.30 1073.60 2764.50 1082.20 Z" fill="#d1334a" fill-rule="nonzero" node-id="614" stroke="none" target-height="134.29993" target-width="129.19995" target-x="2728.8" target-y="947.9"></path><path d="M 2660.70 1043.40 L 2639.10 1084.50 C 2639.10 1084.50 2675.90 1080.30 2679.50 1078.90 C 2663.60 1040.30 2671.80 1053.60 2671.80 1053.60 L 2660.70 1043.40 Z" fill="#340d13" fill-rule="nonzero" node-id="616" stroke="none" target-height="44.19995" target-width="40.399902" target-x="2639.1" target-y="1040.3"></path><path d="M 2683.20 1088.90 L 2655.00 1043.40 L 2684.50 1022.20 C 2684.50 1022.20 2676.50 1073.40 2683.20 1088.90 Z" fill="#d1334a" fill-rule="nonzero" node-id="618" stroke="none" target-height="66.70001" target-width="29.5" target-x="2655" target-y="1022.2"></path><path d="M 1904.10 1138.20 C 1885.30 1123.80 1860.10 1101.80 1860.80 1087.80 C 1839.10 1101.70 1836.40 1099.70 1836.40 1099.70 C 1836.40 1101.40 1819.80 1145.70 1853.00 1172.20 C 1856.30 1174.90 1859.40 1177.20 1862.30 1179.40 C 1870.90 1178.00 1879.40 1175.20 1887.30 1171.70 C 1900.40 1166.20 1904.30 1152.90 1904.10 1138.20 Z" fill="#ffffff" fill-rule="nonzero" node-id="620" stroke="none" target-height="91.599976" target-width="84.5" target-x="1819.8" target-y="1087.8"></path><path d="M 1904.10 1138.20 C 1904.40 1152.90 1900.40 1166.10 1887.30 1171.70 C 1879.40 1175.20 1870.80 1178.00 1862.30 1179.40 C 1888.20 1198.60 1897.10 1197.90 1897.40 1196.70 C 1897.70 1195.40 1923.90 1152.40 1923.90 1152.40 C 1923.90 1152.40 1915.10 1146.70 1904.10 1138.20 Z" fill="#dbd2db" fill-rule="nonzero" node-id="622" stroke="none" target-height="60.400024" target-width="61.599976" target-x="1862.3" target-y="1138.2"></path><path d="M 1585.40 980.00 L 1602.80 947.30 C 1602.80 947.30 1703.60 1069.00 1704.40 1079.80 C 1705.30 1090.60 1710.40 1102.10 1710.40 1102.10 C 1710.40 1102.10 1592.20 1021.30 1585.40 980.00 Z" fill="#3b546b" fill-rule="nonzero" node-id="624" stroke="none" target-height="154.79999" target-width="125" target-x="1585.4" target-y="947.3"></path><path d="M 1712.50 1101.30 C 1712.50 1101.30 1729.30 1089.50 1726.40 1073.60 C 1735.20 1047.50 1740.50 987.90 1740.50 987.90 C 1740.50 987.90 1742.90 1008.00 1742.30 1020.60 C 1741.90 1028.30 1746.50 1057.00 1738.00 1078.00 C 1732.70 1091.30 1712.50 1101.30 1712.50 1101.30 Z" fill="#3b546b" fill-rule="nonzero" node-id="626" stroke="none" target-height="113.400024" target-width="34" target-x="1712.5" target-y="987.9"></path><path d="M 1748.60 1002.60 C 1740.20 989.20 1740.60 987.90 1740.60 987.90 C 1730.70 1006.80 1727.10 1037.40 1726.50 1073.60 L 1746.20 1084.90 C 1758.40 1063.00 1751.50 1028.90 1748.60 1002.60 Z" fill="#ffffff" fill-rule="nonzero" node-id="628" stroke="none" target-height="97" target-width="31.900024" target-x="1726.5" target-y="987.9"></path><path d="M 1754.10 1011.10 C 1752.00 1007.80 1750.20 1005.00 1748.70 1002.60 C 1751.60 1028.90 1758.50 1063.00 1746.30 1084.90 L 1751.40 1087.80 C 1751.30 1087.90 1758.50 1020.00 1754.10 1011.10 Z" fill="#dbd2db" fill-rule="nonzero" node-id="630" stroke="none" target-height="85.30005" target-width="12.199951" target-x="1746.3" target-y="1002.6"></path><path d="M 1683.90 1092.60 L 1703.50 1077.40 C 1683.50 1039.00 1646.60 994.40 1602.70 947.30 L 1585.20 963.90 C 1586.70 1020.50 1634.60 1064.60 1683.90 1092.60 Z" fill="#ffffff" fill-rule="nonzero" node-id="632" stroke="none" target-height="145.29999" target-width="118.30005" target-x="1585.2" target-y="947.3"></path><path d="M 1585.20 964.00 L 1570.10 978.30 C 1566.10 1010.80 1678.50 1096.90 1678.50 1096.90 L 1683.90 1092.70 C 1634.60 1064.60 1586.70 1020.50 1585.20 964.00 Z" fill="#dbd2db" fill-rule="nonzero" node-id="634" stroke="none" target-height="132.90002" target-width="117.80005" target-x="1566.1" target-y="964"></path><path d="M 1491.30 1720.30 C 1491.30 1720.30 1460.40 1793.60 1416.20 1803.30" fill="none" node-id="636" stroke="#1a1a1a" stroke-linecap="round" stroke-width="2" target-height="83" target-width="75.1001" target-x="1416.2" target-y="1720.3"></path><path d="M 1794.40 1702.60 C 1794.40 1702.60 1813.10 1744.80 1830.90 1752.10" fill="none" node-id="638" stroke="#1a1a1a" stroke-linecap="round" stroke-width="2" target-height="49.5" target-width="36.5" target-x="1794.4" target-y="1702.6"></path><path d="M 2774.00 1803.40 C 2774.00 1803.40 2806.40 1926.20 2893.80 1921.70" fill="none" node-id="640" stroke="#1a1a1a" stroke-linecap="round" stroke-width="2" target-height="122.79993" target-width="119.80005" target-x="2774" target-y="1803.4"></path><path d="M 2212.42 2621.80 L 2216.67 2622.07 L 2220.73 2622.74 L 2224.61 2623.78 L 2228.34 2625.20 L 2231.93 2626.98 L 2235.28 2629.06 L 2238.39 2631.44 L 2241.28 2634.12 L 2243.90 2637.07 L 2246.21 2640.23 L 2248.22 2643.62 L 2249.92 2647.25 L 2251.26 2651.01 L 2252.22 2654.91 L 2252.79 2658.98 L 2252.97 2663.24 L 2252.70 2667.50 L 2252.04 2671.55 L 2250.99 2675.43 L 2249.58 2679.16 L 2247.79 2682.76 L 2245.71 2686.10 L 2243.34 2689.21 L 2240.65 2692.10 L 2237.70 2694.72 L 2234.54 2697.03 L 2231.15 2699.04 L 2227.52 2700.74 L 2223.76 2702.08 L 2219.86 2703.04 L 2215.79 2703.61 L 2211.53 2703.79 L 2207.28 2703.52 L 2203.22 2702.86 L 2199.34 2701.82 L 2195.61 2700.40 L 2192.01 2698.61 L 2188.67 2696.53 L 2185.56 2694.16 L 2182.67 2691.47 L 2180.05 2688.52 L 2177.74 2685.36 L 2175.73 2681.97 L 2174.03 2678.34 L 2172.69 2674.58 L 2171.73 2670.68 L 2171.16 2666.61 L 2170.98 2662.35 L 2171.25 2658.10 L 2171.91 2654.04 L 2172.95 2650.16 L 2174.37 2646.43 L 2176.16 2642.84 L 2178.24 2639.49 L 2180.61 2636.38 L 2183.30 2633.49 L 2186.25 2630.87 L 2189.41 2628.56 L 2192.80 2626.56 L 2196.43 2624.85 L 2200.19 2623.51 L 2204.09 2622.55 L 2208.16 2621.98 L 2212.42 2621.80 Z" fill="#ffffff" fill-rule="nonzero" group-id="9" node-id="644" stroke="none" target-height="81.9917" target-width="81.9917" target-x="2170.9785" target-y="2621.8008"></path><path d="M 3842.70 1406.00 C 3842.70 1342.90 3791.50 1291.70 3728.40 1291.70 C 3665.30 1291.70 3614.00 1342.90 3614.00 1406.00 C 3614.00 1469.10 3665.20 1520.30 3728.30 1520.30 C 3791.40 1520.30 3842.70 1469.20 3842.70 1406.00 Z" fill="url(#SVGID_5_)" fill-rule="nonzero" node-id="647" stroke="none" target-height="228.6001" target-width="228.69995" target-x="3614" target-y="1291.7"></path><path d="M 401.90 2472.10 C 401.90 2428.80 366.80 2393.60 323.40 2393.60 C 280.00 2393.60 244.90 2428.70 244.90 2472.10 C 244.90 2515.40 280.00 2550.60 323.40 2550.60 C 366.80 2550.60 401.90 2515.50 401.90 2472.10 Z" fill="url(#SVGID_6_)" fill-rule="nonzero" node-id="649" stroke="none" target-height="157" target-width="157" target-x="244.9" target-y="2393.6"></path><path d="M 3504.00 1605.90 C 3504.00 1571.00 3475.70 1542.70 3440.80 1542.70 C 3405.90 1542.70 3377.60 1571.00 3377.60 1605.90 C 3377.60 1640.80 3405.90 1669.10 3440.80 1669.10 C 3475.70 1669.10 3504.00 1640.80 3504.00 1605.90 Z" fill="url(#SVGID_7_)" fill-rule="nonzero" node-id="651" stroke="none" target-height="126.400024" target-width="126.3999" target-x="3377.6" target-y="1542.7"></path><path d="M 228.30 976.10 L 358.10 976.10 L 358.10 986.70 L 228.30 986.70 Z" fill="#572658" fill-rule="nonzero" node-id="653" stroke="none" target-height="10.600037" target-width="129.8" target-x="228.3" target-y="976.1"></path><path d="M 2976.10 1058.10 C 3062.60 1185.60 3107.00 1372.50 3116.40 1555.00 C 3122.10 1727.10 3103.40 1828.80 3074.90 1904.30 C 3082.60 1904.60 3090.50 1904.50 3098.40 1903.70 C 3172.60 1606.90 3119.30 1457.90 3086.50 1267.40 C 3068.10 1161.10 3010.20 1091.10 2976.10 1058.10 Z" fill="#d1334a" fill-rule="nonzero" node-id="655" stroke="none" target-height="846.5" target-width="196.5" target-x="2976.1" target-y="1058.1"></path><path d="M 1949.10 1018.50 C 1958.90 1002.80 1975.40 966.90 1959.70 952.70 C 1945.20 950.50 1925.30 954.80 1925.30 954.80 C 1882.90 954.00 1889.00 1018.90 1888.80 1031.90 C 1910.60 1041.00 1937.00 1038.70 1949.10 1018.50 Z" fill="#fc9590" fill-rule="nonzero" node-id="657" stroke="none" target-height="90.5" target-width="92.5" target-x="1882.9" target-y="950.5"></path><path d="M 1959.70 952.70 C 1975.40 966.90 1958.90 1002.80 1949.10 1018.50 C 1937.00 1038.70 1910.60 1041.10 1888.80 1031.90 C 1888.80 1032.30 1888.80 1032.60 1888.80 1032.90 C 1888.30 1043.20 1899.80 1043.40 1899.80 1043.40 C 1899.80 1043.40 1925.40 1050.20 1941.30 1045.30 C 1957.20 1040.30 1974.90 984.90 1974.50 964.60 C 1974.30 957.20 1967.90 953.90 1959.70 952.70 Z" fill="#db6767" fill-rule="nonzero" node-id="659" stroke="none" target-height="97.49994" target-width="87.099976" target-x="1888.3" target-y="952.7"></path><path d="M 1904.40 1050.60 C 1904.40 1050.60 1904.40 1044.50 1909.00 1045.30 C 1907.80 1048.10 1907.80 1048.10 1907.80 1048.10 L 1904.70 1051.20 L 1904.40 1050.20" fill="#691a25" fill-rule="nonzero" node-id="661" stroke="none" target-height="6.699951" target-width="4.5999756" target-x="1904.4" target-y="1044.5"></path><path d="M 1865.90 704.30 C 1863.90 708.30 1862.10 713.90 1860.60 721.70 C 1851.60 767.40 1802.30 756.00 1751.30 757.20 C 1700.30 758.40 1686.50 745.80 1666.50 764.50 C 1646.90 752.30 1641.60 786.90 1629.80 849.30 C 1625.50 872.10 1618.80 881.60 1612.20 884.50 C 1615.10 892.10 1618.60 897.90 1622.50 898.20 C 1634.50 899.30 1643.30 874.10 1640.60 854.30 C 1638.00 834.40 1653.80 771.70 1664.90 783.60 C 1675.90 795.50 1683.40 818.50 1683.40 818.50 L 1694.90 816.10 C 1694.90 816.10 1682.10 773.90 1694.90 765.90 C 1707.70 758.00 1855.10 795.50 1865.80 737.20 C 1868.10 727.60 1867.70 716.00 1865.90 704.30 Z" fill="#1a1a1a" fill-rule="nonzero" node-id="663" stroke="none" target-height="195" target-width="255.90002" target-x="1612.2" target-y="704.3"></path><path d="M 2644.90 1735.80 C 2644.90 1735.80 2647.20 1771.40 2655.00 1772.30 C 2662.70 1773.10 2704.10 1770.90 2704.10 1770.90 L 2696.80 1735.20 L 2644.90 1735.80 Z" fill="#102140" fill-rule="nonzero" node-id="665" stroke="none" target-height="37.900024" target-width="59.200195" target-x="2644.9" target-y="1735.2"></path></svg>