<svg xml:space="preserve" style="enable-background:new 0 0 4000 4000;" viewBox="0 0 4000 4000" y="0px" x="0px" xmlns:xlink="http://www.w3.org/1999/xlink" xmlns="http://www.w3.org/2000/svg" id="Layer_1" version="1.1">
<style type="text/css">
	.st0{fill:url(#SVGID_1_);}
	.st1{fill:url(#SVGID_2_);}
	.st2{fill:url(#SVGID_3_);}
	.st3{fill:url(#SVGID_4_);}
	.st4{fill:#FFFFFF;}
	.st5{fill:#BDB6BD;}
	.st6{fill:#DBD2DB;}
	.st7{fill:#572658;}
	.st8{fill:#F2E7F2;}
	.st9{fill:#FFB114;}
	.st10{fill:#EB485C;}
	.st11{fill:#D1334A;}
	.st12{fill:#3B546B;}
	.st13{fill:#EF5668;}
	.st14{fill:#1A1A1A;}
	.st15{fill:#B080B0;}
	.st16{fill:#152A52;}
	.st17{fill:#6584C6;}
	.st18{opacity:0.5;fill:#FFFFFF;}
	.st19{fill:#203C75;}
	.st20{fill:url(#SVGID_5_);}
	.st21{fill:#D9D9D9;}
	.st22{fill:#127755;}
	.st23{fill:#106347;}
	.st24{fill:#287A62;}
	.st25{fill:#339E7E;}
	.st26{fill:#FC9590;}
	.st27{fill:#DB6767;}
	.st28{fill:#B35555;}
	.st29{fill:#FC8B86;}
	.st30{fill:#102140;}
	.st31{fill:#FCA9A6;}
	.st32{fill:url(#SVGID_6_);}
	.st33{fill:url(#SVGID_7_);}
	.st34{fill:url(#SVGID_8_);}
	.st35{fill:url(#SVGID_9_);}
	.st36{fill:url(#SVGID_10_);}
	.st37{fill:#FFDE70;}
</style>
<g>
	<linearGradient y2="2162.0049" x2="3758.1548" y1="2162.0049" x1="220.8473" gradientUnits="userSpaceOnUse" id="SVGID_1_">
		<stop style="stop-color:#4085F0" offset="0"></stop>
		<stop style="stop-color:#275DC9" offset="1"></stop>
	</linearGradient>
	<path d="M818.4,3323.8c384.3,264.3,760.1,320.7,917.1,342.4c80.8,11.2,424.8,54.3,874.3-48.9
		c226.9-52.1,1062.4-244,1143.4-684.8c26.3-143-56.9-149-171.2-580.9c-103.4-390.4-60-478.4-152.9-721.5
		c0,0-122.7-321.2-391.3-574.7C2403.5,456.8,1093.5,577.2,959,957.6c-99.6,281.8,498.4,557.6,397.4,917.1
		c-120.3,428.5-1057.4,349.6-1131.2,727.6C171.4,2878.7,620.3,3187.5,818.4,3323.8z" class="st0"></path>
	<linearGradient y2="1909.6047" x2="3641.4312" y1="1909.6047" x1="443.2731" gradientUnits="userSpaceOnUse" id="SVGID_2_">
		<stop style="stop-color:#68B2FC" offset="0"></stop>
		<stop style="stop-color:#529BF7" offset="1"></stop>
	</linearGradient>
	<path d="M891.8,1538.4c-92.3,105.6-395.3,476.7-438.2,984.4c-15.8,187-43.3,512.4,179.4,782.6
		c21.6,26.3,269.6,318.7,607.4,309.8c239.7-6.3,295.4-158.5,529.9-138.6c191.9,16.3,216.6,123.4,448.4,212
		c381.6,145.8,743.8,19.4,774.5,8.2c36.6-13.4,544.5-205.5,578.8-542.1c12-117.6-42.1-172.2-81.5-550.3
		c-6.7-64.1-13.1-138.7,12.2-228.3c29.7-105.2,75.8-134.6,106-220.1c8-22.7,76.7-229.6-12.2-317.9c-62.4-62-140.5-3.9-207.9-61.1
		c-78.5-66.7-29.2-193.8-40.8-387.2c-3.6-60.3-17.7-297.3-134.5-448.4c-150-194-340.4-79.9-635.9-248.6
		c-317.4-181.3-236.9-392.5-538.1-542.1c-236.9-117.7-588-136.8-770.4,48.9c-17.8,18.2-116.4,118.4-118.2,260.9
		c-3.1,236,263,300.5,277.2,493.2C1442.1,1148.5,1179,1210,891.8,1538.4z" class="st1"></path>
	<linearGradient y2="1838.8689" x2="2071.8396" y1="1838.8689" x1="443.2731" gradientUnits="userSpaceOnUse" id="SVGID_3_">
		<stop style="stop-color:#68B2FC" offset="0"></stop>
		<stop style="stop-color:#529BF7" offset="1"></stop>
	</linearGradient>
	<path d="M2039.2,150.5c-236.9-117.7-588-136.8-770.4,48.9c-17.8,18.2-116.4,118.4-118.2,260.9
		c-3.1,236,263,300.5,277.2,493.2c14.3,195.1-248.8,256.5-536,584.9c-92.3,105.6-395.3,476.7-438.2,984.4
		c-15.8,187-43.3,512.4,179.4,782.6c21.6,26.3,269.6,318.7,607.4,309.8c239.7-6.3,295.4-158.5,529.9-138.6
		c141.4,12,192.1,73.3,301.6,140.2V167.8C2061.5,161.9,2050.7,156.2,2039.2,150.5z" class="st2"></path>
	<linearGradient y2="1963.0569" x2="3641.4314" y1="1963.0569" x1="2071.8396" gradientUnits="userSpaceOnUse" id="SVGID_4_">
		<stop style="stop-color:#68B2FC" offset="0"></stop>
		<stop style="stop-color:#527FBF" offset="1"></stop>
	</linearGradient>
	<path d="M3608.6,2156c8-22.7,76.7-229.6-12.2-317.9c-62.4-62-140.5-3.9-207.9-61.1c-78.5-66.7-29.2-193.8-40.8-387.2
		c-3.6-60.3-17.7-297.3-134.5-448.4c-150-194-340.4-79.9-635.9-248.6c-305.4-174.4-242.5-376.5-505.5-524.8v3449.1
		c39.1,23.9,85.8,48.5,146.7,71.8c381.6,145.8,743.8,19.4,774.5,8.2c36.6-13.4,544.5-205.5,578.8-542.1
		c12-117.6-42.1-172.2-81.5-550.3c-6.7-64.1-13.1-138.7,12.2-228.3C3532.3,2270.9,3578.4,2241.5,3608.6,2156z" class="st3"></path>
	<g>
		<g>
			<path d="M2427.9,3148l27.5-1950.5H3321c5.6,25.6,10.4,52.3,14.3,79.6c7.3,51.1,9.8,92.7,11,112.7
				c3.9,65.8,0.8,123.7-1.9,174.7c-2,36.7-3.7,68.4-2.5,97c1.3,31.9,6,56,15.1,75.8c7.2,16,17.3,29.4,30.7,40.8
				c33.4,28.4,69.5,28.7,104.5,29.1c37,0.4,71.9,0.7,103.3,32c71.3,70.8,39.6,220.6,22.6,281.7c-5.2,18.8-9.5,31.3-10.7,34.7
				c-4.9,13.9-10.5,27.1-17,40.2c-9.4,18.8-19.2,34.9-29.7,51.8c-21,34.2-42.8,69.5-59.3,128.1c-22.3,78.9-20.2,145.3-14.6,205.3
				c0.7,8,1.5,15.8,2.3,23.5c2.1,19.7,3.9,36.6,5.7,51.8c19.3,165,40.8,260.7,56.5,330.6c4.5,20.2,8.5,37.7,11.7,54.1
				c0.9,4.6,1.8,34.6,2.6,61.1c0.6,21.1,1.2,39.7,1.7,46H2427.9z" class="st4"></path>
			<path d="M3319.8,1198.9c5.5,25.2,10.2,51.5,14,78.4c7.3,51.1,9.8,92.6,11,112.6c3.9,65.7,0.8,123.5-1.9,174.5
				c-2,36.7-3.7,68.4-2.5,97.2c1.3,32.1,6.1,56.3,15.2,76.3c7.3,16.2,17.5,29.7,31.1,41.3c33.8,28.7,70.2,29.1,105.4,29.4
				c36.7,0.4,71.3,0.7,102.3,31.6c30.2,30,45.1,77.2,44.2,140.3c-0.7,52.8-12.3,105.3-22,140.1c-5.2,18.8-9.5,31.3-10.7,34.6
				c-4.9,13.8-10.4,27-17,40.1c-9.3,18.7-19.2,34.8-29.6,51.7c-21.1,34.3-42.9,69.7-59.5,128.5c-22.3,79.1-20.2,145.7-14.6,205.8
				c0.7,8.1,1.5,16.1,2.3,23.5c2.1,19.6,3.9,36.5,5.7,51.8c19.3,165.1,40.8,260.8,56.5,330.7c4.5,20.2,8.5,37.7,11.7,54
				c0.9,4.5,1.8,35.7,2.6,60.8c0.6,19.6,1.1,37,1.6,44.5H2429.4l27.4-1947.6H3319.8 M3322.1,1196H2454l-27.5,1953.4h1142.3
				c-1.3-8-2.8-100.1-4.5-108.7c-14.5-73.1-43.3-171.9-68.2-384.5c-1.9-16.5-3.8-33.8-5.7-51.7c-0.8-7.7-1.6-15.5-2.3-23.5
				c-5.5-58.7-7.7-125.9,14.6-204.8c24.5-86.8,60.2-122,88.9-179.7c6.1-12.2,11.8-25.4,17.1-40.4c1.7-4.7,5.9-17.2,10.8-34.8
				c18.9-68.1,47.6-213-23-283.1c-62.4-62-140.5-3.9-207.9-61.2c-13.6-11.6-23.4-25-30.3-40.3c-9.7-21.4-13.8-46.4-14.9-75.2
				c-2.7-68.8,11.2-159,4.5-271.7c-1.2-20.5-3.7-61.6-11-112.8C3333.1,1251.9,3328.4,1224.6,3322.1,1196L3322.1,1196z"></path>
		</g>
		<polygon points="2293.9,1282.4 2040.1,1419.2 2015.1,3161.9 2426.5,3149.4 2433.4,2657.8 2454,1196" class="st5"></polygon>
		<path d="M3619.3,2121.2c-4.9,17.7-9.1,30.1-10.8,34.8c-5.3,15-11,28.2-17.1,40.4c-28.7,57.7-64.4,92.9-88.9,179.7
			c-22.3,78.9-20,146.1-14.6,204.8c0.7,8,1.5,15.8,2.3,23.5c1.9,18,3.8,35.2,5.7,51.7c24.8,212.6,53.7,311.5,68.2,384.5
			c1.7,8.6,18.3,82.9,4.5,108.7H2426.5L2454,1196h868.1c6.3,28.6,11,55.9,14.6,80.8c7.3,51.2,9.8,92.3,11,112.8
			c6.7,112.7-7.2,202.9-4.5,271.7c1.1,28.8,5.2,53.8,14.9,75.2c6.9,15.3,16.7,28.7,30.3,40.3c67.3,57.2,145.4-0.9,207.9,61.2
			C3667,1908.2,3638.2,2053.1,3619.3,2121.2z" class="st6"></path>
		<rect height="384.5" width="543.5" class="st7" y="1276.9" x="2540.6"></rect>
		<rect height="384.5" width="543.5" class="st7" y="1736.6" x="2540.6"></rect>
		<rect height="384.5" width="543.5" class="st7" y="2196.4" x="2540.6"></rect>
		<rect height="384.5" width="543.5" class="st7" y="2656.1" x="2540.6"></rect>
		<rect height="384.5" width="543.5" class="st8" y="1284.5" x="2547.7"></rect>
		<rect height="384.5" width="543.5" class="st8" y="1744.3" x="2547.7"></rect>
		<rect height="384.5" width="543.5" class="st8" y="2204" x="2547.7"></rect>
		<rect height="384.5" width="543.5" class="st8" y="2663.8" x="2547.7"></rect>
		<path d="M3343.2,1661.4h-174.9v-384.5h168.3c0.4,2.5,0.7,5,1.1,7.5c6.5,47.7,8.8,85.8,9.9,105.3
			C3354.4,1502.3,3340.5,1592.6,3343.2,1661.4z" class="st7"></path>
		<path d="M3619.3,2121.2h-442.5v-377.1h185c6.5,12.2,15.2,23.1,26.6,32.8c0.9,0.8,1.9,1.5,2.8,2.3
			c66.3,53.1,142.7-1.7,204.1,58c0.3,0.3,0.7,0.6,1,0.9C3667,1908.2,3638.2,2053.1,3619.3,2121.2z" class="st8"></path>
		<path d="M3361.9,1744.1h-185v377.1h-8.5v-384.5h189.8C3359.3,1739.2,3360.5,1741.6,3361.9,1744.1z" class="st7"></path>
		<path d="M3591.5,2196.4c-1.3,2.5-2.5,5-3.8,7.5c-28,53.5-61.6,89.3-85.1,172.3c-22.3,78.9-20,146.1-14.6,204.8h-319.7
			v-384.5H3591.5z" class="st7"></path>
		<path d="M3564.2,3040.6h-395.9v-384.5h327.7c0.3,2.5,0.6,5,0.9,7.5C3521.6,2871,3549.9,2968.4,3564.2,3040.6z" class="st7"></path>
		<path d="M3343.2,1661.4h-166.4v-377.1h160.9c6.5,47.7,8.8,85.8,9.9,105.3C3354.4,1502.3,3340.5,1592.6,3343.2,1661.4z" class="st8"></path>
		<path d="M3502.6,2376.1c-22.3,78.9-20,146.1-14.6,204.8h-311.2v-377h410.8C3559.7,2257.3,3526,2293.1,3502.6,2376.1z" class="st8"></path>
		<path d="M3564.2,3040.6h-387.4v-377.1H3497C3521.6,2871,3549.9,2968.4,3564.2,3040.6z" class="st8"></path>
		
			<ellipse ry="24.5" rx="24.5" cy="1341.6" cx="2816.2" class="st9" transform="matrix(0.2271 -0.9739 0.9739 0.2271 870.2072 3779.582)"></ellipse>
		
			<ellipse ry="24.5" rx="24.5" cy="1797.8" cx="2816.2" class="st9" transform="matrix(0.2271 -0.9739 0.9739 0.2271 425.8574 4132.2407)"></ellipse>
		
			<ellipse ry="24.5" rx="24.5" cy="2254.1" cx="2816.2" class="st9" transform="matrix(0.7168 -0.6972 0.6972 0.7168 -774.2003 2601.8293)"></ellipse>
		
			<ellipse ry="24.5" rx="24.5" cy="2710.4" cx="2816.2" class="st9" transform="matrix(0.2271 -0.9739 0.9739 0.2271 -462.8424 4837.5586)"></ellipse>
		
			<ellipse ry="24.5" rx="24.5" cy="2254.1" cx="3494.4" class="st9" transform="matrix(0.7373 -0.6755 0.6755 0.7373 -604.8429 2952.6399)"></ellipse>
		<path d="M3494.4,2685.9c-13.5,0-24.5,11-24.5,24.5c0,13.5,10.9,24.5,24.5,24.5c4.2,0,8.1-1.1,11.6-2.9l-6.2-45.4
			C3498.1,2686.1,3496.3,2685.9,3494.4,2685.9z" class="st9"></path>
	</g>
	<path d="M2117.9,2601.7c11.4,37.2,20,74.3,31.4,114.4c17.2,68.6,88.6,100.1,145.8,71.5c19.3-9.1,38.2-23.3,53.9-40.7
		c-60.5-177.2-165.5-463.5-208.6-479.2l-33.4,249.2c2.4,12.6,3.9,25.1,8.1,36.3C2120.8,2567.4,2115.1,2584.5,2117.9,2601.7z" class="st10"></path>
	<path d="M2389.2,2868c-7.2-22.9-21.5-66.9-40.1-121.1c-15.7,17.4-34.6,31.6-53.9,40.7
		c-57.2,28.6-128.7-2.9-145.8-71.5c-11.4-40-20-77.2-31.4-114.4c-2.9-17.2,2.9-34.3-2.9-48.6c-4.2-11.2-5.7-23.7-8.1-36.3
		l-18.9,140.6c0,0,29.9,303,130.4,341C2319.1,3036.4,2419.8,2965.8,2389.2,2868z" class="st11"></path>
	<g>
		<path d="M1239.6,3138.3c2-214.7-185.5-519-185.5-519l370.9-32.6l47.6,569C1472.6,3155.7,1503.9,3162.8,1239.6,3138.3
			z" class="st12"></path>
		<path d="M1709.1,2973.4c-45.7-11.4-111.5-14.3-120.1-60c-17.2-108.6-22.9-214.4-34.3-320.2
			c-14.3-126.7,19.3-249.4,57.4-369.8c-25.8,30.7-58.5,73.2-108.4,132.3c-136.1,161-185.9,789.7-185.9,789.7s126.4-1,567.8-58
			c5-18.3,20.7-53,43-97.3C1856.1,2990.8,1783.4,2988.5,1709.1,2973.4z" class="st11"></path>
		<path d="M2152,2287.8c-55.7-123.6-326.1-154.2-415.1-142.7c-56.3,7.3-80.3,25.3-124.8,78.3
			c-38.1,120.4-71.8,243.1-57.4,369.8c11.4,105.8,17.2,211.6,34.3,320.2c8.6,45.7,74.3,48.6,120.1,60c74.3,15.2,147,17.5,219.4,16.7
			c37.2-73.9,92.6-174.7,147.4-271.6C2163.6,2563.6,2207.7,2411.4,2152,2287.8z" class="st13"></path>
		<path d="M1806.9,3054.8c171.2-276.2,156.9-704.5,156.9-704.5H1948c0,0-44.7,497.3-156.1,696.4
			C1800.8,3065,1806.9,3054.8,1806.9,3054.8z" class="st11"></path>
		<path d="M1173,3162.8c27.5-208.9-141.6-436.2-141.6-436.2l22.8-107.3c0,0,187.5,304.3,185.5,519
			C1239.6,3138.3,1224,3149.5,1173,3162.8z" class="st14"></path>
	</g>
	<path d="M3573.6,3117.4c0.2,12-0.4,24.2-1.7,37.2c-34.3,336.6-542.2,528.7-578.8,542.1
		c-30.7,11.2-392.9,137.7-774.5-8.1c-231.8-88.6-256.5-195.7-448.4-212c-234.6-19.9-290.2,132.2-529.9,138.6
		c-337.8,8.9-585.7-283.5-607.4-309.8c-49.9-60.6-87.3-124.1-115-188H3573.6z" class="st15"></path>
	<path d="M1016.1,3117.4c0,0,407.6,16.8,501.4,163.6c93.8,146.7,776.5,305.7,863.1,265
		c86.6-40.8,565.6-239.1,541.1-245.9s-322-51.6-289.4-86.3c32.6-34.6,324.1-55,411.7-50.9c87.6,4.1,93.8-45.4,93.8-45.4H1016.1z" class="st7"></path>
	<g>
		<polygon points="1777,3300 2349,3444.1 2340.9,3488.9 1777,3348.9" class="st16"></polygon>
		<polygon points="2386.7,3155.7 1777,3300 2349,3444.1 2860.6,3281" class="st17"></polygon>
		<polygon points="2482.3,3227.5 2030.1,3334.5 2341.2,3406.8 2720.6,3285.9" class="st18"></polygon>
		<polygon points="2850.4,3321.1 2340.9,3488.9 2349,3444.1 2860.6,3281" class="st19"></polygon>
		<polygon points="2536.5,2918.2 2349,3427.8 2366,3442.5 2860.6,3268.8 3065.4,2792.4 3050.1,2777.6" class="st16"></polygon>
		<polygon points="2551.8,2933 2364.3,3442.5 2875.9,3283.5 3065.4,2792.4" class="st12"></polygon>
	</g>
	<linearGradient y2="438.9052" x2="2395.5051" y1="438.9052" x1="1150.5786" gradientUnits="userSpaceOnUse" id="SVGID_5_">
		<stop style="stop-color:#68B2FC" offset="0"></stop>
		<stop style="stop-color:#EBF0F7" offset="1"></stop>
	</linearGradient>
	<path d="M2395.5,545.3l-326.4,271.6h-699.7c-8.5-10.8-17.6-21.4-27-31.8c-82.3-90.7-193.8-171.6-191.8-324.8
		c1.9-142.4,100.4-242.7,118.2-260.9c182.4-185.7,533.5-166.6,770.4-48.9c205.5,102.1,233.3,232.9,331,363.2
		C2378.2,524.3,2386.6,534.8,2395.5,545.3z" class="st20"></path>
	<g>
		<path d="M766.3,2870.7c35.7-192.2,34.9-403.9,12-627.3l24.5,6.3c23.7,224.5,29.1,435.8-10.9,614.1L766.3,2870.7z" class="st7"></path>
		<path d="M662.7,2953.4c-27.8-23.6-39.6-66.4-36.6-104.4c-32.8,6.3-52.9,12.2-52.9,12.2v255.4h385.2
			c1-25.4,1.5-57.5,0.9-96.7C858.2,3047.9,743,3018.1,662.7,2953.4z" class="st7"></path>
		<path d="M662.7,2953.4c80.3,64.7,195.5,94.6,296.6,66.5c-0.7-43.8-2.7-96.4-7-158.7c-118-42.1-253.4-26.2-326.1-12.2
			C623,2887,634.8,2929.8,662.7,2953.4z" class="st21"></path>
		<path d="M782.5,2179.4c-4.8-2.3-10.2-4.3-16.2-5.8c0,0-80.4,16.3-104.8,118.2c-24.5,101.9-36.7,213.3,5.4,213.3
			c2.4,0,5.4-1,8.7-2.8c16.9-72.4,39-138.5,44.3-209.4C724.7,2249.2,754.4,2213.7,782.5,2179.4z" class="st22"></path>
		<path d="M782.5,2179.4c-28.1,34.3-57.8,69.8-62.7,113.5c-5.3,70.9-27.4,137-44.3,209.4
			C728.5,2473.5,887.4,2229.9,782.5,2179.4z" class="st23"></path>
		<path d="M368.8,2368.9c6.8,4.9,15.2,7.7,23.6,8.4c13.1,1.2,26.1-1.8,38.8-5.3c92.9-25.5,176.9-75.3,259.6-124.6
			c13.4-8,28.2-17.9,30.8-33.3c1.3-7.7,24.1-26.2,41.2-41.3c-88.4,13.7-172,47.6-251.7,100.1C461,2305.5,417.4,2338.2,368.8,2368.9z" class="st24"></path>
		<path d="M779.6,2150.5l-33.2-6c-35.8-23.8-167.1-21.6-209.9-16.8c-41.6,4.7-78.6,30.2-105.7,62.1
			c-27.1,31.9-45.7,69.9-64,107.5c-9.4,19.4-18.8,43-7.6,61.4c2.4,4,5.7,7.3,9.5,10.1c48.6-30.7,92.2-63.3,142.4-95.9
			c79.6-52.4,163.2-86.4,251.7-100.1C775.7,2161.3,785.3,2151.8,779.6,2150.5z" class="st25"></path>
		<path d="M723.6,2135.4l28.7-6.3c0.7-19.6-9.1-37.9-19.6-54.5c-53.3-83.7-134-149.7-226.7-185.1
			c-23.4-9-51.7-15.4-72-0.7c-3.1,2.2-5.8,4.9-8.2,7.8C540.8,1953,652.8,2029.4,723.6,2135.4z" class="st25"></path>
		<path d="M425.8,1896.6c-6.8,8.5-10.7,19.4-11.7,30.3c-1.4,14.7,1.9,29.5,6.4,43.6c17.6,55.2,55.1,103.9,104,135
			c48.9,31.1,108.8,44.5,166.3,37.1l32.9-7.2C652.8,2029.4,540.8,1953,425.8,1896.6z" class="st24"></path>
		<path d="M702.7,1695.4c-3.1-10.7-10.3-19.8-18.5-28.6c-4.6-0.1-9.1,0.2-13.7,1.1c-23.2,4.5-42.1,23-51.4,44.7
			c-9.3,21.7-10.2,46.2-7.3,69.7c13.8,111.5,107,203.1,112.9,315.3l43,34.1C789.6,1986.2,743.2,1835.8,702.7,1695.4z" class="st23"></path>
		<path d="M832.7,1759.6c-25.3-33.9-60.6-59.5-98.6-78.1c-15.7-7.7-32.7-14.3-49.9-14.7c8.2,8.8,15.4,17.9,18.5,28.6
			c40.5,140.4,86.9,290.8,65,436.2l3.4,2.7c24.5-59.5,48.9-119,73.4-178.4c10.3-25,20.7-50.5,23.6-77.4
			C872.7,1836.4,858,1793.5,832.7,1759.6z" class="st22"></path>
		<path d="M805.6,2124.2c-1,2.7-1.9,5.3-2.7,8l56.8-16.1c67.4-6.4,134-22.5,196.9-47.4c29.1-11.5,58.5-25.8,77.7-50.5
			c28.7-36.9,26.9-91.8,1.7-131.3c-91.8,13.8-174.6,69.9-253.3,120C842.8,2035.6,822.8,2081.4,805.6,2124.2z" class="st23"></path>
		<path d="M993.7,1822.6c-45.2,3.2-89,23-121.4,54.7c-32.6,32-53,74.9-63.3,119.3s-10.9,90.6-8.2,136.2l2.2-0.6
			c0.8-2.7,1.6-5.4,2.7-8c17.2-42.9,37.2-88.6,77.2-117.2c78.8-50.1,161.6-106.2,253.3-120c-2.1-3.4-4.4-6.6-6.9-9.7
			C1097.7,1837.6,1044.2,1819,993.7,1822.6z" class="st24"></path>
		<path d="M1002.9,2164.3c-65.8-15.9-131.6-4.8-196-8.1l-27.4,8.6c35.1,40.6,82.8,70.2,134.7,83.6
			c52,13.4,108,10.6,158.3-7.9c1.4-0.5,2.7-1,4.1-1.6C1067.6,2203.8,1045.2,2174.8,1002.9,2164.3z" class="st23"></path>
		<path d="M1109.7,2164.6c-19.6-54-72.9-94-130.2-97.8c-57.3-3.8-115.4,28.8-142,79.8l-30.6,9.6
			c64.4,3.3,130.2-7.8,196,8.1c42.3,10.6,64.6,39.5,73.8,74.6c13.5-5.4,26.8-12.9,33.6-25.6
			C1118.2,2198.6,1115.4,2180.3,1109.7,2164.6z" class="st22"></path>
		<path d="M825.6,2270.1c-8.9-37.8-31.6-72-60-102.9l-7.4,117.6c2,65.5,23.4,130.3,60.9,184
			c12.6,18.1,27.7,35.4,47.4,45.2C879.7,2433.4,846.9,2347.8,825.6,2270.1z" class="st24"></path>
		<path d="M945.7,2429.6c-16.9-86.2-56.1-167.9-112.7-235l-66.7-38.5l-0.7,11.1c28.4,30.9,51.1,65.1,60,102.9
			c21.2,77.8,54,163.4,40.9,243.9c0.7,0.3,1.4,0.7,2.1,1c20.8,9.5,47.6,8.7,64.1-7.1C952.7,2488.7,951,2456.7,945.7,2429.6z" class="st25"></path>
	</g>
	<g>
		<path d="M1667.4,2156c-95.9,74.3-171.3,168.7-187,294.1c-13.3,104.1-18,206.4-18.1,308.4l45,10.9
			c0,0,43.8-165.1,85.6-202.8l112.1-413.4C1705,2153.3,1690.5,2151.9,1667.4,2156z" class="st13"></path>
		<path d="M1667.4,2156c-52.9,9.5-151.3,48-226,198.3c-107.3,216-106,373.7-106,373.7l126.9,30.6
			c0.1-102,4.8-204.3,18.1-308.4C1496,2324.7,1571.5,2230.3,1667.4,2156z" class="st11"></path>
		<path d="M1285.6,2761.3c0,0-4.6,41.3,18.3,55c22.9,13.8,43.3-22.9,68.3-27.5c25-4.6,98.3-13.8,130.4,13.2
			c36.2-2.5,38.7-44.8,20.4-61.1c-18.3-16.3-67.8-40.8-105-39.7C1380.9,2702.2,1292.8,2699.6,1285.6,2761.3z" class="st9"></path>
		<path d="M1960.7,3044.8c65.1-11.6,82.9-63,79.6-117.1c-64.4,15.8-152.1,21.6-211-39.4l-155.6,226.2
			c0,0-27.9,41.4,6.1,61.1c7.4,4.3,15.9,8.6,24.8,12.8C1735.9,3097.3,1862.3,3065,1960.7,3044.8z" class="st4"></path>
		<path d="M2040.3,2927.7c3.3,54.1-14.5,105.5-79.6,117.1c-98.4,20.1-224.8,52.5-256,143.6c32.2,15.1,68.9,28,68.9,28
			s86.3-25.1,104.6,0c18.3,25.1,17.7,28.5,18.3,25.1s219.4-287.4,220.8-339.7C2105,2907,2076.3,2918.9,2040.3,2927.7z" class="st21"></path>
		<path d="M1586.1,3193.5c42.9,34.3,105.8,51.5,160.1,31.4c40-17.2,85.8-62.9,62.9-105.8c-1.3-2.9-2.9-5.6-4.7-8.1
			c-29.9-0.9-71.8,19.8-95.4,21.8c-32.6,2.7-35.3-18.3-35.3-18.3l23.8-34.6c0,0-46.9-2.7-78.8,4.1
			c-34.6-31.3-121.6-206.5-112.1-297.6c-48.6-19.9-90.8-23.9-121.7-22.7C1405.8,2922.7,1452.7,3087.8,1586.1,3193.5z" class="st26"></path>
		<path d="M1832,3124.1c-6.2-9.1-16-12.6-27.6-13c1.8,2.5,3.4,5.1,4.7,8.1c22.9,42.9-22.9,88.6-62.9,105.8
			c-54.3,20-117.2,2.9-160.1-31.4c-133.5-105.7-180.4-270.8-201.3-429.7c-33.9,1.4-54.2,9.1-54.2,9.1s-4.8,129.1,117.5,292.1
			s242.5,214.7,302.3,176.6C1810.3,3203.6,1854.4,3156.7,1832,3124.1z" class="st27"></path>
	</g>
	<path d="M2161.3,2099.6c-0.5-11.1-0.1-20.4,2.2-25.2c-42.8,10.2-59.1,41.8-52.7,54c2.7,5,13.4,13.2,25,21.1
		C2140.3,2131.6,2142,2105.2,2161.3,2099.6z" class="st28"></path>
	<path d="M2161.3,2099.6c-19.4,5.6-21,32-25.4,50c16.7,11.3,35.4,22,35.4,22S2162.7,2129.3,2161.3,2099.6z" class="st29"></path>
	<path d="M1998.5,2100.9c0,0,85.6,25.5,148.8,4.1s60.1-260.9,60.1-260.9s-12.2-61.1-126.4-78.5
		c-114.1-17.3-190.6,55-196.7,105c-6.1,49.9-7.1,87.6,5.1,108c12.2,20.4,13.2,42.8,13.2,42.8l-31.5,101.6c0,0,23.4,213.3,85.6,217.4
		c62.2,4.1,88.7-132.5,88.7-132.5s30.9-97.8,41.8-101.9" class="st26"></path>
	<path d="M1966.4,2061.7c0,0,54.1,48.3,115.7,44.3c-48.9,102.9-42.8,100.9-42.8,100.9S1982.3,2146.6,1966.4,2061.7z" class="st28"></path>
	<path d="M1993.7,1925c0,0-60-69.3-91.1-25.8s24.5,78.1,30.6,82.9c2.8,53-30.6,60.5-30.6,60.5s-52.2-70.7-44.1-142
		c8.2-71.3,23.1-189.5,129.1-206.5c46.9-9.5,93.1,12.9,93.1,12.9s41.4-38.7,85.6,1.4s63.9,115,53.7,158
		c-18.3-9.3-43.5-24.2-44.9-38.5c-38,0.7-95.1-20.4-97.8-36.7c-17,53.7-53.7,64.5-71.3,53.7C2010,1908.7,2015.5,1922.3,1993.7,1925z" class="st30"></path>
	<path d="M1871.1,2123c0,0-67.3-9.3-102.9,13.6c34.1,9.2,90.2,157.4,88.7,228.8c12.7,5.6,32.1-83.6,68.3-61.7
		C1910.5,2293,1878.2,2147.5,1871.1,2123z" class="st9"></path>
	<path d="M1982.7,2323.6c0,0,57.6-25,68.3,38.2c30.6-42.8,45.9-128.9,45.9-128.9l-68.3-7.6
		C2028.5,2225.3,2018.8,2282.3,1982.7,2323.6z" class="st9"></path>
	<circle r="17.7" cy="2583.3" cx="1916.9" class="st9"></circle>
	<circle r="13.5" cy="2777.1" cx="1880.9" class="st9"></circle>
	<path d="M2160.8,2164.3c35.8,42.5,29.6,118.3,64.9,158.8c-0.9-2.9-1.5-5.4-2-7.6c-12.6-54.4-36.8-119.2-52.6-153.7
		c-4.6-10.1-8.5-17.6-11.1-21.6c-11.7-17.3-83.1-48.9-100.9-54c-17.8-5.1-89.2,17.8-89.2,17.8s-1.7,1.3-3.6,3.2
		C2039,2081.8,2112.5,2107.9,2160.8,2164.3z" class="st31"></path>
	<path d="M2312.3,2913.3c-22.9,8.6-42.9-11.4-51.5-28.6c-65.8-134.4-82.9-277.3-94.3-423.1c-2.2-21.6-6-46.5-15.1-68.5
		c23.1,174.5,37.6,474.2,59,521.1c28.5,62.5,100.5,72,165.8-8.1c12.4-15.3,15.1-43.6,11.3-79.9
		C2374.7,2863.5,2350.9,2895.1,2312.3,2913.3z" class="st27"></path>
	<path d="M1969.3,2112.8c-1.6-1.6-0.6-4,0.7-6.8c-1.2,0.4-2.4,0.8-3.6,1.2c-0.8,0.8-1.7,1.8-2.5,2.8
		c-2.6,3.4-4.3,7.5-1,10.8c6.6,6.6,52.5-2.5,66.2-5.6c7.1-1.6,14.9-0.4,22,1.9C2031.8,2100,1991.8,2122.8,1969.3,2112.8z" class="st27"></path>
	<path d="M2387.6,2826.1c-12.9,37.4-36.7,69-75.2,87.3c-22.9,8.6-42.9-11.4-51.5-28.6
		c-32.7-66.9-53.4-135.9-67.4-206.4c0,0,0,0,0-0.1s0-0.1,0-0.2c-12.1-61-19.1-123.1-24.4-185.7c-0.9-10.2-1.7-20.5-2.5-30.8
		c-1.7-16.5-4.3-34.9-9.5-52.5c-1.6-5.5-3.5-10.8-5.7-16c-2.5-19.1-5.1-36.8-7.9-52.4c-5.6-32-11.8-55.6-18.6-66.5
		c-9.5-36.7-41.8-45.9-69.3-35.2c-27.5,10.7-54.5-30.1-71.8-58.1c-6-9.7-0.4-19.3,10.3-27.7c12.6-9.9,32.3-18.1,48.9-22.9
		c5.4-1.5,10.4-2.7,14.8-3.5c4-0.7,7.4-1,10-1c-4-3.2-10-6.5-16.7-8.8c-19.2-17.2-59.3,5.7-81.8-4.3c-1.6-1.6-0.5-4,0.7-6.8
		c71.5-23.3,143.4,2.8,190.9,58.3c35.8,42.5,29.6,118.3,64.9,158.8C2247.1,2395.2,2372,2677.6,2387.6,2826.1z" class="st26"></path>
	<path d="M2138.4,2301.7c5.1,22,11.8,61.7,18.6,107.4c-1.6-5.5-3.5-10.8-5.7-16c-2.5-19.1-5.1-36.8-7.9-52.4
		c-5.6-32-11.8-55.6-18.6-66.5c-9.5-36.7-41.8-45.9-69.3-35.2c-27.5,10.7-54.5-30.1-71.8-58.1c-6-9.7-0.4-19.3,10.3-27.7
		c12.6-9.9,32.3-18.1,48.9-22.9c-18.1,9.1-50.1,27.3-46.2,41.2c5.4,19.4,24,60.4,54.3,56.2
		C2081.4,2223.6,2120.4,2224.3,2138.4,2301.7z" class="st27"></path>
	<path d="M2193.5,2678.1c-12.1-61-19.1-123.1-24.4-185.7C2181.8,2584.4,2192.9,2673.2,2193.5,2678.1z" class="st26"></path>
	<path d="M2809.6,3076.9c-8.3,16.3-25.1,24.4-37.4,18.1c-12.4-6.3-15.6-24.6-7.3-40.9c8.3-16.3,25.1-24.4,37.4-18.1
		C2814.6,3042.3,2817.9,3060.6,2809.6,3076.9z" class="st17"></path>
	<path d="M758.6,2170.4c24.8-3.3,62.6-17.2,98.8-25.8c47.9-11.4,94.9-95.8,95.3-126.7
		C865.2,2030.5,781.8,2081.8,758.6,2170.4z" class="st23"></path>
	<path d="M949.2,2007.7c-18-12.7-87.9-59.3-149.8,25c-61.8,84.2-41.2,99.6-41.2,99.6c3.7,6.7-12.9,39.9,0.4,38.1
		c23.1-88.6,106.5-139.9,194.1-152.5C952.7,2013,951.7,2009.4,949.2,2007.7z" class="st25"></path>
	<path d="M773.1,2130.2c-15.7-11.2-79.7-49.4-81.3,68.5c-0.5,33.8,4.7,46.4,12.6,46.4
		C707.1,2191.9,717.6,2134.5,773.1,2130.2z" class="st25"></path>
	<path d="M704.4,2245.2c23.6,0,72.2-112.4,72.2-112.4s-1.3-1-3.5-2.6C717.6,2134.5,707.1,2191.9,704.4,2245.2z" class="st24"></path>
	<path d="M807,2131.1c0,0,89.9-19,127.6,48.3c37.7,67.3-158-34.8-158-34.8L807,2131.1z" class="st25"></path>
	<linearGradient y2="1341.5608" x2="643.4224" y1="1341.5608" x1="392.4438" gradientUnits="userSpaceOnUse" id="SVGID_6_">
		<stop style="stop-color:#4085F0" offset="0"></stop>
		<stop style="stop-color:#275DC9" offset="1"></stop>
	</linearGradient>
	<circle r="125.5" cy="1341.6" cx="517.9" class="st32"></circle>
	<linearGradient y2="3488.8977" x2="925.847" y1="3488.8977" x1="482.9811" gradientUnits="userSpaceOnUse" id="SVGID_7_">
		<stop style="stop-color:#68B2FC" offset="0"></stop>
		<stop style="stop-color:#529BF7" offset="1"></stop>
	</linearGradient>
	<circle r="221.4" cy="3488.9" cx="704.4" class="st33"></circle>
	<linearGradient y2="3873.9004" x2="2999.6536" y1="3873.9004" x1="2869.2051" gradientUnits="userSpaceOnUse" id="SVGID_8_">
		<stop style="stop-color:#4085F0" offset="0"></stop>
		<stop style="stop-color:#275DC9" offset="1"></stop>
	</linearGradient>
	<circle r="65.2" cy="3873.9" cx="2934.4" class="st34"></circle>
	<linearGradient y2="1590.4545" x2="3779.1526" y1="1590.4545" x1="3503.7153" gradientUnits="userSpaceOnUse" id="SVGID_9_">
		<stop style="stop-color:#68B2FC" offset="0"></stop>
		<stop style="stop-color:#529BF7" offset="1"></stop>
	</linearGradient>
	<circle r="137.7" cy="1590.5" cx="3641.4" class="st35"></circle>
	<ellipse ry="38.1" rx="138.1" cy="687.1" cx="1761.2" class="st15"></ellipse>
	<ellipse ry="38.1" rx="138.1" cy="709.5" cx="1761.2" class="st4"></ellipse>
	<g>
		<path d="M1120.7,1193.7h683.2c80.3,0,145.3,65.1,145.3,145.3v62.8c0,80.2-65,145.2-145.2,145.3l33.7,140.7
			c4.5,18.9-19.7,30.9-32,15.8L1679,1547.1h-558.3c-80.3,0-145.3-65.1-145.3-145.3V1339C975.4,1258.7,1040.4,1193.7,1120.7,1193.7z" class="st4"></path>
		<linearGradient y2="1379.7271" x2="1839.3176" y1="1379.7271" x1="1085.2159" gradientUnits="userSpaceOnUse" id="SVGID_10_">
			<stop style="stop-color:#68B2FC" offset="0"></stop>
			<stop style="stop-color:#EBF0F7" offset="1"></stop>
		</linearGradient>
		<path d="M1087.9,1434.5c53.2-60.9,108.5-100.2,160.3-91c46.3,8.2,51,48.2,108.7,66.6c86.4,27.5,177.5-29.8,190.2-38
			c68.1-44.1,58.5-83.7,118.2-101.9c52.4-15.9,115.7-2.5,127.7,0c19.4,4.1,35.1,9.4,46.2,13.6c0,71.1,0,142.3,0,213.4
			c-251.4,0-502.7,0-754.1,0C1086.1,1476.2,1087,1455.3,1087.9,1434.5z" class="st36"></path>
	</g>
	<path d="M1086.4,1468.7c0,0,87.3-91.3,231.3-49.2c144,42.1,194.8-106,265.9-142.7c71.1-36.7,158-9.2,184.5,7.6
		c26.5,16.8,71.2,41.3,71.2,41.3v187.5h-754.1L1086.4,1468.7z" class="st37"></path>
	<polygon points="1618.4,1284 1651.1,1243.8 1685.6,1284" class="st13"></polygon>
	<polygon points="1658.6,1279.1 1658.6,1394.2 1643.3,1394.2 1643.3,1277.5" class="st13"></polygon>
</g>
</svg>
