<svg xml:space="preserve" style="enable-background:new 0 0 4000 4000;" viewBox="0 0 4000 4000" y="0px" x="0px" xmlns:xlink="http://www.w3.org/1999/xlink" xmlns="http://www.w3.org/2000/svg" id="Layer_1" version="1.1">
<style type="text/css">
	.Graphic_x0020_Style_x0020_218{fill:#102140;}
	.Graphic_x0020_Style_x0020_88{fill:#D1334A;}
	.Graphic_x0020_Style_x0020_206{fill:url(#SVGID_1_);}
	.Graphic_x0020_Style_x0020_207{fill:url(#SVGID_2_);}
	
		.Graphic_x0020_Style_x0020_209{fill:none;stroke:#1A1A1A;stroke-width:2;stroke-linecap:round;stroke-linejoin:round;stroke-miterlimit:10;}
	.Graphic_x0020_Style_x0020_79{fill:#DBD2DB;}
	.Graphic_x0020_Style_x0020_220{fill:#152A52;}
	.Graphic_x0020_Style_x0020_219{fill:#DB6767;}
	
		.Graphic_x0020_Style_x0020_27{fill:#1A1A1A;stroke:#1A1A1A;stroke-width:2;stroke-linecap:round;stroke-linejoin:round;stroke-miterlimit:10;}
	.Graphic_x0020_Style_x0020_80{fill:#FFB114;}
	.Graphic_x0020_Style_x0020_87{fill:#6584C6;}
	
		.Graphic_x0020_Style_x0020_95{fill:none;stroke:#10663F;stroke-width:2;stroke-linecap:round;stroke-linejoin:round;stroke-miterlimit:10;}
	.Graphic_x0020_Style_x0020_43{fill:#00593B;}
	
		.Graphic_x0020_Style_x0020_32{fill:none;stroke:#FFFFFF;stroke-width:2;stroke-linecap:round;stroke-linejoin:round;stroke-miterlimit:10;}
	.Graphic_x0020_Style_x0020_217{fill:#339E7E;}
	.Graphic_x0020_Style_x0020_96{fill:#339E7E;}
	
		.Graphic_x0020_Style_x0020_97{fill:none;stroke:#FFFFFF;stroke-width:3;stroke-linecap:round;stroke-linejoin:round;stroke-miterlimit:10;}
	.st0{fill:url(#SVGID_3_);}
	.st1{fill:#334263;}
	.st2{fill:none;stroke:#FFFFFF;stroke-width:2;stroke-linecap:round;stroke-linejoin:round;stroke-miterlimit:10;}
	.st3{fill:#CCC4CC;}
	.st4{opacity:0.5;fill:#152A52;}
	.st5{fill:#3B546B;}
	.st6{fill:#6584C6;}
	.st7{fill:#1A1A1A;}
	.st8{fill:#FC9590;}
	.st9{fill:#152A52;}
	.st10{fill:#102140;}
	.st11{fill:#EF5668;}
	.st12{fill:#D1334A;}
	.st13{fill:#FFCF4A;}
	.st14{fill:#DBD2DB;}
	.st15{fill:#FFB114;}
	.st16{fill:#FFFFFF;}
	.st17{fill:url(#SVGID_4_);}
	.st18{fill:url(#SVGID_5_);}
	.st19{fill:url(#SVGID_6_);}
	.st20{fill:url(#SVGID_7_);}
</style>
<linearGradient y2="0" x2="1" y1="0" x1="0" gradientUnits="userSpaceOnUse" id="SVGID_1_">
	<stop style="stop-color:#4085F0" offset="0"></stop>
	<stop style="stop-color:#275DC9" offset="1"></stop>
</linearGradient>
<linearGradient y2="0" x2="1" y1="0" x1="0" gradientUnits="userSpaceOnUse" id="SVGID_2_">
	<stop style="stop-color:#68B2FC" offset="0"></stop>
	<stop style="stop-color:#529BF7" offset="1"></stop>
</linearGradient>
<g>
	<linearGradient y2="2199.939" x2="3613.5132" y1="2199.939" x1="359.7792" gradientUnits="userSpaceOnUse" id="SVGID_3_">
		<stop style="stop-color:#68B2FC" offset="0"></stop>
		<stop style="stop-color:#EBF0F7" offset="1"></stop>
	</linearGradient>
	<path d="M374.3,2345.9c57.1,172.4,242.9,177.4,585.5,374.5c528.6,304.2,509.3,535.9,759.5,543.3
		c372.1,11,472-499.8,907.2-511.6c303.1-8.3,406.4,235.4,632.9,163.5c230.3-73.1,400.5-412.8,342.8-680.4
		c-25.1-116.2-101.3-256.6-833.3-638.2c-614.6-320.4-921.9-480.6-1170.9-458.9c-579.2,50.5-929.6,533.6-1028.5,669.9
		C458.1,1961.4,313.1,2161.2,374.3,2345.9z" class="st0"></path>
	<g>
		<path d="M3139.6,2320.6c-10.2-81-18.9-149.6,18.9-179.7c2.3-1.8,25.4-19.7,53.2-13
			c27.9,6.7,40.6,33.6,42.6,37.8c-13.9-85.3,3.3-150.5,36.7-162c14.4-5,36.9-1.6,53.2,11.8c23.7,19.5,22.7,50.5,22.5,54.4
			c3.6-23.1,19.6-111.5,82.8-141.9c12.5-6,36.6-17.6,55.6-5.9c21.8,13.4,20.3,47,20.1,49.7c31.4-56.7,78.8-84.4,111.1-73.3
			c14.6,5,27.6,18.4,31.9,34.3c7.7,28.2-12,64.3-52,84c23.3-1.3,44.5,8,54.4,24.8c16.1,27.3-6,59.9-9.5,65
			c-22.2,32.7-70,46-121.8,36.7c42.4,33.8,62.3,74.9,50.8,102.9c-7.4,18.1-26.3,26.5-47.3,35.5c-21.4,9.1-64.8,23.4-126.5,14.2
			c37.9,20.1,63.5,48.3,60.3,73.3c-4.2,33.5-58.2,48-99.3,59.1c-30,8.1-165.4,44.6-217.6-22.5
			C3148.5,2391.4,3145.6,2367.8,3139.6,2320.6z" class="Graphic_x0020_Style_x0020_43"></path>
		<path d="M3036.6,2438c29.3,16.8,66.7,11.1,97.6-2.5c58-25.6,101.8-75.3,138.2-127.3
			c36.4-52,67.6-108,110.5-154.7c40.6-44.2,90.5-78.8,134.6-119.4c33.3-30.6,63.4-64.8,89.7-101.7" class="Graphic_x0020_Style_x0020_97"></path>
		<path d="M3201.4,2213.3c34.3,53.7,45.2,115,10.3,168.3" class="Graphic_x0020_Style_x0020_97"></path>
		<path d="M3243.8,2347.2c44.4-22.6,132.7,16,178.4,9.3" class="Graphic_x0020_Style_x0020_97"></path>
		<path d="M3312.6,2248c19.1-56.1,5.7-108.5,9.6-156.3" class="Graphic_x0020_Style_x0020_97"></path>
		<path d="M3464.5,1983.2c-4,43.2-15.2,85.7-33,125.2" class="Graphic_x0020_Style_x0020_97"></path>
		<path d="M3482.4,2065.1c40.8-15.1,86.8-16.1,128.2-2.7" class="Graphic_x0020_Style_x0020_97"></path>
		<path d="M3345.9,2199.3c45.7-22.8,99.3-25.4,147-7.1" class="Graphic_x0020_Style_x0020_97"></path>
	</g>
	<g>
		<path d="M3306.8,2607.8c89.7,72.6,103.3,115.8,143.7,116.5c25.2,0.5,54.9-15.7,62.5-41.2
			c9.3-31.5-20.1-61.1-21.6-62.6c87.6,62.4,169.9,75.4,198.3,44.7c13.5-14.6,22.1-46.9,11.4-76.1c-8.4-22.7-25.5-35.3-33-40.2
			c99,18.7,175,8.5,187.7-24.5c5-12.9,3.7-38.5-11.6-57.1c-12.5-15.1-29.4-19.8-36.4-21.3c63.4-4.5,103.1-44.6,100.9-78.1
			c-1.3-20.8-18.9-40.3-38.8-48.6c-27.8-11.6-62.1-2.4-83.7,23.8c1.3-2.8,19.7-45.3,0.2-68.4c-21.2-25.1-73.4-10.6-102.3,11.9
			c-28.8,22.4-36.7,54.7-38.9,66.2c1.1-4.8,11.5-50.7-13.5-73.3c-34.4-31-102.2,12-106.5,14.8c-61.3,39.9-69.3,117-70.5,132.5
			c-13.2-46.9-46-78.6-78.4-79c-40.6-0.5-65.9,48.2-79.6,74.7c-33.4,64.6-24.1,131.1-16.5,164.3
			C3286,2591.5,3295.5,2598.6,3306.8,2607.8z" class="Graphic_x0020_Style_x0020_96"></path>
		<path d="M3847.5,2371.3c-58.8,17.1-115.4,41.6-168.1,72.8
			c-75.9,44.9-145.7,104.5-231.2,126.1c-26,6.6-52.9,9.4-79.6,12.2c-30.5,3.2-61.6,6.4-91.6,0.2c-27.9-5.7-53.8-19.3-76-37.1" class="Graphic_x0020_Style_x0020_95"></path>
		<path d="M3349.7,2585.3c3.8-2.1,6.6-5.5,8.9-9.2c13.8-21.4,15.4-48.3,14.9-73.7
			c-0.6-25.5-2.8-51.5,4.7-75.9" class="Graphic_x0020_Style_x0020_95"></path>
		<path d="M3565,2518c20.3-22.4,23.6-55,24.4-85.2s0.6-62.1,16.2-88" class="Graphic_x0020_Style_x0020_95"></path>
		<path d="M3655,2460c12.8-10.3,31.8-8.5,46.7-1.5c14.9,7,27.3,18.2,41.5,26.5
			c14.2,8.3,31.9,13.5,47,7" class="Graphic_x0020_Style_x0020_95"></path>
		<path d="M3715.4,2424.6c4.5-2.2,9.1-4.4,12.7-7.9c5.4-5.2,7.9-12.7,9.8-19.9
			c3.7-15,5-30.5,8.3-45.6c3.3-15.1,9.1-30.2,20.1-41.1" class="Graphic_x0020_Style_x0020_95"></path>
		<path d="M3482.1,2560.4c12.1-2.1,24.3-4.1,36.5-3.1c23.4,1.9,44.2,14.8,64.6,26.4
			c20.4,11.7,42.7,22.8,66.1,20.7" class="Graphic_x0020_Style_x0020_95"></path>
		<path d="M3452.8,2647.3c-1.5-16.8-8.9-32.9-20.5-45.1c-11.6-12.2-27.4-20.3-44-22.7" class="Graphic_x0020_Style_x0020_95"></path>
	</g>
	<g>
		<path d="M630,2302c-7.9-103.2,11.8-138.6-12.6-165.4c-15.2-16.7-44-26.1-65.3-15.3
			c-26.3,13.4-27.4,50.8-27.5,52.6c-13.3-95.5-55.6-157.1-93.1-156.7c-17.8,0.2-44.2,14.5-56.6,39.5c-9.7,19.4-7.3,38.4-5.9,46.3
			c-48.8-76.1-102.3-119.2-131.6-107.2c-11.5,4.7-27.4,21.3-30,42.7c-2.2,17.4,5.2,31.3,8.6,36.9c-42-38.5-92.6-39.7-113.1-17.6
			c-12.7,13.7-14.6,37.1-7.8,55.2c9.5,25.2,36.7,41.9,67.1,39.9c-2.6,0.9-41.7,15.1-44.7,42c-3.3,29.3,38.3,54.4,70.8,59.3
			c32.4,4.9,58.2-9.8,67.1-15.4c-3.8,2.2-40.1,23.7-39.4,54c1,41.6,70.8,59.2,75.3,60.3c63.8,15.4,118.9-26.9,129.8-35.7
			c-22.4,37.5-22.9,78.4-3.2,99.8c24.7,26.8,72,13.2,97.7,5.8c62.7-18,100.2-65.1,117.2-90.5C632.2,2325.6,631,2315.1,630,2302z" class="Graphic_x0020_Style_x0020_217"></path>
		<path d="M142.8,2095.4c47.4,27.8,98.3,49.6,151.1,64.7c76,21.8,157.9,30.5,224.6,73
			c20.3,12.9,38.7,28.7,57,44.3c20.9,17.9,42.1,36.2,56.6,59.6c13.5,21.7,20.5,46.9,22.7,72.4" class="Graphic_x0020_Style_x0020_95"></path>
		<path d="M589.5,2289.6c-3.7-1.2-67.3,1.9-101.8,83.8" class="Graphic_x0020_Style_x0020_95"></path>
		<path d="M412.4,2189.1c-27.1,0.6-50.3,18.5-70.5,36.6c-20.2,18.1-40.9,37.9-67.3,43.6" class="Graphic_x0020_Style_x0020_95"></path>
		<path d="M319.2,2166.2c-14.6-2-25.2-15.5-29.8-29.5c-4.6-14-5-29-8.3-43.4
			c-3.3-14.4-10.8-29.1-24.4-34.9" class="Graphic_x0020_Style_x0020_95"></path>
		<path d="M258.9,2148.6c-4.2-1.6-8.5-3.2-13-3.4c-6.7-0.3-13.1,2.6-19,5.9
			c-12.1,6.8-23,15.6-34.8,22.7c-11.9,7.1-25.3,12.7-39.1,12.2" class="Graphic_x0020_Style_x0020_95"></path>
		<path d="M491.1,2217c-8.8-6.6-17.7-13.3-24.5-21.8c-13.2-16.4-17.6-37.9-22.6-58.4
			c-4.9-20.5-11.5-41.9-27.2-55.8" class="Graphic_x0020_Style_x0020_95"></path>
		<path d="M565.8,2182.5c-10,11.3-16,26.1-16.8,41.1c-0.8,15.1,5.6,31.1,14.3,43.5" class="Graphic_x0020_Style_x0020_95"></path>
	</g>
	<polygon points="2818,1538.3 2788.6,1480 2788.6,2109.4 2829,2108.1" class="st1"></polygon>
	<polygon points="2075.7,1633 2038.2,1585.6 2038.2,1964.8 2075.7,1964.8" class="st1"></polygon>
	<path d="M2788.6,2109.4V1480l-185-79.6v634.7c0,0-169,0-190.7,0c-21.6,0,0-418.3,0-418.3
		h-210.5v347.9h-164.3v-379.2h-21.3V1560h-77.1v-64.6H1914v38.5h-27l-4.1,26.2h-39.4l-2.4,25.6H1808v449.6h-255.4v-277.6h-217v191.6
		h-126.2v-86l-5.7-43l-118.8-18.5l-2.3,61.4h-69v172l-191.8,11.7v105.6h2157.4v-43H2788.6z" class="Graphic_x0020_Style_x0020_87"></path>
	<line y2="1887" x2="1137.4" y1="1887" x1="1032.5" class="Graphic_x0020_Style_x0020_32"></line>
	<line y2="1930.5" x2="1137.4" y1="1930.5" x1="1032.5" class="Graphic_x0020_Style_x0020_32"></line>
	<line y2="1974" x2="1137.4" y1="1974" x1="1032.5" class="Graphic_x0020_Style_x0020_32"></line>
	<line y2="2017.5" x2="1137.4" y1="2017.5" x1="1032.5" class="Graphic_x0020_Style_x0020_32"></line>
	<line y2="1545" x2="2691.1" y1="1545" x1="2766.5" class="st2"></line>
	<line y2="1598.1" x2="2691.1" y1="1598.1" x1="2766.5" class="st2"></line>
	<line y2="1651.1" x2="2691.1" y1="1651.1" x1="2766.5" class="st2"></line>
	<line y2="1704.2" x2="2691.1" y1="1704.2" x1="2766.5" class="st2"></line>
	<line y2="1757.3" x2="2691.1" y1="1757.3" x1="2766.5" class="st2"></line>
	<line y2="1810.3" x2="2691.1" y1="1810.3" x1="2766.5" class="st2"></line>
	<line y2="1863.4" x2="2691.1" y1="1863.4" x1="2766.5" class="st2"></line>
	<line y2="1916.5" x2="2691.1" y1="1916.5" x1="2766.5" class="st2"></line>
	<line y2="1642.7" x2="2013.6" y1="1642.7" x1="1876.4" class="Graphic_x0020_Style_x0020_32"></line>
	<line y2="1693.1" x2="2013.6" y1="1693.1" x1="1876.4" class="Graphic_x0020_Style_x0020_32"></line>
	<line y2="1743.6" x2="2013.6" y1="1743.6" x1="1876.4" class="Graphic_x0020_Style_x0020_32"></line>
	<line y2="1794" x2="2013.6" y1="1794" x1="1876.4" class="Graphic_x0020_Style_x0020_32"></line>
	<line y2="1844.5" x2="2013.6" y1="1844.5" x1="1876.4" class="Graphic_x0020_Style_x0020_32"></line>
	<line y2="1894.9" x2="2013.6" y1="1894.9" x1="1876.4" class="Graphic_x0020_Style_x0020_32"></line>
	<line y2="1945.3" x2="2013.6" y1="1945.3" x1="1876.4" class="Graphic_x0020_Style_x0020_32"></line>
	<g>
		<path d="M1085.7,2128.1l-338.9,480.8c-121.6-57-212.9-92.2-276.4-138.2l351.1-342.6H1085.7z" class="Graphic_x0020_Style_x0020_79"></path>
		<path d="M1511.9,2128.1l-257.4,792.8c-74.3-61.5-168.3-129-292.5-200.5c-80.2-46.2-151.8-81.8-215.2-111.5
			l338.9-480.8H1511.9z" class="st3"></path>
		<path d="M1936.8,2128.1l-14.9,1085c-58.8,33-123.9,52.9-200.4,50.6
			c-191.4-5.7-225.1-142.6-467-342.8l257.4-792.8H1936.8z" class="Graphic_x0020_Style_x0020_79"></path>
		<path d="M2517.4,2767c-266.4,66.4-394.6,333.3-595.5,446.1l14.9-1085h423.8L2517.4,2767z" class="st3"></path>
		<path d="M3155.1,2927.6c-160.9-15.8-274.9-182.5-526.4-175.6c-39.7,1.1-76.7,6.3-111.3,15
			l-156.8-638.9h423L3155.1,2927.6z" class="Graphic_x0020_Style_x0020_79"></path>
		<path d="M2306.6,2421.7c-157.8,0-295.2,37.9-366.9,94c-49-77.3-211.6-134.1-404.6-134.1
			c-231.8,0-419.8,81.9-419.8,183c0,101.1,187.9,183,419.8,183c157.8,0,295.2-37.9,366.9-94c49,77.3,211.6,134.1,404.6,134.1
			c231.8,0,419.8-81.9,419.8-183S2538.5,2421.7,2306.6,2421.7z" class="st4"></path>
		<path d="M3479.9,2747.7c-59.6,80.1-135,141.4-218.2,167.8c-38.5,12.2-73.5,15.3-106.5,12.1l-371.5-799.5h203.6
			L3479.9,2747.7z" class="st3"></path>
	</g>
	<g>
		<polygon points="2517,1741.5 2691.1,1856.2 2749.1,1847 2581.6,1741.5" class="st5"></polygon>
		<path d="M2517,1741.5l-65.6,194.3c0,0,213.9,178.5,210.4,172.3c-3.5-6.2,29.2-251.9,29.2-251.9L2517,1741.5z" class="st6"></path>
		<polygon points="2661.8,2108.1 2749.1,2089.6 2749.1,1847 2691.1,1856.2" class="Graphic_x0020_Style_x0020_218"></polygon>
	</g>
	<path d="M2589.8,1735.3l52.3,28.6c0,0,9.2,17.1,3.1,38.7c5.3,11.9,25.9,13.6,25.9,13.6s13.7-53.7-3.3-68.4
		c-17-14.7-61.3-31.8-61.3-31.8L2589.8,1735.3z" class="st7"></path>
	<path d="M2653.5,1713.1c-14.8-10.5-29.5-19-46.4-25.3c-4.8-1.6-4.7-9.2-3.5-16.5l-12.5,0.8c0,0-10,22.4-12.3,45.3
		c-2.2,22.9,25.9,40.7,43.9,37.6c-0.4-1.6-8.9-5.2-9.1-6.5c-0.8-6.8-1-6.9-1-6.9s12.7-11,29.4-9.2c9.2,4.3,16.3,10,21.4,13.8
		C2668.2,1734.3,2664.3,1719.8,2653.5,1713.1z" class="st8"></path>
	<path d="M2663.6,1705.3c-16.3-26.8-29.9-35.9-29.9-35.9l-30.2,1.9
		c-1.2,7.3-1.2,14.9,3.5,16.5c16.9,6.3,31.6,14.8,46.4,25.3c10.8,6.7,14.7,21.3,10,33.1c3.8,2.9,6.6,4.8,8.2,4.5
		c3.2-0.6,1.8-15.3,2.7-18.9C2675.9,1726.8,2669.9,1715.6,2663.6,1705.3z" class="Graphic_x0020_Style_x0020_219"></path>
	<g>
		<path d="M2213.7,2382.4c0,0-32.5,51-36,86.2c-3.5,35.2,29.9,58,54.5,56.3
			s46.6-107.2,49.2-110.8c2.6-3.5-14.9-42.2-14.9-42.2" class="Graphic_x0020_Style_x0020_27"></path>
		<path d="M2348.2,2577.6c0,0-24.4,66.8-24.1,75c0.3,8.1,12.2,58.7,12.2,58.7
			c0,20.3,80.2,21.6,89.2,0c0.8-1.8,19.3-20.2,19.3-44.8s-27.3-84.4-27.3-84.4" class="Graphic_x0020_Style_x0020_27"></path>
		<path d="M2276.2,1620.5c-14.8,52.7-15.1,120-67.9,139c-23.2,9.3-47.5,3.8-63.9-13.1c-3.6,68.5-6.7,184.7,6.4,284.8
			c10.8,83,50.3,365.5,50.3,365.5s18.5,6.5,37.7,8.9c20.3,2.6,41.4,0.5,42.1-18.8c33-427.2,60.7-756.2,60.7-756.2l-3.6-15.4
			C2320.9,1615.9,2281.3,1605.2,2276.2,1620.5z" class="st9"></path>
		<path d="M2301.6,2108.1c0,0-61.2,89-106.3-26.8c-28-71.8-18.5-217.2-7.3-317.4
			c-16.4,0.7-32-5.5-43.5-17.5c-3.6,68.5-6.7,184.7,6.4,284.8c10.8,83,50.3,365.5,50.3,365.5s18.5,6.5,37.7,8.9
			c20.3,2.6,41.4,0.5,42.1-18.8c7.5-97.8,14.8-190.4,21.5-275.1C2301.9,2109.3,2301.6,2108.1,2301.6,2108.1z" class="Graphic_x0020_Style_x0020_218"></path>
		<path d="M2275.7,1968.4c3,130.9,19.2,239.2,19.2,239.2v0c12.9-164.2,24.3-305.5,32.7-407.2
			C2308.6,1821.1,2273.5,1872.6,2275.7,1968.4z" class="st10"></path>
		<path d="M2213.9,1521.1l-23.2-3.2l-42.2,169.5c0,0-2.1,22.8-4,59
			c16.3,16.9,40.7,22.4,63.9,13.1c52.7-19,56.4-83.7,71.2-136.5c5.1-15.3,41.4-7.1,58.5-7.8l-18.8-79.5L2213.9,1521.1z" class="Graphic_x0020_Style_x0020_218"></path>
		<path d="M2505.4,1847c-9.6,206.2-72.8,745.5-72.8,745.5c-14.1,8.4-28.9,12.1-44.3,11.8c-15.7-0.2-31.9-4.5-48.6-11.8
			l-33-820.7v-232.3l129.4-6.5l26.5-1.3C2462.6,1531.7,2512.9,1685.8,2505.4,1847z" class="st9"></path>
		<path d="M2505.4,1847c-9.6,206.2-72.8,745.5-72.8,745.5c-14.1,8.4-28.9,12.1-44.3,11.8c-15.7-0.2-31.9-4.5-48.6-11.8
			l-33-820.7v-232.3l129.4-6.5l26.5-1.3C2462.6,1531.7,2512.9,1685.8,2505.4,1847z" class="st9"></path>
		<path d="M2295.5,1617l57.2-1.8c0,0-8.3,122.2,63.9,123.1c72.3,1,70.9-20.1,70.9-20.1l-8.5-159.4h-80.2l-105.8,20.1
			L2295.5,1617z" class="st10"></path>
		<path d="M2505.4,1847c-9.6,206.2-72.8,745.5-72.8,745.5c-14.1,8.4-28.9,12.1-44.3,11.8
			c12.8-64.7,56-293.9,84.4-589.5c26.4-275-16.7-428.4-36.5-481.8l26.5-1.3C2462.6,1531.7,2512.9,1685.8,2505.4,1847z" class="Graphic_x0020_Style_x0020_218"></path>
		<path d="M2210.9,1581.9c0,0,109,38.9,205.7-4.1c-10.1-14-10.1-14-10.1-14l-163.1-18.9
			L2210.9,1581.9z" class="Graphic_x0020_Style_x0020_27"></path>
		<polygon points="1377,1683.5 1398.9,1937.2 1203.7,2071.7 1225.6,1784.7" class="st10"></polygon>
		<polygon points="1166.8,1771 1225.6,1784.7 1409,1662 1361,1649.8" class="st5"></polygon>
		<path d="M1315.6,1637.9c0,0,18.2-7.3,26.2-4.4c7.9,2.9,18.9,23.1,20.4,37.6c-3.1,14.1-17.4,13.8-24.4,10.5
			c-2.2-24-3.5-23.5-3.5-23.5l-13.4,2.8L1315.6,1637.9z" class="st7"></path>
		<path d="M1477.3,2324.8c2.7,13.1,6.3,22.3,6.4,36c0.1,16.7,0.2,33.4,0.3,50.1
			c0.1,13.7-0.3,28.6-9.2,39c-12.3,14.4-37.4,14.1-54.6,14.4c-10.6,0.2-19.5-11.7-23.3-21.6c-13.4-35.7-4.4-108.3-1.4-112.6
			L1477.3,2324.8z" class="Graphic_x0020_Style_x0020_27"></path>
		<path d="M1557.5,1698.8c0,0-74.2,449.3-69.6,631.3c-31,31.6-98.2,15.8-98.2,15.8s-46.1-352-52.7-431.1
			c-6.6-79.1,40.4-376.3,40.4-376.3l18.9-64.2l182,12.5" class="st9"></path>
		<path d="M1487.9,2330.1c-31,31.6-98.2,15.8-98.2,15.8s-46.1-352-52.7-431.1
			c-4.1-49.1,12.5-182.4,25.7-276.3c4.3-30.6,8.2-57,10.9-75l20-37.9l27,1c-9.3,37.9-21.1,87.3-31.9,137.7
			c-18.2,84.8-33.9,172.5-31.4,213.3c4.9,78.5,46.6,337.9,131.1,395.7C1487.7,2294.4,1487.5,2313.6,1487.9,2330.1z" class="Graphic_x0020_Style_x0020_218"></path>
		<path d="M1678.2,2445.5c0,0,5.8,23.7,10.6,43.9s0.7,78.8-8.5,98.3
			c-9.3,19.5-26.1,34.6-34.8,38.8c-8.6,4.2-41,5.8-55.4-3.5c-14.4-9.3-8-40.6-8-60.7c0-20.2,23.7-120.2,23.7-120.2L1678.2,2445.5z" class="Graphic_x0020_Style_x0020_27"></path>
		<path d="M1562.8,1474.4l201,19.8c-6.3,2.6-32.6,481.3-35.3,490.5c-2.6,9.2-35.7,468.1-35.7,468.1
			c-28.4,18.5-66.9,12.4-108.1,0l-13.6-642.6l-21.9-121.5" class="st9"></path>
		<path d="M1759.1,1531.5c-3,34.6-6.8,89.6-10.7,149.5c-8.9,136.4-18.4,298.3-19.9,303.6
			c-2.6,9.2-35.7,468.1-35.7,468.1c-28.4,18.5-66.9,12.4-108.1,0l-0.9-41.3c9.8,5.4,20.1,10.2,29.3,9.7
			c29-1.5,91.8-257.2,98.7-386.5c3.6-67.1,4.8-218.2,6-348.6c0.5-59,1-113.8,1.8-154.6H1759.1z" class="Graphic_x0020_Style_x0020_218"></path>
		<path d="M1759.1,1531.5c-3,34.6-6.8,89.6-10.7,149.5c-8.4,1.7-18.5,3.5-30.5,5.1c-12.7,1.7-27.4,3.1-44,4.1
			c-67.9,3.8-81.4-60.2-74.1-97.5c-30.8,19.4-102.4-12.6-102.4-12.6s7.5,74-47.7,96.6c-22.4,9.1-43.6,0.8-60.9-12.4
			c-10.2-7.8-19.1-17.3-26.1-25.8c4.3-30.6,8.2-57,10.9-75l20-37.9l27,1l136.9,5H1759.1z" class="st10"></path>
		<path d="M1398.9,1515.9c0,0,130.6,85.1,301,59.3c-12.2-48.1-12.2-48.1-12.2-48.1l-247.9-56
			L1398.9,1515.9z" class="Graphic_x0020_Style_x0020_27"></path>
		<path d="M1611.3,1402.9c12.7-99.2,35.9-189.9,50.6-289.1c5.7-32.5,20.1-61.5,24.3-93.3c-32-11.4-74.4-25.4-92.2-26.2
			l-40.6-2.2c7.4,84.4,9,170.4,3,254.6c-8.4,86.5-23.2,170.9-44.3,257.4c-3.3,10.7-5.6,21.8-8.5,32.7
			c34.7,10.3,76.4,18.9,117.4,18.1C1596.6,1512,1604.6,1451.5,1611.3,1402.9z" class="st11"></path>
		<path d="M1725.9,1035.2c0,0-17.3-6.7-39.7-14.7c-4.2,31.8-18.6,60.8-24.3,93.3c-14.8,99.2-38,189.9-50.6,289.1
			c-6.7,48.6-14.7,109.1,9.7,152c39.8-0.8,79-10.3,110.4-35.8C1745.7,1229.1,1725.9,1035.2,1725.9,1035.2z" class="st12"></path>
		<path d="M1556.4,1246.8c6-84.2,4.4-170.3-3-254.6l-73.7-4l-59.7,516.6
			c0,0,34.9,17.8,83.6,32.2c2.9-10.9,5.2-21.9,8.5-32.7C1533.2,1417.7,1548,1333.3,1556.4,1246.8z" class="Graphic_x0020_Style_x0020_88"></path>
		<path d="M1728.4,786.3c0,0,10.7,44.3-2.9,56.8c-20.2-18.9-20.2-18.9-20.2-18.9l-5.5-25.1L1728.4,786.3z" class="st10"></path>
		<path d="M1649.2,837.5c-10.5,12.7-6.3,33.8-19,46.4c-14.8,12.7-21.1-4.2-33.8-8.4c-3.7,18.3,3.8,52.5-14.9,61.2
			l-6.2,66.2c0,0,1,48.6,52.9,48.2c51.9-0.4,38.2-40,38.2-40l0.6-23.4c8.2-0.6,18.6-1.8,32-3.8c47.5-7.3,31.6-118.7,20.7-173.7
			C1699,820.1,1668.4,816.6,1649.2,837.5z" class="st8"></path>
		<path d="M1564.6,869.5c-1.5,22.2,6.5,42.5,17.7,59.7l-0.7,7.4
			c18.6-8.7,11.2-42.9,14.9-61.2c12.7,4.2,19,21.1,33.8,8.4c12.7-12.7,8.4-33.8,19-46.4c19.1-20.9,49.8-17.4,70.6-27.3
			c-3.6-18.2-6.6-30.2-6.6-30.2C1634.9,731.5,1569,804.5,1564.6,869.5z" class="Graphic_x0020_Style_x0020_219"></path>
		<path d="M1634.9,971.5c0,0,16.4,15.4,32.6,16.6c-1.2,7.6-1.2,7.6-1.2,7.6
			S1635,981.9,1634.9,971.5z" class="Graphic_x0020_Style_x0020_219"></path>
		<path d="M1722.8,1034.1c0,0,104,42.7,107.3,107.3c3.3,64.6,15.8,224.8,15.8,224.8l-64.6,85.7
			c0,0-45.9-183.2-49.9-291.4C1727.4,1052.3,1722.8,1034.1,1722.8,1034.1z" class="st9"></path>
		<path d="M1828.6,1464.1c73.5-27.2,92.6-103.9,113-176.3c-10.7-12.6-26.9-25.8-44.8-19.6
			c-19.9,33.8-55.1,43.3-55.1,43.3l-77.9,64.2c0,0-0.4,15.1,2.2,33.8C1776.2,1443.8,1791.8,1479.2,1828.6,1464.1z" class="st9"></path>
		<path d="M1828.6,1464.1c-36.8,15.1-52.4-20.3-62.5-54.6c4.2,29.8,16.4,68.7,50.8,70
			c85.5,9.7,138-172.5,138-172.5s-5-9.5-13.3-19.2C1921.1,1360.1,1902.1,1436.9,1828.6,1464.1z" class="Graphic_x0020_Style_x0020_218"></path>
		<path d="M1902.5,1274.8c0,0-18.1,18.8,10.2,36.9c28.3,18.1,41.1,1.6,30.8-11.1
			C1933.1,1288,1910.7,1272.1,1902.5,1274.8z" class="Graphic_x0020_Style_x0020_27"></path>
		<path d="M1980.5,1148.2c-0.4,0.5-0.7,1.1-1.1,1.8c-10.5,20.2-46.2,74.3-51.4,72.1c-5.3-2.2-5.7-47.5-14.5-40.9
			c-8.8,6.6-7,90.4-7,90.4c0.2,8.9,1.5,16.3,4.2,22C1941.6,1247.3,1995.3,1203.7,1980.5,1148.2z" class="st8"></path>
		<path d="M1980.5,1148.2c14.7,55.5-38.9,99.1-69.8,145.4c4.9,10.4,14.2,15.3,29.2,12.9
			c0,0,29.9-47.9,48.3-90.1C2006.1,1175.5,1991.1,1132.6,1980.5,1148.2z" class="Graphic_x0020_Style_x0020_219"></path>
		<path d="M1796.5,1080.8l-36.6-28.5l-65.3-28.9c0,0-62.1,329.7-75,388.6c-12.9,58.9-36.6,242.6,17,254.1
			s155.9-7.7,147.7-45.7c-13.7-63.8-24-259-4.6-343.7" class="st9"></path>
		<path d="M1769.3,1444.4c-18.9-69.3-8.2-143.5,2.6-213.6c-11.6,28.9-43.3,117.1-37.9,212.7
			c5,88.9,34,141.8,47.6,162.1C1775.5,1568.5,1770.6,1506.8,1769.3,1444.4z" class="Graphic_x0020_Style_x0020_218"></path>
		<path d="M1379.2,1563.3c14.8-90.7,38-170.9,54.9-259.5c6.2-37.2,6.7-75.5-6-110
			c-0.2,44.1-1.4,86.3-4.7,109.8c-9.2,64.6-67.3,253.2-66,268.3c0,0,0.9,10.2,5.2,22.9C1375,1590.5,1377.1,1575.8,1379.2,1563.3z" class="Graphic_x0020_Style_x0020_218"></path>
		<path d="M1476.7,987.4l-51.2,46.6c0,0,2.9,82.8,2.6,159.7c12.7,34.5,12.2,72.8,6,110
			c-16.9,88.6-40.1,168.8-54.9,259.5c-2.1,12.6-4.2,27.3-16.7,31.6c6.5,19.1,20.7,43.7,51.6,47.7c51.4,6.6,91.2-125.8,100.9-199.1
			c11.9-90.3,27-454.1,27-454.1L1476.7,987.4z" class="st9"></path>
		<path d="M2275.9,1156c0-43.2-3.7-84.7-9.3-127.7l-64.8,30.6l-25,496
			c0,0,38.7,18.5,94.2,26.6c0.4-1.8,0.6-3.7,0.6-5.7C2273.8,1434.5,2273.8,1297.4,2275.9,1156z" class="Graphic_x0020_Style_x0020_80"></path>
		<path d="M2383.5,1360.7c6.2-115,2.3-230,21.6-343.1c-15.4-4.4-28.1-7.5-28.1-7.5l-86.8,7.1l-23.7,11.2
			c5.6,43,9.3,84.4,9.3,127.7c-2.1,141.4-2.1,278.5-4.2,419.9c0,2-0.2,3.9-0.6,5.7c27,3.9,57.9,5.4,90.3,1.1
			C2360.8,1507.7,2379.7,1434.2,2383.5,1360.7z" class="st13"></path>
		<path d="M2532.4,1081.4c-7.3-16.9-55.4-39.4-98.9-54.8c-9-3.2-19.3-6.3-28.5-9
			c-19.3,113.1-15.4,228.1-21.6,343.1c-3.8,73.5-22.7,147-22.2,222c37.4-5,76.8-17.6,114.2-43.1
			C2445.8,1389.3,2543.8,1107.8,2532.4,1081.4z" class="Graphic_x0020_Style_x0020_80"></path>
		<path d="M2339.3,1065.1c0,0-25.1,297.1-16,520.2" class="Graphic_x0020_Style_x0020_209"></path>
		<path d="M2309.6,858.5c8.4,14.8,6.3,33.8,21.1,42.2c12.7,6.3,19-6.3,29.5-10.5
			c4.2-2.1,6.3,6.3,4.2,10.5c-10.5,12.7-8.4,27.4,0,38c4.4,4.4,10.1,7,16.3,8.1l-3.2-29.5c3.3-13.6,4.8-29.5,3.9-48
			c-5.2-106.4-140.8-116.9-146.5-32.3c0,0-0.1,0.4-0.1,1.2c0.3-0.3,0.7-0.6,0.9-0.9C2263.2,820.6,2297,833.2,2309.6,858.5z" class="Graphic_x0020_Style_x0020_219"></path>
		<path d="M2364.5,938.7c-8.4-10.5-10.5-25.3,0-38c2.1-4.2,0-12.7-4.2-10.5c-10.5,4.2-16.9,16.9-29.5,10.5
			c-14.8-8.4-12.7-27.4-21.1-42.2c-12.7-25.3-46.4-38-73.8-21.1c-0.3,0.3-0.6,0.6-0.9,0.9c-1.6,14-14.8,144.6,29.8,151.7
			c6.7,1.1,14.1,1.5,21.6,1.3v53.9c0,0,24.6,20.6,53,20c28.3-0.7,50.1-38.5,50.1-38.5l-8.6-79.8
			C2374.6,945.7,2368.9,943.1,2364.5,938.7z" class="st8"></path>
		<path d="M2314.4,983.2c0,0-16.9,6.8-28.1,8.1c0.4,11.8,0.4,11.8,0.4,11.8
			S2315.4,990.3,2314.4,983.2z" class="Graphic_x0020_Style_x0020_219"></path>
		<path d="M2427.5,1024.5c-4-0.9,5.1,136.7-17.3,266.2s-72.9,415.6-11,431.4
			c62,15.8,134.1-42.9,134.1-42.9s-41.4-203.6-36.1-280.1c5.3-76.5,39.1-314.3,20.7-334.1
			C2499.5,1045.4,2427.5,1024.5,2427.5,1024.5z" class="Graphic_x0020_Style_x0020_220"></path>
		<path d="M2516.2,1204.6c0,0-45.7,161.5-37.4,222.8s32.2,125.7,32.2,125.7s-20.7-175-5.8-262.3
			C2520.2,1203.6,2516.2,1204.6,2516.2,1204.6z" class="st10"></path>
		<path d="M2505.2,1282.9c11.6,57.3,31.7,154.4,39.7,204.2c12.6,78.1,19.6,194.3,39.3,194.3c3,0,6.8,0.4,11.1,1.1
			c-9.1-11.1-15.5-25.2-17.8-43.3C2558.1,1518.6,2556.6,1392.7,2505.2,1282.9z" class="st10"></path>
		<path d="M2661.8,1669.3c-26.7-233.8-32.2-241.9-54.2-365.6
			c-24.4-119.5-48.7-224.3-111.8-253.3l0.7,187.2c0,2,3.5,19.6,8.7,45.3c51.3,109.8,52.9,235.8,72.3,356.4
			c2.3,18.1,8.6,32.2,17.8,43.3C2619.7,1686.1,2660.7,1696.2,2661.8,1669.3z" class="Graphic_x0020_Style_x0020_220"></path>
		<path d="M2129.2,1094.2c-6.6,9.3-11.9,20.2-15,32.9c-17.1,70.2-71.9,257.8-35.8,308.4
			c8.3-6.4,16.1-13.2,23.6-20.3c-2.8-4.2-4.7-8.7-5.4-12.3C2090.6,1300.4,2095.8,1192.3,2129.2,1094.2z" class="Graphic_x0020_Style_x0020_218"></path>
		<path d="M2173.1,1325.9c0,0-4.6-45.5,15.6-80.4c20-64,26.3-202.7,26.3-202.7
			s-56.1,9.5-85.8,51.4c-33.4,98.1-38.6,206.2-32.7,308.7c0.7,3.6,2.6,8.1,5.4,12.3C2144.9,1374.3,2173.1,1325.9,2173.1,1325.9z" class="Graphic_x0020_Style_x0020_220"></path>
		<path d="M2265.4,1528.3c-6.1,99.2-36.4,180.9-53,194c-26.9,21.2-116.6-45.9-116.6-53
			c0-3,13-43.8,28.6-97.8c0,0,0,0,0,0c21.1-72.9,46.9-170.1,51.8-231.3c2.7-33.2,4.9-72.4,6.7-110.6c0.2-3.7,0.4-7.5,0.5-11.2
			l8.7-169.2l61.5-15.7C2253.6,1033.5,2277.9,1325.5,2265.4,1528.3z" class="Graphic_x0020_Style_x0020_220"></path>
		<path d="M2195.3,1319.8c-2.4,53.3-4.9,148.9-70.9,251.8c21.1-72.9,46.9-170.1,51.8-231.3
			c2.7-33.2,4.9-72.4,6.7-110.6C2188.2,1246.4,2197,1280.8,2195.3,1319.8z" class="st10"></path>
		<path d="M2244.4,1251.3c-4.3,2.5-65.3,46.4-65.3,46.4s0.4,9.9,0.7,11.3c0.4,1.4,69.3-47,69.3-47L2244.4,1251.3z" class="st10"></path>
		<path d="M2261.8,1026.6l-59.8,14.9l12.1,65.5h22.7l-18.8,29l43.8,194.5C2261.8,1330.5,2283.9,1091.4,2261.8,1026.6z" class="st10"></path>
		<path d="M1252.6,1675.1c-22.6-30.9,0.9-81.8,33.4-101.9l-15-1.2c0,0-30.8,23.4-41,64
			c-7.9,31.5-4.3,36.7,5.3,59.1c1.1,2.5,35.7,25.9,35.7,25.9l5-26.9C1266.3,1690.3,1257.9,1684,1252.6,1675.1z" class="Graphic_x0020_Style_x0020_219"></path>
		<path d="M1321.7,1624.4c-3.3-16.8-9.9-49.2-9.9-49.2l-25.8-2.1c-32.5,20.1-56.1,71-33.4,101.9
			c5.4,8.9,13.8,15.2,23.4,19l8.8-47.6c0,0,20.4,25.7,21.8,36.3c1.3,10.5,16.5,8.6,16.5,8.6S1326.7,1649.8,1321.7,1624.4z" class="st8"></path>
		<path d="M1482.4,987.6l-5.7-0.2c0,0-79.3,10.4-100.2,63.6c-7.5,19-45.7,98.3-69.2,191.9
			c-36.7,146.1-61.4,322.9-60.9,327.2c0.9,7,64.2,34.3,94.1,22c29-156.5,87.1-378.9,87.1-378.9l7-32.9" class="st9"></path>
		<path d="M1376.5,1051.1c-7.5,19-45.7,98.3-69.2,191.9c-36.7,146.1-61.4,322.9-60.9,327.2c0.2,2,5.4,5.5,13.3,9.3
			c8.8-43,31.9-157,59.5-301.6c25.6-134.3,80.2-232,108.2-275.5C1406.9,1012,1385.8,1027.2,1376.5,1051.1z" class="st10"></path>
		<path d="M1687.4,1017.9l74.9,28.6l-31,75.4l-31.5-3.5l20.8,36l-85.7,181.9C1634.9,1336.2,1672.5,1130,1687.4,1017.9z" class="st10"></path>
		<path d="M1549.2,987.4l-56.4-4.9l4.5,68.6l23.7,9.7l-38.6,20.7l42.1,247.8C1524.5,1329.2,1558.9,1031.9,1549.2,987.4
			z" class="st10"></path>
		<path d="M1275.6,1656.3c0,0-28.9,18.4-36.3,25.9c-7.4,7.5-18.1,47.6-15.2,62.1c9.2,3.6,17.2,6.3,30-2.6
			c4.1-14.5,4.8-36,11.5-46.2c11.2-16.8,35.3-25.9,35.3-25.9s-10.2-20.1-13.5-19.8C1284.1,1650.1,1275.6,1656.3,1275.6,1656.3z" class="st7"></path>
		<path d="M1115.4,2054.6c0-4,51.4-283.5,51.4-283.5l58.8,13.6l-21.9,287L1115.4,2054.6z" class="st6"></path>
		<path d="M1550.9,890.6c0,0,16.6,43.4,33.1,41.2c5.6-3.9,2.5-28.9,2.5-28.9s-11.9-38.2,9.6-50.1
			c21.6-11.9,26,28.1,26,28.1s7-7.5,9.7-15.4c2.6-7.9-2.2-43.1,16.1-47.5c18.2-4.4,111,3.5,94.7-72.5c-19.3,1.8-45.3-7.5-70.8-9.2
			c-24.6-2.2-46.2,16.6-48.3,27.8C1610.7,746.5,1522.7,793.1,1550.9,890.6z" class="st10"></path>
		<path d="M1599.3,1040.4c0,0,10.7,9.7,16.2,10.7c-11,6.1-33.3,2.3-32.6-10.7
			C1595.8,1038.7,1599.3,1040.4,1599.3,1040.4z" class="st14"></path>
		<polygon points="1564.4,997.9 1578.3,972.5 1598.4,1040.1 1573.7,1060.5" class="st12"></polygon>
		<path d="M1644.9,1042.7c0,0-5.9,6-12.8,8.4c11.4,7.2,27.5,1.8,27.5,1.8S1655.1,1040.1,1644.9,1042.7z" class="st14"></path>
		<polygon points="1644.9,1042.7 1662.2,1063.4 1678.4,1016.5 1666.9,997" class="st12"></polygon>
		<path d="M2320.8,1218.9c-30.8,4.8-74.3,51-74.3,51l17.1,26.7c9.5-0.7,18.2-4.7,27-7.6c27.4-4.2,46.4-27.4,76-29.5
			c1.4,0,2.7-0.4,3.9-1C2366.2,1245.9,2350.5,1214.2,2320.8,1218.9z" class="st8"></path>
		<path d="M2290.6,1289c-8.8,2.9-17.5,6.9-27,7.6l8,12.4c0,0,27.2-14.1,43.1-21.1
			c15.8-7,59.8-16.7,56.3-28.1c-0.1-0.4-0.3-0.9-0.4-1.3c-1.2,0.6-2.5,1-3.9,1C2337.1,1261.5,2318.1,1284.7,2290.6,1289z" class="Graphic_x0020_Style_x0020_219"></path>
		<path d="M2126.1,1426.1c64.2-30.4,108.1-87.9,150.2-145.4c-9.9-11.4-22.5-23.8-29.5-22
			c-12.5,3.3-108.1,73.2-108.1,73.2l-43,51.9c0.3,6.4,0.6,12.7,1,19.1C2098.6,1413.5,2111.3,1432.4,2126.1,1426.1z" class="Graphic_x0020_Style_x0020_220"></path>
		<path d="M2126.1,1426.1c-14.8,6.3-27.4-12.7-29.5-23.2c-0.4-6.3-0.7-12.7-1-19.1l-26,31.4
			c0.6,2.8,1.4,5.4,2.2,7.9c13.6,39.2,65.5,34.1,132.8-22.6c67.2-56.7,85.7-102.2,85.7-102.2s-6.1-8.5-14-17.6
			C2234.2,1338.2,2190.3,1395.7,2126.1,1426.1z" class="Graphic_x0020_Style_x0020_218"></path>
	</g>
	<path d="M1622,1051.1c0,0-33.9,445.7-53.2,500.4" class="Graphic_x0020_Style_x0020_209"></path>
	<path d="M2201.8,775c0,0,16.5,61.7,33.2,62c2.9-13.9,15.3-21.1,39-15.5c23.7,5.6,52.7,16.2,52.4,44.2
		c-1,15.2,5.8,24,5.8,24l9.2,1.3c0,0-0.1-32,20.7-25.1c20.8,6.9,5.7,34.7,5.7,34.7s-6.2,12.5-1.5,18.5c4.6,5.9,13.3,18.2,13.2,17.2
		c-0.1-1,11.9-27.1,12.2-56.1c0.3-29,12.9-99.9-34.9-117.7S2203.1,770.4,2201.8,775z" class="st10"></path>
	<path d="M2412.4,1016l49.8,16.8l-6.6,63.3l-25.1,5.6l23.7,19.1c0,0,6.9,123-52.8,220.4
		C2399.9,1292.3,2411.8,1054.9,2412.4,1016z" class="st10"></path>
	<path d="M2309.2,1056.9c0,0,17.9,7.2,23.3,8.2c-11,6.1-40.4,18.1-39.8,5C2305.7,1068.5,2309.2,1056.9,2309.2,1056.9z" class="st15"></path>
	<polygon points="2271.6,1025.9 2285.5,1000.5 2313.8,1058.9 2280.9,1088.5" class="st16"></polygon>
	<path d="M2358.7,1058.7c0,0-9.6,5.4-15,6.4c11,6.1,41.8,8,41.1-5C2371.7,1058.5,2358.7,1058.7,2358.7,1058.7z" class="st15"></path>
	<polygon points="2402.6,1016.9 2386.2,994.8 2358.8,1057.3 2390.8,1082.8" class="st16"></polygon>
	<linearGradient y2="2928.8135" x2="2596.053" y1="2928.8135" x1="2395.6318" gradientUnits="userSpaceOnUse" id="SVGID_4_">
		<stop style="stop-color:#68B2FC" offset="0"></stop>
		<stop style="stop-color:#529BF7" offset="1"></stop>
	</linearGradient>
	<ellipse ry="100.2" rx="100.2" cy="2928.8" cx="2495.8" class="st17"></ellipse>
	<linearGradient y2="2917.7537" x2="2894.4736" y1="2917.7537" x1="2783.6787" gradientUnits="userSpaceOnUse" id="SVGID_5_">
		<stop style="stop-color:#4085F0" offset="0"></stop>
		<stop style="stop-color:#275DC9" offset="1"></stop>
	</linearGradient>
	<path d="M2894.5,2917.8c0-30.6-24.8-55.4-55.4-55.4c-30.6,0-55.4,24.8-55.4,55.4c0,30.6,24.8,55.4,55.4,55.4
		C2869.7,2973.2,2894.5,2948.4,2894.5,2917.8z" class="st18"></path>
	<linearGradient y2="2680.5593" x2="653.4165" y1="2680.5593" x1="581.4935" gradientUnits="userSpaceOnUse" id="SVGID_6_">
		<stop style="stop-color:#4085F0" offset="0"></stop>
		<stop style="stop-color:#275DC9" offset="1"></stop>
	</linearGradient>
	<circle r="36" cy="2680.6" cx="617.5" class="st19"></circle>
	<linearGradient y2="1755.2524" x2="535.9087" y1="1755.2524" x1="398.3639" gradientUnits="userSpaceOnUse" id="SVGID_7_">
		<stop style="stop-color:#4085F0" offset="0"></stop>
		<stop style="stop-color:#275DC9" offset="1"></stop>
	</linearGradient>
	<path d="M535.9,1755.3c0-38-30.8-68.8-68.8-68.8c-38,0-68.8,30.8-68.8,68.8s30.8,68.8,68.8,68.8
		C505.1,1824,535.9,1793.2,535.9,1755.3z" class="st20"></path>
</g>
</svg>
