<svg xml:space="preserve" style="enable-background:new 0 0 4000 4000;" viewBox="0 0 4000 4000" y="0px" x="0px" xmlns:xlink="http://www.w3.org/1999/xlink" xmlns="http://www.w3.org/2000/svg" id="Layer_1" version="1.1">
<style type="text/css">
	.st0{fill:url(#SVGID_1_);}
	.st1{fill:url(#SVGID_2_);}
	.st2{fill:#FFFFFF;}
	.st3{fill:#DBD2DB;}
	.st4{fill:#CCC4CC;}
	.st5{fill:url(#SVGID_3_);}
	.st6{fill:url(#SVGID_4_);}
	.st7{fill:url(#SVGID_5_);}
	.st8{fill:url(#SVGID_6_);}
	.st9{fill:url(#SVGID_7_);}
	.st10{fill:#3B546B;}
	.st11{fill:#572658;}
	.st12{fill:#49204A;}
	.st13{fill:#2E142E;}
	.st14{fill:#102140;}
	.st15{fill:#EB485C;}
	.st16{fill:#EF5668;}
	.st17{fill:#FFDE70;}
	.st18{fill:#122142;}
	.st19{fill:#192E5C;}
	.st20{fill:#FC9590;}
	.st21{fill:#DB6767;}
	.st22{fill:#EF97A1;}
	.st23{fill:#FFB114;}
	.st24{fill:#0B182E;}
	.st25{fill:#182D59;}
	.st26{fill:#723273;}
	.st27{fill:url(#SVGID_8_);}
	.st28{fill:url(#SVGID_9_);}
	.st29{fill:url(#SVGID_10_);}
	.st30{fill:url(#SVGID_11_);}
</style>
<g>
	<linearGradient y2="2029.0283" x2="3744.1582" y1="2029.0283" x1="292.6224" gradientUnits="userSpaceOnUse" id="SVGID_1_">
		<stop style="stop-color:#68B2FC" offset="0"></stop>
		<stop style="stop-color:#529BF7" offset="1"></stop>
	</linearGradient>
	<path d="M340.3,2952.8c-38.7,212.9,152.8,453.2,343.2,572c218.1,136.1,451.1,123.3,786.5,104.9
		c352.8-19.4,351.6-82.7,586.3-66.7c361,24.6,414.5,177.7,715,176.4c42.9-0.2,355.7-6,614.9-224
		c345.2-290.4,354.4-754.3,357.5-915.2c4.4-224.3-51.1-418-162.1-805.6c-32.6-113.7-75.7-236.3-162.1-481.5
		c-179.1-508.5-216.7-550-257.4-581.6c-185-143.6-327.5-1.7-624.5-147.8C2290,461.7,2251.5,295,2142.2,321.5
		c-161.7,39.1-102.2,409.8-381.4,591.1c-100.6,65.3-200.4,77-238.3,81c-347.7,36.9-481.5-285.4-743.6-262.2
		c-241.3,21.4-490,326.4-486.2,591.1c4.4,306.2,343.9,352.4,386.1,743.6c30.2,279.4-111.8,544.3-119.2,557.7
		C456.2,2812,364.3,2821,340.3,2952.8z" class="st0"></path>
	<linearGradient y2="938.6761" x2="1069.412" y1="938.6761" x1="1039.2319" gradientUnits="userSpaceOnUse" id="SVGID_2_">
		<stop style="stop-color:#68B2FC" offset="0"></stop>
		<stop style="stop-color:#529BF7" offset="1"></stop>
	</linearGradient>
	<path d="M1069.4,1062.4l-29.6,0.1l-0.5-247.6c9.9,6.4,19.8,12.9,29.7,19.5L1069.4,1062.4z" class="st1"></path>
	<path d="M3562.8,2709.7c31-343.9,62.7-390.1,28.6-548.2c-46.1-214.1-132.5-261.3-128.7-448.1
		c4.4-213.1,119.1-259.5,85.8-419.5c-42.7-205.5-270.6-314.5-281.2-319.4c-247.1-114.1-469.5,27.6-533.9-71.5
		c-56.2-86.5,109.3-200.5,71.5-367.1c-42-185.4-301.8-284.9-462.4-309.8c-26.5-4.1-382.7-54.8-529.1,143
		c-96,129.6-30.6,269.6-152.5,376.6c-64.4,56.5-138.8,66.8-214.5,76.3c-654.9,81.9-740.8,59.3-829.4,138.2
		c-90.5,80.5-101.6,239.6-123.9,557.7c-10.6,151-22.2,342.4,52.4,572c37.2,114.6,93.9,142.7,128.7,276.5
		c47,180.9,13.7,311.1,4.8,343.2c-12.1,43.5-27.4,78-42.8,107.8h2918C3556.5,2783.1,3559.4,2747.2,3562.8,2709.7z" class="st2"></path>
	<path d="M3554,2817.5H636c-6.4,12.5-12.9,24.1-19.2,35.2c-44.2,78.5-84.7,142.5-120.9,195.7H3541
		C3543.7,2980.1,3547.6,2903.6,3554,2817.5z" class="st2"></path>
	<path d="M496,3048.4c-125.9,185.4-198.7,240.3-189,323.9c17.3,150.2,285,258.6,481.5,286
		c308.9,43.1,349.6-126.9,696-109.6c258.5,12.9,575.3,124.6,681.7,162.1c152.2,53.6,220.9,90.5,314.6,62
		c182.1-55.5,193.3-277.2,338.5-290.8c115-10.8,147.3,124.5,328.9,157.3c27.6,5,176.1,28.8,281.2-42.9
		c112.8-76.9,98.2-210.8,111.7-548H496z" class="st3"></path>
	<path d="M3541,3048.4c-4.6,114.4-5.9,205.4-10.1,278.7c-125.7,0.9-269.5-6.4-350.7-38.6
		c-166-65.9-116.9-159.3-302.7,30.1c-185.8,189.4-697.5,185.9-681.6,157c15.9-28.9-21.7-213.6-212.2-99.3
		c-190.5,114.4-635.1,58.9-615.6,39.2c19.5-19.7,61.4-136.2-334.7-99.3c-463.7,57.3-643.6,22.2-708.5-25.9
		c28.5-54.3,88.3-119.8,171.2-241.9H3541z" class="st4"></path>
	<linearGradient y2="1084.6964" x2="1938.4132" y1="2693.4883" x1="1738.2756" gradientUnits="userSpaceOnUse" id="SVGID_3_">
		<stop style="stop-color:#68B2FC" offset="0"></stop>
		<stop style="stop-color:#EBF0F7" offset="1"></stop>
	</linearGradient>
	<path d="M2342.4,226.1c-26.5-4.1-382.7-54.8-529.1,143c-96,129.6-30.6,269.6-152.5,376.6
		c-64.4,56.5-138.8,66.8-214.5,76.3c-53.6,6.7-103.4,12.7-149.6,18.1v938.2L2698.8,376.1C2597.5,291.5,2448.4,242.6,2342.4,226.1z" class="st5"></path>
	<linearGradient y2="1124.1936" x2="2255.9094" y1="2732.9858" x1="2055.7717" gradientUnits="userSpaceOnUse" id="SVGID_4_">
		<stop style="stop-color:#68B2FC" offset="0"></stop>
		<stop style="stop-color:#EBF0F7" offset="1"></stop>
	</linearGradient>
	<path d="M2733.3,903c-56.2-86.5,109.3-200.5,71.5-367.1c-12.8-56.3-45.7-104.6-89.7-145.4L1296.6,1809.1v800.5h184.7
		L3153.2,937.8C2954.2,899,2787.6,986.6,2733.3,903z" class="st6"></path>
	<path d="M3153.2,937.8L1481.4,2609.6h23.1L3172.2,941.9C3165.8,940.4,3159.5,939,3153.2,937.8z" class="st2"></path>
	<linearGradient y2="1170.7638" x2="2630.2695" y1="2779.5564" x1="2430.1318" gradientUnits="userSpaceOnUse" id="SVGID_5_">
		<stop style="stop-color:#68B2FC" offset="0"></stop>
		<stop style="stop-color:#EBF0F7" offset="1"></stop>
	</linearGradient>
	<path d="M3554.5,1352.5c0.2-17.9-1.6-37.2-6-58.5c-42.7-205.5-270.6-314.5-281.2-319.4c-32.2-14.9-64-25.3-95.1-32.6
		L1504.5,2609.6h792.8L3554.5,1352.5z" class="st7"></path>
	<path d="M3554.5,1352.5L2297.3,2609.6h130.9l1067.2-1067.2C3521.5,1473,3553.7,1423.3,3554.5,1352.5z" class="st2"></path>
	<linearGradient y2="1238.0305" x2="3171.0188" y1="2846.8271" x1="2970.8806" gradientUnits="userSpaceOnUse" id="SVGID_6_">
		<stop style="stop-color:#68B2FC" offset="0"></stop>
		<stop style="stop-color:#EBF0F7" offset="1"></stop>
	</linearGradient>
	<path d="M3462.7,1713.4c1.5-72.7,15.8-126,32.7-171L2428.2,2609.6h1144.4c27.2-254.9,49.2-306.8,18.8-448.1
		C3545.3,1947.5,3458.8,1900.2,3462.7,1713.4z" class="st8"></path>
	<path d="M2698.8,376.1L1296.6,1778.3v30.8L2715.1,390.6C2709.8,385.7,2704.4,380.8,2698.8,376.1z" class="st2"></path>
	<linearGradient y2="643.2301" x2="2090.5496" y1="643.2301" x1="2059.0737" gradientUnits="userSpaceOnUse" id="SVGID_7_">
		<stop style="stop-color:#68B2FC" offset="0"></stop>
		<stop style="stop-color:#EBF0F7" offset="1"></stop>
	</linearGradient>
	<path d="M2090.5,1060.2l-29.7,0.1l-1.8-828.8c9.9-2,19.8-3.7,29.6-5.2L2090.5,1060.2z" class="st9"></path>
	<path d="M3573.3,2602.9H1331.7v-593.4h2212.4c-4.4-10.8-8.8-21.1-13.2-31.1H1331.7v-550.2h2209.7
		c3.3-10.2,6.1-20.5,8.3-31.1h-2218V914.2h1410.5c-3.2-3.3-6.2-7-8.9-11.1c-4.2-6.5-7.2-13.2-9.1-20H1331.7V836
		c-19.6,2.3-38.6,4.6-57,6.7V2634h28.5h28.5h2238.4C3571.2,2623.3,3572.3,2612.9,3573.3,2602.9z" class="st10"></path>
	<g>
		<path d="M3497.5,2778.1c-5.4,5.4-13.5,2.7-16.2,5.4c-54,59.4-137.7,62.1-207.9,70.2c-172.8,21.6-340.1,27-515.6-13.5
			c-5.4,0-13.5-5.4-18.9-5.4c-63.1-4.5-124.5-19-183.3-40.4c-42.3-106-25.4-374.4,45.7-401c76.6-28.6,262.5-45.8,262.5-45.8
			s-17.7-267.5,147.8-272c0,0,336.9-36.5,454.4,81c117.6,117.6,54,502.1,46.1,589.5c-0.5,6-1.6,12.1-3,18.4
			C3505,2768.8,3501.1,2773.2,3497.5,2778.1z" class="st11"></path>
		<path d="M2739,2834.8c5.4,0,13.5,5.4,18.9,5.4c175.5,40.5,342.8,35.1,515.6,13.5c70.2-8.1,153.9-10.8,207.9-70.2
			c2.7-2.7,10.8,0,16.2-5.4c3.5-5,7.5-9.4,11.6-13.5c-20.1,85.8-128.6,195.7-384.7,169.1c-274.9-28.6-502.1-33.4-557.7-117.6
			c-4-6.1-7.7-13.4-11-21.7C2614.5,2815.8,2675.9,2830.3,2739,2834.8z" class="st12"></path>
		<path d="M3378,2462c0,0,7.1-202.6-72.4-264.2c-79.5-61.6-272-92.4-331-10.3c-59,82.1-224.5,379.7-224.5,415.7
			s-191.2,44.9-191.2,44.9s-2.2,62.9,52.8,77c55,14.1,551.5,83.1,555.3,62.1c3.8-21-18-196.8-18-196.8S3240,2447.9,3378,2462z" class="st13"></path>
		<path d="M3178.4,3283.8h480.9c33.9,0-45.5-277.5-63.6-346c-18-68.5-38.1-107.4-170.5-110.7
			c-265.9-10.8-248,110.3-270.1,193C3132.9,3102.7,3178.4,3283.8,3178.4,3283.8z M3200.3,3026.4c17.6-67.8,3.4-167.3,214.6-158.4
			c105.2,2.8,121.2,34.6,135.5,90.9c14.3,56.2,77.4,284.1,50.5,284.1h-382C3218.8,3242.9,3182.7,3094.2,3200.3,3026.4z" class="st14"></path>
	</g>
	<g>
		<path d="M3200.5,2350.6c-2.5-53.3,2.8-324.1-80.3-456.6c2,57.9-1.5,115.5-12.9,174.2c-27,124.2-43.2,278-178.2,321.2
			c-79.2,25.6-174.3,17-238.9-41.2c0.3,44.2,1.3,73.4,1.3,73.4s-17.6,35.5,185,60.9s220.7,36.5,303.3,17.5
			S3203.7,2418.9,3200.5,2350.6z" class="st15"></path>
		<path d="M2726.6,2070.9c-16.2,54-18.9,110.7-62.1,148.5c-99.9,89.1-221.4,129.6-353.6,140.4c-1.5,0-3.4,0-5.4,0.1
			c8,12.9,28.5,29.2,79.8,13.1c77.3-24.4,279.7-73.1,335.8-191.7l68.3-170.9C2760.6,2018.6,2737.3,2036.7,2726.6,2070.9z" class="st15"></path>
		<path d="M2802.3,1827.4c-113.9,49.8-169,179-198.8,252.1c-35,85.8-190.7,168.4-270.1,184.3
			c-79.4,15.9-32.8,83.9-32.8,83.9s0.9,5.6,4.9,12.1c2-0.1,3.8-0.1,5.4-0.1c132.3-10.8,253.8-51.3,353.6-140.4
			c43.2-37.8,45.9-94.5,62.1-148.5c10.7-34.1,34-52.2,62.8-60.6l43.8-109.7L2802.3,1827.4z" class="st16"></path>
		<path d="M2929.1,2389.4c135-43.2,151.2-197.1,178.2-321.2c11.4-58.6,14.9-116.3,12.9-174.2
			c-23.4-37.2-53.7-63.6-93.2-71c-180-34.1-304.7,71.6-323.8,220.2c-12.3,95.7-13.6,225.1-12.9,305.1
			C2754.7,2406.4,2849.9,2415,2929.1,2389.4z" class="st16"></path>
		<path d="M2840,1834.7c0,0,83.2,142.7,56.4,446.5c37.3-106.5,50.9-368.7,197.4-435.8
			C3035.8,1812.8,2896,1788,2840,1834.7z" class="st17"></path>
		<path d="M2559.1,3220.9c-12-32.1-34-47.2-34-47.2l-76.3,26.9c0,0-4.6,18.8-32.8,39c0,0,0.1,0.1,0.1,0.1
			C2464.7,3253.2,2518.7,3255.9,2559.1,3220.9z" class="st2"></path>
		<path d="M2475.6,3067c16.2-110.7-2.7-218.7,8.1-329.3c2.7-13.5,13.5-37.8,24.3-35.1
			c180.9,13.5,380.6,5.4,510.2-140.4c30.4-35.7,58.8-74.6,79-116.8c-156.8-16-325.2,5.8-325.2,5.8s-372.9-10.6-444.9,65.7
			c-65.3,69.1,26.4,556,88,676.5c6.9-1.5,13-4.1,17.3-7.6C2459.4,3156.1,2467.5,3107.5,2475.6,3067z" class="st18"></path>
		<path d="M3208.4,2465c-34.6-9.4-72.6-15.7-111.3-19.6c-20.2,42.2-48.6,81.1-79,116.8
			c-129.6,145.8-329.3,153.9-510.2,140.4c-10.8-2.7-21.6,21.6-24.3,35.1c-10.8,110.7,8.1,218.7-8.1,329.3
			c-8.1,40.5-16.2,89.1-43.2,118.8c-4.4,3.5-10.4,6.1-17.3,7.6c6.4,12.5,12.4,21.1,18,24.8c58.8,39.7,105.3-47.7,105.3-47.7
			s-10-314.6-21.1-417.9c42.9-7.9,249.5-30.2,410,11.1C3087.7,2805,3313.3,2663.6,3208.4,2465z" class="st14"></path>
		<path d="M2723.8,3204.4c-4.1,4.6-16.6,10-32.9,16.5c18.7,35.6,74.6,26.4,108.6,21.5c6.7-1.2,13.5-2.6,20.2-4.3
			c-1.8-17-4.3-27.9-4.3-27.9S2733.9,3193.3,2723.8,3204.4z" class="st2"></path>
		<path d="M2899.4,2743c-67.2,152.5-107.2,319.8-117.5,487.8c37.9-4.2,52.7-30.9,61.1-69.8
			c9.2-42.5,86.2-372.3,118.6-474C2934.9,2697.8,2912.4,2715.7,2899.4,2743z" class="st14"></path>
		<path d="M3074.8,2483.9c-118.6-76.3-261.5,64.8-311.2,118.8c-49.7,54-59.6,569.4-59.6,569.4s-11.9,50.1,48.5,58
			c11.1,1.5,20.9,1.7,29.4,0.7c10.4-168,50.3-335.3,117.5-487.8c13.1-27.3,35.6-45.2,62.2-56c3.9-12.3,87.7-50.2,90.1-54.9
			C3128.4,2590.6,3148.7,2542.7,3074.8,2483.9z" class="st19"></path>
		<path d="M2690.9,3220.9c-23.5,9.4-55,21.2-81,35.9c-44,24.9-123.9,87.9-107,102.2c16.9,14.3,114.4,29.1,156.8,2.6
			c42.4-26.5,74.2-28.6,74.2-28.6s32.3,16.9,85.8-24.4c3.3-26.7,2-52.2,0-70.6c-6.7,1.7-13.5,3.1-20.2,4.3
			C2765.5,3247.3,2709.7,3256.5,2690.9,3220.9z" class="st14"></path>
		<path d="M2559.1,3220.9c-40.5,35-94.4,32.3-143,18.8c0,0-0.1-0.1-0.1-0.1c-7.1,5-15.6,10.2-25.9,15.1
			c-51.6,24.6-139.8,113.6-118.4,138.2c88.2,15.1,182.7-58.8,217.7-54c21.5,4.8,85.8-37.3,85.8-37.3s-2.4-35.8-13.5-73.1
			C2560.9,3225.9,2560.1,3223.4,2559.1,3220.9z" class="st14"></path>
		<path d="M2902.1,1845.9l5.1-104.9c0,0-77.4-3.2-86.2-50.9c-8.8-47.7,11.5-182.7,40.8-202.7
			c29.4-20,131.4-30.5,170.7,35.5c39.4,66,5.6,178.8,1.6,202.6c-4,23.8,3.2,107.8,3.2,107.8S2975.6,1933,2902.1,1845.9z" class="st20"></path>
		<path d="M2963.3,1725.4c0,0-3.8,12.9-56.1,15.6c-2.3,47.4-1.8,52.2-1.8,52.2S2960.6,1773.5,2963.3,1725.4z" class="st21"></path>
		<path d="M2948.3,1570c0,0,14.2-33.4,45,0.9c30.8,34.3-5.8,55.8-7.7,58.2c-1.8,2.4-2.7,35.6,14.9,51.4
			c17.6,15.8,40.7,24.4,53.1,13.2c12.4-11.3,60.1-93.1,30.5-154.3c-29.6-61.2-62.7-88.3-106.5-92c-43.8-3.7-73.7,8.3-86.7-1.1
			s-64.6-38.9-79.3,6.4s14.2,85.2,70.9,74.4c23.6-3.2,26.4,1.8,28.6,18.1c2.2,16.3,10.9,65.3,28,53.4
			C2956.4,1586.6,2948.3,1570,2948.3,1570z" class="st14"></path>
		<path d="M2963.3,1888.2l54.4,32.6l72.3-88.2l-53.8-16.1C3036.2,1816.5,2973.3,1863.6,2963.3,1888.2z" class="st19"></path>
		<path d="M2902.6,1804.4c0,0,58.2,65.8,60.7,83.8c-31.9,9-63.2,28.1-63.2,28.1s-43.4-94.6-58.3-102.9
			C2872.1,1799.9,2902.6,1804.4,2902.6,1804.4z" class="st19"></path>
		<path d="M2748.2,2581.1c137.7-29.7,264.6-67.5,375.2-156.6c81-67,104.5-160,117.6-257.8
			c-0.8-85.2-16.6-163.4-33.7-204.9c-18.4-44.7-55.1-83.4-103.8-111.1l-15.9,231.3c31.8,120.8-3.2,208.2-68.3,282.8
			c-65.1,74.7-307.5,128.7-336.9,137.4c-29.4,8.7-56.4,25.4-50.1,67.5c1.4,9,4.4,16,8.2,21.4
			C2675.3,2596.6,2713.1,2588.9,2748.2,2581.1z" class="st16"></path>
		<path d="M3123.4,2424.5c-110.7,89.1-237.6,126.9-375.2,156.6c-35.1,7.8-72.9,15.6-107.5,10.2
			c14.2,19.8,40.2,18.4,40.2,18.4s240.7-11.9,421.9-114.4c108-61.1,139.5-202.5,138.3-328.5
			C3227.9,2264.5,3204.4,2357.5,3123.4,2424.5z" class="st15"></path>
		<path d="M2682.2,2552.5c-33.4,1.7-66.1,8.4-93.2,33.9c-26,18.9-66.4,13-92.3-10.4c-4.5,14.9,3.7,22,17.7,30.7
			c14.8,9.2,98.1,36.1,109.2,20.7c15-20.9,46.8-32.1,46.8-32.1s24.9,3.7,14.3-35C2683.8,2557.5,2683,2554.9,2682.2,2552.5z" class="st21"></path>
		<path d="M2588.9,2586.5c27.1-25.5,59.8-32.2,93.2-33.9c-10.8-30.7-27-30.2-30.9-28.7c-4.2,1.6-105.1-19.3-135,19.4
			c-11,14.3-17.2,24.7-19.6,32.8C2522.6,2599.5,2563,2605.3,2588.9,2586.5z" class="st20"></path>
		<path d="M2894.9,2395.1c-2.5-230.1,28.4-366.1,85.8-438.6c66.8-84.3,109.4-140,109.4-140l51.3,38.6l3.6,2.7
			l-66.7,95.5c-26.1-12.8-51.5-13.8-76.3,0.5c23.7-0.5,40.3,11.3,49.6,35.5C3051.4,1989.4,2903.3,2194.9,2894.9,2395.1z" class="st22"></path>
		<path d="M2842.6,1801.6c0,0,69.5,72.3,68.7,178c-0.8,105.7-16.4,322.6-16.4,322.6s-20.1-257.9-59.9-310.9
			c20.2-35.6,34.6-33.5,42.9-32.3c-14.6-15.4-32.7-15.7-52.4-8.7c0,0-22.6-118.8-36.9-125.9
			C2800.1,1810.7,2842.6,1801.6,2842.6,1801.6z" class="st22"></path>
		<path d="M2687.2,2496.1c0,0,82,31.8,74.8,96.9c-64.9,7.9-78.4,8.4-78.4,8.4s12-71.7-45.2-81.8
			C2668.2,2500.9,2687.2,2496.1,2687.2,2496.1z" class="st2"></path>
	</g>
	<path d="M2329.7,2260.6c0,0,51.7,20.8,50.2,71.3c-1.5,50.5-18.4,60.1-18.4,60.1l-51.9,3.2c0,0,14.3-101.2-31.8-112.3
		C2302.7,2260.6,2329.7,2260.6,2329.7,2260.6z" class="st2"></path>
	<g>
		<path d="M1069.4,1062.4l-29.6,0.1l-0.5-247.6c9.9,6.4,19.8,12.9,29.7,19.5L1069.4,1062.4z" class="st14"></path>
		<path d="M1082.5,1065h-60.4l-115,116.2c0,0,286.8-4.6,290.8-0.6C1200.7,1183.3,1126,1108.5,1082.5,1065z" class="st23"></path>
	</g>
	<g>
		<path d="M2090.5,1060.2l-29.7,0.1l-1.8-828.8c9.9-2,19.8-3.7,29.6-5.2L2090.5,1060.2z" class="st14"></path>
		<path d="M2097.5,1054.2H2054l-123.4,124.6c0,0,286.8-4.6,290.8-0.6C2224.4,1181.3,2138.8,1095.7,2097.5,1054.2z" class="st23"></path>
	</g>
	<g>
		<polygon points="2979.2,1144 2949.5,1144.1 2949,931.6 2979.2,929.3" class="st14"></polygon>
		<path d="M2985.4,1074.9h-43.2l-123.6,124.8c0,0,286.8-4.6,290.8-0.6C3112.5,1202.1,3026.8,1116.3,2985.4,1074.9z" class="st23"></path>
	</g>
	<g>
		<path d="M750.6,2778.1c5.4,5.4,13.5,2.7,16.2,5.4c54,59.4,137.7,62.1,207.9,70.2c172.8,21.6,340.1,27,515.6-13.5
			c5.4,0,13.5-5.4,18.9-5.4c63.1-4.5,124.5-19,183.3-40.4c42.3-106,25.4-374.4-45.7-401c-76.6-28.6-262.5-45.8-262.5-45.8
			s17.7-267.5-147.8-272c0,0-336.9-36.5-454.4,81c-117.6,117.6-54,502.1-46.1,589.5c0.5,6,1.6,12.1,3,18.4
			C743.1,2768.8,747,2773.2,750.6,2778.1z" class="st11"></path>
		<path d="M1509.1,2834.8c-5.4,0-13.5,5.4-18.9,5.4c-175.5,40.5-342.8,35.1-515.6,13.5
			c-70.2-8.1-153.9-10.8-207.9-70.2c-2.7-2.7-10.8,0-16.2-5.4c-3.5-5-7.5-9.4-11.6-13.5c20.1,85.8,128.6,195.7,384.7,169.1
			c274.9-28.6,502.1-33.4,557.7-117.6c4-6.1,7.7-13.4,11-21.7C1633.6,2815.8,1572.2,2830.3,1509.1,2834.8z" class="st12"></path>
		<path d="M870.1,2462c0,0-7.1-202.6,72.4-264.2c79.5-61.6,272-92.4,331-10.3c59,82.1,224.5,379.7,224.5,415.7
			s191.2,44.9,191.2,44.9s2.2,62.9-52.8,77c-55,14.1-551.5,83.1-555.3,62.1c-3.8-21,18-196.8,18-196.8S1008.1,2447.9,870.1,2462z" class="st13"></path>
		<path d="M1093,3020.1c-22.2-82.7-4.2-203.8-270.1-193c-132.4,3.4-152.5,42.2-170.5,110.7c-18,68.5-97.5,346-63.6,346
			h480.9C1069.7,3283.8,1115.1,3102.7,1093,3020.1z M1029.3,3242.9h-382c-26.9,0,36.2-227.8,50.5-284.1
			c14.3-56.2,30.3-88.1,135.5-90.9c211.2-8.9,197,90.6,214.6,158.4C1065.4,3094.2,1029.3,3242.9,1029.3,3242.9z" class="st14"></path>
	</g>
	<g>
		<path d="M1798,3143l-7.4,62c0,0,44,14.3,112.8-3.2c-1.1-24.9-11-64.1-11-64.1L1798,3143z" class="st2"></path>
		<path d="M1782.7,3197.1c0,0-4.8,43.3,1.6,85.4c4,19.5,4.8,25.6,4.8,25.6s57.6,18.1,94.1,0
			c5.6-11.3,9.2-22.1,9.2-22.1s47.2,32.6,101.7,22.1c54.4-10.5,85.8-21.3,88.2-38.8c2.4-17.5-44.9-33-69.1-38.1
			c-24.2-5.2-35-5.6-70.3-27.4c-29.4-18.3-34.9-15.1-54.4-9.9C1868.9,3199.1,1783.9,3180.5,1782.7,3197.1z" class="st14"></path>
		<path d="M1838.5,2691.7c-8.1-59.4-56.7-113.4-126.9-99.9c-36.8,7-70.2,16.3-102.5,27.9
			c73.8-12.3,140.1-15.9,161.3,18.4c46.1,74.7,9,450.2,10.6,491c0.5,12,4.7,20.1,11.4,25.5c1.3-31.8,1-63.2,11-93.1
			C1838.5,2940.1,1860.1,2818.6,1838.5,2691.7z" class="st24"></path>
		<path d="M1940.4,2476.1c-62-90.6-487-62-487-62l-145.4,4.8c0,0-14.3,214.5,71.5,232c46.3,9.4,143.1-16.8,229.6-31.2
			c32.2-11.6,65.6-20.9,102.5-27.9c70.2-13.5,118.8,40.5,126.9,99.9c21.6,126.9,0,248.4-35.1,369.8c-10,29.9-9.6,61.3-11,93.1
			c16.3,13.1,47.3,10.4,76.5,7.4c41.3-4.2,33.4-12.2,38.1-58.3C1911.8,3057.7,2002.4,2566.7,1940.4,2476.1z" class="st14"></path>
		<path d="M1512.2,3185.6c0,0-26.2,27.8-19.4,78.3c71.5,19.5,114.8-17.5,114.8-17.5s-3.6-35,2-41.3
			C1550.7,3197.1,1512.2,3185.6,1512.2,3185.6z" class="st2"></path>
		<path d="M1477.6,3240.4c-2.2,21.3-11.5,79.1,2.8,116c31.4,9.5,71.1,22.2,90.2,7.9c2.4-15.1,5.6-15.5,5.6-15.5
			s50.8,30.2,94.5,31.4c43.7,1.2,130.3-11.9,129.5-40.9c-1.2-20.7-11.5-5.6-43.7-21.5c-32.2-15.9-120.8-61.6-131.9-76.3
			c-12.3-7.5-42.5,1.6-56.4,7.2C1554.3,3254.3,1479.2,3225.3,1477.6,3240.4z" class="st14"></path>
		<path d="M1681.9,2702.5c8.1-27,18.9-54,13.5-81c-10.8,8.1-18.9,10.8-27,13.5c-162,56.7-350.9,78.3-504.8-5.4
			c-61-32.7-62.2-123.4-32-191.3c-43.8-1.6-76.8-3-76.8-3s-46.6,85.8,21.2,197c67.8,111.2,261.7,84.7,397.2,58.3
			c135.6-26.5,186.4-31.8,186.4-31.8s-79.5,242.2-126.9,399.4c51.5-68.2,72.5-152.7,108.6-231.6
			C1657.6,2786.2,1668.4,2743,1681.9,2702.5z" class="st14"></path>
		<path d="M1853,2492c-73.1-54-362.3-32.6-371-32.6c-8.7,0-94.5-19.1-146.2-16.7c-32.1,1.5-132.6-1.7-204.2-4.4
			c-30.2,67.8-29,158.6,32,191.3c153.9,83.7,342.8,62.1,504.8,5.4c8.1-2.7,16.2-5.4,27-13.5c5.4,27-5.4,54-13.5,81
			c-13.5,40.5-24.3,83.7-40.5,124.2c-36.1,78.9-57.1,163.4-108.6,231.6c-22,73-37.1,127.8-34.1,131.3c9.5,11.1,95.3,49.3,125.5,15.9
			c30.2-33.4,201.8-359.1,228.8-451.3C1880,2662,1926.1,2546,1853,2492z" class="st25"></path>
		<path d="M1438.9,2386.7c-59.4-8.1-124.2,8.1-175.5-18.9c-37.8-18.9-89.1-43.2-81-91.8
			c10.8-83.7,37.8-159.3,91.8-234.9c44.4-63.6,86-125.9,136.6-179.9c-63.7,37.8-145.6,100.4-206.2,195.4
			c-114.4,179.6-139.8,236.8-139.8,236.8s-57.5,101.5-17.5,157.8c12.4,17.5,62.7,23.1,90.6,29.7c117.6,27.5,247-45.2,280.5-37.3
			c24,5.6,55.7-10,79.1-37.6c-10.8-1.7-21.4-3.7-31.6-5.7C1457.8,2397.5,1447,2389.4,1438.9,2386.7z" class="st23"></path>
		<path d="M1617.3,2046.6c28.6-75.2,5.3-94.3-31.8-148.3c-37.1-54-47.7-89-75.7-84.7c0,0-42.3,14.1-98.9,47.7
			c-50.7,54-92.3,116.3-136.6,179.9c-54,75.6-81,151.2-91.8,234.9c-8.1,48.6,43.2,72.9,81,91.8c51.3,27,116.1,10.8,175.5,18.9
			c8.1,2.7,18.9,10.8,27,13.5c10.1,2,20.8,4.1,31.6,5.7c8.4-10,15.8-21.5,21.3-34.1C1553.2,2293.1,1588.7,2121.8,1617.3,2046.6z" class="st17"></path>
		<path d="M1941.1,2346.2c-8.1,0-18.9-5.4-29.7-10.8c-70.2-24.3-151.2-32.4-213.3-78.3c-10.8-8.1-21.6-8.1-32.4-18.9
			c-5.4-5.4-13.5,0-18.9-2.7c-43.9-49.8-105.4-73.2-167.2-93.9c48.7,59.8,141.5,157.2,255.3,196.3c169.5,58.3,393,95.3,411,35
			c1.7-5.7,3.2-11,4.4-16C2082.5,2366,2000.4,2349.2,1941.1,2346.2z" class="st23"></path>
		<path d="M2111,2284.9c-44.5-8.5-277.5-76.3-348.5-152.5c-71-76.3-128.9-165.2-152.9-199.6
			c-91.8-18.6-144.8,9-173.4,47.1l6.4,112.3c0,0,13.3,20.2,37.1,49.5c61.8,20.8,123.3,44.1,167.2,93.9c5.4,2.7,13.5-2.7,18.9,2.7
			c10.8,10.8,21.6,10.8,32.4,18.9c62.1,45.9,143.1,54,213.3,78.3c10.8,5.4,21.6,10.8,29.7,10.8c59.3,3,141.5,19.8,209.3,10.6
			C2162,2309,2151.3,2292.6,2111,2284.9z" class="st17"></path>
		<path d="M1514.6,1822.5c0,0,47.1-39.7,55.1-53c7.9-13.2-78.1-152.3,5.3-192.8c83.4-40.5,166.8-35.8,187.5,20.7
			c20.7,56.4,32.6,202.6-30.2,236c-28.6,16.7-69.9,0-69.9,0l-66.7,93.4C1595.6,1926.8,1511.4,1875.2,1514.6,1822.5z" class="st20"></path>
		<path d="M1611.3,1800.7c0,0,31,30.6,51.1,32.6c-24.1,33.7-24.1,33.7-24.1,33.7S1605.2,1824.5,1611.3,1800.7z" class="st21"></path>
		<path d="M1613.6,1717.1c0,0-25.7,67.2-47.3,57c-21.6-10.2-52.5-46.4-54.1-93.6c-1.6-47.3,4-133.3,58-161.9
			c54-28.6,93.7-35,152.5-2.6c26,13.2,73.6,20.7,93.7,8.5c0,0,9.5,73.1-35.5,78.4c-45,5.3-92.2,2.6-92.2,2.6s1.1,35,0.5,61.4
			c-0.5,26.5-12.7,31.8-12.7,31.8l-15.9,9c0,0-2.9-64.9-23.8-60.4C1597.2,1655.7,1599.9,1704.3,1613.6,1717.1z" class="st14"></path>
		<path d="M2324.8,2338.8c-1.7-20-15-47.8-26.9-41.3c0,0-75.7,12.6-92.4,37c-9.9,14.4-18.6,36.9-21.2,54.6
			c19.5-10,36.1-26.9,53.6-42.8C2261,2323.2,2293.9,2333.5,2324.8,2338.8z" class="st20"></path>
		<path d="M2238,2346.2c-17.5,15.9-34.1,32.8-53.6,42.8c-1.8,12.2-0.6,22.2,5.1,25.6c14.1,8.3,64.1,9.1,73.8-1.9
			c9.6-11,37.8-49.9,55.2-55.4c5.5-1.8,7.2-9.3,6.4-18.6C2293.9,2333.5,2261,2323.2,2238,2346.2z" class="st21"></path>
		<path d="M2177.4,2325.6c0,0,28.8-31.8,55.8-27.8c27,4,43.7,35,50.4,56.3c6.8,21.2,4,60.5-2.8,62.9
			c-6.8,2.4-20.7-9.9-34.2-9.1c-13.5,0.8-19.1,11.1-37.3-2c-18.3-13.1-17.9-30.6-27-31C2173.2,2374.4,2177.4,2325.6,2177.4,2325.6z" class="st20"></path>
		<path d="M2129.9,2298.6c0,0,19.9-6,22.6-4c2.8,2,36.1,11.5,36.1,11.5s17.1,42.9-1.6,73.1
			c-42.8,12.9-59.1,4.2-57.2,0.4L2129.9,2298.6z" class="st2"></path>
		<path d="M1526.2,1784.4c0,0-50.3,31.2-49.8,47.1c0.5,15.9,111.4,107.1,132.2,127.6c20.8,20.5,16,37.1,21.4,34.5
			s17-40.8,7.4-58.8c-9.5-18-67.3-68.3-74.7-92.7C1555.4,1817.8,1533.1,1779.9,1526.2,1784.4z" class="st2"></path>
	</g>
	<path d="M1089.8,2787.2c0,0,64.6-140,26.5-247c-38.1-107-248.9-90-248.9-90l-27.6,5.5c0,0,187.5,33.4,193.9,92.4
		c6.4,59-29.5,235.8-9,239.1C1045.2,2790.5,1074.1,2800.5,1089.8,2787.2z" class="st26"></path>
	<path d="M3437.2,2445.4c0,0-210.4,25.7-236.7,101.4c-26.3,75.7,42.3,238.9,42.3,238.9s182.8-209.8,194.4-228
		C3448.8,2539.4,3437.2,2445.4,3437.2,2445.4z" class="st11"></path>
	<path d="M3166.8,2787.2c0,0-64.6-140-26.5-247c38.1-107,248.9-90,248.9-90l27.6,5.5c0,0-187.5,33.4-193.9,92.4
		c-6.4,59,29.5,235.8,9,239.1C3211.4,2790.5,3182.4,2800.5,3166.8,2787.2z" class="st26"></path>
	<linearGradient y2="1634.6862" x2="3856.5056" y1="1634.6862" x1="3619.5305" gradientUnits="userSpaceOnUse" id="SVGID_8_">
		<stop style="stop-color:#4085F0" offset="0"></stop>
		<stop style="stop-color:#275DC9" offset="1"></stop>
	</linearGradient>
	<circle r="118.5" cy="1634.7" cx="3738" class="st27"></circle>
	<linearGradient y2="2891.8386" x2="515.1886" y1="2891.8386" x1="97.0326" gradientUnits="userSpaceOnUse" id="SVGID_9_">
		<stop style="stop-color:#68B2FC" offset="0"></stop>
		<stop style="stop-color:#529BF7" offset="1"></stop>
	</linearGradient>
	<circle r="209.1" cy="2891.8" cx="306.1" class="st28"></circle>
	<linearGradient y2="3654.9641" x2="2355.1655" y1="3654.9641" x1="2231.9951" gradientUnits="userSpaceOnUse" id="SVGID_10_">
		<stop style="stop-color:#4085F0" offset="0"></stop>
		<stop style="stop-color:#275DC9" offset="1"></stop>
	</linearGradient>
	<circle r="61.6" cy="3655" cx="2293.6" class="st29"></circle>
	<linearGradient y2="2764.6738" x2="3902.9673" y1="2764.6738" x1="3642.8982" gradientUnits="userSpaceOnUse" id="SVGID_11_">
		<stop style="stop-color:#68B2FC" offset="0"></stop>
		<stop style="stop-color:#529BF7" offset="1"></stop>
	</linearGradient>
	<circle r="130" cy="2764.7" cx="3772.9" class="st30"></circle>
</g>
</svg>
