<svg xml:space="preserve" style="enable-background:new 0 0 6000 4000;" viewBox="0 0 6000 4000" y="0px" x="0px" xmlns:xlink="http://www.w3.org/1999/xlink" xmlns="http://www.w3.org/2000/svg" id="Layer_1" version="1.1">
<style type="text/css">
	.Graphic_x0020_Style_x0020_206{fill:url(#SVGID_1_);}
	.Graphic_x0020_Style_x0020_207{fill:url(#SVGID_2_);}
	.Graphic_x0020_Style_x0020_208{fill:url(#SVGID_3_);}
	.Graphic_x0020_Style_x0020_210{fill:#CCC4CC;}
	.Graphic_x0020_Style_x0020_211{fill:#FFDE70;}
	.Graphic_x0020_Style_x0020_212{fill:#FFFFFF;}
	.Graphic_x0020_Style_x0020_213{fill:#FFB114;}
	.Graphic_x0020_Style_x0020_216{fill:#1A1A1A;}
	.Graphic_x0020_Style_x0020_217{fill:#339E7E;}
	.Graphic_x0020_Style_x0020_218{fill:#102140;}
	.Graphic_x0020_Style_x0020_219{fill:#DB6767;}
	.Graphic_x0020_Style_x0020_220{fill:#152A52;}
	.Graphic_x0020_Style_x0020_221{fill:#D1334A;}
	.Graphic_x0020_Style_x0020_222{fill:#E8766F;}
	.Graphic_x0020_Style_x0020_223{fill:#D9D9D9;}
	.Graphic_x0020_Style_x0020_69{fill:#1A1A1A;}
	.Graphic_x0020_Style_x0020_224{fill:#FC9590;}
	.Graphic_x0020_Style_x0020_68{fill:#102140;}
	.Graphic_x0020_Style_x0020_225{fill:#912433;}
	.Graphic_x0020_Style_x0020_226{fill:#B080B0;}
	.st0{fill:url(#SVGID_4_);}
	.st1{fill:url(#SVGID_5_);}
	.st2{fill:#2C3F50;}
	
		.st3{clip-path:url(#XMLID_2_);fill:none;stroke:#FFFFFF;stroke-width:8.0753;stroke-linecap:round;stroke-linejoin:round;stroke-miterlimit:10;}
	.st4{fill:none;stroke:#1A1A1A;stroke-width:5.3835;stroke-linecap:round;stroke-linejoin:round;stroke-miterlimit:10;}
	.st5{fill:#FC9590;}
	.st6{fill:#4064A9;}
	.st7{fill:#691A25;}
	.st8{fill:#F2A6B1;}
	.st9{fill:#FFFFFF;stroke:#1A1A1A;stroke-width:5.3835;stroke-linecap:round;stroke-linejoin:round;stroke-miterlimit:10;}
	.st10{fill:#1A1A1A;stroke:#1A1A1A;stroke-width:5.3835;stroke-linecap:round;stroke-linejoin:round;stroke-miterlimit:10;}
	.st11{fill:#339E7E;}
	.st12{fill:none;stroke:#10663F;stroke-width:5.3835;stroke-linecap:round;stroke-linejoin:round;stroke-miterlimit:10;}
	.st13{fill:#00593B;}
	.st14{fill:none;stroke:#134411;stroke-width:8.0753;stroke-linecap:round;stroke-linejoin:round;stroke-miterlimit:10;}
	.st15{fill:#DFC262;}
	.st16{fill:url(#SVGID_6_);}
	.st17{fill:url(#SVGID_7_);}
	.st18{fill:url(#SVGID_8_);}
	.st19{fill:url(#SVGID_9_);}
	.st20{fill:url(#SVGID_10_);}
	.st21{fill:url(#SVGID_11_);}
</style>
<linearGradient y2="0" x2="1" y1="0" x1="0" gradientUnits="userSpaceOnUse" id="SVGID_1_">
	<stop style="stop-color:#4085F0" offset="0"></stop>
	<stop style="stop-color:#275DC9" offset="1"></stop>
</linearGradient>
<linearGradient y2="0" x2="1" y1="0" x1="0" gradientUnits="userSpaceOnUse" id="SVGID_2_">
	<stop style="stop-color:#68B2FC" offset="0"></stop>
	<stop style="stop-color:#529BF7" offset="1"></stop>
</linearGradient>
<linearGradient y2="0" x2="1" y1="0" x1="0" gradientUnits="userSpaceOnUse" id="SVGID_3_">
	<stop style="stop-color:#68B2FC" offset="0"></stop>
	<stop style="stop-color:#EBF0F7" offset="1"></stop>
</linearGradient>
<g>
	<g>
		<linearGradient y2="2081.1013" x2="5166.5815" y1="2081.1013" x1="1555.4099" gradientUnits="userSpaceOnUse" id="SVGID_4_">
			<stop style="stop-color:#68B2FC" offset="0"></stop>
			<stop style="stop-color:#529BF7" offset="1"></stop>
		</linearGradient>
		<path d="M1718,1338.7c-22.4,38.8-246.3,440.3-128.5,888.9c125.1,476.3,555.6,701.3,771.1,813.9
			c807.9,422.3,1633.6,97.2,1713.6,64.3c223.4-92.1,1098.2-452.8,1092.4-1156.6c-4-487.1-428.1-936.1-856.8-1028.1
			c-339.8-73-385.3,142.1-921,182.1c-716.4,53.5-1088.4-297.1-1445.8-42.8C1833.9,1137.8,1777.9,1234.9,1718,1338.7z" class="st0"></path>
		<linearGradient y2="2441.2002" x2="4770.1924" y1="2441.2002" x1="741.6912" gradientUnits="userSpaceOnUse" id="SVGID_5_">
			<stop style="stop-color:#4085F0" offset="0"></stop>
			<stop style="stop-color:#275DC9" offset="1"></stop>
		</linearGradient>
		<path d="M1363.1,2566.7c10.1,188.2-636.5,325.9-621.2,421.2c19.9,124,1131.1-0.2,1163.8,157.1
			c20.7,99.4-412.3,199.8-399.8,314.1c19.4,178,1110.7,317.9,2177.7,7.1c488-142.1,935.8-272.6,1056.7-635.4
			c148.4-445.3-289.3-960.5-571.2-1192.3c-752.9-619.1-1899.2-453.8-2541.8-14.3c-239.8,164-585.7,486.8-514.1,692.6
			C1159.8,2450.4,1357.6,2463.4,1363.1,2566.7z" class="st1"></path>
		<path d="M3115.7,2683.7c37.7-2.7,72.7,0,110.4-10.8c13.5-2.7,26.9,2.7,40.4-2.7
			c37.7-16.2,75.4,0,113.1-13.5c5.4-2.7,8.1-10.8,13.5-13.5c51.1-10.8,96.9-26.9,148-35c45.8-8.1,86.1-26.9,131.9-37.7
			c13.5-5.4,26.9-13.5,40.4-18.8c137.3-32.3,279.9-56.5,382.2-161.5c18.8-16.2,40.4-24.2,56.5-40.4c53.8-64.6,105-129.2,175-166.9
			c70-35,150.7-43.1,234.2-35c2.7,0,8.1,8.1,10.8,8.1c18.8,2.7,37.7-2.7,56.5,2.7c95.7,25.4,190.6,37.6,285.6,47
			c-80.1-148.8-188.8-286.7-296.4-399.6v12v63.1h-263.1v146.4h-288.3v159.8h-282.9v149.5h-258.3v151H3295v131.3h-299v76.9
			c34.4-0.9,68.9-2.3,103.6-4.3C3105,2691.8,3110.4,2683.7,3115.7,2683.7z" class="Graphic_x0020_Style_x0020_211"></path>
		<path d="M4628.5,2158.8c-18.8-5.4-37.7,0-56.5-2.7c-2.7,0-8.1-8.1-10.8-8.1c-83.4-8.1-164.2,0-234.2,35
			c-70,37.7-121.1,102.3-175,166.9c-16.2,16.2-37.7,24.2-56.5,40.4c-102.3,105-245,129.2-382.2,161.5c-13.5,5.4-26.9,13.5-40.4,18.8
			c-45.8,10.8-86.1,29.6-131.9,37.7c-51.1,8.1-96.9,24.2-148,35c-5.4,2.7-8.1,10.8-13.5,13.5c-37.7,13.5-75.4-2.7-113.1,13.5
			c-13.5,5.4-26.9,0-40.4,2.7c-37.7,10.8-72.7,8.1-110.4,10.8c-5.4,0-10.8,8.1-16.2,8.1c-34.6,2-69.1,3.4-103.6,4.3v37.6h2036.6
			c26.3-176.2-27.7-359-118.5-527.9C4819.1,2196.4,4724.2,2184.2,4628.5,2158.8z" class="st2"></path>
		<g>
			<defs>
				<path d="M5032.7,2733.7c-4.9,32.7-12.5,65.1-23.2,97.1c-120.9,362.8-568.7,493.3-1056.7,635.4
					c-1066.9,310.8-2158.3,170.8-2177.7-7.1c-12.4-114.3,420.5-214.8,399.8-314.2c-32.7-157.3-1143.9-33.1-1163.8-157.1
					c-10.4-64.5,282.3-148.4,469.5-254.2H5032.7z" id="XMLID_3_"></path>
			</defs>
			<use style="overflow:visible;fill:#B080B0;" xlink:href="#XMLID_3_"></use>
			<clipPath id="XMLID_2_">
				<use style="overflow:visible;" xlink:href="#XMLID_3_"></use>
			</clipPath>
			<line y2="3515.8" x2="679.2" y1="2560.9" x1="1994.7" class="st3"></line>
			<line y2="3541.9" x2="1065" y1="2587" x1="2380.5" class="st3"></line>
			<line y2="3567.9" x2="1450.8" y1="2613" x1="2766.2" class="st3"></line>
			<line y2="3593.9" x2="1836.5" y1="2639" x1="3152" class="st3"></line>
			<line y2="3619.9" x2="2222.3" y1="2665" x1="3537.8" class="st3"></line>
			<line y2="3645.9" x2="2608.1" y1="2691.1" x1="3923.5" class="st3"></line>
			<line y2="3672" x2="2993.8" y1="2717.1" x1="4309.3" class="st3"></line>
			<line y2="3698" x2="3379.6" y1="2743.1" x1="4695" class="st3"></line>
			<line y2="3724" x2="3765.4" y1="2769.1" x1="5080.8" class="st3"></line>
		</g>
		<path d="M3335.2,1009L3262.6,747l-22.4,5.7c55.4,95.4,10.5,214.7,20.9,321.4
			c0.6,5.6,3.1,10.1,6.8,14C3312,1060.3,3335.2,1009,3335.2,1009z" class="Graphic_x0020_Style_x0020_216"></path>
		<path d="M3240.2,752.7l-11.5,2.9c0,0,13,294.2-49.7,345c35.5,10.4,65.2,2.3,88.9-12.5
			c-3.7-3.8-6.2-8.4-6.8-14C3250.7,967.3,3295.6,848,3240.2,752.7z" class="Graphic_x0020_Style_x0020_218"></path>
		<g>
			<path d="M2940.8,1375.5c16.2-10.8,32.3-29.6,35-48.5c8.1-137.3,13.5-271.9-26.9-406.5
				c-9.2-39.2-44.2-60.6-77.7-79.5l-7.2,24.6c0,0-8.9,366.8-5.4,477.5c0.6,18.1,2.1,34.1,4.6,48.4
				C2889.9,1395.5,2918.5,1390.4,2940.8,1375.5z" class="Graphic_x0020_Style_x0020_212"></path>
			<path d="M2990.1,1012.6c-3.6-146.4-115.7-182.3-115.7-182.3l-3.2,10.7
				c33.5,18.9,68.4,40.3,77.7,79.5c40.4,134.6,35,269.2,26.9,406.5c-2.7,18.8-18.8,37.7-35,48.5c-22.3,14.9-50.9,20-77.6,16
				c12.6,73.2,49.2,98.6,105.2,97.1C3035.3,1486.8,2993.6,1159,2990.1,1012.6z" class="Graphic_x0020_Style_x0020_223"></path>
			<path d="M2604.3,3292c13.7-1.1,25.4-6.7,35.3-14.9c-3.9-8-6.6-13.1-6.6-13.1h-104.7
				c0,0-3,10.6-7.1,26.9C2539.6,3306,2583.4,3294.1,2604.3,3292z" class="Graphic_x0020_Style_x0020_212"></path>
			<path d="M2675.9,3371.3c-1.8-21.4-24.7-70.6-36.3-94.1c-9.9,8.2-21.6,13.9-35.3,14.9
				c-20.9,2.1-64.7,14-83.1-1.2c-12.6,48.9-36.3,148.6-23.8,161.1c16.7,16.7,129.7,38.1,168.4,19
				C2704.5,3452,2678.3,3400,2675.9,3371.3z" class="Graphic_x0020_Style_x0020_216"></path>
			<path d="M2450.9,2656.8c-64.6-325.7-64.6-637.9,10.8-958.3
				c11.5-43.9,25.1-85.8,37.2-129.1l-88.3-10.6c0,0-77.7,82.4-69.2,467.9c8.5,385.5,177.2,1247.7,177.2,1247.7s23.6,4.2,50.2,7
				c-4.1-26.7-9-53.6-15.6-80.9C2512.8,3014.8,2488.6,2845.2,2450.9,2656.8z" class="Graphic_x0020_Style_x0020_218"></path>
			<path d="M2668.9,1709.3c3-0.7,6-1.6,9.1-2.5l9.3-114.7l-188.4-22.7
				c-9,32.3-18.9,63.9-28.1,96.1C2529.5,1702.7,2602.4,1725.9,2668.9,1709.3z" class="Graphic_x0020_Style_x0020_218"></path>
			<path d="M2668.9,1709.3c-66.6,16.6-139.4-6.6-198.2-43.8c-3.1,10.9-6.2,21.9-9.1,33
				c-75.4,320.3-75.4,632.6-10.8,958.3c37.7,188.4,61.9,358,102.3,543.7c6.6,27.3,11.5,54.2,15.6,80.9c33.6,3.6,71.9,5,73.2-7
				c2.4-21.4-4-908.3,10.3-1125c53.5-224.9,18.9-358.2,18.9-358.2l6.8-84.3C2675,1707.7,2671.9,1708.6,2668.9,1709.3z" class="Graphic_x0020_Style_x0020_220"></path>
			<path d="M2685.1,3068.6c25.6,10,55,7.1,79-5.3c-5.6-11.9-10.8-22.7-10.8-22.7l-66.5-22.3
				c0,0-14.8,12.4-25.9,26.6C2666,3055.6,2674.4,3065.1,2685.1,3068.6z" class="Graphic_x0020_Style_x0020_212"></path>
			<path d="M2833.6,3212.8c-8.9-31.2-54.4-116-61.6-132.1c-2.4-5.3-5.2-11.5-8-17.4
				c-24,12.4-53.4,15.3-79,5.3c-10.7-3.6-19-13-24.2-23.7c-9.5,12.2-16.3,25.8-8.4,34.1c17,17.8,48.2,136.5,50,169.6
				c1.8,33,74.1,90.1,106.2,79.4C2840.7,3317.2,2842.5,3244.1,2833.6,3212.8z" class="Graphic_x0020_Style_x0020_216"></path>
			<path d="M2741.6,2323c-2.7-21.5-8.1-40.4-13.5-61.9c-10.8-32.3-21.5-67.3-43.1-96.9
				c-11.9-17.9-22.7-36.8-32.8-56.1c24.3,154.7,72.4,405.1,72.4,405.1s-69.6,351.6-64.3,515.8c1.9,4.3,4.7,7.9,8.2,10.8
				c7-127.2,39.3-250.9,64.9-383C2755,2541,2763.1,2438.8,2741.6,2323z" class="Graphic_x0020_Style_x0020_218"></path>
			<path d="M2873.5,1679.7c-21.5-10.8-48.5,0-75.4,5.4c-51.5,15.7-118,33.2-171.4,16.9
				l11.8,295.3c0,17.1,5.5,58.5,13.7,110.8c10,19.3,20.9,38.3,32.8,56.1c21.5,29.6,32.3,64.6,43.1,96.9
				c5.4,21.5,10.8,40.4,13.5,61.9c21.5,115.7,13.5,218-8.1,333.8c-25.6,132.1-57.8,255.7-64.9,383c26.9,22.4,95.3,7.1,95.3,7.1
				s153.5-548,171.4-625.5c17.7-76.9-1.5-406.4-0.1-554.2c-1-2.3-1.9-4.6-2.6-7.1C2911.2,1800.8,2940.8,1706.6,2873.5,1679.7z" class="Graphic_x0020_Style_x0020_220"></path>
			<path d="M2887.7,1583.8l-264.8,24.4l3.8,93.8c53.4,16.3,119.9-1.2,171.4-16.9
				c26.9-5.4,53.8-16.2,75.4-5.4c67.3,26.9,37.7,121.1,59.2,180.3c0.7,2.4,1.6,4.8,2.6,7.1c0-1.1,0-2.3,0-3.4
				C2937.1,1717.6,2887.7,1583.8,2887.7,1583.8z" class="Graphic_x0020_Style_x0020_218"></path>
			<path d="M2382.9,1596.6c0,0,88.4,66.9,268.6,73.2c180.3,6.2,250.8-39.4,250.8-39.4
				l-2.6-38.3l-502.6-27.7L2382.9,1596.6z" class="Graphic_x0020_Style_x0020_216"></path>
			<path d="M2251.7,1181.7c5.4-26.9,8.1-53.8,13.5-80.8c23.2-110.7,41.4-246,158.4-288.2
				l-7-19.1c0,0-175.5,88.1-184.4,270.1c-4.4,90.4-23,213.1-28.1,293.3c-12.5,70.6-4.3,126.6,37.9,158.7c12.6,5.5,25.8,8.8,38.7,9.2
				C2207.4,1442.7,2228.7,1294.4,2251.7,1181.7z" class="Graphic_x0020_Style_x0020_223"></path>
			<path d="M2357,1361.3c0,0,35.3-136.8,28.8-261.3l120.7-21.3
				c-3.8-12.5-24.5-106.5-24.5-106.5l-58.5-159.4c-116.9,42.2-135.2,177.5-158.4,288.2c-5.4,26.9-8.1,53.8-13.5,80.8
				c-23,112.7-44.3,261,28.9,343.3C2330,1526.7,2374.3,1486.1,2357,1361.3z" class="Graphic_x0020_Style_x0020_212"></path>
			<path d="M2695.8,872.1c5.4-2.7,16.2-2.7,21.5,0c44.9,27.4,94.4,38.7,144.3,31.6
				c1.7-30.6,4.2-58.7,7.7-76.6c-61.9-45.2-185.1-110.8-189.9-109.7c-4.8,1.2-83.3,0-83.3,0s-50.3,21.9-106.2,53.5
				C2533.5,840.3,2604.5,929.5,2695.8,872.1z" class="Graphic_x0020_Style_x0020_223"></path>
			<path d="M2861.7,903.7c-49.9,7.1-99.4-4.1-144.3-31.6c-5.4-2.7-16.2-2.7-21.5,0
				c-91.3,57.4-162.4-31.8-205.9-101.1c-19.9,11.3-40.5,23.8-59.8,37l465.1,344.4c5.5-36.9-45.1-80.9-37.5-94.9
				C2857.7,1057.5,2857.7,974.2,2861.7,903.7z" class="Graphic_x0020_Style_x0020_212"></path>
			<path d="M2695.8,1022.9c-18.8-24.2-2.7-56.5,5.4-80.8c4.3-15.1,0-28.6-4.7-43h-15.9
				l-26.9,116.5l52.2,58.9c0,0,32-22.3,42.8-30.1C2728.4,1044.5,2709.4,1040.5,2695.8,1022.9z" class="Graphic_x0020_Style_x0020_225"></path>
			<path d="M2749.3,991.5l-43.3-92.4h-9.5c4.7,14.5,9,27.9,4.7,43
				c-8.1,24.2-24.2,56.5-5.4,80.8c13.6,17.6,32.6,21.6,52.9,21.5c1.8-1.3,3-2.2,3.3-2.5C2754.6,1039.7,2749.3,991.5,2749.3,991.5z" class="Graphic_x0020_Style_x0020_221"></path>
			<path d="M2521.2,747c0,0,187.4,243.6,189.2,315l86.6-279.2l87.1,47.6
				c0,0,5.4,237,27.4,288.8c-28,153.3-26.2,395.1-7.2,476.6c-46.4,36.9-362.3,83.3-512.9-26.8c4.8-49.4,4.5-458.1-8.6-481.9
				c73.8-29.7,70.5-114.8,65.7-158.9c-4.8-44-56.3-132.3-56.3-132.3L2521.2,747z" class="Graphic_x0020_Style_x0020_220"></path>
			<path d="M2706,1085.2c0,0-37.9,433.3-14,547.8" class="st4"></path>
			<path d="M2912.3,1253.2c38.9,54.5,60.8,144.8,6.9,181.5c-11.3,7.5-23.8,7.5-35.6,2.5
				c14.1,29.6,31.8,52.6,52.5,49.6c53.5-7.7,55.7-34.5,67.3-77.5C3013.6,1371.5,2953.3,1290.5,2912.3,1253.2z" class="Graphic_x0020_Style_x0020_219"></path>
			<path d="M2919.2,1434.7c53.9-36.8,32-127-6.9-181.5c-5.7-5.1-11-9.5-15.7-12.7c-38.7-26.8-101.7,65.4-101.7,65.4
				s48.2,14.3,51.2,18.4c1.8,2.6,15.2,65.9,37.5,112.8C2895.4,1442.2,2908,1442.2,2919.2,1434.7z" class="st5"></path>
			<polygon points="2675.6,1261.9 2969.3,1333.3 2875.5,1469.8 2594.7,1425.8" class="Graphic_x0020_Style_x0020_213"></polygon>
			<path d="M2185.2,1399.2c0,0,90.3-123,183.7-63.5c-4.2,35.7-4.2,35.7-4.2,35.7
				s-33.3,126.7-38.7,136.8s-32.7,32.7-63.1,29.2S2162.6,1487.8,2185.2,1399.2z" class="Graphic_x0020_Style_x0020_212"></path>
			<path d="M2440.1,1493.9c105,5.4,210-5.4,317.6-13.5c53.4-2.1,94.3-32.4,119-76.5c-45.2,4.9-149.6,8.5-165.1,8.5
				c-14.3-7.7,24.4-43.4,10.1-66c-14.3-22.6-33.3-20.2-37.5,6.5c-4.2,26.8-57.7,29.7-75,46.4c-17.3,16.7-7.7,40.5-39.9,36.9
				c-28.4-3.2-172.5-59.3-205.6-72.3c-39.6,2.6-79.2,8.4-105.4,39c-0.2,0.2-0.3,0.4-0.5,0.6
				C2292.5,1465.7,2372,1489.4,2440.1,1493.9z" class="st5"></path>
			<path d="M2892.5,1401.7c-3.6,0.8-9,1.5-15.7,2.2c-24.7,44.2-65.6,74.5-119,76.5
				c-107.7,8.1-212.6,18.8-317.6,13.5c-68.1-4.5-147.6-28.2-182.2-90.4c-22.5,26-22.9,58.4-14.1,89.9c3,2.1,6.2,4.1,9.7,5.8
				c91,44.6,230.6,2.5,357.7,8.1c126.6,0,240.9,3.8,273.6-39.6C2917.5,1424.3,2920.5,1395.8,2892.5,1401.7z" class="Graphic_x0020_Style_x0020_222"></path>
			<path d="M2808.9,546.4c-32.3-43.1-40.4-91.5-70-137.3c-1.1-1.1-2.2-2.4-3.2-3.7c-45.3,7.6-83.2,44.1-90.1,125.8
				c-1.1,13.3-2.8,26.8-4.8,40.2c50.1,48.3,4.9,139.3,12,201c2.3,19.9,12.2,35.2,26.9,46.8c15.9,3.5,32.8,4.4,50.4,0.8
				c27.7-37.5,27.7-37.5,27.7-37.5c5.4-33.5-8.1-39.4,6.6-61.8c0,0,19.3,11.9,42.4,2.3c21.7-9,57-78,81.5-131.1
				C2857.3,588.1,2828.2,573.5,2808.9,546.4z" class="st5"></path>
			<path d="M2735.7,405.4c1,1.3,2,2.6,3.2,3.7c29.6,45.8,37.7,94.2,70,137.3
				c19.3,27,48.4,41.7,79.4,45.6c16-34.7,27.4-62.5,27.4-62.5C2905.4,458.6,2810.4,392.8,2735.7,405.4z" class="Graphic_x0020_Style_x0020_222"></path>
			<path d="M2652.8,772.6c-7.1-61.7,38-152.7-12-201c-15.5,100.9-53.7,196.7-64.8,182.9
				c0,0,43.9,51.6,103.7,64.9C2665,807.8,2655.1,792.5,2652.8,772.6z" class="Graphic_x0020_Style_x0020_219"></path>
			<path d="M2592.5,708.7c30,45.4,15.6,74.5,92.5,113.7c-35.3,16.9-49.2,39.2-61.1,28.1
				s-101.7-75-86.6-116.9C2578.3,690.7,2592.5,708.7,2592.5,708.7z" class="Graphic_x0020_Style_x0020_212"></path>
			<path d="M2760.2,743.4c0,0,10.2,68.5-54.3,79c17.8,43.7,55.8,26.3,55.8,26.3
				s21.9-58.5,30.8-72.7C2787.2,762.6,2760.2,743.4,2760.2,743.4z" class="Graphic_x0020_Style_x0020_212"></path>
			<path d="M2926.7,485.5c0.1-7.1-2-12.2-5.1-15.8c-9.5-40.6-30-87.5-68.2-105.6
				c-71.5-33.9-197.9-6.2-221.7,79.4c-23.9,85.7-19.5,178.5-19.5,178.5l19.5,22.3c0,0,28.6-52.6,39.8-58.8
				c11.2-6.2-36.2-31.4-4.3-72.4c31.9-41,40.8,23.5,40.8,23.5s-8,24.4-2,23.5c6-0.9,12.2-9.5,12.2-14.8c0-5.4,11.2-27.7,22.8-23.2
				c11.6,4.5,19.4-25,21.1-42.8c1.7-17.8,35.3,44.6,63.8,66.9c12.2,9.6,30.8,10.4,48.7,7.9l0,0c0,0,76.7,1.1,81-38.7
				C2943,525.6,2926.4,510,2926.7,485.5z" class="Graphic_x0020_Style_x0020_220"></path>
			<path d="M2679.7,877.5c-4.9-17.3,1.5-32.3,8.8-47.2h-5.3l-21,42l18.3,25.4h25.4l1.1-1.8
				C2695.6,894.2,2685.4,888.9,2679.7,877.5z" class="Graphic_x0020_Style_x0020_225"></path>
			<path d="M2702.8,830.3h-14.4c-7.3,14.8-13.7,29.9-8.8,47.2c5.7,11.4,15.9,16.7,27.4,18.4
				l14.5-22.7L2702.8,830.3z" class="Graphic_x0020_Style_x0020_221"></path>
			<path d="M2706,686.2c0,0,49.8,31.3,58.4,34.7c-6.1,10.9-7.5,17.2-7.5,17.2
				C2749.8,734.9,2704.2,718.8,2706,686.2z" class="Graphic_x0020_Style_x0020_219"></path>
		</g>
		<g>
			<g>
				<path d="M3410.2,3198.3c-21.5,5.4-48,3.1-66-11.5c22.6,78.1,62.8,102.6,88.6,97.2
					c16.8-3.5,18-58.1,16-110.8C3438.4,3185.5,3423.9,3194.1,3410.2,3198.3z" class="Graphic_x0020_Style_x0020_218"></path>
				<path d="M3401.1,3187.1c26.9-8.1,24.2-43.1,21.5-70c-2.4-40.8-15.4-79.4-16.4-119.7
					l-48.5-19c0,0-38.1,47.6-22.6,169c1.2,7,2.6,13.7,4,20.1C3355.9,3185.3,3375,3196.7,3401.1,3187.1z" class="Graphic_x0020_Style_x0020_224"></path>
				<path d="M3443.5,3078.4c0-32.1-30.9-78.5-30.9-78.5l-6.3-2.5
					c0.9,40.3,14,78.9,16.4,119.7c2.7,26.9,5.4,61.9-21.5,70c-26.1,9.6-45.1-1.8-61.9-19.5c1.5,6.7,3.2,13.2,4.9,19.2
					c18,14.5,44.6,16.8,66,11.5c13.7-4.1,28.2-12.8,38.5-25.1C3447.1,3132.2,3443.5,3092.4,3443.5,3078.4z" class="Graphic_x0020_Style_x0020_222"></path>
				<path d="M3498,1847.7c-33.1-1.2-66.5-9.7-99.7-28c-30.5-17-65.4-33.9-100.4-38.8
					l43.2,1223.1c17.3,8.9,35,13.9,53.1,15.5c0.8-34.9,3.6-69.9,6.9-104.3c5.4-53.8,13.5-102.3,24.2-156.1
					c2.7-5.4,8.1-8.1,10.8-13.5c2.7-37.7,10.8-75.4,21.5-113.1c26.9-88.8,51.1-177.7,59.2-269.2c13.5-153.4,18.8-301.5-8.1-457.6
					C3505.5,1886.3,3502,1866.9,3498,1847.7z" class="Graphic_x0020_Style_x0020_220"></path>
				<path d="M3498,1847.7c-12.1-58.3-28.9-114.4-58.3-164.5l-144.7,14.2l2.9,83.5
					c35.1,4.8,69.9,21.8,100.4,38.8C3431.5,1838,3465,1846.5,3498,1847.7z" class="Graphic_x0020_Style_x0020_218"></path>
				<path d="M3349.8,1907.6c0,0,48,318.3,40.3,580.3s-22.3,526.7-22.3,526.7l-36.3-21.5
					C3331.5,2993.1,3298.8,1960.2,3349.8,1907.6z" class="Graphic_x0020_Style_x0020_68"></path>
				<path d="M3546.6,1718.8l-88.3-37.5l-18.6,1.8c39.2,66.6,55.9,143.7,69,222.6
					c26.9,156.1,21.5,304.2,8.1,457.6c-8.1,91.5-32.3,180.3-59.2,269.2c-10.8,37.7-18.8,75.4-21.5,113.1c-2.7,5.4-8.1,8.1-10.8,13.5
					c-10.8,53.8-18.8,102.3-24.2,156.1c-3.3,34.5-6.1,69.4-6.9,104.3c12.3,1.1,24.8,0.7,37.4-1.3l115.1-407.9
					c0,0,16.1-200.8,63-473.9C3656.5,1863.4,3551.2,1742.4,3546.6,1718.8z" class="Graphic_x0020_Style_x0020_218"></path>
				<path d="M3380.6,3359.5c-10.9,13.4-26.6,21.5-48,21.5c-27.2,0-64.8,0-86.7-20.4
					c-1,11.4-1.3,20.4-0.5,25.4c4.8,29.2,21.2,68.4,86.1,64.9c65-3.6,51.3-77.3,51.3-77.3L3380.6,3359.5z" class="Graphic_x0020_Style_x0020_218"></path>
				<path d="M3323,3313.6c-36.3-27.7-40.4-75.8-39.2-121.3l-10.5,0.9
					c0,0-22.5,112.3-27.5,167.4c21.9,20.4,59.5,20.4,86.7,20.4c21.4,0,37-8.1,48-21.5l-5.1-32.1
					C3355.9,3328.4,3336.1,3323.1,3323,3313.6z" class="Graphic_x0020_Style_x0020_222"></path>
				<path d="M3283.8,3192.3c-1.2,45.5,2.9,93.6,39.2,121.3c13.1,9.5,32.9,14.8,52.4,13.8
					l-22.4-141.4L3283.8,3192.3z" class="Graphic_x0020_Style_x0020_224"></path>
				<path d="M3166.9,2506.1c-2.7-10.8,2.7-24.2,0-35c-21.5-83.4-43.1-156.1-59.2-242.3
					c-10.8-51.1-29.6-96.9-37.7-145.4c-13.5-88.8-2.7-175,21.5-261.1c14.9-64.6,73.4-94.8,111.9-143.6l-60.1-13.5
					c0,0-158,136.5-63.4,546.2s177.6,998.7,177.6,998.7c9.9,7.5,19.9,12.7,29.8,15.8C3293.5,2981.5,3254.8,2732.1,3166.9,2506.1z" class="Graphic_x0020_Style_x0020_218"></path>
				<path d="M3203.5,1678.8c-38.5,48.7-96.9,78.9-111.9,143.3
					c47.8,5.3,100.4-17.9,145.3-34.8c38-15.2,78.7-6.2,116.4,9.8l4.9-83.7L3203.5,1678.8z" class="Graphic_x0020_Style_x0020_218"></path>
				<path d="M3236.9,1787.4c-44.9,16.8-97.5,40.1-145.3,34.8c0,0.1,0,0.2-0.1,0.2
					c-24.2,86.1-35,172.3-21.5,261.1c8.1,48.5,26.9,94.2,37.7,145.4c16.2,86.1,37.7,158.8,59.2,242.3c2.7,10.8-2.7,24.2,0,35
					c87.9,226,126.6,475.4,120.4,719.9c28.1,8.7,56.3-0.2,84.6-26.5c0,0-24.9-1132.5-30.8-1196.8l12.1-205.5
					C3315.6,1781.1,3274.9,1772.2,3236.9,1787.4z" class="Graphic_x0020_Style_x0020_220"></path>
				<path d="M3110,1710c0,0,313.7,99.8,455.7,61.4c-7.7-42.2-7.7-42.2-7.7-42.2l-406.8-60.4
					L3110,1710z" class="Graphic_x0020_Style_x0020_69"></path>
			</g>
			<path d="M3358,1625.8c-8.1-29.6-5.4-61.9,8.1-88.8c40.4-80.8,78.1-161.5,94.2-253
				c17.3-96.2,2.9-190.1,2.4-283.9l-33.6-12.5l-135,29.5c-86.1,177.3-30,346.3,50.4,501c37.4,72-29.9,142.6-78.9,205.9
				c40,8.5,84.8,15.9,131.1,20c-11.9-29-19.7-61.8-28-88.6C3366.1,1644.7,3363.4,1636.6,3358,1625.8z" class="Graphic_x0020_Style_x0020_212"></path>
			<path d="M3598.5,1733.7c-45.5-234.4,11.2-678.9,11.2-678.9l-146.9-54.7
				c0.5,93.7,14.8,187.7-2.4,283.9c-16.2,91.5-53.8,172.3-94.2,253c-13.5,26.9-16.2,59.2-8.1,88.8c5.4,10.8,8.1,18.8,10.8,29.6
				c8.3,26.8,16.1,59.6,28,88.6C3464.1,1750,3534.7,1749,3598.5,1733.7z" class="Graphic_x0020_Style_x0020_223"></path>
			<path d="M3344.5,1518.2c-82.7-156.3-134.2-326-50.4-501l-44.7,9.8
				c0,0-88.1,42.8-90.4,55.9c-2.4,13.1-52.4,595-52.4,595c0,1.7,66.5,26.7,158.9,46.3C3314.6,1660.8,3382.5,1589.8,3344.5,1518.2z" class="Graphic_x0020_Style_x0020_223"></path>
			<path d="M3209.5,609.2c0,0,46.4,19.6,22.3,54.4c-24.1,34.8-17.8,133.9-38.8,174
				c-3.1-36.6,7.6-63.4-19.2-96.4C3147,708.3,3160.4,584.2,3209.5,609.2z" class="Graphic_x0020_Style_x0020_218"></path>
			<path d="M3282,992.9c-43.1,21.8-125.9,73.9-55.7,123.9c14.5,10.3,31.6,18.8,50.3,25.4
				C3276.3,1092.2,3279.7,1043.2,3282,992.9z" class="Graphic_x0020_Style_x0020_222"></path>
			<path d="M3309.6,699.9c10.8-2.7,18.8-10.8,29.6-5.4c26.9,16.2,10.8,56.5,24.2,78.1
				c2.7,5.4,18.8,0,26.9,5.4c16.2,13.5-2.7,29.6-8.1,43.1c-10.2,29,1.6,54.1,22.6,69.4l-6.3-13.4c0,0,36.6-74.7,25-130
				s-35.7-116.3-134.8-124.3c-98.8-8-88.4,30.2-88.4,30.3C3218.5,693.5,3266,711.3,3309.6,699.9z" class="Graphic_x0020_Style_x0020_222"></path>
			<path d="M3476.5,1003.7c-7.5-1.8-14.6-5-29.4-22.6l-42.4-90.7c-21-15.3-32.7-40.4-22.6-69.4
				c5.4-13.5,24.2-29.6,8.1-43.1c-8.1-5.4-24.2,0-26.9-5.4c-13.5-21.5,2.7-61.9-24.2-78.1c-10.8-5.4-18.8,2.7-29.6,5.4
				c-43.6,11.5-91.1-6.4-109.1-46.9c0,0,0,0,0,0s-57.1,272.1,66,285.6c28.6-11.6,28.6-11.6,28.6-11.6l9.8,55.3
				c0,0-9.5,3.9-22.9,10.6c-2.3,50.3-5.6,99.3-5.4,149.3c61,21.7,138.1,23.4,193.8,4.7C3477.3,1099.2,3476.8,1051.4,3476.5,1003.7z" class="st5"></path>
			<path d="M3487.7,1006.4c-4.3-1.4-7.7-1.9-11.1-2.7c0.3,47.7,0.7,95.4-6.2,143.2
				c34.9-11.7,61.4-31.4,70.1-59.3C3552.6,1048.6,3518.5,1017.2,3487.7,1006.4z" class="Graphic_x0020_Style_x0020_222"></path>
			<path d="M3067.3,1488.6c-32.7-45.8-26.6-98.7-40.2-145.7c-10.3,88.1-16,173.9-2.5,190.9
				c27.4,34.5,89.2,60.7,109.5,53.5c4.6-1.6,7.5-26.6,8.6-64.8c-2.7,0.5-5.4,0.8-8.1,1C3107.7,1526.2,3083.4,1510.1,3067.3,1488.6z" class="Graphic_x0020_Style_x0020_218"></path>
			<path d="M3104.3,1074.5c0,0-36.9,14.3-46.4,61.9c-4.8,24.1-20.3,116.5-30.8,206.5
				c13.7,47,7.5,99.9,40.2,145.7c16.2,21.5,40.4,37.7,67.3,35c2.7-0.2,5.4-0.6,8.1-1C3146.6,1394,3131.8,1115.8,3104.3,1074.5z" class="Graphic_x0020_Style_x0020_220"></path>
			<path d="M3270,999.2c-42.5,16.1-89.6,33.3-125.6,50.1c17.9,19.1,27.9,49.7,27.9,73.2
				c2.7,123.8,2.7,261.1,102.3,349.9c11.6,11.6,27.7,22.1,45.2,29.3C3196.8,1315.9,3270,999.2,3270,999.2z" class="st6"></path>
			<path d="M3142.7,1747c-13.5-64.6,29.6-113.1,43.1-175c10.6-53.2-12.4-101.4-53.2-131.2
				c-3.7,41.2-11.7,94.8-15.2,118c-3,20.2-43.6,147-55.9,185.3c30.6,28.5,72.1,53.3,112.5,54.4c2.4-1.2,4.8-2.6,7.2-4.2
				C3161.8,1785.5,3147,1770.8,3142.7,1747z" class="Graphic_x0020_Style_x0020_218"></path>
			<path d="M3057.9,1755.1c0,0,32.1,27.4,85.7,47.6c8.9,3.4,19.2,1.6,30.4-4.2
				c-40.4-1.1-82-25.9-112.5-54.4C3059.2,1751.1,3057.9,1755.1,3057.9,1755.1z" class="Graphic_x0020_Style_x0020_216"></path>
			<path d="M3341.1,1530.2c-7.7-9.1-14.8-18.6-21.3-28.5c-17.6-7.2-33.7-17.7-45.2-29.3
				c-99.6-88.8-99.6-226.1-102.3-349.9c0-23.5-10-54.1-27.9-73.2c-24.4,11.3-43.7,22.4-53.1,32.9l31.1,233.9
				c6.8,57.3,11.7,106.6,10.5,121.4c-0.1,1.1-0.2,2.2-0.3,3.4c40.7,29.8,63.8,78,53.2,131.2c-13.5,61.9-56.5,110.4-43.1,175
				c4.3,23.9,19.2,38.5,38.5,47.4C3236.3,1758.5,3308.8,1633.8,3341.1,1530.2z" class="Graphic_x0020_Style_x0020_220"></path>
			<path d="M3536,1033.4l90.1,176.8c-6.9,57.3,20.2,156.8,33,199.2
				c48,19.4,87.2,66,124.2,103.5c-3.9-131.7-43.5-376.8-75.7-421.9C3675.5,1045.9,3540,1037.7,3536,1033.4z" class="Graphic_x0020_Style_x0020_220"></path>
			<path d="M3593.6,1038.7l-108.7-36.8c0,0,36.7,297.4-68.8,470.6c2.2-0.9,4.4-1.8,6.5-2.8
				C3577.3,1394.9,3597.9,1199.7,3593.6,1038.7z" class="st6"></path>
			<path d="M3581.4,1655.5c37.7-80.8,18.8-166.9,29.6-253c0.5-4.1,1.5-8,2.8-11.8
				c3.6-77.3,11.6-149.4,27.1-198.4l17-131.8l-64.4-21.8c4.3,161-16.3,356.2-171,431c-2.1,1-4.3,1.9-6.5,2.8
				c-15.9,26.1-35,49.4-58,68.4c0,0,21.5,116.2,56,197.9C3480.8,1757.8,3549.8,1718.7,3581.4,1655.5z" class="Graphic_x0020_Style_x0020_220"></path>
			<path d="M3611,1402.4c-10.8,86.1,8.1,172.3-29.6,253c-31.6,63.3-100.6,102.3-167.3,83.4
				c17.8,42.3,39.1,75.3,62.6,78.2c69,8.3,144.8-29.7,144.8-29.7s-16.3-212.9-7.7-396.6C3612.5,1394.4,3611.6,1398.4,3611,1402.4z" class="Graphic_x0020_Style_x0020_218"></path>
			<polygon points="3627.7,1067.5 3374.2,1471 3362.2,1503.1 3371.9,1520.7 3611.9,1529.2 3890.9,1126.8 3881.1,1109.2" class="st7"></polygon>
			<polygon points="3637.4,1085.2 3384,1488.7 3371.9,1520.7 3621.6,1546.9 3890.9,1126.8" class="Graphic_x0020_Style_x0020_221"></polygon>
			<polygon points="3649.8,1189.3 3777.1,1225.1 3769.4,1240.5 3645.4,1205.3" class="st8"></polygon>
			<polygon points="3631,1223.2 3758.3,1259 3750.6,1274.4 3626.5,1239.2" class="st8"></polygon>
			<path d="M3663.6,1413.4c1.1,3.6,1.8,5.6,1.8,5.6S3675,1422.4,3663.6,1413.4z" class="st9"></path>
			<path d="M3664.9,1545.1c21.5,16.2,51.1,18.8,67.3,2.7c20.1-18.2,33.4-40.2,43.6-63.9
				l-46.2-35.1c-46.5-30.3-104.8-61.8-131.2-78c-27.1,4.9-40.1,32.5-46.3,56.1C3580.3,1472.5,3617.4,1510.6,3664.9,1545.1z" class="Graphic_x0020_Style_x0020_220"></path>
			<path d="M3775.8,1483.9c-10.2,23.8-23.5,45.7-43.6,63.9c-16.2,16.2-45.8,13.5-67.3-2.7
				c-47.5-34.5-84.6-72.6-112.7-118.2c-5,19.2-5.6,35.8-5.6,35.8s75,112.5,110.7,133s76.5-7.1,115.7-36.9
				c8.6-6.5,11.3-32.4,10.2-69.2L3775.8,1483.9z" class="Graphic_x0020_Style_x0020_218"></path>
		</g>
		<path d="M3016.6,1372.6c0,0-1.3,110.2,0.5,127.6l45-19.5c-24.9-40.7-22.7-86.2-32.5-128
			C3021.6,1363.3,3016.6,1372.6,3016.6,1372.6z" class="Graphic_x0020_Style_x0020_218"></path>
		<path d="M3111.2,1378.8c0-21.4-4.5-51.8-34.7-56.2c-17.8-2.6-35.3,15.1-46.8,30.2
			c9.8,41.8,7.6,87.3,32.5,128l56.1-24.3C3118.3,1456.5,3111.2,1400.2,3111.2,1378.8z" class="Graphic_x0020_Style_x0020_220"></path>
		<path d="M3022.4,1376.1c0,0,0.4,25.1,27.7,23.5c27.2-1.6,61.6-36.3,49.1-57.3S3039.3,1341.3,3022.4,1376.1z" class="st10"></path>
		<path d="M3022.5,1367.3c0,0-22.5-81.2-14.8-103.2c7.7-22,20.6-55.4,40.3-58.8c38-19.9,62.9-24.2,68.8-6.1
			c5.9,18.2,24.3,74.9,19,85.4s-41.1,31-45.8,41.6c-4.7,10.6,9.7,12.2,2.4,36.1C3085.1,1386.1,3037.5,1398.4,3022.5,1367.3z" class="st5"></path>
		<path d="M3606,1380.2c0,0,21,21.4-2.2,62.5c-23.2,41.1-49.1,25.9-50.9,17.8c-1.8-8,11.2-46.4,22.3-63.4
			C3586.4,1380.2,3599.8,1375.2,3606,1380.2z" class="st10"></path>
		<path d="M3602,1390.4c0,0-17-33.3-30.6-82.1s-102.3-33.9-102.3-33.9s-45.8,91-35.7,104.1
			c10.1,13.1,113.6,60,124.9,77.1C3581.2,1490.4,3619.8,1408.7,3602,1390.4z" class="st5"></path>
		<path d="M3328.9,910.7l-33.9,16.2l6.4,36.3C3301.4,963.2,3332,925.4,3328.9,910.7z" class="Graphic_x0020_Style_x0020_219"></path>
		<path d="M3460.3,958.3c-5-55.5-36-96.7-75.3-128.3c-1.3,10.9,3.6,25.6,13.6,47
			c16.4,35.2-1.5,108.3,78.2,133.3c42.8,13.4,66.4,24.8,78.9,35.7c-2.7-7.3-6.5-14.1-11.9-20.4
			C3516.8,998.7,3465.7,998.7,3460.3,958.3z" class="Graphic_x0020_Style_x0020_216"></path>
		<path d="M3577.9,1034c63.1,26.2,44.6,9.2,75.4,24.9c0-57-123.5-86.3-145.3-153.4
			c-21.8-67.1,0-245.1-59.1-300.8c-96.2-90.7-235.1-16.1-232.8,16.8c0,0,14.9,74.2,85.7,55.5c70.8-18.7,79.4,41.6,68.3,65.4
			c-11.1,23.8-0.1,30.4,15.9,15.2c16-15.2,52.7,24.1,9.8,55c-6.5,4.7-10,10.3-10.9,17.3c39.3,31.5,70.3,72.8,75.3,128.3
			c5.4,40.4,56.5,40.4,83.4,67.3c5.4,6.3,9.2,13.1,11.9,20.4c10.8,9.5,13.3,18.6,12.8,28.5C3568.4,1074.5,3614.8,1066.2,3577.9,1034
			z" class="Graphic_x0020_Style_x0020_218"></path>
		<g>
			<g>
				<path d="M4986.6,2821.9c4.8,21.8,21.1,38.4,33.5,48.2c7.8,1,15.7,1.8,23.7,2.3c35.4,2.3,69.2-13.1,99.1-35.5
					c-21-5.1-66.9-18-78.9-35.5c-15.8-22.8-1.1-26.8,6.8-17c8.1,14.6,63.3,32.2,88.2,39.5c14.8-12.8,28.4-27.1,40.5-41.2
					c-20.4-1-47.9-7.7-55.6-17.9c-10-13.1,2.2-20.4,12.1-12.1c7.3,6.1,41.5,9.4,59.1,10.7c23.1-29.8,38.3-55.8,42.2-62.6
					c0.7-1.2,1-1.8,1-1.8s-24.5-29.4-60.7-61.7c-14.1,3-35.6,8.1-46.8,13.4c-17.8,8.4-29.3,17.4-34.7,10.7
					c-8.7-15.9,40.4-30.3,66.8-36.9c-16.1-13.5-34-27-52.6-38.4c-82.8,6.8-79.2,63.1-97.5,44.5c-15.9-16.1,50.3-44.9,77.5-55.7
					c-18.5-9.5-37.4-16.6-56-19.5c-17-2-32.7-3.1-46.9-3.6c-39.4,26.1-16.5,70.7-38.8,62.3c-17.4-6.6,4.2-43.4,16.9-62.5
					c-192.6,3.8-98.6,154.7-98.6,154.7c-0.3,0.6-0.6,1.2-0.8,1.8c-37.3,82.3,16.4,135.7,101.1,155.9c-4.9-15.4-13.7-43.8-14.4-49.3
					C4971.8,2807,4983.7,2802.9,4986.6,2821.9z" class="st11"></path>
				<path d="M5221.8,2701.9c0,0-232.8,16.2-334.8,4.5" class="st12"></path>
				<path d="M5125.4,2762c0,0-38.9-19.1-69.8-52.4" class="st12"></path>
				<path d="M5078.9,2648.4c0,0-56.3,37.7-57.6,61.9" class="st12"></path>
				<path d="M5028.5,2806.4c0,0-48.2-63.7-56.4-95.9" class="st12"></path>
				<path d="M4934.6,2637.2c0,0-31.5,36.7-19.5,71.5" class="st12"></path>
			</g>
			<g>
				<path d="M4461.1,2643.3c13.5,1.7,26.6,3.7,39.4,6c17.2,16.6,38.5,44.5,38.4,79.4c-2.3,30.2,19.5,25,20.7,12.7
					c0.9-8.9-3.2-54.4-5.6-79.3c136.9,40.7,207.9,131.3,110,259c0,0,102,247.5-226.1,234.1c28.8-28.8,79.5-84.7,52.5-96.8
					c-34.6-15.5-12.7,57.1-89.5,94.3c-24-2.2-50-5.6-78.2-10.4c-30.4-6.4-59.8-19.5-87.5-36.5c50.3-14.4,173.5-53.1,152.8-80.1
					c-24-31.2-39.3,58-182.3,60.3c-27.3-20-52.4-43-74.7-65.9c47.3-7.6,136-25.5,127.3-51.4c-6.5-11.1-29.6,1.9-62.9,13.4
					c-21.2,7.3-59.4,13.1-84.5,16.4c-49-54.7-79.4-103.6-79.4-103.6s38.8-45.1,97.9-97.2c29.5,3.9,86.2,12.5,96.2,22.9
					c13.6,14.1,37.2,3.9,25.2-17.8c-9.3-16.7-53.3-30.2-87.5-33.8c25.9-21,54.4-42.1,84.4-60.8c39.3,14,126.2,47.5,134.5,71.3
					c9.6,16.3,36.1,11.4,17.9-26.1c-13.8-28.7-86.7-53.7-120.4-63.9C4338.8,2656.9,4402,2636.1,4461.1,2643.3z" class="st13"></path>
				<path d="M4094.3,2894.3c0,0,401-2,569.6,26.7" class="st12"></path>
				<path d="M4280.6,2809.1c0,0,58.8,34.1,98.4,89.7" class="st12"></path>
				<path d="M4316.2,2993.1c0,0,109.9-53.8,121.2-91.9" class="st12"></path>
				<path d="M4462,2748.9c0,0,57.6,105.4,59.2,157" class="st12"></path>
				<path d="M4556.9,3025.4c0,0,67.5-54.8,60.4-110.9" class="st12"></path>
			</g>
			<g>
				<path d="M4513.4,2318.6c9.7,6.9,18.9,13.9,27.7,21.1c5.7,21.6,9.4,55-6.6,85.9c-15.6,25.9,3.6,30,10.2,19.5
					c4.7-7.5,22.4-49.7,31.9-72.8c87.1,90.9,100.6,199.8-33.4,274.2c0,0-34.4,260.9-281.7,117.9c35.4-14.1,100.2-43.6,84.8-65.2
					c-19.6-27.6-35.9,45.7-112.3,48.2c-17.6-11.5-36.1-25-55.6-40.5c-20.5-17.9-37.3-41.3-51-67.4c45.5,7.3,158.3,22.1,154.6-10.3
					c-4.2-37.3-56.8,35.9-168.4-19.2c-11.9-28.7-20.9-59.1-27.5-88.5c40,12.1,116.8,31.6,121.8,5.1c0-12.5-23.7-10.1-54.7-13.2
					c-19.7-2-51.9-12.1-72.8-19.2c-12.9-68.2-14-123.8-14-123.8s50.6-24.6,120.1-47.4c21,15.2,60.9,45.6,63.9,58.8
					c4.1,18,26.9,18.3,27.6-5.8c0.5-18.6-27.4-48.1-52.2-65c29.6-8.4,61.3-15.7,93-20.4c23.9,28.2,75.8,92.6,71.3,117.1
					c0,18.3,22.7,24.6,25.8-16.1c2.4-31.1-42.4-82.4-63.8-104.9C4412.7,2281.8,4471.1,2288.5,4513.4,2318.6z" class="st11"></path>
				<path d="M4115.3,2395.3c0,0,310.7,158.4,427.8,251.3" class="st12"></path>
				<path d="M4298.2,2394c0,0,29.8,53.8,35.1,119.1" class="st12"></path>
				<path d="M4241.6,2571.8c0,0,109.5-4,135.7-33.3" class="st12"></path>
				<path d="M4465.8,2412.8c0,0-3.7,116.7-26,163.2" class="st12"></path>
				<path d="M4412.7,2696.6c0,0,77.2-21.7,97.3-74.5" class="st12"></path>
			</g>
			<g>
				<path d="M4874.7,2539.9c17.1-4.3,28.6-17.2,34.9-26.9c-0.2-5.9-0.6-12-1.2-18.1
					c-2.7-27-19.5-52.3-41.6-74.3c-1.5,16.1-6.1,51.4-18.7,61.1c-16.5,12.7-21.7,1.7-14.7-4.6c10.8-6.6,18.1-49.2,20.9-68.3
					c-12.3-10.9-25.7-20.8-38.7-29.5c1.8,15.6-0.2,36.7-7.4,42.9c-9.4,8-16.9-1.1-11.4-8.9c4-5.7,2.3-31.8,1.1-45.3
					c-27.2-16.7-50.3-27.5-56.4-30.2c-1-0.5-1.6-0.7-1.6-0.7s-20.8,19.6-42.5,48.1c4.2,10.7,11.1,26.8,16.9,35.2
					c9.1,13.2,17.9,21.8,13.2,26c-11.8,7.1-29.9-29.8-38.6-49.7c-8.9,12.7-17.6,26.7-24.5,41.2c16.1,62.8,61.5,58.3,48.7,72.8
					c-11.1,12.6-43-36.9-55.3-57.3c-5.4,14.4-8.7,29-8.7,43.2c0.6,13,1.6,24.9,3.1,35.8c26.3,29.2,59.6,10.4,55.7,27.6
					c-3.1,13.4-35.9-1.9-53-11c27.8,146.4,138.5,70.3,138.5,70.3c0.5,0.2,1.1,0.4,1.6,0.6c71.8,25.9,108.3-16.6,113.9-81.7
					c-11.9,4.2-33.9,11.7-38.3,12.5C4864.5,2551.6,4859.6,2542.6,4874.7,2539.9z" class="Graphic_x0020_Style_x0020_217"></path>
				<path d="M4746.8,2364.6c0,0,43.1,176.6,46.6,254.6" class="st12"></path>
				<path d="M4808.2,2436c0,0-10.5,30.2-33.7,54.7" class="st12"></path>
				<path d="M4721.7,2474.9c0,0,37.9,41.7,57.8,41.9" class="st12"></path>
				<path d="M4856.7,2508.5c0,0-45.7,38.6-70.8,45.9" class="st12"></path>
				<path d="M4731.1,2585.1c0,0,33.9,22.9,60.7,12.7" class="st12"></path>
			</g>
			<path d="M4793.5,2619.2c0,0,19.9,2.9-30.5,245.9" class="st14"></path>
			<path d="M4530.8,2637.1c0,0,215.6,63.7,232.2,232.5" class="st14"></path>
			<path d="M4646.9,2921.1c5.3-1.9,96-10.1,126.1,11.1" class="st14"></path>
			<path d="M4705.2,3183.2c0,0,85.1-217.9,44.7-348.2c43,54.1,39.4,214.8,10.9,276.7
				c-10.7,47.6-10.7,47.6-10.7,47.6L4705.2,3183.2z" class="Graphic_x0020_Style_x0020_216"></path>
			<g>
				<path d="M4763,2869.6c0,0,150.1-48.1,176.8,206.7" class="st14"></path>
				<path d="M4721,3264c-1.4-9.8-2.4-19.5-2.9-29.1c12-17,33.9-40.3,67.1-51c29.2-7.7,19.5-21.2,7.5-18.2
					c-8.6,2.1-51.1,19-74.2,28.3c8.7-107,79.3-183.9,222.2-155.7c0,0,213-146.7,272.3,83.9c-33.7-11-98-28.7-103.6-6.4
					c-7.1,28.6,57.1-8.8,109.4,32.7c3.2,17.2,5.7,36.2,7.2,57.2c0.5,22.9-5.5,47.3-15.5,71.6c-24.8-30.3-88.6-103.4-109.7-80.7
					c-24.4,26.2,63.8,9.2,97.4,107.2c-13,25-29.4,49.4-46.3,71.8c-17.6-30.3-54.1-86-76.8-72c-9.1,7.9,8.3,19.8,26.5,39.3
					c11.6,12.4,25.5,37,34.2,53.3c-41.3,50.7-81.1,86.7-81.1,86.7s-51.4-12.9-114-37.6c-2.8-21.5-7-63.4,0.6-73.5
					c10.5-13.8-4.4-26.8-22.5-11.9c-13.9,11.5-17,46.1-12.9,70.8c-25.7-11.4-52-24.5-76.4-39.4c4.7-31.5,17.4-101.7,38.3-114.8
					c13.4-11.7,3-28.4-28.8-4.3c-24.3,18.4-32.1,76.4-34.4,102.8C4760.8,3344.2,4727.1,3307,4721,3264z" class="st11"></path>
				<path d="M5040.2,3439.7c0,0-89.9-276.1-99.6-401.3" class="st12"></path>
				<path d="M4918.3,3337.4c0,0,19.5-51.1,63.7-95.6" class="st12"></path>
				<path d="M5085.5,3256.1c0,0-75.3-59.2-114-55.3" class="st12"></path>
				<path d="M4821.2,3230.8c0,0,87.6-72.2,136.3-89.3" class="st12"></path>
				<path d="M5063.4,3080.1c0,0-66.9-29.7-118.7-7.5" class="st12"></path>
			</g>
			<path d="M4757.7,2971.1c0,0,0.5-329.8,125.1-264.9" class="st14"></path>
		</g>
		<g>
			<path d="M1866.8,2664.9c37.7-16.2,26.9-91.5,56.5-131.9c16.6-20.8,54-23.9,83.9-16.8
				v-122.2H1436c75.5,67.6,192,93.8,196.3,172.7c2,37.7-22.3,73.4-62.3,107.1C1671.7,2682.2,1775.6,2698.7,1866.8,2664.9z" class="Graphic_x0020_Style_x0020_211"></path>
			<path d="M1923.3,2533c-29.6,40.4-18.8,115.7-56.5,131.9c-91.2,33.9-195,17.3-296.8,8.9c-35.4,29.7-83,58-135.6,84.7
				h572.8v-242.3C1977.3,2509.1,1939.9,2512.2,1923.3,2533z" class="st15"></path>
			<polygon points="2092.8,2741.6 2007.1,2758.5 2007.1,2393.9 2085.7,2431" class="Graphic_x0020_Style_x0020_213"></polygon>
		</g>
		<path d="M4570,561.3h-561.4c-75,0-135.7,60.8-135.7,135.7v4.2h-219.6l219.6,89.5v158.7
			c0,75,60.8,135.7,135.7,135.7H4570c75,0,135.7-60.8,135.7-135.7V697.1C4705.7,622.1,4645,561.3,4570,561.3z" class="Graphic_x0020_Style_x0020_212"></path>
		<path d="M3948.2,932.5c0,0,23.9-68.4,66.1-58s100.4-3.4,126.8-69.8s76.3,11.1,104.5,22.3
			c28.2,11.2,36.4-84.2,63.4-113.4c27-29.2,47-24.7,68.1,14.6c21.1,39.3,41.1-38.2,61.1-59.5c20-21.3,37.6-21.3,61.1-14.6
			c23.5,6.7,15.3,34.8,44.6,39.3s81-52.8,81-52.8V946h-676.8V932.5z" class="Graphic_x0020_Style_x0020_211"></path>
		<rect height="33.3" width="676.8" class="Graphic_x0020_Style_x0020_210" y="961.9" x="3948.2"></rect>
		<path d="M2381.9,1778.9c0,0,64.4-17.8,69.1-72.6" class="st4"></path>
		<path d="M2865.1,1699.2c0,0,15.5,59.5,46.4,79.7" class="st4"></path>
	</g>
	<linearGradient y2="2191.9631" x2="5235.0054" y1="2191.9631" x1="4946.0967" gradientUnits="userSpaceOnUse" id="SVGID_6_">
		<stop style="stop-color:#68B2FC" offset="0"></stop>
		<stop style="stop-color:#EBF0F7" offset="1"></stop>
	</linearGradient>
	<path d="M4960.2,2026.2c0,0,201.7,139.3,164.1,294c-37.6,154.8,116.1,97.6,110.5-39.6
		c-5.6-137.2-91.9-280.8-200.7-304.1C4925.3,1953.2,4940.2,2011,4960.2,2026.2z" class="st16"></path>
	<linearGradient y2="3439.686" x2="4478.6128" y1="3439.686" x1="4117.7583" gradientUnits="userSpaceOnUse" id="SVGID_7_">
		<stop style="stop-color:#68B2FC" offset="0"></stop>
		<stop style="stop-color:#EBF0F7" offset="1"></stop>
	</linearGradient>
	<ellipse ry="142" rx="180.4" cy="3439.7" cx="4298.2" class="st17"></ellipse>
	<linearGradient y2="1501.1827" x2="1766.0964" y1="1501.1827" x1="1505.2496" gradientUnits="userSpaceOnUse" id="SVGID_8_">
		<stop style="stop-color:#4085F0" offset="0"></stop>
		<stop style="stop-color:#275DC9" offset="1"></stop>
	</linearGradient>
	<ellipse ry="131.7" rx="130.4" cy="1501.2" cx="1635.7" class="st18"></ellipse>
	<linearGradient y2="3281.0352" x2="4677.8955" y1="3281.0352" x1="4496.7388" gradientUnits="userSpaceOnUse" id="SVGID_9_">
		<stop style="stop-color:#4085F0" offset="0"></stop>
		<stop style="stop-color:#275DC9" offset="1"></stop>
	</linearGradient>
	<ellipse ry="91.9" rx="90.6" cy="3281" cx="4587.3" class="st19"></ellipse>
	<linearGradient y2="3359.4995" x2="1678.8217" y1="3359.4995" x1="1189.9197" gradientUnits="userSpaceOnUse" id="SVGID_10_">
		<stop style="stop-color:#68B2FC" offset="0"></stop>
		<stop style="stop-color:#529BF7" offset="1"></stop>
	</linearGradient>
	<ellipse ry="225.2" rx="244.5" cy="3359.5" cx="1434.4" class="st20"></ellipse>
	<linearGradient y2="1888.9237" x2="4911.1323" y1="1888.9237" x1="4499.271" gradientUnits="userSpaceOnUse" id="SVGID_11_">
		<stop style="stop-color:#4085F0" offset="0"></stop>
		<stop style="stop-color:#275DC9" offset="1"></stop>
	</linearGradient>
	<ellipse ry="189.7" rx="205.9" cy="1888.9" cx="4705.2" class="st21"></ellipse>
</g>
</svg>
