<svg xml:space="preserve" style="enable-background:new 0 0 4000 4000;" viewBox="0 0 4000 4000" y="0px" x="0px" xmlns:xlink="http://www.w3.org/1999/xlink" xmlns="http://www.w3.org/2000/svg" id="Layer_1" version="1.1">
<style type="text/css">
	.Graphic_x0020_Style_x0020_218{fill:#102140;}
	.Graphic_x0020_Style_x0020_88{fill:#D1334A;}
	.Graphic_x0020_Style_x0020_86{fill:#572658;}
	.Graphic_x0020_Style_x0020_84{fill:#FFFFFF;}
	.Graphic_x0020_Style_x0020_79{fill:#DBD2DB;}
	.Graphic_x0020_Style_x0020_83{fill:#3B546B;}
	.Graphic_x0020_Style_x0020_220{fill:#152A52;}
	.Graphic_x0020_Style_x0020_99{fill:#B080B0;}
	.Graphic_x0020_Style_x0020_39{fill:#EF5668;}
	.Graphic_x0020_Style_x0020_219{fill:#DB6767;}
	.Graphic_x0020_Style_x0020_68{fill:#102140;}
	.Graphic_x0020_Style_x0020_80{fill:#FFB114;}
	.Graphic_x0020_Style_x0020_87{fill:#6584C6;}
	.Graphic_x0020_Style_x0020_216{fill:#1A1A1A;}
	.Graphic_x0020_Style_x0020_42{fill:#FFCF4A;}
	
		.Graphic_x0020_Style_x0020_95{fill:none;stroke:#10663F;stroke-width:2;stroke-linecap:round;stroke-linejoin:round;stroke-miterlimit:10;}
	.Graphic_x0020_Style_x0020_212{fill:#FFFFFF;}
	
		.Graphic_x0020_Style_x0020_36{fill:none;stroke:#FFFFFF;stroke-width:2;stroke-linecap:round;stroke-linejoin:round;stroke-miterlimit:10;}
	.Graphic_x0020_Style_x0020_225{fill:#912433;}
	.Graphic_x0020_Style_x0020_90{fill:#102140;}
	.Graphic_x0020_Style_x0020_213{fill:#FFB114;}
	.st0{fill:url(#SVGID_1_);}
	.st1{fill:url(#SVGID_2_);}
	.st2{fill:#FFDE70;}
	.st3{fill:#102140;}
	.st4{opacity:0.5;fill:#152A52;}
	.st5{fill:#9D8A9D;}
	.st6{fill:#545154;}
	.st7{fill:#404D66;}
	.st8{fill:#FFCF4A;}
	.st9{fill:#FC9590;}
	.st10{fill:#EF5668;}
	.st11{fill:#152A52;}
	.st12{fill:#0B1529;}
	.st13{fill:#3B546B;}
	.st14{fill:#676367;}
	.st15{fill:#FFFFFF;}
	.st16{fill:#6584C6;}
	.st17{fill:url(#SVGID_3_);}
	.st18{fill:#00593B;}
	.st19{fill:#127755;}
	.st20{fill:#339E7E;}
	.st21{fill:url(#SVGID_4_);}
	.st22{fill:url(#SVGID_5_);}
	.st23{fill:url(#SVGID_6_);}
	.st24{fill:url(#SVGID_7_);}
</style>
<g>
	<linearGradient y2="2535.5134" x2="3558.0933" y1="2535.5134" x1="533.2917" gradientUnits="userSpaceOnUse" id="SVGID_1_">
		<stop style="stop-color:#68B2FC" offset="0"></stop>
		<stop style="stop-color:#EBF0F7" offset="1"></stop>
	</linearGradient>
	<path d="M533.3,2720.4c51.5-46.6,162.2-133.9,328.4-172.1c221.5-50.9,400.6,17.7,462.3,44.6
		c55.5-49.1,284.8-240.8,634.4-242.3c342.6-1.5,570.5,180.7,628,229.5c188.2-28.2,435-43,717.3,0c120,18.3,276.3,118,251.9,140.3
		C2548.1,2720.4,1540.7,2720.4,533.3,2720.4z" class="st0"></path>
	<linearGradient y2="2949.6406" x2="3725.2883" y1="2949.6406" x1="389.4183" gradientUnits="userSpaceOnUse" id="SVGID_2_">
		<stop style="stop-color:#68B2FC" offset="0"></stop>
		<stop style="stop-color:#529BF7" offset="1"></stop>
	</linearGradient>
	<path d="M3725.3,2688.5c-50.2,67.2-108.3,125.3-170.5,175.4c-68,54.8-140.9,100.1-213.9,137.5
		c-237.9,122.1-476,160.6-543.1,171.5c-368.9,59.6-390-68.3-933.4-75.8c-743.4-10.4-983.2,225.1-1236.7,46.7
		c-141.8-99.8-211.2-275-238.2-455.2H3725.3z" class="st1"></path>
	<polygon points="2909.7,1095.6 2924.7,1152.9 3050.9,1152.9 3069.4,1095.6" class="st2"></polygon>
	<polygon points="2984.2,755.2 2984.2,1007.4 2889.3,1101.5 3086.5,1101.5 2994.9,1007.4 2994.9,755.2" class="st3"></polygon>
	<polygon points="3247.1,1095.6 3262.1,1152.9 3388.3,1152.9 3406.8,1095.6" class="st2"></polygon>
	<polygon points="3321.6,755.2 3321.6,1007.4 3226.7,1101.5 3423.9,1101.5 3332.3,1007.4 3332.3,755.2" class="st3"></polygon>
	<path d="M2767,2809.5c0.4-1.3,0.5-2.6,0.5-3.9c0-62.8-416.4-113.7-930-113.7s-930,50.9-930,113.7
		c0,1.3,0.2,2.5,0.5,3.8c-8.9,0-17.9-0.1-26.9-0.1c-390.2,0-706.5,29.7-706.5,66.4c0,36.7,316.3,66.4,706.5,66.4
		c253.4,0,475.6-12.5,600.2-31.4c109.7,5.6,230,8.6,356.2,8.6c63.4,0,125.3-0.8,185.1-2.3c46.3,46.5,342.1,82.3,700.1,82.3
		c390.2,0,706.5-42.5,706.5-95C3429.3,2853.8,3136.6,2812.6,2767,2809.5z" class="st4"></path>
	<g>
		<g>
			<polygon points="1160.8,2169.3 1006.2,2832.4 1023.7,2832.4 1211.8,2169.3" class="st5"></polygon>
			<polygon points="2310.1,2169.3 2464.7,2832.4 2447.2,2832.4 2259.1,2169.3" class="st5"></polygon>
		</g>
		<g>
			<polygon points="1160.8,2169.3 1006.2,2832.4 1023.7,2832.4 1211.8,2169.3" class="st6"></polygon>
			<polygon points="2310.1,2169.3 2464.7,2832.4 2447.2,2832.4 2259.1,2169.3" class="st6"></polygon>
		</g>
	</g>
	<rect height="34.8" width="1606.6" class="Graphic_x0020_Style_x0020_83" y="2129.6" x="915.4"></rect>
	<rect height="22" width="1606.6" class="Graphic_x0020_Style_x0020_218" y="2164.3" x="915.4"></rect>
	<path d="M268.8,1267.7h221.8c23.4,0,42.4,19,42.4,42.4v112c0,23.4-19,42.4-42.4,42.4h-17.9
		l14.6,28c5.6,10.7-7.9,21.1-16.8,13c-15.3-13.9-31.8-28.9-44.6-41H268.8c-23.4,0-42.4-19-42.4-42.4v-112
		C226.4,1286.7,245.4,1267.7,268.8,1267.7z" class="Graphic_x0020_Style_x0020_79"></path>
	<g>
		<path d="M935.8,2837.4c-9-4.7-20.6-10.5-34.9-18.1c-49.7-26.3-82.4-89.3-82.4-89.3l-32.6-1.4
			c3.7,30.1,34.9,52.6,53.7,76.6C863.3,2834.8,900,2838.7,935.8,2837.4z" class="st7"></path>
		<path d="M935.8,2837.4c-35.8,1.3-72.5-2.5-96.3-32.2c-18.8-23.9-50-46.5-53.7-76.6l-37-1.6
			c0,0-20.9,52.2-8,103.4c16.3,4.9,42.3,8.4,42.3,8.4l15-10.9c0,0,8.6,19.4,33.1,26.4c24.5,7,115.8,23.4,131.1,7.1
			C965.2,2853.5,958,2848.8,935.8,2837.4z" class="Graphic_x0020_Style_x0020_90"></path>
		<path d="M781,2272.2l-133.5-7.4c10,56.9,40.5,109.2,71.1,160.1c57.3,98.5,61.8,209.1,60.5,319
			c13.2-0.8,29.7-4,49-12.5C835.3,2641,781,2272.2,781,2272.2z" class="st8"></path>
		<path d="M718.5,2424.9c-30.6-50.9-61.1-103.2-71.1-160.1l-56.5-3.2l77.3,143.2l73.8,333.5
			c0,0,13.2,6.9,36.9,5.5C780.2,2633.9,775.8,2523.4,718.5,2424.9z" class="Graphic_x0020_Style_x0020_213"></path>
		<path d="M1196.5,2817.9c20.5,6.2,40.5,4.9,60.3,1.7c-3.9-0.9-8.1-1.8-12.5-2.9c-54.7-12.8-90.9-66.4-90.9-66.4
			l-30.4,2.8C1140.4,2781.8,1162.4,2808.9,1196.5,2817.9z" class="st7"></path>
		<path d="M1256.7,2819.6c-19.8,3.2-39.8,4.5-60.3-1.7c-34.1-9-56.1-36.1-73.6-64.8l-39.2,3.6
			c0,0-27.6,63.2,8.5,111.6c17,0.5,43-2.7,43-2.7l11.7-14.3c0,0,13.3,16.6,38.8,17.1c25.5,0.5,118-7,128.6-26.6
			C1315.3,2830.9,1301.4,2829.6,1256.7,2819.6z" class="Graphic_x0020_Style_x0020_90"></path>
		<path d="M905.4,2395.1c-78.6-29.7-170,2.1-248.6-31.9c-52.5-21.7-111.1-60.4-135.2-116
			l-51.1,12.8c0,0-41.4,119.4,118,135.9c318.8,24.4,318.8,24.4,318.8,24.4s138.7,322,173.7,347.5c0.7,0,1.4,0,2.2,0.1
			c-61.7-107.5-87-221.8-133.2-334.5C941.5,2414.3,920.3,2399.4,905.4,2395.1z" class="Graphic_x0020_Style_x0020_80"></path>
		<path d="M1167.1,2755.1c0,0-78.1-376.2-176.9-443.1c-98.8-66.9-286.9-110-286.9-110
			l-181.6,45.3c24.1,55.6,82.7,94.3,135.2,116c78.6,34,170,2.1,248.6,31.9c14.9,4.2,36.1,19.1,44.6,38.2
			c46.2,112.7,71.5,227,133.2,334.5C1172.1,2770.4,1168.6,2759.6,1167.1,2755.1z" class="Graphic_x0020_Style_x0020_42"></path>
		<path d="M932.3,2400.7H422.2c-9.4,0-17.5,5.6-21.2,13.6h552.5
			C949.8,2406.2,941.7,2400.7,932.3,2400.7z" class="Graphic_x0020_Style_x0020_87"></path>
		<path d="M688.8,2787.2c-55,65.1-147,65.4-218.7,105.5c84-4.3,220.2-73.3,220.2-73.3
			s140.4,75.9,217.2,72.9c-3.4-2-7-3.5-10.7-4.5C823,2861,738,2854.3,688.8,2787.2z" class="Graphic_x0020_Style_x0020_218"></path>
		<path d="M703.3,2768.5v-333.8h-26v333.2l-232.4,123.8c7.6,1.2,16.1,1.5,25.2,1
			c71.7-40,163.8-40.3,218.7-105.5c49.2,67.1,134.2,73.8,208,100.6c3.7,0.9,7.3,2.5,10.7,4.5c2.8-0.1,5.5-0.3,8.1-0.6L703.3,2768.5z" class="Graphic_x0020_Style_x0020_83"></path>
		<path d="M401,2414.2c-1.4,3-2.2,6.3-2.2,9.8c0,12.9,10.5,23.4,23.4,23.4h510.1
			c12.9,0,23.4-10.5,23.4-23.4c0-3.5-0.8-6.8-2.2-9.8H401z" class="Graphic_x0020_Style_x0020_218"></path>
		<path d="M595.3,1551.8c-4.2-2.1-10.6,2.1-10.6,2.1c-6.4,10.6,10.6,14.9,12.7,21.2c17.1,32.3-6.6,73-42.1,76.8
			c-2.9,34.8-11.4,74.5-34.2,86c55.8,13.6,144.5-5,144.5-5s-20.2-34.5-17-51.5c25.5,8.5,61.4-43,48.7-119c-0.6-3.8-1.4-7.3-2.2-10.8
			c-20.8,6.3-40.6,18.5-59.5,25.8C616.5,1585.7,605.9,1566.6,595.3,1551.8z" class="st9"></path>
		<path d="M571.3,1499.6c-56.9,20.2-15.2,94.6-15.2,94.6s1.8,26.9-0.8,57.7
			c35.5-3.7,59.2-44.5,42.1-76.8c-2.1-6.4-19.1-10.6-12.7-21.2c0,0,6.4-4.2,10.6-2.1c10.6,14.9,21.2,34,40.4,25.5
			c18.8-7.2,38.7-19.4,59.5-25.8C679,1485.7,625.3,1480.4,571.3,1499.6z" class="Graphic_x0020_Style_x0020_219"></path>
		<path d="M625.3,1668.4c0.7,0.7,23.2,12.9,23.2,12.9v15.3L625.3,1668.4z" class="Graphic_x0020_Style_x0020_219"></path>
		<path d="M482.7,1929.9c-13.5-65.5-4.3-131,13.4-193.4c-41.5,20.4-95.7,75.4-77.3,223.9
			c28.7,232.7,58.3,322.8,58.3,322.8s190.3-15.9,261.3-83.7c-8.5-18.2-11.6-48.1-11.7-84.1c-15.6,5.4-31.4,9.8-46.4,9.8
			C578.3,2127.5,501.8,2025.5,482.7,1929.9z" class="Graphic_x0020_Style_x0020_88"></path>
		<path d="M733.1,1762c-33-65.4-194-37.5-194-37.5s-19.5,0.4-43,12c-17.7,62.3-26.9,127.9-13.4,193.4
			c19.1,95.6,95.6,197.6,197.6,195.4c15,0,30.8-4.4,46.4-9.8C726.4,1996.9,758.4,1812.2,733.1,1762z" class="st10"></path>
		<path d="M1115.1,2114.6c11.7,0,39.9,12.3,39.9,12.3h45c-22.3-19.6-60.6-23.7-91.9-27.7
			C1108.3,2107.3,1109.9,2114.6,1115.1,2114.6z" class="Graphic_x0020_Style_x0020_219"></path>
		<path d="M1215,2084.3c-23.4-13.3-105.2-6.9-105.2-6.9s-2,11.6-1.7,21.9c31.3,4,69.6,8.1,91.9,27.7h44.8
			C1244.7,2126.9,1238.4,2097.6,1215,2084.3z" class="st9"></path>
		<path d="M916,2104.1c-46.7-2.1-85-27.6-112.6-61.6c-42.7-54.4-65.9-126.5-119.9-164.4
			c22.5,59.4,102.5,252.5,194,251.5c73.1-0.8,257.9-2.7,257.9-2.7c10.1-5.3,10.8-13.3,7.6-23.1
			C1067.3,2100.7,991.1,2105.6,916,2104.1z" class="Graphic_x0020_Style_x0020_88"></path>
		<path d="M803.4,2042.5c27.6,34,65.9,59.5,112.6,61.6c75.1,1.5,151.2-3.4,226.9-0.3c-2.9-8.8-9.1-18.9-14.5-29.8
			c0,0-196-37.6-239.8-48.2c-53.1-19.1-108.7-267.7-190-293.4l-21.5,128.5c0,0,2.2,6.4,6.3,17.2
			C737.5,1916,760.7,1988.1,803.4,2042.5z" class="st10"></path>
		<path d="M196.4,1901.9h314c0,0,19.1,139,46.2,268.2c27.1,129.1,120.6,218.4,120.6,218.4H351
			C351,2388.5,239.4,2386.1,196.4,1901.9z" class="Graphic_x0020_Style_x0020_87"></path>
		<path d="M573.3,2275c-15.9-30.4-30.2-65.8-38.4-104.9c-27.1-129.1-46.2-268.2-46.2-268.2h-314
			c15.7,176.4,40.5,288.8,65.6,360.5C345.7,2298.8,478.1,2334.8,573.3,2275z" class="st11"></path>
		<path d="M573.3,2275c-95.2,59.8-227.6,23.8-333.1-12.6c43.9,125.1,89,126,89,126h326.2
			C655.5,2388.5,610,2345,573.3,2275z" class="st12"></path>
		<path d="M543.7,1646.9c0,0,30.7,0,41.1-14.9c10.4-14.9,9.3-45.7,9.3-45.7s-26.6-13.3-17-34.5
			c9.6-21.3,36.7,10.1,36.7,10.1l12.4,14.4l18.1-13.8c0,0,37.2-21.3,65.4-25.5c-17.5-91.4-93.2-92.5-145.3-65.4
			C523.5,1492.8,486.9,1536.4,543.7,1646.9z" class="st3"></path>
		
			<ellipse ry="25.5" rx="25.5" cy="2893.8" cx="531.4" class="st3" transform="matrix(0.9997 -2.377611e-02 2.377611e-02 0.9997 -68.6534 13.4535)"></ellipse>
		
			<ellipse ry="25.5" rx="25.5" cy="2893.8" cx="834.9" class="st3" transform="matrix(0.9997 -2.377611e-02 2.377611e-02 0.9997 -68.5676 20.6681)"></ellipse>
	</g>
	<g>
		<path d="M2660.9,2340c-20.6,0.9-37-4.8-59.3-18.5c6.7,106.7,108.4,344.5,124.8,382.2c0,0,11.2,55.2-1.4,93.6
			c-3.5,10.6-30.3,57-24.2,54.8c6.3-2.3,22.7,28.6,37.7,12.4c14.6-15.6,13.5-49.3,22.2-73.4c1.4-3.9,4.5-6.9,8.1-9.5
			c-27.9-124.1-30.4-254.3-97.9-369.5C2658.3,2390.4,2656.2,2365.2,2660.9,2340z" class="st9"></path>
		<path d="M2789.7,2760l-18.3-71.1l-0.4,0.1c-37.6-279.6-59.6-320.2-86.8-352.3
			c-8.5,1.8-16.1,2.9-23.3,3.3c-4.7,25.2-2.5,50.4,9.9,72.1c67.6,115.3,70.1,245.4,97.9,369.5
			C2778.4,2774.8,2792.1,2770.8,2789.7,2760z" class="Graphic_x0020_Style_x0020_219"></path>
		<path d="M2779.3,2741.8c-11,5.5-34.8,59.6-36.9,93.9c-2.1,34.3-44.3,13-44.3,13s-41.2,50.7-23.9,57.3
			c17.4,6.6,87.7-24.3,91.1-59.3c3.4-35-5.4-42,6.6-49.5c1-0.6,2-1.3,3.1-1.9l30.4,43.5l19.5-10.6l-21.9-47.9
			C2803,2780.2,2790.3,2736.3,2779.3,2741.8z" class="st3"></path>
		<path d="M2566.8,2400.7c0,44.2-9.9,92.3-169,353.1c0,0-9.8,44.3-14,69.1c-0.6-0.3-1.3-0.5-2.1-0.6
			c-6.1-0.2-19.9,7.1-35.5,18.2c-20.8,14.8-44.8,36.2-58,55.1c-23,32.9-51.4-6.4-51.4-6.4s-4.6,1.5-11.3,4l-0.5-0.3
			c0,0,74.9-75.4,98.9-112.5c11.9-18.6,20.2-32,25.5-40.7c5.3-8.7,7.6-12.8,7.6-12.8c18.2-61,92.2-301.9,154.8-390.7
			c9.4,28.4,19.7,43.8,40.4,56.7C2556.5,2395.5,2561.4,2398.1,2566.8,2400.7z" class="st9"></path>
		<path d="M2566.8,2400.7c0,44.2-9.9,92.3-169,353.1c0,0-9.8,44.3-14,69.1
			c-0.6-0.3-1.3-0.5-2.1-0.6c-6.1-0.2-19.9,7.1-35.5,18.2c9.9-22.8,31.6-73.4,31.6-73.4s48.5-89.4,90.4-164.9
			c29.6-53.2,65.3-154.4,83.8-209.5C2556.5,2395.5,2561.4,2398.1,2566.8,2400.7z" class="Graphic_x0020_Style_x0020_219"></path>
		<path d="M2611.3,2329.3c53.1-12.7,104.1,0,157.2-8.5c57.8-8.5,111.4-44.2,135-97.3
			L2817,2202c0,0-188.1,43-286.9,110c-8.6,5.8-17.1,14-25.4,24.1c7.8,20.2,21.5,38.1,38.8,52.5
			C2562.6,2364.7,2578.9,2339,2611.3,2329.3z" class="Graphic_x0020_Style_x0020_220"></path>
		<path d="M3049.7,2260l-146.3-36.5c-23.5,53.1-77.2,88.8-135,97.3
			c-53.1,8.5-104.1-4.2-157.2,8.5c-32.3,9.7-48.7,35.4-67.8,59.3c13.1,11,28.3,20,44.4,26.7c5.4-12.1,8.6-19.1,8.6-19.1
			s44.6,4.5,360.1-16.2C3116,2363.5,3049.7,2260,3049.7,2260z" class="Graphic_x0020_Style_x0020_218"></path>
		<path d="M2588,2400.7h510.1c9.4,0,17.5,5.6,21.2,13.6h-552.5
			C2570.5,2406.2,2578.6,2400.7,2588,2400.7z" class="Graphic_x0020_Style_x0020_83"></path>
		<path d="M2831.5,2787.2c55,65.1,147,65.4,218.7,105.5c-84-4.3-220.2-73.3-220.2-73.3s-140.4,75.9-217.2,72.9
			c3.4-2,7-3.5,10.7-4.5C2697.3,2861,2782.3,2854.3,2831.5,2787.2z" class="st3"></path>
		<path d="M3063.1,2885c9.1,9.4,8.9,13.9-11.3,7.7c-0.5,0-1.1,0-1.6-0.1c-60.9-34-136.4-39.3-191.5-80
			c-9.8-7.2-18.9-15.6-27.2-25.4c-6.6,9-13.9,16.9-21.7,24c-50.2,45.3-122.4,53.4-186.3,76.6c-3.7,0.9-7.3,2.5-10.8,4.4
			c-2.8-0.1-5.5-0.3-8.1-0.6l140.9-81.7l71.4-41.4v-333.8h26.1v333.2l89.8,47.8L3063.1,2885z" class="st13"></path>
		<path d="M3119.3,2414.2c1.4,3,2.2,6.3,2.2,9.8c0,12.9-10.5,23.4-23.4,23.4H2588
			c-12.9,0-23.4-10.5-23.4-23.4c0-3.5,0.8-6.8,2.2-9.8H3119.3z" class="Graphic_x0020_Style_x0020_218"></path>
		<path d="M2902.4,1612.2c0,0,40.7,102.2,68,140c-55.8,13.6-105.4,17-105.4,17s-18.8-59.5-22-76.5
			c-25.5,8.5-52.1-13.8-72-102.8c-17-76.2,31-109.7,87.9-89.5C2915.8,1520.6,2902.4,1612.2,2902.4,1612.2z" class="st9"></path>
		<polygon points="2860.2,1683.7 2843,1692.7 2845.4,1703" class="Graphic_x0020_Style_x0020_219"></polygon>
		<path d="M2855.6,2046.7c0-40.4,17-72.2,29.7-108.3c4.2-12.7,6.4-27.6,4.2-40.4
			c-6.4,19.1-27.6,25.5-42.5,34c-23.4,10-50.2,10.7-73.6,2.7c1.7,22.4,4.4,44.8,8.3,66.3c4.7,25.9,43.2,27.3,44.2,53
			c0.2,6.2-0.1,12.7-0.8,19.3C2841.4,2068.5,2857,2062.3,2855.6,2046.7z" class="Graphic_x0020_Style_x0020_79"></path>
		<path d="M2835.6,1881.2c-10.4,47.7-26.3,91-51,127.5l-5.9-13.8l40.9-93L2835.6,1881.2z" class="st14"></path>
		<path d="M2999.3,2036.5C2999.3,2036.6,2999.3,2036.6,2999.3,2036.5c4.2-58.2,0.2-116.4-5.6-174.6
			c-4.2-36.1-10.6-70.1-12.7-106.2c0-11-2.7-21.9-7.4-32.3c-32.3-4.5-157.7-18.2-186.3,38.6c-13.7,27.2-19.3,99.1-13.7,172.6
			c23.3,8,50.2,7.4,73.6-2.7c14.9-8.5,36.1-14.9,42.5-34c2.1,12.7,0,27.6-4.2,40.4c-12.7,36.1-29.7,68-29.7,108.3
			c1.4,15.6-14.2,21.7-30.4,26.6c-3,27.4-13.4,57.7-23.6,82.5c-7.8,18.9-15.4,34.7-19.7,43.7c37.6,35.9,108.6,57.2,167.1,69.4
			C2988.7,2199,3019.7,2113.3,2999.3,2036.5z M2998.8,2043.9c-0.3,3.1-0.5,6.2-0.8,9.2C2998.2,2050,2998.5,2046.9,2998.8,2043.9z" class="st15"></path>
		<path d="M3063.4,1969.3c-31.1-208-82.2-244.7-82.2-244.7s-2.8-0.5-7.6-1.2
			c4.7,10.4,7.4,21.3,7.4,32.3c2.1,36.1,8.5,70.1,12.7,106.2c5.8,58.2,9.8,116.4,5.6,174.6c20.4,76.7-10.6,162.5-50.3,232.4
			c52,10.8,94.1,14.3,94.1,14.3S3098,2201.2,3063.4,1969.3z" class="Graphic_x0020_Style_x0020_79"></path>
		<path d="M2836.4,1727.9c-1.4-12.7,6.7-15.6,6.7-15.6s92.2-34.5,102.3-29.8c14.3,44.6,10.8,46.6,10.8,46.6
			S2836.5,1729.7,2836.4,1727.9z" class="st15"></path>
		<path d="M2292.6,2126.9h72.8c0,0,28.2-12.3,39.8-12.3c5.1,0,6.8-7.1,7-15.1
			c-39.2,0.9-76.6,7.3-115.3,25.9C2295.7,2125.8,2294.2,2126.4,2292.6,2126.9z" class="Graphic_x0020_Style_x0020_219"></path>
		<path d="M2410.5,2077.4c0,0-81.8-6.4-105.2,6.9c-23.4,13.3-29.8,42.6-29.8,42.6h17c1.6-0.5,3.1-1.1,4.3-1.6
			c38.7-18.5,76.1-25,115.3-25.9C2412.5,2089.2,2410.5,2077.4,2410.5,2077.4z" class="st9"></path>
		<path d="M2800.4,1904.4c-29.7,76.5-68,159.3-150.8,182.7c-88.8,25.6-181.2,20.2-273.9,24.3
			c-0.5,6.3,1.9,11.5,9.2,15.4c0,0,184.8,1.9,257.9,2.7c108.1,1.2,200.3-268.7,200.3-268.7l-0.1-0.5
			C2823.9,1868.4,2808.1,1883.1,2800.4,1904.4z" class="Graphic_x0020_Style_x0020_79"></path>
		<path d="M2631.5,2025.8c-43.8,10.5-239.8,48.2-239.8,48.2c-7,14.3-15.4,27.3-16.1,37.5
			c92.7-4.2,185.1,1.3,273.9-24.3c82.9-23.4,121.1-106.2,150.8-182.7c7.8-21.3,23.5-36,42.6-44.1l-21.4-127.9
			C2740.2,1758.1,2684.7,2006.6,2631.5,2025.8z" class="st15"></path>
		<path d="M3345.6,1901.9c-43,484.2-154.6,486.5-154.6,486.5h-326.2c0,0,93.5-89.3,120.6-218.4
			c27.1-129.1,46.2-268.1,46.2-268.1H3345.6z" class="st11"></path>
		<path d="M3031.6,1901.9c0,0-19.1,139-46.2,268.1c-27.1,129.1-120.6,218.4-120.6,218.4H2843
			c0,0,93.5-89.3,120.6-218.4c27.1-129.1,46.2-268.1,46.2-268.1H3031.6z" class="st16"></path>
		
			<ellipse ry="25.5" rx="25.5" cy="2893.8" cx="2988.8" class="st3" transform="matrix(2.377611e-02 -0.9997 0.9997 2.377611e-02 24.7829 5813.0078)"></ellipse>
		
			<ellipse ry="25.5" rx="25.5" cy="2893.8" cx="2685.4" class="st3" transform="matrix(2.377611e-02 -0.9997 0.9997 2.377611e-02 -271.4377 5509.6582)"></ellipse>
		<path d="M2426.2,2059.2l-31.4,4.6c-20.4,18.9-25.4,35.2-25.9,45.8
			C2396.3,2112.6,2411.5,2083.1,2426.2,2059.2z" class="Graphic_x0020_Style_x0020_84"></path>
		<path d="M2426.2,2059.2c-14.7,23.9-29.8,53.4-57.3,50.4c-0.4,8,1.8,12.7,1.8,12.7
			s0,0,58.2,0c-10.6-15.9,16.5-65.9,16.5-65.9L2426.2,2059.2z" class="Graphic_x0020_Style_x0020_79"></path>
	</g>
	<g>
		<path d="M989.8,1770.8v-987c0-20.5,16.6-37.1,37.1-37.1h1502.6c20.5,0,37.1,16.6,37.1,37.1v987
			c0,20.5-16.6,37.1-37.1,37.1H1026.9C1006.4,1808,989.8,1791.3,989.8,1770.8z" class="st3"></path>
		<path d="M959.1,1770.8v-987c0-20.5,16.6-37.1,37.1-37.1h1502.6c20.5,0,37.1,16.6,37.1,37.1v987
			c0,20.5-16.6,37.1-37.1,37.1H996.2C975.7,1808,959.1,1791.3,959.1,1770.8z" class="st16"></path>
		<linearGradient y2="790.0692" x2="1747.4829" y1="1780.432" x1="1747.4829" gradientUnits="userSpaceOnUse" id="SVGID_3_">
			<stop style="stop-color:#68B2FC" offset="0"></stop>
			<stop style="stop-color:#EBF0F7" offset="1"></stop>
		</linearGradient>
		<path d="M2478.5,1775.6h-1462c-13.9,0-25.1-11.3-25.1-25.1V804.2c0-13.9,11.3-25.1,25.1-25.1h1462
			c13.9,0,25.1,11.3,25.1,25.1v946.3C2503.6,1764.4,2492.3,1775.6,2478.5,1775.6z" class="st17"></path>
		<path d="M1524.9,1760.9c0,0-57.6-495.4-23-522.3c34.6-26.9,471.1-35.8,599.1-5.1
			c71.7,14,17.9,124.2,11.5,215.1s-12.8,327.1-12.8,327.1L1524.9,1760.9z" class="Graphic_x0020_Style_x0020_83"></path>
		<path d="M1878.4,1326.6c4.2-14.9,4.2-27.6,4.2-42.5c3.4-18.6,9.4-37.2,10.7-56.9l-3.4-1.5
			l-43.2-6l-97.3,2.2c2,19.3,1.9,39.2-2.8,57.9c-10.6,48.9-42.5,89.2-42.5,138.1c-4,120.8-11.6,236-31.6,357.7h126.5
			c1.1-57.7,8.5-115.8,11.3-172.9C1814.6,1507.1,1857.1,1422.2,1878.4,1326.6z" class="Graphic_x0020_Style_x0020_39"></path>
		<path d="M1921.2,1239.4l-27.9-12.2c-1.3,19.7-7.3,38.3-10.7,56.9c0,14.9,0,27.6-4.2,42.5
			c-21.2,95.6-63.7,180.6-68,276.2c-2.8,57.1-10.1,115.2-11.3,172.9h52.4L1921.2,1239.4z" class="Graphic_x0020_Style_x0020_88"></path>
		<path d="M1746.7,1279.8c4.7-18.7,4.8-38.6,2.8-57.9l-2,0l-40.4,9.8l-32.4,60.1l-50.7,483.8
			h48.6c19.9-121.7,27.6-237,31.6-357.7C1704.2,1369.1,1736,1328.7,1746.7,1279.8z" class="Graphic_x0020_Style_x0020_88"></path>
		<path d="M1876.6,1189.6v-82.2l-98.9,18.2c-0.3,1.7-3.3,19-6.9,40.5
			C1800.3,1192.1,1839,1196.8,1876.6,1189.6z" class="Graphic_x0020_Style_x0020_225"></path>
		<path d="M1770.9,1166.1c-6.5,38.7-15.2,91-15.2,91s21.1,36.5,55.7,34.6c34.6-1.9,65.3-31.7,65.3-31.7v-70.5
			C1839,1196.8,1800.3,1192.1,1770.9,1166.1z" class="st9"></path>
		<path d="M1899.6,1103.5c4.2-14.9,6.4-38.2-2.1-42.5c-23.4-14.9-2.1-48.9-12.7-48.9c-48.1-1.9-110.2,25.8-151.4-5.3
			c-5.2,58.4-6.7,177.1,65.5,182.2c43.4,3,72.3-20.6,91.4-53.3C1885.9,1125.5,1895.6,1113.6,1899.6,1103.5z" class="st9"></path>
		<path d="M1737.1,974.9c0,0-2.1,12.7-3.8,31.9c41.3,31.1,103.3,3.4,151.4,5.3
			c10.6,0-10.6,34,12.7,48.9c8.5,4.2,6.4,27.6,2.1,42.5c-4,10-13.7,22-9.4,32.2c23.1-39.5,31.7-92.1,34.4-126.3
			C1929.4,947.1,1737.1,974.9,1737.1,974.9z" class="Graphic_x0020_Style_x0020_219"></path>
		<path d="M1547,1345.7c12.6-28.9,22.2-62.3,44.3-84.8c-19.6,7.8-39.5,20-49.8,38.6c-24.3,44.2-125.5,352.6-125.5,352.6
			s-21.2,52.5,1.9,82.2c19.6-11.7,39.3-22.8,58.3-34.7C1463,1576.1,1496.7,1456.8,1547,1345.7z" class="st3"></path>
		<path d="M1549.6,1642.2l-8.7-9.3c0,0,46.7-73,56.9-89.6c10.2-16.6,46.9-295.8,46.9-295.8s-26.4,2.6-53.4,13.4
			c-22.1,22.4-31.7,55.9-44.3,84.8c-50.3,111.1-84,230.4-70.6,354C1502.9,1683.1,1528.1,1665.1,1549.6,1642.2z" class="st11"></path>
		<path d="M1579.2,1533.3c-2.3,42.6-5,77.8-8.2,93.2c-11.5,55-33.3,149.1-33.3,149.1h23.2
			C1582,1695.6,1603.6,1611.6,1579.2,1533.3z" class="st3"></path>
		<path d="M1596.5,1258.9l-13.9,196.6c-1,26.8-2.1,53.5-3.4,77.7c24.4,78.3,2.8,162.3-18.3,242.3h92
			c0,0,21.8-416.7,42.2-467.9c20.5-51.2,30.7-85.8,30.7-85.8L1596.5,1258.9z" class="st11"></path>
		<path d="M1920.9,1649.5c-1.4,40.9-3.7,84.6,2.9,126.2h72.2c0,0-6.4-188.8,24.3-263.1
			c9.2-22.3,14.2-52.5,16.6-83.8C1974.1,1489.9,1922.9,1559.3,1920.9,1649.5z" class="Graphic_x0020_Style_x0020_218"></path>
		<path d="M2034.4,1277.4l-129.3-50.2c0,0-11.5,215.1-60.2,294.4c-48.6,79.4-41,254.1-41,254.1h119.8
			c-6.7-41.5-4.3-85.3-2.9-126.2c2-90.2,53.2-159.6,116.1-220.7C2042.5,1356.1,2034.4,1277.4,2034.4,1277.4z" class="st11"></path>
		<path d="M1973.7,1253.8l-44.4,74.9l18.7,37.4c0,0-66.9,149.3-120.1,184.8
			c26-65.3,58.3-194.4,72.9-326C1914.5,1230.8,1973.7,1253.8,1973.7,1253.8z" class="Graphic_x0020_Style_x0020_87"></path>
		<path d="M2194.8,1704.3c-5.4-71.8-57.4-183.2-70.8-278.7c-12.2-86.8-49.9-126-78.5-143.5c18,35,30.1,71.7,47.5,108.3
			c42.5,95.6,63.7,201.8,48.9,308c-3.9,26.2-10.4,53.7-22.7,77.3h38.2C2157.3,1775.6,2197.6,1742.2,2194.8,1704.3z" class="st3"></path>
		<path d="M2092.9,1390.3c-17.4-36.6-29.5-73.3-47.5-108.3c-19.5-11.9-34.7-13.8-34.7-13.8l-16.1,134.3
			c0,0,0,0,11.5,53.8c11.5,53.8,62.7,221.5,62.7,221.5l-101.1,97.9h71.1h80.2c12.2-23.6,18.8-51.1,22.7-77.3
			C2156.7,1592.1,2135.4,1485.9,2092.9,1390.3z" class="st11"></path>
		<path d="M1476.9,1704.7c-1.1-9.3-1.9-18.5-2.5-27.7l-64.1,42.5l7.7,14.8c2.9,3.7,6.5,7.1,10.9,10
			c39.7,25.6,83.2,31.4,83.2,31.4h41.1C1519.8,1761.1,1482.3,1744.4,1476.9,1704.7z" class="st3"></path>
		<path d="M1540.9,1632.9l-66.5,44.1c0.6,9.2,1.4,18.4,2.5,27.7c5.4,39.7,43,56.4,76.3,70.9h121.5L1540.9,1632.9z" class="st11"></path>
		<path d="M1812.9,1291.6c0,0,55.7,8.4,55.7,41.7c31.8-48.7,30.1-111.4,30.1-111.4l-19.5-5.7
			C1879.2,1216.3,1852.6,1287.8,1812.9,1291.6z" class="Graphic_x0020_Style_x0020_84"></path>
		<path d="M1760.1,1216.3l-24.6,3.8c0,0-41.6,73.9,20.2,102.4c4.8-24.3,32.5-34.4,38.7-32.9
			C1765.2,1265.5,1756.9,1236.5,1760.1,1216.3z" class="Graphic_x0020_Style_x0020_84"></path>
		<path d="M1692.6,946.8c0,0,22.2,55.7,110.9,55.7c88.8,0,88.8,0,88.8,0v43.5c0,0,21.1,4.5,16.6,25
			c-4.5,20.5-16,60-16,60s5.7,1.4,16.6-6.3c10.9-7.7,63.4-153.6,22.4-178.6c-41-25-77.5-57.6-158.7-34.6
			C1695.2,939.1,1692.6,946.8,1692.6,946.8z" class="st3"></path>
		<path d="M2330,727.5h-267.2c-28.2,0-51.1,22.9-51.1,51.1v134.9c0,28.2,22.9,51.1,51.1,51.1
			h21.5l-17.5,33.7c-6.7,12.9,9.5,25.4,20.3,15.7c18.5-16.7,38.4-34.8,53.7-49.3H2330c28.2,0,51.1-22.9,51.1-51.1V778.6
			C2381.1,750.4,2358.2,727.5,2330,727.5z" class="Graphic_x0020_Style_x0020_79"></path>
		<path d="M2341.7,773.9h-276.5c-6.2,0-11.2,5-11.2,11.2c0,6.2,5,11.2,11.2,11.2h276.5
			c6.2,0,11.2-5,11.2-11.2C2352.9,779,2347.9,773.9,2341.7,773.9z" class="Graphic_x0020_Style_x0020_84"></path>
		<path d="M2341.7,834.1h-276.5c-6.2,0-11.2,5-11.2,11.2c0,6.2,5,11.2,11.2,11.2h276.5
			c6.2,0,11.2-5,11.2-11.2C2352.9,839.1,2347.9,834.1,2341.7,834.1z" class="Graphic_x0020_Style_x0020_84"></path>
		<path d="M2341.7,894.3h-276.5c-6.2,0-11.2,5-11.2,11.2c0,6.2,5,11.2,11.2,11.2h276.5
			c6.2,0,11.2-5,11.2-11.2C2352.9,899.3,2347.9,894.3,2341.7,894.3z" class="Graphic_x0020_Style_x0020_84"></path>
		<path d="M1741.6,1223.3l-67.7,13.5l0.8,56.8l-33.6,28.8c0,0-5,183.4,26.4,222.7
			C1680.7,1436.7,1741.6,1223.3,1741.6,1223.3z" class="Graphic_x0020_Style_x0020_87"></path>
	</g>
	<path d="M2927.8,1772.7c4.2-12.7,6.4-23.4,8.5-34c4.2-10.6,10.6-23.4,2.1-36.1
		c-25.5-34-19.1-78.6-46.7-108.3c-21.2-25.5-55.2-17-87.1-23.4c-1-0.2-1.9-0.6-2.8-1c0.9,4.5,2.7,8.7,5.6,12.3
		c3.8,4.6,8.1,8.3,18.3,10.9c47.8,12,62.2,12,62.2,12c5.2,70.7,18.3,84.5,18.3,84.5c9.7,10.2,15.1,7.4,20.7,16.7
		c12.9,21.2-10.3,42.4-5.6,65.4c0.5,2.6,1.4,5.2,2.7,7.8C2925.9,1777.9,2927.3,1775.7,2927.8,1772.7z" class="Graphic_x0020_Style_x0020_216"></path>
	<path d="M3001.9,1657.6c-5.8-2.2-14.8-5.1-23.1-13.5c-19.4-19.6-12-45.4-16.7-72.5
		c-9.1-52-61-97.6-106-100.4c-21.7-1.4-51.2,6.6-54.2,21.5c-1.8,9,6.5,18.3,12.8,23.9c-2.1,3.8-17.1,32-12.8,53.3
		c0.9,0.4,1.8,0.7,2.8,1c31.9,6.4,65.9-2.1,87.1,23.4c27.6,29.7,21.2,74.4,46.7,108.3c8.5,12.7,2.1,25.5-2.1,36.1
		c-2.1,10.6-4.2,21.2-8.5,34c-0.5,3-1.9,5.2-3.8,6.7c17.1,36.3,98.2,67.4,151.2,35.3c6.3-3.8,33.8-20.5,35.9-46.2
		C3114.4,1726.4,3048.4,1675.1,3001.9,1657.6z" class="Graphic_x0020_Style_x0020_68"></path>
	<path d="M2826.3,1498.2c-3-6.8-17-7.8-26.3-6.4c-33.4,5.3-57.2,50.8-49.4,59.8
		c6.3,7.2,34.8-7.5,51-19.9C2804.7,1529.3,2831,1509.2,2826.3,1498.2z" class="Graphic_x0020_Style_x0020_68"></path>
	<path d="M2381.7,2822.2c-14.2-0.5-70.5,40.4-93.4,73.3c-23,32.9-51.5-11.1-51.5-11.1s-71.5,28.1-58.3,44
		c13.1,15.9,101.1,23.4,125.7-9.6c24.6-32.9,20.2-44.6,36.6-45.7c1.4-0.1,2.8-0.2,4.2-0.2l3.4,59.7h25.7l7.7-59.5
		C2381.7,2873.2,2395.9,2822.7,2381.7,2822.2z" class="st3"></path>
	<g>
		<g>
			<path d="M320.4,1366.7c0-5.7-4.6-10.4-10.4-10.4c-5.7,0-10.4,4.6-10.4,10.4
				c0,5.7,4.6,10.4,10.4,10.4C315.8,1377.1,320.4,1372.5,320.4,1366.7z" class="Graphic_x0020_Style_x0020_212"></path>
			<path d="M390.1,1366.7c0-5.7-4.6-10.4-10.4-10.4c-5.7,0-10.4,4.6-10.4,10.4
				c0,5.7,4.6,10.4,10.4,10.4C385.4,1377.1,390.1,1372.5,390.1,1366.7z" class="Graphic_x0020_Style_x0020_212"></path>
			<path d="M459.7,1366.7c0-5.7-4.6-10.4-10.4-10.4c-5.7,0-10.4,4.6-10.4,10.4
				c0,5.7,4.6,10.4,10.4,10.4C455,1377.1,459.7,1372.5,459.7,1366.7z" class="Graphic_x0020_Style_x0020_212"></path>
		</g>
		<g>
			<path d="M320.4,1366.7c0-5.7-4.6-10.4-10.4-10.4c-5.7,0-10.4,4.6-10.4,10.4
				c0,5.7,4.6,10.4,10.4,10.4C315.8,1377.1,320.4,1372.5,320.4,1366.7z" class="Graphic_x0020_Style_x0020_212"></path>
			<path d="M390.1,1366.7c0-5.7-4.6-10.4-10.4-10.4c-5.7,0-10.4,4.6-10.4,10.4
				c0,5.7,4.6,10.4,10.4,10.4C385.4,1377.1,390.1,1372.5,390.1,1366.7z" class="Graphic_x0020_Style_x0020_212"></path>
			<path d="M459.7,1366.7c0-5.7-4.6-10.4-10.4-10.4c-5.7,0-10.4,4.6-10.4,10.4
				c0,5.7,4.6,10.4,10.4,10.4C455,1377.1,459.7,1372.5,459.7,1366.7z" class="Graphic_x0020_Style_x0020_212"></path>
		</g>
	</g>
	<path d="M529.6,1697.5c0,0-8.3,25.9-2.2,28.6c139.9-12.5,145.6-1.8,145.6-1.8
		s-19.5-16.1-35.5-18.3C621.5,1703.9,529.6,1697.5,529.6,1697.5z" class="Graphic_x0020_Style_x0020_84"></path>
	<path d="M1075.2,2055.3c0,0,9,55.6,15.7,63.8c45.2-2.1,56.6,0,56.6,0s-8-48.1-22.8-52.6
		C1111.9,2062.5,1075.2,2055.3,1075.2,2055.3z" class="Graphic_x0020_Style_x0020_84"></path>
	<g>
		<path d="M3294.5,2348.6c-7.8-61.9-14.4-114.4,14.5-137.4c1.7-1.4,19.4-15.1,40.7-9.9c21.4,5.1,31.1,25.7,32.5,28.9
			c-10.6-65.2,2.6-115,28-123.8c11-3.8,28.2-1.2,40.7,9c18.2,14.9,17.3,38.6,17.2,41.6c2.7-17.6,15-85.2,63.3-108.5
			c9.6-4.6,28-13.4,42.5-4.5c16.6,10.2,15.5,35.9,15.4,38c24-43.4,60.2-64.5,85-56c11.2,3.8,21.1,14.1,24.4,26.2
			c5.9,21.6-9.2,49.2-39.8,64.2c17.8-1,34,6.1,41.6,19c12.3,20.9-4.6,45.8-7.2,49.7c-16.9,25-53.5,35.2-93.1,28
			c32.4,25.9,47.6,57.2,38.9,78.6c-5.7,13.9-20.1,20.3-36.2,27.1c-16.3,7-49.5,17.9-96.7,10.8c28.9,15.3,48.5,36.9,46.1,56
			c-3.2,25.6-44.5,36.7-75.9,45.2c-22.9,6.2-126.5,34.1-166.3-17.2C3301.3,2402.6,3299,2384.6,3294.5,2348.6z" class="st18"></path>
		<path d="M3215.7,2438.3c22.4,12.8,51,8.5,74.6-1.9c44.4-19.5,77.8-57.6,105.6-97.3
			c27.8-39.7,51.7-82.5,84.5-118.2c31-33.8,69.2-60.2,102.9-91.3c25.5-23.4,48.5-49.5,68.6-77.7" class="Graphic_x0020_Style_x0020_36"></path>
		<path d="M3341.7,2266.5c26.3,41.1,34.6,87.9,7.8,128.7" class="Graphic_x0020_Style_x0020_36"></path>
		<path d="M3374.1,2368.9c34-17.3,101.4,12.2,136.4,7.1" class="Graphic_x0020_Style_x0020_36"></path>
		<path d="M3426.7,2293c14.6-42.9,4.4-82.9,7.4-119.5" class="Graphic_x0020_Style_x0020_36"></path>
		<path d="M3542.8,2090.6c-3,33-11.6,65.5-25.3,95.7" class="Graphic_x0020_Style_x0020_36"></path>
		<path d="M3556.5,2153.3c31.2-11.5,66.3-12.3,98-2.1" class="Graphic_x0020_Style_x0020_36"></path>
		<path d="M3452.2,2255.8c34.9-17.5,75.9-19.4,112.3-5.4" class="Graphic_x0020_Style_x0020_36"></path>
	</g>
	<g>
		<path d="M3407.9,2522.4c68.6,55.5,78.9,88.5,109.8,89.1c19.3,0.4,42-12,47.7-31.5c7.1-24.1-15.4-46.7-16.5-47.8
			c67,47.7,129.9,57.6,151.6,34.1c10.3-11.1,16.9-35.9,8.7-58.2c-6.4-17.4-19.5-27-25.2-30.7c75.7,14.3,133.7,6.5,143.5-18.7
			c3.8-9.9,2.9-29.4-8.9-43.6c-9.5-11.6-22.5-15.1-27.8-16.3c48.5-3.4,78.8-34.1,77.2-59.7c-1-15.9-14.4-30.8-29.7-37.1
			c-21.2-8.9-47.4-1.9-64,18.2c1-2.1,15-34.6,0.2-52.3c-16.2-19.2-56.1-8.1-78.2,9.1c-22,17.2-28,41.8-29.8,50.6
			c0.9-3.7,8.8-38.8-10.3-56c-26.3-23.7-78.2,9.2-81.4,11.3c-46.9,30.5-52.9,89.4-53.9,101.3c-10.1-35.9-35.1-60.1-60-60.4
			c-31.1-0.4-50.3,36.9-60.8,57.1c-25.6,49.4-18.4,100.2-12.6,125.6C3392,2509.9,3399.3,2515.4,3407.9,2522.4z" class="st19"></path>
		<path d="M3821.2,2341.6c-45,13.1-88.2,31.8-128.5,55.7c-58,34.3-111.4,79.9-176.7,96.4
			c-19.9,5-40.4,7.2-60.8,9.3c-23.3,2.4-47.1,4.9-70,0.2c-21.3-4.4-41.1-14.8-58.1-28.3" class="Graphic_x0020_Style_x0020_95"></path>
		<path d="M3440.7,2505.2c2.9-1.6,5-4.2,6.8-7c10.6-16.3,11.8-36.9,11.4-56.3
			c-0.4-19.5-2.1-39.4,3.6-58" class="Graphic_x0020_Style_x0020_95"></path>
		<path d="M3605.3,2453.7c15.5-17.1,18-42,18.6-65.1c0.6-23.1,0.5-47.5,12.4-67.3" class="Graphic_x0020_Style_x0020_95"></path>
		<path d="M3674.1,2409.5c9.8-7.9,24.3-6.5,35.7-1.2c11.4,5.3,20.9,13.9,31.7,20.3
			c10.8,6.3,24.4,10.3,35.9,5.4" class="Graphic_x0020_Style_x0020_95"></path>
		<path d="M3720.3,2382.4c3.4-1.7,7-3.4,9.7-6.1c4.1-4,6.1-9.7,7.5-15.2
			c2.8-11.5,3.8-23.3,6.3-34.9c2.5-11.5,6.9-23.1,15.3-31.4" class="Graphic_x0020_Style_x0020_95"></path>
		<path d="M3541.9,2486.2c9.2-1.6,18.6-3.2,27.9-2.4c17.9,1.5,33.8,11.3,49.4,20.2
			c15.6,8.9,32.7,17.4,50.5,15.8" class="Graphic_x0020_Style_x0020_95"></path>
		<path d="M3519.6,2552.6c-1.2-12.8-6.8-25.2-15.6-34.5c-8.9-9.3-20.9-15.5-33.6-17.4" class="Graphic_x0020_Style_x0020_95"></path>
	</g>
	<g>
		<path d="M3345.4,2419.1c-7-91.3,10.4-122.7-11.1-146.4c-13.5-14.8-39-23.1-57.8-13.6c-23.3,11.8-24.3,44.9-24.3,46.6
			c-11.8-84.5-49.2-139.1-82.4-138.7c-15.8,0.2-39.1,12.8-50.1,34.9c-8.6,17.2-6.5,34-5.2,41c-43.2-67.3-90.5-105.5-116.5-94.9
			c-10.2,4.2-24.2,18.8-26.6,37.8c-1.9,15.4,4.6,27.7,7.6,32.6c-37.2-34.1-82-35.1-100.1-15.6c-11.3,12.1-12.9,32.9-6.9,48.9
			c8.4,22.3,32.5,37.1,59.4,35.3c-2.3,0.8-36.9,13.4-39.6,37.1c-2.9,25.9,33.9,48.1,62.7,52.5c28.6,4.4,51.5-8.7,59.4-13.7
			c-3.4,1.9-35.5,21-34.9,47.8c0.9,36.8,62.7,52.4,66.6,53.4c56.5,13.6,105.2-23.8,114.9-31.6c-19.8,33.2-20.3,69.4-2.8,88.3
			c21.9,23.7,63.7,11.7,86.5,5.2c55.5-15.9,88.7-57.6,103.8-80.1C3347.3,2440,3346.2,2430.6,3345.4,2419.1z" class="st20"></path>
		<path d="M2914.1,2236.2c41.9,24.6,87,43.9,133.7,57.2c67.3,19.3,139.7,27,198.8,64.6
			c18,11.4,34.2,25.4,50.4,39.3c18.5,15.8,37.3,32,50.1,52.7c11.9,19.2,18.2,41.5,20.1,64.1" class="Graphic_x0020_Style_x0020_95"></path>
		<path d="M3309.5,2408.1c-3.2-1.1-59.6,1.7-90.1,74.2" class="Graphic_x0020_Style_x0020_95"></path>
		<path d="M3152.7,2319.2c-24,0.5-44.6,16.4-62.4,32.4c-17.9,16-36.2,33.5-59.6,38.6" class="Graphic_x0020_Style_x0020_95"></path>
		<path d="M3070.2,2298.8c-12.9-1.8-22.3-13.7-26.4-26.1c-4.1-12.4-4.4-25.7-7.3-38.4
			c-3-12.7-9.6-25.7-21.6-30.9" class="Graphic_x0020_Style_x0020_95"></path>
		<path d="M3016.8,2283.3c-3.7-1.4-7.5-2.8-11.5-3c-5.9-0.3-11.6,2.3-16.8,5.2
			c-10.7,6-20.3,13.8-30.8,20.1c-10.5,6.3-22.4,11.3-34.6,10.8" class="Graphic_x0020_Style_x0020_95"></path>
		<path d="M3222.4,2343.8c-7.8-5.8-15.6-11.8-21.7-19.3c-11.7-14.5-15.6-33.6-20-51.7
			c-4.4-18.1-10.2-37.1-24.1-49.4" class="Graphic_x0020_Style_x0020_95"></path>
		<path d="M3288.5,2313.3c-8.8,10-14.1,23.1-14.8,36.4c-0.7,13.3,4.9,27.6,12.6,38.5" class="Graphic_x0020_Style_x0020_95"></path>
	</g>
	<path d="M3332.9,2502.2l-85,0.8l-150.8-1.4c3.4,7.3,6.9,14.5,10.4,21.6
		c-16.5,66.2-9.3,133.9,17.3,202.4C3236.8,2717.5,3324.4,2614.3,3332.9,2502.2z" class="Graphic_x0020_Style_x0020_99"></path>
	<path d="M3157.8,2831.4c-1.4,22,11.8,50.8,90.1,50.8c82.2,0,92.6-31.7,89.8-54
		c-11.7,8.9-25.3,15.1-40.2,17.3C3251.6,2852.3,3200.4,2852.3,3157.8,2831.4z" class="Graphic_x0020_Style_x0020_218"></path>
	<path d="M3388.2,2523.2c3.6-7.1,7-14.3,10.4-21.6l-65.8,0.6
		c-8.5,112.2-96.1,215.4-208.1,223.4c10.5,27,24,54.1,40.3,81.3c0,0-6.4,11-7.3,24.6c42.6,20.8,93.8,20.9,139.6,14.1
		c14.9-2.2,28.5-8.4,40.2-17.3c-1.5-12.1-7-21.4-7-21.4C3388.3,2710.8,3411.2,2615.5,3388.2,2523.2z" class="Graphic_x0020_Style_x0020_86"></path>
	<linearGradient y2="3147.5796" x2="1503.5112" y1="3147.5796" x1="1280.0717" gradientUnits="userSpaceOnUse" id="SVGID_4_">
		<stop style="stop-color:#68B2FC" offset="0"></stop>
		<stop style="stop-color:#529BF7" offset="1"></stop>
	</linearGradient>
	<path d="M1503.5,3147.6c0-61.7-50-111.7-111.7-111.7c-61.7,0-111.7,50-111.7,111.7c0,61.7,50,111.7,111.7,111.7
		C1453.5,3259.3,1503.5,3209.3,1503.5,3147.6z" class="st21"></path>
	<linearGradient y2="3210.7446" x2="1940.6575" y1="3210.7446" x1="1817.1377" gradientUnits="userSpaceOnUse" id="SVGID_5_">
		<stop style="stop-color:#4085F0" offset="0"></stop>
		<stop style="stop-color:#275DC9" offset="1"></stop>
	</linearGradient>
	<path d="M1940.7,3210.7c0-34.1-27.7-61.8-61.8-61.8s-61.8,27.6-61.8,61.8c0,34.1,27.7,61.8,61.8,61.8
		S1940.7,3244.9,1940.7,3210.7z" class="st22"></path>
	<linearGradient y2="2738.4971" x2="260.8229" y1="2738.4971" x1="131.9563" gradientUnits="userSpaceOnUse" id="SVGID_6_">
		<stop style="stop-color:#4085F0" offset="0"></stop>
		<stop style="stop-color:#275DC9" offset="1"></stop>
	</linearGradient>
	<path d="M260.8,2738.5c0,35.6-28.8,64.4-64.4,64.4c-35.6,0-64.4-28.8-64.4-64.4c0-35.6,28.8-64.4,64.4-64.4
		C232,2674.1,260.8,2702.9,260.8,2738.5z" class="st23"></path>
	<linearGradient y2="2787.1731" x2="3767.1592" y1="2787.1731" x1="3613.8169" gradientUnits="userSpaceOnUse" id="SVGID_7_">
		<stop style="stop-color:#4085F0" offset="0"></stop>
		<stop style="stop-color:#275DC9" offset="1"></stop>
	</linearGradient>
	<path d="M3767.2,2787.2c0-42.3-34.3-76.7-76.7-76.7s-76.7,34.3-76.7,76.7s34.3,76.7,76.7,76.7
		S3767.2,2829.5,3767.2,2787.2z" class="st24"></path>
	<rect height="36.8" width="102.1" class="Graphic_x0020_Style_x0020_218" y="1808" x="1167.6"></rect>
	<rect height="36.8" width="102.1" class="Graphic_x0020_Style_x0020_218" y="1805.7" x="2197.2"></rect>
</g>
</svg>
