<?xml version="1.0" standalone="no"?><!DOCTYPE svg PUBLIC "-//W3C//DTD SVG 1.1//EN" "http://www.w3.org/Graphics/SVG/1.1/DTD/svg11.dtd"><svg t="1706769134642" class="icon" viewBox="0 0 1129 1024" version="1.1" xmlns="http://www.w3.org/2000/svg" p-id="13100" xmlns:xlink="http://www.w3.org/1999/xlink" width="220.5078125" height="200"><path d="M58.642314 278.989346c34.289193-2.3379 64.292237 23.18417 67.214611 57.278538v0.974125C140.273973 541.613394 248.401826 673.899543 459.78691 742.86758l6.429224 2.143074c25.91172 8.182648 43.445967 31.951294 44.030441 58.837139v155.85997c0 34.678843-28.249619 62.928463-63.123287 62.928462s-62.538813-27.665145-63.123288-61.954338v-0.974124-109.881279l-2.143075-0.7793C149.820396 760.986301 20.066971 593.436834 0.7793 353.996956l-0.584475-7.792999a62.889498 62.889498 0 0 1 58.447489-67.214611z m1012.700152 1.168949c-34.289193-2.3379-64.292237 23.18417-67.214612 57.278539v0.974125c-14.417047 204.371385-122.544901 336.657534-333.929985 405.625571l-6.429224 2.143074a63.084323 63.084323 0 0 0-44.030441 58.837139v155.859969c0 34.678843 28.249619 62.928463 63.123288 62.928463s62.538813-27.665145 63.123287-61.954338v-0.974125-109.881278l2.143075-0.7793c232.03653-88.060883 361.789954-255.61035 381.077625-495.050228l0.584475-7.792999a62.889498 62.889498 0 0 0-58.447488-67.214612zM716.95586 0c105.984779 0 187.811263 80.657534 187.811263 184.694064s-80.073059 194.630137-207.683409 311.914764l-9.351598 8.572298-9.546423 8.572299-4.870625 4.286149-9.741248 8.767123-9.936073 8.961948-15.196347 13.637748-25.91172 23.18417-19.872146 17.534247c-16.754947 14.611872-41.497717 15.001522-58.447488 0.584475l-0.7793-0.584475-19.872146-17.534247-30.977169-27.859969-10.130898-8.961949-14.806697-13.248097c-1.5586-1.5586-3.312024-2.922374-4.870624-4.480974l-9.546424-8.767123c-1.5586-1.363775-3.117199-2.922374-4.675799-4.28615l-9.351598-8.572298c-127.805175-117.284627-207.683409-205.929985-207.683409-311.914764S303.537291 0 409.52207 0c59.811263 0 116.115677 26.885845 153.716895 70.526636C600.840183 26.885845 657.144597 0 716.95586 0z" fill="#1296db" p-id="13101"></path></svg>