<?xml version="1.0" standalone="no"?><!DOCTYPE svg PUBLIC "-//W3C//DTD SVG 1.1//EN" "http://www.w3.org/Graphics/SVG/1.1/DTD/svg11.dtd"><svg t="1706769011905" class="icon" viewBox="0 0 1024 1024" version="1.1" xmlns="http://www.w3.org/2000/svg" p-id="10509" xmlns:xlink="http://www.w3.org/1999/xlink" width="200" height="200"><path d="M512.512 882.176c-40.448 0-78.336-18.944-100.864-50.176L113.152 420.352c-19.456-27.136-21.504-61.952-5.12-90.624l88.576-155.648c15.872-27.648 46.592-45.056 79.36-45.056h472.064c33.28 0 63.488 17.408 79.36 45.056l89.088 155.648c16.384 28.672 14.336 63.488-5.12 90.624l-185.856 256c-8.192 11.264-23.552 13.824-34.816 5.632s-13.824-23.552-5.632-34.816l185.856-256.512c7.68-10.752 8.704-25.088 2.048-36.352l-88.576-155.648c-7.168-12.288-20.992-19.968-36.352-19.968H276.48c-15.36 0-29.184 7.68-36.352 19.968l-88.576 155.648c-6.656 11.776-5.632 25.6 2.048 36.352l297.984 411.648C465.408 821.248 487.424 832 512 832c24.576 0 46.592-10.752 60.416-29.696l40.448-55.808c8.192-11.264 23.552-13.824 34.816-5.632s13.824 23.552 5.632 34.816l-40.448 55.808c-22.528 32.256-60.416 50.688-100.352 50.688z" fill="#1296db" p-id="10510"></path><path d="M512.512 726.016c-18.432 0-35.328-8.704-45.568-23.04l-122.88-169.472c-8.192-11.264-5.632-26.624 5.632-34.816s26.624-5.632 34.816 5.632L506.88 673.792c1.536 2.048 4.096 2.048 5.12 2.048s3.584 0 5.12-2.048L640 504.32c8.192-11.264 23.552-13.824 34.816-5.632s13.824 23.552 5.632 34.816L558.08 702.976c-10.752 14.336-27.648 23.04-45.568 23.04z" fill="#1296db" p-id="10511"></path></svg>