<?xml version="1.0" standalone="no"?><!DOCTYPE svg PUBLIC "-//W3C//DTD SVG 1.1//EN" "http://www.w3.org/Graphics/SVG/1.1/DTD/svg11.dtd"><svg t="1706769068534" class="icon" viewBox="0 0 1024 1024" version="1.1" xmlns="http://www.w3.org/2000/svg" p-id="11798" xmlns:xlink="http://www.w3.org/1999/xlink" width="200" height="200"><path d="M444.188444 968.192c-37.888 0-75.178667 2.844444-112.469333-0.568889a6207.431111 6207.431111 0 0 1-253.013333-29.866667c-34.986667-4.551111-40.163556-12.032-45.909334-47.047111-6.883556-41.301333-3.982222-82.033778 4.608-122.766222 8.021333-37.290667 36.124444-57.941333 69.973334-69.973333 30.435556-11.491556 62.577778-18.972444 93.525333-30.435556 18.375111-6.314667 35.555556-15.502222 52.224-25.230222 33.848889-20.081778 48.184889-50.488889 43.605333-90.083556-2.275556-18.375111-7.452444-35.555556-22.954666-46.478222-29.269333-20.650667-45.312-49.351111-55.068445-83.2a27.591111 27.591111 0 0 0-10.325333-13.767111c-33.848889-22.954667-44.771556-70.570667-24.120889-106.723555 4.608-8.021333 6.883556-18.346667 8.049778-27.534223 5.148444-37.290667 6.883556-75.719111 14.904889-111.872 22.954667-98.702222 100.408889-159.516444 201.955555-161.792 43.036444-1.137778 83.768889 7.452444 123.363556 25.230223 55.068444 24.092444 90.652444 65.991111 106.154667 123.363555 8.021333 30.407111 13.198222 61.952 17.777777 92.956445 3.413333 24.092444 2.275556 47.616 15.502223 71.68 17.208889 31.004444 0 74.609778-29.297778 95.857777-8.021333 5.717333-11.463111 17.777778-14.904889 27.534223-3.413333 9.728-8.021333 16.64-18.346667 21.219555a363.150222 363.150222 0 0 0-172.117333 495.132445c2.275556 5.176889 4.579556 10.325333 6.883555 14.364444z" fill="#1296db" p-id="11799"></path><path d="M719.587556 505.173333c-141.710222 0-258.759111 117.048889-258.759112 259.328 0 142.848 116.451556 258.759111 258.759112 258.190223a257.991111 257.991111 0 0 0 258.190222-258.759112c0-142.307556-115.911111-258.759111-258.190222-258.759111z m-29.866667 370.631111l-118.158222-118.186666 36.693333-36.721778 81.493333 81.464889 140.572445-140.572445 36.693333 36.721778-177.265778 177.294222z" fill="#1296db" p-id="11800"></path></svg>