<svg width="39" height="39" viewBox="0 0 39 39" fill="none" xmlns="http://www.w3.org/2000/svg">
    <path fill-rule="evenodd" clip-rule="evenodd"
          d="M36.327 15.566C28.09 17.774 22.345 27.966 24.508 36.037C24.508 36.037 24.583 38.328 24.56 38.337C24.537 38.346 23.452 36.325 23.432 36.328C21.269 28.254 11.2 22.3 2.96101 24.507C2.95101 24.507 0.661011 24.554 0.661011 24.547C0.661011 24.54 2.66101 23.433 2.67401 23.431C10.911 21.223 16.656 11.031 14.493 2.95999C14.466 2.96699 14.493 2.95499 14.493 2.95999C14.52 2.95299 14.45 0.65999 14.426 0.66799C14.426 0.66799 15.569 2.66799 15.57 2.66799C17.733 10.741 27.803 16.693 36.04 14.486C36.05 14.486 38.351 14.452 38.34 14.446C38.308 14.431 36.337 15.565 36.327 15.566Z"
          fill="#EEBA55"/>
</svg>
