<svg width="210" height="238" viewBox="0 0 210 238" fill="none" xmlns="http://www.w3.org/2000/svg">
    <path fill-rule="evenodd" clip-rule="evenodd"
          d="M125 218C124.011 218 123.044 217.707 122.222 217.157C121.4 216.608 120.759 215.827 120.381 214.913C120.002 214 119.903 212.994 120.096 212.025C120.289 211.055 120.765 210.164 121.464 209.464C122.164 208.765 123.055 208.289 124.025 208.096C124.994 207.903 126 208.002 126.913 208.381C127.827 208.759 128.608 209.4 129.157 210.222C129.707 211.044 130 212.011 130 213C130 214.326 129.473 215.598 128.536 216.536C127.598 217.473 126.326 218 125 218ZM125 198C124.011 198 123.044 197.707 122.222 197.157C121.4 196.608 120.759 195.827 120.381 194.913C120.002 194 119.903 192.994 120.096 192.025C120.289 191.055 120.765 190.164 121.464 189.464C122.164 188.765 123.055 188.289 124.025 188.096C124.994 187.903 126 188.002 126.913 188.381C127.827 188.759 128.608 189.4 129.157 190.222C129.707 191.044 130 192.011 130 193C130 194.326 129.473 195.598 128.536 196.536C127.598 197.473 126.326 198 125 198ZM125 178C124.011 178 123.044 177.707 122.222 177.157C121.4 176.608 120.759 175.827 120.381 174.913C120.002 174 119.903 172.994 120.096 172.025C120.289 171.055 120.765 170.164 121.464 169.464C122.164 168.765 123.055 168.289 124.025 168.096C124.994 167.903 126 168.002 126.913 168.381C127.827 168.759 128.608 169.4 129.157 170.222C129.707 171.044 130 172.011 130 173C130 174.326 129.473 175.598 128.536 176.536C127.598 177.473 126.326 178 125 178ZM125 158C124.011 158 123.044 157.707 122.222 157.157C121.4 156.608 120.759 155.827 120.381 154.913C120.002 154 119.903 152.994 120.096 152.025C120.289 151.055 120.765 150.164 121.464 149.464C122.164 148.765 123.055 148.289 124.025 148.096C124.994 147.903 126 148.002 126.913 148.381C127.827 148.759 128.608 149.4 129.157 150.222C129.707 151.044 130 152.011 130 153C130 154.326 129.473 155.598 128.536 156.536C127.598 157.473 126.326 158 125 158ZM125 138C124.011 138 123.044 137.707 122.222 137.157C121.4 136.608 120.759 135.827 120.381 134.913C120.002 134 119.903 132.994 120.096 132.025C120.289 131.055 120.765 130.164 121.464 129.464C122.164 128.765 123.055 128.289 124.025 128.096C124.994 127.903 126 128.002 126.913 128.381C127.827 128.759 128.608 129.4 129.157 130.222C129.707 131.044 130 132.011 130 133C130 134.326 129.473 135.598 128.536 136.536C127.598 137.473 126.326 138 125 138ZM125 118C124.011 118 123.044 117.707 122.222 117.157C121.4 116.608 120.759 115.827 120.381 114.913C120.002 114 119.903 112.994 120.096 112.025C120.289 111.055 120.765 110.164 121.464 109.464C122.164 108.765 123.055 108.289 124.025 108.096C124.994 107.903 126 108.002 126.913 108.381C127.827 108.759 128.608 109.4 129.157 110.222C129.707 111.044 130 112.011 130 113C130 114.326 129.473 115.598 128.536 116.536C127.598 117.473 126.326 118 125 118ZM125 98C124.011 98 123.044 97.7068 122.222 97.1573C121.4 96.6079 120.759 95.827 120.381 94.9134C120.002 93.9998 119.903 92.9945 120.096 92.0246C120.289 91.0546 120.765 90.1637 121.464 89.4645C122.164 88.7652 123.055 88.289 124.025 88.0961C124.994 87.9031 126 88.0022 126.913 88.3806C127.827 88.759 128.608 89.3999 129.157 90.2222C129.707 91.0444 130 92.0111 130 93C130 94.3261 129.473 95.5979 128.536 96.5355C127.598 97.4732 126.326 98 125 98ZM125 78C124.011 78 123.044 77.7068 122.222 77.1573C121.4 76.6079 120.759 75.827 120.381 74.9134C120.002 73.9998 119.903 72.9945 120.096 72.0246C120.289 71.0546 120.765 70.1637 121.464 69.4645C122.164 68.7652 123.055 68.289 124.025 68.0961C124.994 67.9031 126 68.0022 126.913 68.3806C127.827 68.759 128.608 69.3999 129.157 70.2222C129.707 71.0444 130 72.0111 130 73C130 74.3261 129.473 75.5979 128.536 76.5355C127.598 77.4732 126.326 78 125 78ZM125 58C124.011 58 123.044 57.7068 122.222 57.1573C121.4 56.6079 120.759 55.827 120.381 54.9134C120.002 53.9998 119.903 52.9945 120.096 52.0246C120.289 51.0546 120.765 50.1637 121.464 49.4645C122.164 48.7652 123.055 48.289 124.025 48.0961C124.994 47.9032 126 48.0022 126.913 48.3806C127.827 48.759 128.608 49.3999 129.157 50.2221C129.707 51.0444 130 52.0111 130 53C130 54.3261 129.473 55.5979 128.536 56.5355C127.598 57.4732 126.326 58 125 58ZM125 38C124.011 38 123.044 37.7068 122.222 37.1573C121.4 36.6079 120.759 35.827 120.381 34.9134C120.002 33.9998 119.903 32.9945 120.096 32.0246C120.289 31.0546 120.765 30.1637 121.464 29.4645C122.164 28.7652 123.055 28.289 124.025 28.0961C124.994 27.9032 126 28.0022 126.913 28.3806C127.827 28.759 128.608 29.3999 129.157 30.2221C129.707 31.0444 130 32.0111 130 33C130 34.3261 129.473 35.5979 128.536 36.5355C127.598 37.4732 126.326 38 125 38ZM125 18C124.011 18 123.044 17.7068 122.222 17.1574C121.4 16.6079 120.759 15.827 120.381 14.9134C120.002 13.9998 119.903 12.9945 120.096 12.0246C120.289 11.0546 120.765 10.1637 121.464 9.46447C122.164 8.76521 123.055 8.28901 124.025 8.09608C124.994 7.90316 126 8.00217 126.913 8.3806C127.827 8.75904 128.608 9.3999 129.157 10.2221C129.707 11.0444 130 12.0111 130 13C130 14.3261 129.473 15.5979 128.536 16.5355C127.598 17.4732 126.326 18 125 18ZM125 -2C124.011 -2 123.044 -2.29324 122.222 -2.84265C121.4 -3.39206 120.759 -4.17295 120.381 -5.08658C120.002 -6.00021 119.903 -7.00554 120.096 -7.97545C120.289 -8.94536 120.765 -9.83627 121.464 -10.5355C122.164 -11.2348 123.055 -11.711 124.025 -11.9039C124.994 -12.0969 126 -11.9978 126.913 -11.6194C127.827 -11.241 128.608 -10.6001 129.157 -9.77785C129.707 -8.9556 130 -7.9889 130 -7C130 -5.67392 129.473 -4.40215 128.536 -3.46446C127.598 -2.52678 126.326 -2 125 -2ZM125 -22C124.011 -22 123.044 -22.2932 122.222 -22.8426C121.4 -23.3921 120.759 -24.1729 120.381 -25.0866C120.002 -26.0002 119.903 -27.0055 120.096 -27.9755C120.289 -28.9454 120.765 -29.8363 121.464 -30.5355C122.164 -31.2348 123.055 -31.711 124.025 -31.9039C124.994 -32.0969 126 -31.9978 126.913 -31.6194C127.827 -31.241 128.608 -30.6001 129.157 -29.7778C129.707 -28.9556 130 -27.9889 130 -27C130 -25.6739 129.473 -24.4021 128.536 -23.4645C127.598 -22.5268 126.326 -22 125 -22ZM105 238C104.011 238 103.044 237.707 102.222 237.157C101.4 236.608 100.759 235.827 100.381 234.913C100.002 234 99.9032 232.994 100.096 232.025C100.289 231.055 100.765 230.164 101.464 229.464C102.164 228.765 103.055 228.289 104.025 228.096C104.994 227.903 106 228.002 106.913 228.381C107.827 228.759 108.608 229.4 109.157 230.222C109.707 231.044 110 232.011 110 233C110 234.326 109.473 235.598 108.536 236.536C107.598 237.473 106.326 238 105 238ZM105 218C104.011 218 103.044 217.707 102.222 217.157C101.4 216.608 100.759 215.827 100.381 214.913C100.002 214 99.9032 212.994 100.096 212.025C100.289 211.055 100.765 210.164 101.464 209.464C102.164 208.765 103.055 208.289 104.025 208.096C104.994 207.903 106 208.002 106.913 208.381C107.827 208.759 108.608 209.4 109.157 210.222C109.707 211.044 110 212.011 110 213C110 214.326 109.473 215.598 108.536 216.536C107.598 217.473 106.326 218 105 218ZM105 198C104.011 198 103.044 197.707 102.222 197.157C101.4 196.608 100.759 195.827 100.381 194.913C100.002 194 99.9032 192.994 100.096 192.025C100.289 191.055 100.765 190.164 101.464 189.464C102.164 188.765 103.055 188.289 104.025 188.096C104.994 187.903 106 188.002 106.913 188.381C107.827 188.759 108.608 189.4 109.157 190.222C109.707 191.044 110 192.011 110 193C110 194.326 109.473 195.598 108.536 196.536C107.598 197.473 106.326 198 105 198ZM105 178C104.011 178 103.044 177.707 102.222 177.157C101.4 176.608 100.759 175.827 100.381 174.913C100.002 174 99.9032 172.994 100.096 172.025C100.289 171.055 100.765 170.164 101.464 169.464C102.164 168.765 103.055 168.289 104.025 168.096C104.994 167.903 106 168.002 106.913 168.381C107.827 168.759 108.608 169.4 109.157 170.222C109.707 171.044 110 172.011 110 173C110 174.326 109.473 175.598 108.536 176.536C107.598 177.473 106.326 178 105 178ZM105 158C104.011 158 103.044 157.707 102.222 157.157C101.4 156.608 100.759 155.827 100.381 154.913C100.002 154 99.9032 152.994 100.096 152.025C100.289 151.055 100.765 150.164 101.464 149.464C102.164 148.765 103.055 148.289 104.025 148.096C104.994 147.903 106 148.002 106.913 148.381C107.827 148.759 108.608 149.4 109.157 150.222C109.707 151.044 110 152.011 110 153C110 154.326 109.473 155.598 108.536 156.536C107.598 157.473 106.326 158 105 158ZM105 138C104.011 138 103.044 137.707 102.222 137.157C101.4 136.608 100.759 135.827 100.381 134.913C100.002 134 99.9032 132.994 100.096 132.025C100.289 131.055 100.765 130.164 101.464 129.464C102.164 128.765 103.055 128.289 104.025 128.096C104.994 127.903 106 128.002 106.913 128.381C107.827 128.759 108.608 129.4 109.157 130.222C109.707 131.044 110 132.011 110 133C110 134.326 109.473 135.598 108.536 136.536C107.598 137.473 106.326 138 105 138ZM105 118C104.011 118 103.044 117.707 102.222 117.157C101.4 116.608 100.759 115.827 100.381 114.913C100.002 114 99.9032 112.994 100.096 112.025C100.289 111.055 100.765 110.164 101.464 109.464C102.164 108.765 103.055 108.289 104.025 108.096C104.994 107.903 106 108.002 106.913 108.381C107.827 108.759 108.608 109.4 109.157 110.222C109.707 111.044 110 112.011 110 113C110 114.326 109.473 115.598 108.536 116.536C107.598 117.473 106.326 118 105 118ZM105 98C104.011 98 103.044 97.7068 102.222 97.1573C101.4 96.6079 100.759 95.827 100.381 94.9134C100.002 93.9998 99.9032 92.9945 100.096 92.0246C100.289 91.0546 100.765 90.1637 101.464 89.4645C102.164 88.7652 103.055 88.289 104.025 88.0961C104.994 87.9031 106 88.0022 106.913 88.3806C107.827 88.759 108.608 89.3999 109.157 90.2222C109.707 91.0444 110 92.0111 110 93C110 94.3261 109.473 95.5979 108.536 96.5355C107.598 97.4732 106.326 98 105 98ZM105 78C104.011 78 103.044 77.7068 102.222 77.1573C101.4 76.6079 100.759 75.827 100.381 74.9134C100.002 73.9998 99.9032 72.9945 100.096 72.0246C100.289 71.0546 100.765 70.1637 101.464 69.4645C102.164 68.7652 103.055 68.289 104.025 68.0961C104.994 67.9031 106 68.0022 106.913 68.3806C107.827 68.759 108.608 69.3999 109.157 70.2222C109.707 71.0444 110 72.0111 110 73C110 74.3261 109.473 75.5979 108.536 76.5355C107.598 77.4732 106.326 78 105 78ZM105 58C104.011 58 103.044 57.7068 102.222 57.1573C101.4 56.6079 100.759 55.827 100.381 54.9134C100.002 53.9998 99.9032 52.9945 100.096 52.0246C100.289 51.0546 100.765 50.1637 101.464 49.4645C102.164 48.7652 103.055 48.289 104.025 48.0961C104.994 47.9032 106 48.0022 106.913 48.3806C107.827 48.759 108.608 49.3999 109.157 50.2221C109.707 51.0444 110 52.0111 110 53C110 54.3261 109.473 55.5979 108.536 56.5355C107.598 57.4732 106.326 58 105 58ZM105 38C104.011 38 103.044 37.7068 102.222 37.1573C101.4 36.6079 100.759 35.827 100.381 34.9134C100.002 33.9998 99.9032 32.9945 100.096 32.0246C100.289 31.0546 100.765 30.1637 101.464 29.4645C102.164 28.7652 103.055 28.289 104.025 28.0961C104.994 27.9032 106 28.0022 106.913 28.3806C107.827 28.759 108.608 29.3999 109.157 30.2221C109.707 31.0444 110 32.0111 110 33C110 34.3261 109.473 35.5979 108.536 36.5355C107.598 37.4732 106.326 38 105 38ZM105 18C104.011 18 103.044 17.7068 102.222 17.1574C101.4 16.6079 100.759 15.827 100.381 14.9134C100.002 13.9998 99.9032 12.9945 100.096 12.0246C100.289 11.0546 100.765 10.1637 101.464 9.46447C102.164 8.76521 103.055 8.28901 104.025 8.09608C104.994 7.90316 106 8.00217 106.913 8.3806C107.827 8.75904 108.608 9.3999 109.157 10.2221C109.707 11.0444 110 12.0111 110 13C110 14.3261 109.473 15.5979 108.536 16.5355C107.598 17.4732 106.326 18 105 18ZM105 -2C104.011 -2 103.044 -2.29324 102.222 -2.84265C101.4 -3.39206 100.759 -4.17295 100.381 -5.08658C100.002 -6.00021 99.9032 -7.00554 100.096 -7.97545C100.289 -8.94536 100.765 -9.83627 101.464 -10.5355C102.164 -11.2348 103.055 -11.711 104.025 -11.9039C104.994 -12.0969 106 -11.9978 106.913 -11.6194C107.827 -11.241 108.608 -10.6001 109.157 -9.77785C109.707 -8.9556 110 -7.9889 110 -7C110 -5.67392 109.473 -4.40215 108.536 -3.46446C107.598 -2.52678 106.326 -2 105 -2ZM105 -22C104.011 -22 103.044 -22.2932 102.222 -22.8426C101.4 -23.3921 100.759 -24.1729 100.381 -25.0866C100.002 -26.0002 99.9032 -27.0055 100.096 -27.9755C100.289 -28.9454 100.765 -29.8363 101.464 -30.5355C102.164 -31.2348 103.055 -31.711 104.025 -31.9039C104.994 -32.0969 106 -31.9978 106.913 -31.6194C107.827 -31.241 108.608 -30.6001 109.157 -29.7778C109.707 -28.9556 110 -27.9889 110 -27C110 -25.6739 109.473 -24.4021 108.536 -23.4645C107.598 -22.5268 106.326 -22 105 -22ZM85 238C84.0111 238 83.0444 237.707 82.2221 237.157C81.3999 236.608 80.759 235.827 80.3806 234.913C80.0022 234 79.9032 232.994 80.0961 232.025C80.289 231.055 80.7652 230.164 81.4645 229.464C82.1637 228.765 83.0546 228.289 84.0246 228.096C84.9945 227.903 85.9998 228.002 86.9134 228.381C87.827 228.759 88.6079 229.4 89.1573 230.222C89.7068 231.044 90 232.011 90 233C90 234.326 89.4732 235.598 88.5355 236.536C87.5979 237.473 86.3261 238 85 238ZM85 218C84.0111 218 83.0444 217.707 82.2221 217.157C81.3999 216.608 80.759 215.827 80.3806 214.913C80.0022 214 79.9032 212.994 80.0961 212.025C80.289 211.055 80.7652 210.164 81.4645 209.464C82.1637 208.765 83.0546 208.289 84.0246 208.096C84.9945 207.903 85.9998 208.002 86.9134 208.381C87.827 208.759 88.6079 209.4 89.1573 210.222C89.7068 211.044 90 212.011 90 213C90 214.326 89.4732 215.598 88.5355 216.536C87.5979 217.473 86.3261 218 85 218ZM85 198C84.0111 198 83.0444 197.707 82.2221 197.157C81.3999 196.608 80.759 195.827 80.3806 194.913C80.0022 194 79.9032 192.994 80.0961 192.025C80.289 191.055 80.7652 190.164 81.4645 189.464C82.1637 188.765 83.0546 188.289 84.0246 188.096C84.9945 187.903 85.9998 188.002 86.9134 188.381C87.827 188.759 88.6079 189.4 89.1573 190.222C89.7068 191.044 90 192.011 90 193C90 194.326 89.4732 195.598 88.5355 196.536C87.5979 197.473 86.3261 198 85 198ZM85 178C84.0111 178 83.0444 177.707 82.2221 177.157C81.3999 176.608 80.759 175.827 80.3806 174.913C80.0022 174 79.9032 172.994 80.0961 172.025C80.289 171.055 80.7652 170.164 81.4645 169.464C82.1637 168.765 83.0546 168.289 84.0246 168.096C84.9945 167.903 85.9998 168.002 86.9134 168.381C87.827 168.759 88.6079 169.4 89.1573 170.222C89.7068 171.044 90 172.011 90 173C90 174.326 89.4732 175.598 88.5355 176.536C87.5979 177.473 86.3261 178 85 178ZM85 158C84.0111 158 83.0444 157.707 82.2221 157.157C81.3999 156.608 80.759 155.827 80.3806 154.913C80.0022 154 79.9032 152.994 80.0961 152.025C80.289 151.055 80.7652 150.164 81.4645 149.464C82.1637 148.765 83.0546 148.289 84.0246 148.096C84.9945 147.903 85.9998 148.002 86.9134 148.381C87.827 148.759 88.6079 149.4 89.1573 150.222C89.7068 151.044 90 152.011 90 153C90 154.326 89.4732 155.598 88.5355 156.536C87.5979 157.473 86.3261 158 85 158ZM85 138C84.0111 138 83.0444 137.707 82.2221 137.157C81.3999 136.608 80.759 135.827 80.3806 134.913C80.0022 134 79.9032 132.994 80.0961 132.025C80.289 131.055 80.7652 130.164 81.4645 129.464C82.1637 128.765 83.0546 128.289 84.0246 128.096C84.9945 127.903 85.9998 128.002 86.9134 128.381C87.827 128.759 88.6079 129.4 89.1573 130.222C89.7068 131.044 90 132.011 90 133C90 134.326 89.4732 135.598 88.5355 136.536C87.5979 137.473 86.3261 138 85 138ZM85 118C84.0111 118 83.0444 117.707 82.2221 117.157C81.3999 116.608 80.759 115.827 80.3806 114.913C80.0022 114 79.9032 112.994 80.0961 112.025C80.289 111.055 80.7652 110.164 81.4645 109.464C82.1637 108.765 83.0546 108.289 84.0246 108.096C84.9945 107.903 85.9998 108.002 86.9134 108.381C87.827 108.759 88.6079 109.4 89.1573 110.222C89.7068 111.044 90 112.011 90 113C90 114.326 89.4732 115.598 88.5355 116.536C87.5979 117.473 86.3261 118 85 118ZM85 98C84.0111 98 83.0444 97.7068 82.2221 97.1573C81.3999 96.6079 80.759 95.827 80.3806 94.9134C80.0022 93.9998 79.9032 92.9945 80.0961 92.0246C80.289 91.0546 80.7652 90.1637 81.4645 89.4645C82.1637 88.7652 83.0546 88.289 84.0246 88.0961C84.9945 87.9031 85.9998 88.0022 86.9134 88.3806C87.827 88.759 88.6079 89.3999 89.1573 90.2222C89.7068 91.0444 90 92.0111 90 93C90 94.3261 89.4732 95.5979 88.5355 96.5355C87.5979 97.4732 86.3261 98 85 98ZM85 78C84.0111 78 83.0444 77.7068 82.2221 77.1573C81.3999 76.6079 80.759 75.827 80.3806 74.9134C80.0022 73.9998 79.9032 72.9945 80.0961 72.0246C80.289 71.0546 80.7652 70.1637 81.4645 69.4645C82.1637 68.7652 83.0546 68.289 84.0246 68.0961C84.9945 67.9031 85.9998 68.0022 86.9134 68.3806C87.827 68.759 88.6079 69.3999 89.1573 70.2222C89.7068 71.0444 90 72.0111 90 73C90 74.3261 89.4732 75.5979 88.5355 76.5355C87.5979 77.4732 86.3261 78 85 78ZM85 58C84.0111 58 83.0444 57.7068 82.2221 57.1573C81.3999 56.6079 80.759 55.827 80.3806 54.9134C80.0022 53.9998 79.9032 52.9945 80.0961 52.0246C80.289 51.0546 80.7652 50.1637 81.4645 49.4645C82.1637 48.7652 83.0546 48.289 84.0246 48.0961C84.9945 47.9032 85.9998 48.0022 86.9134 48.3806C87.827 48.759 88.6079 49.3999 89.1573 50.2221C89.7068 51.0444 90 52.0111 90 53C90 54.3261 89.4732 55.5979 88.5355 56.5355C87.5979 57.4732 86.3261 58 85 58ZM85 38C84.0111 38 83.0444 37.7068 82.2221 37.1573C81.3999 36.6079 80.759 35.827 80.3806 34.9134C80.0022 33.9998 79.9032 32.9945 80.0961 32.0246C80.289 31.0546 80.7652 30.1637 81.4645 29.4645C82.1637 28.7652 83.0546 28.289 84.0246 28.0961C84.9945 27.9032 85.9998 28.0022 86.9134 28.3806C87.827 28.759 88.6079 29.3999 89.1573 30.2221C89.7068 31.0444 90 32.0111 90 33C90 34.3261 89.4732 35.5979 88.5355 36.5355C87.5979 37.4732 86.3261 38 85 38ZM85 18C84.0111 18 83.0444 17.7068 82.2221 17.1574C81.3999 16.6079 80.759 15.827 80.3806 14.9134C80.0022 13.9998 79.9032 12.9945 80.0961 12.0246C80.289 11.0546 80.7652 10.1637 81.4645 9.46447C82.1637 8.76521 83.0546 8.28901 84.0246 8.09608C84.9945 7.90316 85.9998 8.00217 86.9134 8.3806C87.827 8.75904 88.6079 9.3999 89.1573 10.2221C89.7068 11.0444 90 12.0111 90 13C90 14.3261 89.4732 15.5979 88.5355 16.5355C87.5979 17.4732 86.3261 18 85 18ZM85 -2C84.0111 -2 83.0444 -2.29324 82.2221 -2.84265C81.3999 -3.39206 80.759 -4.17295 80.3806 -5.08658C80.0022 -6.00021 79.9032 -7.00554 80.0961 -7.97545C80.289 -8.94536 80.7652 -9.83627 81.4645 -10.5355C82.1637 -11.2348 83.0546 -11.711 84.0246 -11.9039C84.9945 -12.0969 85.9998 -11.9978 86.9134 -11.6194C87.827 -11.241 88.6079 -10.6001 89.1573 -9.77785C89.7068 -8.9556 90 -7.9889 90 -7C90 -5.67392 89.4732 -4.40215 88.5355 -3.46446C87.5979 -2.52678 86.3261 -2 85 -2ZM85 -22C84.0111 -22 83.0444 -22.2932 82.2221 -22.8426C81.3999 -23.3921 80.759 -24.1729 80.3806 -25.0866C80.0022 -26.0002 79.9032 -27.0055 80.0961 -27.9755C80.289 -28.9454 80.7652 -29.8363 81.4645 -30.5355C82.1637 -31.2348 83.0546 -31.711 84.0246 -31.9039C84.9945 -32.0969 85.9998 -31.9978 86.9134 -31.6194C87.827 -31.241 88.6079 -30.6001 89.1573 -29.7778C89.7068 -28.9556 90 -27.9889 90 -27C90 -25.6739 89.4732 -24.4021 88.5355 -23.4645C87.5979 -22.5268 86.3261 -22 85 -22ZM65 238C64.0111 238 63.0444 237.707 62.2222 237.157C61.3999 236.608 60.759 235.827 60.3806 234.913C60.0022 234 59.9032 232.994 60.0961 232.025C60.289 231.055 60.7652 230.164 61.4645 229.464C62.1637 228.765 63.0546 228.289 64.0246 228.096C64.9945 227.903 65.9998 228.002 66.9134 228.381C67.827 228.759 68.6079 229.4 69.1573 230.222C69.7068 231.044 70 232.011 70 233C70 234.326 69.4732 235.598 68.5355 236.536C67.5979 237.473 66.3261 238 65 238ZM65 218C64.0111 218 63.0444 217.707 62.2222 217.157C61.3999 216.608 60.759 215.827 60.3806 214.913C60.0022 214 59.9032 212.994 60.0961 212.025C60.289 211.055 60.7652 210.164 61.4645 209.464C62.1637 208.765 63.0546 208.289 64.0246 208.096C64.9945 207.903 65.9998 208.002 66.9134 208.381C67.827 208.759 68.6079 209.4 69.1573 210.222C69.7068 211.044 70 212.011 70 213C70 214.326 69.4732 215.598 68.5355 216.536C67.5979 217.473 66.3261 218 65 218ZM65 198C64.0111 198 63.0444 197.707 62.2222 197.157C61.3999 196.608 60.759 195.827 60.3806 194.913C60.0022 194 59.9032 192.994 60.0961 192.025C60.289 191.055 60.7652 190.164 61.4645 189.464C62.1637 188.765 63.0546 188.289 64.0246 188.096C64.9945 187.903 65.9998 188.002 66.9134 188.381C67.827 188.759 68.6079 189.4 69.1573 190.222C69.7068 191.044 70 192.011 70 193C70 194.326 69.4732 195.598 68.5355 196.536C67.5979 197.473 66.3261 198 65 198ZM65 178C64.0111 178 63.0444 177.707 62.2222 177.157C61.3999 176.608 60.759 175.827 60.3806 174.913C60.0022 174 59.9032 172.994 60.0961 172.025C60.289 171.055 60.7652 170.164 61.4645 169.464C62.1637 168.765 63.0546 168.289 64.0246 168.096C64.9945 167.903 65.9998 168.002 66.9134 168.381C67.827 168.759 68.6079 169.4 69.1573 170.222C69.7068 171.044 70 172.011 70 173C70 174.326 69.4732 175.598 68.5355 176.536C67.5979 177.473 66.3261 178 65 178ZM65 158C64.0111 158 63.0444 157.707 62.2222 157.157C61.3999 156.608 60.759 155.827 60.3806 154.913C60.0022 154 59.9032 152.994 60.0961 152.025C60.289 151.055 60.7652 150.164 61.4645 149.464C62.1637 148.765 63.0546 148.289 64.0246 148.096C64.9945 147.903 65.9998 148.002 66.9134 148.381C67.827 148.759 68.6079 149.4 69.1573 150.222C69.7068 151.044 70 152.011 70 153C70 154.326 69.4732 155.598 68.5355 156.536C67.5979 157.473 66.3261 158 65 158ZM65 138C64.0111 138 63.0444 137.707 62.2222 137.157C61.3999 136.608 60.759 135.827 60.3806 134.913C60.0022 134 59.9032 132.994 60.0961 132.025C60.289 131.055 60.7652 130.164 61.4645 129.464C62.1637 128.765 63.0546 128.289 64.0246 128.096C64.9945 127.903 65.9998 128.002 66.9134 128.381C67.827 128.759 68.6079 129.4 69.1573 130.222C69.7068 131.044 70 132.011 70 133C70 134.326 69.4732 135.598 68.5355 136.536C67.5979 137.473 66.3261 138 65 138ZM65 118C64.0111 118 63.0444 117.707 62.2222 117.157C61.3999 116.608 60.759 115.827 60.3806 114.913C60.0022 114 59.9032 112.994 60.0961 112.025C60.289 111.055 60.7652 110.164 61.4645 109.464C62.1637 108.765 63.0546 108.289 64.0246 108.096C64.9945 107.903 65.9998 108.002 66.9134 108.381C67.827 108.759 68.6079 109.4 69.1573 110.222C69.7068 111.044 70 112.011 70 113C70 114.326 69.4732 115.598 68.5355 116.536C67.5979 117.473 66.3261 118 65 118ZM65 98C64.0111 98 63.0444 97.7068 62.2222 97.1573C61.3999 96.6079 60.759 95.827 60.3806 94.9134C60.0022 93.9998 59.9032 92.9945 60.0961 92.0246C60.289 91.0546 60.7652 90.1637 61.4645 89.4645C62.1637 88.7652 63.0546 88.289 64.0246 88.0961C64.9945 87.9031 65.9998 88.0022 66.9134 88.3806C67.827 88.759 68.6079 89.3999 69.1573 90.2222C69.7068 91.0444 70 92.0111 70 93C70 94.3261 69.4732 95.5979 68.5355 96.5355C67.5979 97.4732 66.3261 98 65 98ZM65 78C64.0111 78 63.0444 77.7068 62.2222 77.1573C61.3999 76.6079 60.759 75.827 60.3806 74.9134C60.0022 73.9998 59.9032 72.9945 60.0961 72.0246C60.289 71.0546 60.7652 70.1637 61.4645 69.4645C62.1637 68.7652 63.0546 68.289 64.0246 68.0961C64.9945 67.9031 65.9998 68.0022 66.9134 68.3806C67.827 68.759 68.6079 69.3999 69.1573 70.2222C69.7068 71.0444 70 72.0111 70 73C70 74.3261 69.4732 75.5979 68.5355 76.5355C67.5979 77.4732 66.3261 78 65 78ZM65 58C64.0111 58 63.0444 57.7068 62.2222 57.1573C61.3999 56.6079 60.759 55.827 60.3806 54.9134C60.0022 53.9998 59.9032 52.9945 60.0961 52.0246C60.289 51.0546 60.7652 50.1637 61.4645 49.4645C62.1637 48.7652 63.0546 48.289 64.0246 48.0961C64.9945 47.9032 65.9998 48.0022 66.9134 48.3806C67.827 48.759 68.6079 49.3999 69.1573 50.2221C69.7068 51.0444 70 52.0111 70 53C70 54.3261 69.4732 55.5979 68.5355 56.5355C67.5979 57.4732 66.3261 58 65 58ZM65 38C64.0111 38 63.0444 37.7068 62.2222 37.1573C61.3999 36.6079 60.759 35.827 60.3806 34.9134C60.0022 33.9998 59.9032 32.9945 60.0961 32.0246C60.289 31.0546 60.7652 30.1637 61.4645 29.4645C62.1637 28.7652 63.0546 28.289 64.0246 28.0961C64.9945 27.9032 65.9998 28.0022 66.9134 28.3806C67.827 28.759 68.6079 29.3999 69.1573 30.2221C69.7068 31.0444 70 32.0111 70 33C70 34.3261 69.4732 35.5979 68.5355 36.5355C67.5979 37.4732 66.3261 38 65 38ZM65 18C64.0111 18 63.0444 17.7068 62.2222 17.1574C61.3999 16.6079 60.759 15.827 60.3806 14.9134C60.0022 13.9998 59.9032 12.9945 60.0961 12.0246C60.289 11.0546 60.7652 10.1637 61.4645 9.46447C62.1637 8.76521 63.0546 8.28901 64.0246 8.09608C64.9945 7.90316 65.9998 8.00217 66.9134 8.3806C67.827 8.75904 68.6079 9.3999 69.1573 10.2221C69.7068 11.0444 70 12.0111 70 13C70 14.3261 69.4732 15.5979 68.5355 16.5355C67.5979 17.4732 66.3261 18 65 18ZM65 -2C64.0111 -2 63.0444 -2.29324 62.2222 -2.84265C61.3999 -3.39206 60.759 -4.17295 60.3806 -5.08658C60.0022 -6.00021 59.9032 -7.00554 60.0961 -7.97545C60.289 -8.94536 60.7652 -9.83627 61.4645 -10.5355C62.1637 -11.2348 63.0546 -11.711 64.0246 -11.9039C64.9945 -12.0969 65.9998 -11.9978 66.9134 -11.6194C67.827 -11.241 68.6079 -10.6001 69.1573 -9.77785C69.7068 -8.9556 70 -7.9889 70 -7C70 -5.67392 69.4732 -4.40215 68.5355 -3.46446C67.5979 -2.52678 66.3261 -2 65 -2ZM65 -22C64.0111 -22 63.0444 -22.2932 62.2222 -22.8426C61.3999 -23.3921 60.759 -24.1729 60.3806 -25.0866C60.0022 -26.0002 59.9032 -27.0055 60.0961 -27.9755C60.289 -28.9454 60.7652 -29.8363 61.4645 -30.5355C62.1637 -31.2348 63.0546 -31.711 64.0246 -31.9039C64.9945 -32.0969 65.9998 -31.9978 66.9134 -31.6194C67.827 -31.241 68.6079 -30.6001 69.1573 -29.7778C69.7068 -28.9556 70 -27.9889 70 -27C70 -25.6739 69.4732 -24.4021 68.5355 -23.4645C67.5979 -22.5268 66.3261 -22 65 -22ZM45 238C44.0111 238 43.0444 237.707 42.2222 237.157C41.3999 236.608 40.759 235.827 40.3806 234.913C40.0022 234 39.9032 232.994 40.0961 232.025C40.289 231.055 40.7652 230.164 41.4645 229.464C42.1637 228.765 43.0546 228.289 44.0246 228.096C44.9945 227.903 45.9998 228.002 46.9134 228.381C47.8271 228.759 48.6079 229.4 49.1574 230.222C49.7068 231.044 50 232.011 50 233C50 234.326 49.4732 235.598 48.5355 236.536C47.5979 237.473 46.3261 238 45 238ZM45 218C44.0111 218 43.0444 217.707 42.2222 217.157C41.3999 216.608 40.759 215.827 40.3806 214.913C40.0022 214 39.9032 212.994 40.0961 212.025C40.289 211.055 40.7652 210.164 41.4645 209.464C42.1637 208.765 43.0546 208.289 44.0246 208.096C44.9945 207.903 45.9998 208.002 46.9134 208.381C47.8271 208.759 48.6079 209.4 49.1574 210.222C49.7068 211.044 50 212.011 50 213C50 214.326 49.4732 215.598 48.5355 216.536C47.5979 217.473 46.3261 218 45 218ZM45 198C44.0111 198 43.0444 197.707 42.2222 197.157C41.3999 196.608 40.759 195.827 40.3806 194.913C40.0022 194 39.9032 192.994 40.0961 192.025C40.289 191.055 40.7652 190.164 41.4645 189.464C42.1637 188.765 43.0546 188.289 44.0246 188.096C44.9945 187.903 45.9998 188.002 46.9134 188.381C47.8271 188.759 48.6079 189.4 49.1574 190.222C49.7068 191.044 50 192.011 50 193C50 194.326 49.4732 195.598 48.5355 196.536C47.5979 197.473 46.3261 198 45 198ZM45 178C44.0111 178 43.0444 177.707 42.2222 177.157C41.3999 176.608 40.759 175.827 40.3806 174.913C40.0022 174 39.9032 172.994 40.0961 172.025C40.289 171.055 40.7652 170.164 41.4645 169.464C42.1637 168.765 43.0546 168.289 44.0246 168.096C44.9945 167.903 45.9998 168.002 46.9134 168.381C47.8271 168.759 48.6079 169.4 49.1574 170.222C49.7068 171.044 50 172.011 50 173C50 174.326 49.4732 175.598 48.5355 176.536C47.5979 177.473 46.3261 178 45 178ZM45 158C44.0111 158 43.0444 157.707 42.2222 157.157C41.3999 156.608 40.759 155.827 40.3806 154.913C40.0022 154 39.9032 152.994 40.0961 152.025C40.289 151.055 40.7652 150.164 41.4645 149.464C42.1637 148.765 43.0546 148.289 44.0246 148.096C44.9945 147.903 45.9998 148.002 46.9134 148.381C47.8271 148.759 48.6079 149.4 49.1574 150.222C49.7068 151.044 50 152.011 50 153C50 154.326 49.4732 155.598 48.5355 156.536C47.5979 157.473 46.3261 158 45 158ZM45 138C44.0111 138 43.0444 137.707 42.2222 137.157C41.3999 136.608 40.759 135.827 40.3806 134.913C40.0022 134 39.9032 132.994 40.0961 132.025C40.289 131.055 40.7652 130.164 41.4645 129.464C42.1637 128.765 43.0546 128.289 44.0246 128.096C44.9945 127.903 45.9998 128.002 46.9134 128.381C47.8271 128.759 48.6079 129.4 49.1574 130.222C49.7068 131.044 50 132.011 50 133C50 134.326 49.4732 135.598 48.5355 136.536C47.5979 137.473 46.3261 138 45 138ZM45 118C44.0111 118 43.0444 117.707 42.2222 117.157C41.3999 116.608 40.759 115.827 40.3806 114.913C40.0022 114 39.9032 112.994 40.0961 112.025C40.289 111.055 40.7652 110.164 41.4645 109.464C42.1637 108.765 43.0546 108.289 44.0246 108.096C44.9945 107.903 45.9998 108.002 46.9134 108.381C47.8271 108.759 48.6079 109.4 49.1574 110.222C49.7068 111.044 50 112.011 50 113C50 114.326 49.4732 115.598 48.5355 116.536C47.5979 117.473 46.3261 118 45 118ZM45 98C44.0111 98 43.0444 97.7068 42.2222 97.1573C41.3999 96.6079 40.759 95.827 40.3806 94.9134C40.0022 93.9998 39.9032 92.9945 40.0961 92.0246C40.289 91.0546 40.7652 90.1637 41.4645 89.4645C42.1637 88.7652 43.0546 88.289 44.0246 88.0961C44.9945 87.9031 45.9998 88.0022 46.9134 88.3806C47.8271 88.759 48.6079 89.3999 49.1574 90.2222C49.7068 91.0444 50 92.0111 50 93C50 94.3261 49.4732 95.5979 48.5355 96.5355C47.5979 97.4732 46.3261 98 45 98ZM45 78C44.0111 78 43.0444 77.7068 42.2222 77.1573C41.3999 76.6079 40.759 75.827 40.3806 74.9134C40.0022 73.9998 39.9032 72.9945 40.0961 72.0246C40.289 71.0546 40.7652 70.1637 41.4645 69.4645C42.1637 68.7652 43.0546 68.289 44.0246 68.0961C44.9945 67.9031 45.9998 68.0022 46.9134 68.3806C47.8271 68.759 48.6079 69.3999 49.1574 70.2222C49.7068 71.0444 50 72.0111 50 73C50 74.3261 49.4732 75.5979 48.5355 76.5355C47.5979 77.4732 46.3261 78 45 78ZM45 58C44.0111 58 43.0444 57.7068 42.2222 57.1573C41.3999 56.6079 40.759 55.827 40.3806 54.9134C40.0022 53.9998 39.9032 52.9945 40.0961 52.0246C40.289 51.0546 40.7652 50.1637 41.4645 49.4645C42.1637 48.7652 43.0546 48.289 44.0246 48.0961C44.9945 47.9032 45.9998 48.0022 46.9134 48.3806C47.8271 48.759 48.6079 49.3999 49.1574 50.2221C49.7068 51.0444 50 52.0111 50 53C50 54.3261 49.4732 55.5979 48.5355 56.5355C47.5979 57.4732 46.3261 58 45 58ZM45 38C44.0111 38 43.0444 37.7068 42.2222 37.1573C41.3999 36.6079 40.759 35.827 40.3806 34.9134C40.0022 33.9998 39.9032 32.9945 40.0961 32.0246C40.289 31.0546 40.7652 30.1637 41.4645 29.4645C42.1637 28.7652 43.0546 28.289 44.0246 28.0961C44.9945 27.9032 45.9998 28.0022 46.9134 28.3806C47.8271 28.759 48.6079 29.3999 49.1574 30.2221C49.7068 31.0444 50 32.0111 50 33C50 34.3261 49.4732 35.5979 48.5355 36.5355C47.5979 37.4732 46.3261 38 45 38ZM45 18C44.0111 18 43.0444 17.7068 42.2222 17.1574C41.3999 16.6079 40.759 15.827 40.3806 14.9134C40.0022 13.9998 39.9032 12.9945 40.0961 12.0246C40.289 11.0546 40.7652 10.1637 41.4645 9.46447C42.1637 8.76521 43.0546 8.28901 44.0246 8.09608C44.9945 7.90316 45.9998 8.00217 46.9134 8.3806C47.8271 8.75904 48.6079 9.3999 49.1574 10.2221C49.7068 11.0444 50 12.0111 50 13C50 14.3261 49.4732 15.5979 48.5355 16.5355C47.5979 17.4732 46.3261 18 45 18ZM45 -2C44.0111 -2 43.0444 -2.29324 42.2222 -2.84265C41.3999 -3.39206 40.759 -4.17295 40.3806 -5.08658C40.0022 -6.00021 39.9032 -7.00554 40.0961 -7.97545C40.289 -8.94536 40.7652 -9.83627 41.4645 -10.5355C42.1637 -11.2348 43.0546 -11.711 44.0246 -11.9039C44.9945 -12.0969 45.9998 -11.9978 46.9134 -11.6194C47.8271 -11.241 48.6079 -10.6001 49.1574 -9.77785C49.7068 -8.9556 50 -7.9889 50 -7C50 -5.67392 49.4732 -4.40215 48.5355 -3.46446C47.5979 -2.52678 46.3261 -2 45 -2ZM45 -22C44.0111 -22 43.0444 -22.2932 42.2222 -22.8426C41.3999 -23.3921 40.759 -24.1729 40.3806 -25.0866C40.0022 -26.0002 39.9032 -27.0055 40.0961 -27.9755C40.289 -28.9454 40.7652 -29.8363 41.4645 -30.5355C42.1637 -31.2348 43.0546 -31.711 44.0246 -31.9039C44.9945 -32.0969 45.9998 -31.9978 46.9134 -31.6194C47.8271 -31.241 48.6079 -30.6001 49.1574 -29.7778C49.7068 -28.9556 50 -27.9889 50 -27C50 -25.6739 49.4732 -24.4021 48.5355 -23.4645C47.5979 -22.5268 46.3261 -22 45 -22ZM25 238C24.0111 238 23.0444 237.707 22.2222 237.157C21.3999 236.608 20.759 235.827 20.3806 234.913C20.0022 234 19.9031 232.994 20.0961 232.025C20.289 231.055 20.7652 230.164 21.4645 229.464C22.1637 228.765 23.0546 228.289 24.0245 228.096C24.9945 227.903 25.9998 228.002 26.9134 228.381C27.8271 228.759 28.6079 229.4 29.1574 230.222C29.7068 231.044 30 232.011 30 233C30 234.326 29.4732 235.598 28.5355 236.536C27.5979 237.473 26.3261 238 25 238ZM25 218C24.0111 218 23.0444 217.707 22.2222 217.157C21.3999 216.608 20.759 215.827 20.3806 214.913C20.0022 214 19.9031 212.994 20.0961 212.025C20.289 211.055 20.7652 210.164 21.4645 209.464C22.1637 208.765 23.0546 208.289 24.0245 208.096C24.9945 207.903 25.9998 208.002 26.9134 208.381C27.8271 208.759 28.6079 209.4 29.1574 210.222C29.7068 211.044 30 212.011 30 213C30 214.326 29.4732 215.598 28.5355 216.536C27.5979 217.473 26.3261 218 25 218ZM25 198C24.0111 198 23.0444 197.707 22.2222 197.157C21.3999 196.608 20.759 195.827 20.3806 194.913C20.0022 194 19.9031 192.994 20.0961 192.025C20.289 191.055 20.7652 190.164 21.4645 189.464C22.1637 188.765 23.0546 188.289 24.0245 188.096C24.9945 187.903 25.9998 188.002 26.9134 188.381C27.8271 188.759 28.6079 189.4 29.1574 190.222C29.7068 191.044 30 192.011 30 193C30 194.326 29.4732 195.598 28.5355 196.536C27.5979 197.473 26.3261 198 25 198ZM25 178C24.0111 178 23.0444 177.707 22.2222 177.157C21.3999 176.608 20.759 175.827 20.3806 174.913C20.0022 174 19.9031 172.994 20.0961 172.025C20.289 171.055 20.7652 170.164 21.4645 169.464C22.1637 168.765 23.0546 168.289 24.0245 168.096C24.9945 167.903 25.9998 168.002 26.9134 168.381C27.8271 168.759 28.6079 169.4 29.1574 170.222C29.7068 171.044 30 172.011 30 173C30 174.326 29.4732 175.598 28.5355 176.536C27.5979 177.473 26.3261 178 25 178ZM25 158C24.0111 158 23.0444 157.707 22.2222 157.157C21.3999 156.608 20.759 155.827 20.3806 154.913C20.0022 154 19.9031 152.994 20.0961 152.025C20.289 151.055 20.7652 150.164 21.4645 149.464C22.1637 148.765 23.0546 148.289 24.0245 148.096C24.9945 147.903 25.9998 148.002 26.9134 148.381C27.8271 148.759 28.6079 149.4 29.1574 150.222C29.7068 151.044 30 152.011 30 153C30 154.326 29.4732 155.598 28.5355 156.536C27.5979 157.473 26.3261 158 25 158ZM25 138C24.0111 138 23.0444 137.707 22.2222 137.157C21.3999 136.608 20.759 135.827 20.3806 134.913C20.0022 134 19.9031 132.994 20.0961 132.025C20.289 131.055 20.7652 130.164 21.4645 129.464C22.1637 128.765 23.0546 128.289 24.0245 128.096C24.9945 127.903 25.9998 128.002 26.9134 128.381C27.8271 128.759 28.6079 129.4 29.1574 130.222C29.7068 131.044 30 132.011 30 133C30 134.326 29.4732 135.598 28.5355 136.536C27.5979 137.473 26.3261 138 25 138ZM25 118C24.0111 118 23.0444 117.707 22.2222 117.157C21.3999 116.608 20.759 115.827 20.3806 114.913C20.0022 114 19.9031 112.994 20.0961 112.025C20.289 111.055 20.7652 110.164 21.4645 109.464C22.1637 108.765 23.0546 108.289 24.0245 108.096C24.9945 107.903 25.9998 108.002 26.9134 108.381C27.8271 108.759 28.6079 109.4 29.1574 110.222C29.7068 111.044 30 112.011 30 113C30 114.326 29.4732 115.598 28.5355 116.536C27.5979 117.473 26.3261 118 25 118ZM25 98C24.0111 98 23.0444 97.7068 22.2222 97.1573C21.3999 96.6079 20.759 95.827 20.3806 94.9134C20.0022 93.9998 19.9031 92.9945 20.0961 92.0246C20.289 91.0546 20.7652 90.1637 21.4645 89.4645C22.1637 88.7652 23.0546 88.289 24.0245 88.0961C24.9945 87.9031 25.9998 88.0022 26.9134 88.3806C27.8271 88.759 28.6079 89.3999 29.1574 90.2222C29.7068 91.0444 30 92.0111 30 93C30 94.3261 29.4732 95.5979 28.5355 96.5355C27.5979 97.4732 26.3261 98 25 98ZM25 78C24.0111 78 23.0444 77.7068 22.2222 77.1573C21.3999 76.6079 20.759 75.827 20.3806 74.9134C20.0022 73.9998 19.9031 72.9945 20.0961 72.0246C20.289 71.0546 20.7652 70.1637 21.4645 69.4645C22.1637 68.7652 23.0546 68.289 24.0245 68.0961C24.9945 67.9031 25.9998 68.0022 26.9134 68.3806C27.8271 68.759 28.6079 69.3999 29.1574 70.2222C29.7068 71.0444 30 72.0111 30 73C30 74.3261 29.4732 75.5979 28.5355 76.5355C27.5979 77.4732 26.3261 78 25 78ZM25 58C24.0111 58 23.0444 57.7068 22.2222 57.1573C21.3999 56.6079 20.759 55.827 20.3806 54.9134C20.0022 53.9998 19.9031 52.9945 20.0961 52.0246C20.289 51.0546 20.7652 50.1637 21.4645 49.4645C22.1637 48.7652 23.0546 48.289 24.0245 48.0961C24.9945 47.9032 25.9998 48.0022 26.9134 48.3806C27.8271 48.759 28.6079 49.3999 29.1574 50.2221C29.7068 51.0444 30 52.0111 30 53C30 54.3261 29.4732 55.5979 28.5355 56.5355C27.5979 57.4732 26.3261 58 25 58ZM25 38C24.0111 38 23.0444 37.7068 22.2222 37.1573C21.3999 36.6079 20.759 35.827 20.3806 34.9134C20.0022 33.9998 19.9031 32.9945 20.0961 32.0246C20.289 31.0546 20.7652 30.1637 21.4645 29.4645C22.1637 28.7652 23.0546 28.289 24.0245 28.0961C24.9945 27.9032 25.9998 28.0022 26.9134 28.3806C27.8271 28.759 28.6079 29.3999 29.1574 30.2221C29.7068 31.0444 30 32.0111 30 33C30 34.3261 29.4732 35.5979 28.5355 36.5355C27.5979 37.4732 26.3261 38 25 38ZM25 18C24.0111 18 23.0444 17.7068 22.2222 17.1574C21.3999 16.6079 20.759 15.827 20.3806 14.9134C20.0022 13.9998 19.9031 12.9945 20.0961 12.0246C20.289 11.0546 20.7652 10.1637 21.4645 9.46447C22.1637 8.76521 23.0546 8.28901 24.0245 8.09608C24.9945 7.90316 25.9998 8.00217 26.9134 8.3806C27.8271 8.75904 28.6079 9.3999 29.1574 10.2221C29.7068 11.0444 30 12.0111 30 13C30 14.3261 29.4732 15.5979 28.5355 16.5355C27.5979 17.4732 26.3261 18 25 18ZM25 -2C24.0111 -2 23.0444 -2.29324 22.2222 -2.84265C21.3999 -3.39206 20.759 -4.17295 20.3806 -5.08658C20.0022 -6.00021 19.9031 -7.00554 20.0961 -7.97545C20.289 -8.94536 20.7652 -9.83627 21.4645 -10.5355C22.1637 -11.2348 23.0546 -11.711 24.0245 -11.9039C24.9945 -12.0969 25.9998 -11.9978 26.9134 -11.6194C27.8271 -11.241 28.6079 -10.6001 29.1574 -9.77785C29.7068 -8.9556 30 -7.9889 30 -7C30 -5.67392 29.4732 -4.40215 28.5355 -3.46446C27.5979 -2.52678 26.3261 -2 25 -2ZM25 -22C24.0111 -22 23.0444 -22.2932 22.2222 -22.8426C21.3999 -23.3921 20.759 -24.1729 20.3806 -25.0866C20.0022 -26.0002 19.9031 -27.0055 20.0961 -27.9755C20.289 -28.9454 20.7652 -29.8363 21.4645 -30.5355C22.1637 -31.2348 23.0546 -31.711 24.0245 -31.9039C24.9945 -32.0969 25.9998 -31.9978 26.9134 -31.6194C27.8271 -31.241 28.6079 -30.6001 29.1574 -29.7778C29.7068 -28.9556 30 -27.9889 30 -27C30 -25.6739 29.4732 -24.4021 28.5355 -23.4645C27.5979 -22.5268 26.3261 -22 25 -22ZM5 238C4.0111 238 3.0444 237.707 2.22215 237.157C1.39991 236.608 0.759043 235.827 0.380605 234.913C0.00216642 234 -0.0968503 232.994 0.0960759 232.025C0.289002 231.055 0.765206 230.164 1.46447 229.464C2.16373 228.765 3.05465 228.289 4.02455 228.096C4.99446 227.903 5.99979 228.002 6.91342 228.381C7.82705 228.759 8.60794 229.4 9.15735 230.222C9.70676 231.044 10 232.011 10 233C10 234.326 9.47322 235.598 8.53554 236.536C7.59785 237.473 6.32609 238 5 238ZM5 218C4.0111 218 3.0444 217.707 2.22215 217.157C1.39991 216.608 0.759043 215.827 0.380605 214.913C0.00216642 214 -0.0968503 212.994 0.0960759 212.025C0.289002 211.055 0.765206 210.164 1.46447 209.464C2.16373 208.765 3.05465 208.289 4.02455 208.096C4.99446 207.903 5.99979 208.002 6.91342 208.381C7.82705 208.759 8.60794 209.4 9.15735 210.222C9.70676 211.044 10 212.011 10 213C10 214.326 9.47322 215.598 8.53554 216.536C7.59785 217.473 6.32609 218 5 218ZM5 198C4.0111 198 3.0444 197.707 2.22215 197.157C1.39991 196.608 0.759043 195.827 0.380605 194.913C0.00216642 194 -0.0968503 192.994 0.0960759 192.025C0.289002 191.055 0.765206 190.164 1.46447 189.464C2.16373 188.765 3.05465 188.289 4.02455 188.096C4.99446 187.903 5.99979 188.002 6.91342 188.381C7.82705 188.759 8.60794 189.4 9.15735 190.222C9.70676 191.044 10 192.011 10 193C10 194.326 9.47322 195.598 8.53554 196.536C7.59785 197.473 6.32609 198 5 198ZM5 178C4.0111 178 3.0444 177.707 2.22215 177.157C1.39991 176.608 0.759043 175.827 0.380605 174.913C0.00216642 174 -0.0968503 172.994 0.0960759 172.025C0.289002 171.055 0.765206 170.164 1.46447 169.464C2.16373 168.765 3.05465 168.289 4.02455 168.096C4.99446 167.903 5.99979 168.002 6.91342 168.381C7.82705 168.759 8.60794 169.4 9.15735 170.222C9.70676 171.044 10 172.011 10 173C10 174.326 9.47322 175.598 8.53554 176.536C7.59785 177.473 6.32609 178 5 178ZM5 158C4.0111 158 3.0444 157.707 2.22215 157.157C1.39991 156.608 0.759043 155.827 0.380605 154.913C0.00216642 154 -0.0968503 152.994 0.0960759 152.025C0.289002 151.055 0.765206 150.164 1.46447 149.464C2.16373 148.765 3.05465 148.289 4.02455 148.096C4.99446 147.903 5.99979 148.002 6.91342 148.381C7.82705 148.759 8.60794 149.4 9.15735 150.222C9.70676 151.044 10 152.011 10 153C10 154.326 9.47322 155.598 8.53554 156.536C7.59785 157.473 6.32609 158 5 158ZM5 138C4.0111 138 3.0444 137.707 2.22215 137.157C1.39991 136.608 0.759043 135.827 0.380605 134.913C0.00216642 134 -0.0968503 132.994 0.0960759 132.025C0.289002 131.055 0.765206 130.164 1.46447 129.464C2.16373 128.765 3.05465 128.289 4.02455 128.096C4.99446 127.903 5.99979 128.002 6.91342 128.381C7.82705 128.759 8.60794 129.4 9.15735 130.222C9.70676 131.044 10 132.011 10 133C10 134.326 9.47322 135.598 8.53554 136.536C7.59785 137.473 6.32609 138 5 138ZM5 118C4.0111 118 3.0444 117.707 2.22215 117.157C1.39991 116.608 0.759043 115.827 0.380605 114.913C0.00216642 114 -0.0968503 112.994 0.0960759 112.025C0.289002 111.055 0.765206 110.164 1.46447 109.464C2.16373 108.765 3.05465 108.289 4.02455 108.096C4.99446 107.903 5.99979 108.002 6.91342 108.381C7.82705 108.759 8.60794 109.4 9.15735 110.222C9.70676 111.044 10 112.011 10 113C10 114.326 9.47322 115.598 8.53554 116.536C7.59785 117.473 6.32609 118 5 118ZM5 98C4.0111 98 3.0444 97.7068 2.22215 97.1573C1.39991 96.6079 0.759043 95.827 0.380605 94.9134C0.00216642 93.9998 -0.0968503 92.9945 0.0960759 92.0246C0.289002 91.0546 0.765206 90.1637 1.46447 89.4645C2.16373 88.7652 3.05465 88.289 4.02455 88.0961C4.99446 87.9031 5.99979 88.0022 6.91342 88.3806C7.82705 88.759 8.60794 89.3999 9.15735 90.2222C9.70676 91.0444 10 92.0111 10 93C10 94.3261 9.47322 95.5979 8.53554 96.5355C7.59785 97.4732 6.32609 98 5 98ZM5 78C4.0111 78 3.0444 77.7068 2.22215 77.1573C1.39991 76.6079 0.759043 75.827 0.380605 74.9134C0.00216642 73.9998 -0.0968503 72.9945 0.0960759 72.0246C0.289002 71.0546 0.765206 70.1637 1.46447 69.4645C2.16373 68.7652 3.05465 68.289 4.02455 68.0961C4.99446 67.9031 5.99979 68.0022 6.91342 68.3806C7.82705 68.759 8.60794 69.3999 9.15735 70.2222C9.70676 71.0444 10 72.0111 10 73C10 74.3261 9.47322 75.5979 8.53554 76.5355C7.59785 77.4732 6.32609 78 5 78ZM5 58C4.0111 58 3.0444 57.7068 2.22215 57.1573C1.39991 56.6079 0.759043 55.827 0.380605 54.9134C0.00216642 53.9998 -0.0968503 52.9945 0.0960759 52.0246C0.289002 51.0546 0.765206 50.1637 1.46447 49.4645C2.16373 48.7652 3.05465 48.289 4.02455 48.0961C4.99446 47.9032 5.99979 48.0022 6.91342 48.3806C7.82705 48.759 8.60794 49.3999 9.15735 50.2221C9.70676 51.0444 10 52.0111 10 53C10 54.3261 9.47322 55.5979 8.53554 56.5355C7.59785 57.4732 6.32609 58 5 58ZM5 38C4.0111 38 3.0444 37.7068 2.22215 37.1573C1.39991 36.6079 0.759043 35.827 0.380605 34.9134C0.00216642 33.9998 -0.0968503 32.9945 0.0960759 32.0246C0.289002 31.0546 0.765206 30.1637 1.46447 29.4645C2.16373 28.7652 3.05465 28.289 4.02455 28.0961C4.99446 27.9032 5.99979 28.0022 6.91342 28.3806C7.82705 28.759 8.60794 29.3999 9.15735 30.2221C9.70676 31.0444 10 32.0111 10 33C10 34.3261 9.47322 35.5979 8.53554 36.5355C7.59785 37.4732 6.32609 38 5 38ZM5 18C4.0111 18 3.0444 17.7068 2.22215 17.1574C1.39991 16.6079 0.759043 15.827 0.380605 14.9134C0.00216642 13.9998 -0.0968503 12.9945 0.0960759 12.0246C0.289002 11.0546 0.765206 10.1637 1.46447 9.46447C2.16373 8.76521 3.05465 8.28901 4.02455 8.09608C4.99446 7.90316 5.99979 8.00217 6.91342 8.3806C7.82705 8.75904 8.60794 9.3999 9.15735 10.2221C9.70676 11.0444 10 12.0111 10 13C10 14.3261 9.47322 15.5979 8.53554 16.5355C7.59785 17.4732 6.32609 18 5 18ZM5 -2C4.0111 -2 3.0444 -2.29324 2.22215 -2.84265C1.39991 -3.39206 0.759043 -4.17295 0.380605 -5.08658C0.00216642 -6.00021 -0.0968503 -7.00554 0.0960759 -7.97545C0.289002 -8.94536 0.765206 -9.83627 1.46447 -10.5355C2.16373 -11.2348 3.05465 -11.711 4.02455 -11.9039C4.99446 -12.0969 5.99979 -11.9978 6.91342 -11.6194C7.82705 -11.241 8.60794 -10.6001 9.15735 -9.77785C9.70676 -8.9556 10 -7.9889 10 -7C10 -5.67392 9.47322 -4.40215 8.53554 -3.46446C7.59785 -2.52678 6.32609 -2 5 -2ZM5 -22C4.0111 -22 3.0444 -22.2932 2.22215 -22.8426C1.39991 -23.3921 0.759043 -24.1729 0.380605 -25.0866C0.00216642 -26.0002 -0.0968503 -27.0055 0.0960759 -27.9755C0.289002 -28.9454 0.765206 -29.8363 1.46447 -30.5355C2.16373 -31.2348 3.05465 -31.711 4.02455 -31.9039C4.99446 -32.0969 5.99979 -31.9978 6.91342 -31.6194C7.82705 -31.241 8.60794 -30.6001 9.15735 -29.7778C9.70676 -28.9556 10 -27.9889 10 -27C10 -25.6739 9.47322 -24.4021 8.53554 -23.4645C7.59785 -22.5268 6.32609 -22 5 -22ZM125 228C125.989 228 126.956 228.293 127.778 228.843C128.6 229.392 129.241 230.173 129.619 231.087C129.998 232 130.097 233.006 129.904 233.975C129.711 234.945 129.235 235.836 128.536 236.536C127.836 237.235 126.945 237.711 125.975 237.904C125.006 238.097 124 237.998 123.087 237.619C122.173 237.241 121.392 236.6 120.843 235.778C120.293 234.956 120 233.989 120 233C120 231.674 120.527 230.402 121.464 229.464C122.402 228.527 123.674 228 125 228ZM205 238C204.011 238 203.044 237.707 202.222 237.157C201.4 236.608 200.759 235.827 200.381 234.913C200.002 234 199.903 232.994 200.096 232.025C200.289 231.055 200.765 230.164 201.464 229.464C202.164 228.765 203.055 228.289 204.025 228.096C204.994 227.903 206 228.002 206.913 228.381C207.827 228.759 208.608 229.4 209.157 230.222C209.707 231.044 210 232.011 210 233C210 234.326 209.473 235.598 208.536 236.536C207.598 237.473 206.326 238 205 238ZM205 218C204.011 218 203.044 217.707 202.222 217.157C201.4 216.608 200.759 215.827 200.381 214.913C200.002 214 199.903 212.994 200.096 212.025C200.289 211.055 200.765 210.164 201.464 209.464C202.164 208.765 203.055 208.289 204.025 208.096C204.994 207.903 206 208.002 206.913 208.381C207.827 208.759 208.608 209.4 209.157 210.222C209.707 211.044 210 212.011 210 213C210 214.326 209.473 215.598 208.536 216.536C207.598 217.473 206.326 218 205 218ZM205 198C204.011 198 203.044 197.707 202.222 197.157C201.4 196.608 200.759 195.827 200.381 194.913C200.002 194 199.903 192.994 200.096 192.025C200.289 191.055 200.765 190.164 201.464 189.464C202.164 188.765 203.055 188.289 204.025 188.096C204.994 187.903 206 188.002 206.913 188.381C207.827 188.759 208.608 189.4 209.157 190.222C209.707 191.044 210 192.011 210 193C210 194.326 209.473 195.598 208.536 196.536C207.598 197.473 206.326 198 205 198ZM205 178C204.011 178 203.044 177.707 202.222 177.157C201.4 176.608 200.759 175.827 200.381 174.913C200.002 174 199.903 172.994 200.096 172.025C200.289 171.055 200.765 170.164 201.464 169.464C202.164 168.765 203.055 168.289 204.025 168.096C204.994 167.903 206 168.002 206.913 168.381C207.827 168.759 208.608 169.4 209.157 170.222C209.707 171.044 210 172.011 210 173C210 174.326 209.473 175.598 208.536 176.536C207.598 177.473 206.326 178 205 178ZM205 158C204.011 158 203.044 157.707 202.222 157.157C201.4 156.608 200.759 155.827 200.381 154.913C200.002 154 199.903 152.994 200.096 152.025C200.289 151.055 200.765 150.164 201.464 149.464C202.164 148.765 203.055 148.289 204.025 148.096C204.994 147.903 206 148.002 206.913 148.381C207.827 148.759 208.608 149.4 209.157 150.222C209.707 151.044 210 152.011 210 153C210 154.326 209.473 155.598 208.536 156.536C207.598 157.473 206.326 158 205 158ZM205 138C204.011 138 203.044 137.707 202.222 137.157C201.4 136.608 200.759 135.827 200.381 134.913C200.002 134 199.903 132.994 200.096 132.025C200.289 131.055 200.765 130.164 201.464 129.464C202.164 128.765 203.055 128.289 204.025 128.096C204.994 127.903 206 128.002 206.913 128.381C207.827 128.759 208.608 129.4 209.157 130.222C209.707 131.044 210 132.011 210 133C210 134.326 209.473 135.598 208.536 136.536C207.598 137.473 206.326 138 205 138ZM205 118C204.011 118 203.044 117.707 202.222 117.157C201.4 116.608 200.759 115.827 200.381 114.913C200.002 114 199.903 112.994 200.096 112.025C200.289 111.055 200.765 110.164 201.464 109.464C202.164 108.765 203.055 108.289 204.025 108.096C204.994 107.903 206 108.002 206.913 108.381C207.827 108.759 208.608 109.4 209.157 110.222C209.707 111.044 210 112.011 210 113C210 114.326 209.473 115.598 208.536 116.536C207.598 117.473 206.326 118 205 118ZM205 98C204.011 98 203.044 97.7068 202.222 97.1573C201.4 96.6079 200.759 95.827 200.381 94.9134C200.002 93.9998 199.903 92.9945 200.096 92.0246C200.289 91.0546 200.765 90.1637 201.464 89.4645C202.164 88.7652 203.055 88.289 204.025 88.0961C204.994 87.9031 206 88.0022 206.913 88.3806C207.827 88.759 208.608 89.3999 209.157 90.2222C209.707 91.0444 210 92.0111 210 93C210 94.3261 209.473 95.5979 208.536 96.5355C207.598 97.4732 206.326 98 205 98ZM205 78C204.011 78 203.044 77.7068 202.222 77.1573C201.4 76.6079 200.759 75.827 200.381 74.9134C200.002 73.9998 199.903 72.9945 200.096 72.0246C200.289 71.0546 200.765 70.1637 201.464 69.4645C202.164 68.7652 203.055 68.289 204.025 68.0961C204.994 67.9031 206 68.0022 206.913 68.3806C207.827 68.759 208.608 69.3999 209.157 70.2222C209.707 71.0444 210 72.0111 210 73C210 74.3261 209.473 75.5979 208.536 76.5355C207.598 77.4732 206.326 78 205 78ZM205 58C204.011 58 203.044 57.7068 202.222 57.1573C201.4 56.6079 200.759 55.827 200.381 54.9134C200.002 53.9998 199.903 52.9945 200.096 52.0246C200.289 51.0546 200.765 50.1637 201.464 49.4645C202.164 48.7652 203.055 48.289 204.025 48.0961C204.994 47.9032 206 48.0022 206.913 48.3806C207.827 48.759 208.608 49.3999 209.157 50.2221C209.707 51.0444 210 52.0111 210 53C210 54.3261 209.473 55.5979 208.536 56.5355C207.598 57.4732 206.326 58 205 58ZM205 38C204.011 38 203.044 37.7068 202.222 37.1573C201.4 36.6079 200.759 35.827 200.381 34.9134C200.002 33.9998 199.903 32.9945 200.096 32.0246C200.289 31.0546 200.765 30.1637 201.464 29.4645C202.164 28.7652 203.055 28.289 204.025 28.0961C204.994 27.9032 206 28.0022 206.913 28.3806C207.827 28.759 208.608 29.3999 209.157 30.2221C209.707 31.0444 210 32.0111 210 33C210 34.3261 209.473 35.5979 208.536 36.5355C207.598 37.4732 206.326 38 205 38ZM205 18C204.011 18 203.044 17.7068 202.222 17.1574C201.4 16.6079 200.759 15.827 200.381 14.9134C200.002 13.9998 199.903 12.9945 200.096 12.0246C200.289 11.0546 200.765 10.1637 201.464 9.46447C202.164 8.76521 203.055 8.28901 204.025 8.09608C204.994 7.90316 206 8.00217 206.913 8.3806C207.827 8.75904 208.608 9.3999 209.157 10.2221C209.707 11.0444 210 12.0111 210 13C210 14.3261 209.473 15.5979 208.536 16.5355C207.598 17.4732 206.326 18 205 18ZM205 -2C204.011 -2 203.044 -2.29324 202.222 -2.84265C201.4 -3.39206 200.759 -4.17295 200.381 -5.08658C200.002 -6.00021 199.903 -7.00554 200.096 -7.97545C200.289 -8.94536 200.765 -9.83627 201.464 -10.5355C202.164 -11.2348 203.055 -11.711 204.025 -11.9039C204.994 -12.0969 206 -11.9978 206.913 -11.6194C207.827 -11.241 208.608 -10.6001 209.157 -9.77785C209.707 -8.9556 210 -7.9889 210 -7C210 -5.67392 209.473 -4.40215 208.536 -3.46446C207.598 -2.52678 206.326 -2 205 -2ZM205 -22C204.011 -22 203.044 -22.2932 202.222 -22.8426C201.4 -23.3921 200.759 -24.1729 200.381 -25.0866C200.002 -26.0002 199.903 -27.0055 200.096 -27.9755C200.289 -28.9454 200.765 -29.8363 201.464 -30.5355C202.164 -31.2348 203.055 -31.711 204.025 -31.9039C204.994 -32.0969 206 -31.9978 206.913 -31.6194C207.827 -31.241 208.608 -30.6001 209.157 -29.7778C209.707 -28.9556 210 -27.9889 210 -27C210 -25.6739 209.473 -24.4021 208.536 -23.4645C207.598 -22.5268 206.326 -22 205 -22ZM185 238C184.011 238 183.044 237.707 182.222 237.157C181.4 236.608 180.759 235.827 180.381 234.913C180.002 234 179.903 232.994 180.096 232.025C180.289 231.055 180.765 230.164 181.464 229.464C182.164 228.765 183.055 228.289 184.025 228.096C184.994 227.903 186 228.002 186.913 228.381C187.827 228.759 188.608 229.4 189.157 230.222C189.707 231.044 190 232.011 190 233C190 234.326 189.473 235.598 188.536 236.536C187.598 237.473 186.326 238 185 238ZM185 218C184.011 218 183.044 217.707 182.222 217.157C181.4 216.608 180.759 215.827 180.381 214.913C180.002 214 179.903 212.994 180.096 212.025C180.289 211.055 180.765 210.164 181.464 209.464C182.164 208.765 183.055 208.289 184.025 208.096C184.994 207.903 186 208.002 186.913 208.381C187.827 208.759 188.608 209.4 189.157 210.222C189.707 211.044 190 212.011 190 213C190 214.326 189.473 215.598 188.536 216.536C187.598 217.473 186.326 218 185 218ZM185 198C184.011 198 183.044 197.707 182.222 197.157C181.4 196.608 180.759 195.827 180.381 194.913C180.002 194 179.903 192.994 180.096 192.025C180.289 191.055 180.765 190.164 181.464 189.464C182.164 188.765 183.055 188.289 184.025 188.096C184.994 187.903 186 188.002 186.913 188.381C187.827 188.759 188.608 189.4 189.157 190.222C189.707 191.044 190 192.011 190 193C190 194.326 189.473 195.598 188.536 196.536C187.598 197.473 186.326 198 185 198ZM185 178C184.011 178 183.044 177.707 182.222 177.157C181.4 176.608 180.759 175.827 180.381 174.913C180.002 174 179.903 172.994 180.096 172.025C180.289 171.055 180.765 170.164 181.464 169.464C182.164 168.765 183.055 168.289 184.025 168.096C184.994 167.903 186 168.002 186.913 168.381C187.827 168.759 188.608 169.4 189.157 170.222C189.707 171.044 190 172.011 190 173C190 174.326 189.473 175.598 188.536 176.536C187.598 177.473 186.326 178 185 178ZM185 158C184.011 158 183.044 157.707 182.222 157.157C181.4 156.608 180.759 155.827 180.381 154.913C180.002 154 179.903 152.994 180.096 152.025C180.289 151.055 180.765 150.164 181.464 149.464C182.164 148.765 183.055 148.289 184.025 148.096C184.994 147.903 186 148.002 186.913 148.381C187.827 148.759 188.608 149.4 189.157 150.222C189.707 151.044 190 152.011 190 153C190 154.326 189.473 155.598 188.536 156.536C187.598 157.473 186.326 158 185 158ZM185 138C184.011 138 183.044 137.707 182.222 137.157C181.4 136.608 180.759 135.827 180.381 134.913C180.002 134 179.903 132.994 180.096 132.025C180.289 131.055 180.765 130.164 181.464 129.464C182.164 128.765 183.055 128.289 184.025 128.096C184.994 127.903 186 128.002 186.913 128.381C187.827 128.759 188.608 129.4 189.157 130.222C189.707 131.044 190 132.011 190 133C190 134.326 189.473 135.598 188.536 136.536C187.598 137.473 186.326 138 185 138ZM185 118C184.011 118 183.044 117.707 182.222 117.157C181.4 116.608 180.759 115.827 180.381 114.913C180.002 114 179.903 112.994 180.096 112.025C180.289 111.055 180.765 110.164 181.464 109.464C182.164 108.765 183.055 108.289 184.025 108.096C184.994 107.903 186 108.002 186.913 108.381C187.827 108.759 188.608 109.4 189.157 110.222C189.707 111.044 190 112.011 190 113C190 114.326 189.473 115.598 188.536 116.536C187.598 117.473 186.326 118 185 118ZM185 98C184.011 98 183.044 97.7068 182.222 97.1573C181.4 96.6079 180.759 95.827 180.381 94.9134C180.002 93.9998 179.903 92.9945 180.096 92.0246C180.289 91.0546 180.765 90.1637 181.464 89.4645C182.164 88.7652 183.055 88.289 184.025 88.0961C184.994 87.9031 186 88.0022 186.913 88.3806C187.827 88.759 188.608 89.3999 189.157 90.2222C189.707 91.0444 190 92.0111 190 93C190 94.3261 189.473 95.5979 188.536 96.5355C187.598 97.4732 186.326 98 185 98ZM185 78C184.011 78 183.044 77.7068 182.222 77.1573C181.4 76.6079 180.759 75.827 180.381 74.9134C180.002 73.9998 179.903 72.9945 180.096 72.0246C180.289 71.0546 180.765 70.1637 181.464 69.4645C182.164 68.7652 183.055 68.289 184.025 68.0961C184.994 67.9031 186 68.0022 186.913 68.3806C187.827 68.759 188.608 69.3999 189.157 70.2222C189.707 71.0444 190 72.0111 190 73C190 74.3261 189.473 75.5979 188.536 76.5355C187.598 77.4732 186.326 78 185 78ZM185 58C184.011 58 183.044 57.7068 182.222 57.1573C181.4 56.6079 180.759 55.827 180.381 54.9134C180.002 53.9998 179.903 52.9945 180.096 52.0246C180.289 51.0546 180.765 50.1637 181.464 49.4645C182.164 48.7652 183.055 48.289 184.025 48.0961C184.994 47.9032 186 48.0022 186.913 48.3806C187.827 48.759 188.608 49.3999 189.157 50.2221C189.707 51.0444 190 52.0111 190 53C190 54.3261 189.473 55.5979 188.536 56.5355C187.598 57.4732 186.326 58 185 58ZM185 38C184.011 38 183.044 37.7068 182.222 37.1573C181.4 36.6079 180.759 35.827 180.381 34.9134C180.002 33.9998 179.903 32.9945 180.096 32.0246C180.289 31.0546 180.765 30.1637 181.464 29.4645C182.164 28.7652 183.055 28.289 184.025 28.0961C184.994 27.9032 186 28.0022 186.913 28.3806C187.827 28.759 188.608 29.3999 189.157 30.2221C189.707 31.0444 190 32.0111 190 33C190 34.3261 189.473 35.5979 188.536 36.5355C187.598 37.4732 186.326 38 185 38ZM185 18C184.011 18 183.044 17.7068 182.222 17.1574C181.4 16.6079 180.759 15.827 180.381 14.9134C180.002 13.9998 179.903 12.9945 180.096 12.0246C180.289 11.0546 180.765 10.1637 181.464 9.46447C182.164 8.76521 183.055 8.28901 184.025 8.09608C184.994 7.90316 186 8.00217 186.913 8.3806C187.827 8.75904 188.608 9.3999 189.157 10.2221C189.707 11.0444 190 12.0111 190 13C190 14.3261 189.473 15.5979 188.536 16.5355C187.598 17.4732 186.326 18 185 18ZM185 -2C184.011 -2 183.044 -2.29324 182.222 -2.84265C181.4 -3.39206 180.759 -4.17295 180.381 -5.08658C180.002 -6.00021 179.903 -7.00554 180.096 -7.97545C180.289 -8.94536 180.765 -9.83627 181.464 -10.5355C182.164 -11.2348 183.055 -11.711 184.025 -11.9039C184.994 -12.0969 186 -11.9978 186.913 -11.6194C187.827 -11.241 188.608 -10.6001 189.157 -9.77785C189.707 -8.9556 190 -7.9889 190 -7C190 -5.67392 189.473 -4.40215 188.536 -3.46446C187.598 -2.52678 186.326 -2 185 -2ZM185 -22C184.011 -22 183.044 -22.2932 182.222 -22.8426C181.4 -23.3921 180.759 -24.1729 180.381 -25.0866C180.002 -26.0002 179.903 -27.0055 180.096 -27.9755C180.289 -28.9454 180.765 -29.8363 181.464 -30.5355C182.164 -31.2348 183.055 -31.711 184.025 -31.9039C184.994 -32.0969 186 -31.9978 186.913 -31.6194C187.827 -31.241 188.608 -30.6001 189.157 -29.7778C189.707 -28.9556 190 -27.9889 190 -27C190 -25.6739 189.473 -24.4021 188.536 -23.4645C187.598 -22.5268 186.326 -22 185 -22ZM165 238C164.011 238 163.044 237.707 162.222 237.157C161.4 236.608 160.759 235.827 160.381 234.913C160.002 234 159.903 232.994 160.096 232.025C160.289 231.055 160.765 230.164 161.464 229.464C162.164 228.765 163.055 228.289 164.025 228.096C164.994 227.903 166 228.002 166.913 228.381C167.827 228.759 168.608 229.4 169.157 230.222C169.707 231.044 170 232.011 170 233C170 234.326 169.473 235.598 168.536 236.536C167.598 237.473 166.326 238 165 238ZM165 218C164.011 218 163.044 217.707 162.222 217.157C161.4 216.608 160.759 215.827 160.381 214.913C160.002 214 159.903 212.994 160.096 212.025C160.289 211.055 160.765 210.164 161.464 209.464C162.164 208.765 163.055 208.289 164.025 208.096C164.994 207.903 166 208.002 166.913 208.381C167.827 208.759 168.608 209.4 169.157 210.222C169.707 211.044 170 212.011 170 213C170 214.326 169.473 215.598 168.536 216.536C167.598 217.473 166.326 218 165 218ZM165 198C164.011 198 163.044 197.707 162.222 197.157C161.4 196.608 160.759 195.827 160.381 194.913C160.002 194 159.903 192.994 160.096 192.025C160.289 191.055 160.765 190.164 161.464 189.464C162.164 188.765 163.055 188.289 164.025 188.096C164.994 187.903 166 188.002 166.913 188.381C167.827 188.759 168.608 189.4 169.157 190.222C169.707 191.044 170 192.011 170 193C170 194.326 169.473 195.598 168.536 196.536C167.598 197.473 166.326 198 165 198ZM165 178C164.011 178 163.044 177.707 162.222 177.157C161.4 176.608 160.759 175.827 160.381 174.913C160.002 174 159.903 172.994 160.096 172.025C160.289 171.055 160.765 170.164 161.464 169.464C162.164 168.765 163.055 168.289 164.025 168.096C164.994 167.903 166 168.002 166.913 168.381C167.827 168.759 168.608 169.4 169.157 170.222C169.707 171.044 170 172.011 170 173C170 174.326 169.473 175.598 168.536 176.536C167.598 177.473 166.326 178 165 178ZM165 158C164.011 158 163.044 157.707 162.222 157.157C161.4 156.608 160.759 155.827 160.381 154.913C160.002 154 159.903 152.994 160.096 152.025C160.289 151.055 160.765 150.164 161.464 149.464C162.164 148.765 163.055 148.289 164.025 148.096C164.994 147.903 166 148.002 166.913 148.381C167.827 148.759 168.608 149.4 169.157 150.222C169.707 151.044 170 152.011 170 153C170 154.326 169.473 155.598 168.536 156.536C167.598 157.473 166.326 158 165 158ZM165 138C164.011 138 163.044 137.707 162.222 137.157C161.4 136.608 160.759 135.827 160.381 134.913C160.002 134 159.903 132.994 160.096 132.025C160.289 131.055 160.765 130.164 161.464 129.464C162.164 128.765 163.055 128.289 164.025 128.096C164.994 127.903 166 128.002 166.913 128.381C167.827 128.759 168.608 129.4 169.157 130.222C169.707 131.044 170 132.011 170 133C170 134.326 169.473 135.598 168.536 136.536C167.598 137.473 166.326 138 165 138ZM165 118C164.011 118 163.044 117.707 162.222 117.157C161.4 116.608 160.759 115.827 160.381 114.913C160.002 114 159.903 112.994 160.096 112.025C160.289 111.055 160.765 110.164 161.464 109.464C162.164 108.765 163.055 108.289 164.025 108.096C164.994 107.903 166 108.002 166.913 108.381C167.827 108.759 168.608 109.4 169.157 110.222C169.707 111.044 170 112.011 170 113C170 114.326 169.473 115.598 168.536 116.536C167.598 117.473 166.326 118 165 118ZM165 98C164.011 98 163.044 97.7068 162.222 97.1573C161.4 96.6079 160.759 95.827 160.381 94.9134C160.002 93.9998 159.903 92.9945 160.096 92.0246C160.289 91.0546 160.765 90.1637 161.464 89.4645C162.164 88.7652 163.055 88.289 164.025 88.0961C164.994 87.9031 166 88.0022 166.913 88.3806C167.827 88.759 168.608 89.3999 169.157 90.2222C169.707 91.0444 170 92.0111 170 93C170 94.3261 169.473 95.5979 168.536 96.5355C167.598 97.4732 166.326 98 165 98ZM165 78C164.011 78 163.044 77.7068 162.222 77.1573C161.4 76.6079 160.759 75.827 160.381 74.9134C160.002 73.9998 159.903 72.9945 160.096 72.0246C160.289 71.0546 160.765 70.1637 161.464 69.4645C162.164 68.7652 163.055 68.289 164.025 68.0961C164.994 67.9031 166 68.0022 166.913 68.3806C167.827 68.759 168.608 69.3999 169.157 70.2222C169.707 71.0444 170 72.0111 170 73C170 74.3261 169.473 75.5979 168.536 76.5355C167.598 77.4732 166.326 78 165 78ZM165 58C164.011 58 163.044 57.7068 162.222 57.1573C161.4 56.6079 160.759 55.827 160.381 54.9134C160.002 53.9998 159.903 52.9945 160.096 52.0246C160.289 51.0546 160.765 50.1637 161.464 49.4645C162.164 48.7652 163.055 48.289 164.025 48.0961C164.994 47.9032 166 48.0022 166.913 48.3806C167.827 48.759 168.608 49.3999 169.157 50.2221C169.707 51.0444 170 52.0111 170 53C170 54.3261 169.473 55.5979 168.536 56.5355C167.598 57.4732 166.326 58 165 58ZM165 38C164.011 38 163.044 37.7068 162.222 37.1573C161.4 36.6079 160.759 35.827 160.381 34.9134C160.002 33.9998 159.903 32.9945 160.096 32.0246C160.289 31.0546 160.765 30.1637 161.464 29.4645C162.164 28.7652 163.055 28.289 164.025 28.0961C164.994 27.9032 166 28.0022 166.913 28.3806C167.827 28.759 168.608 29.3999 169.157 30.2221C169.707 31.0444 170 32.0111 170 33C170 34.3261 169.473 35.5979 168.536 36.5355C167.598 37.4732 166.326 38 165 38ZM165 18C164.011 18 163.044 17.7068 162.222 17.1574C161.4 16.6079 160.759 15.827 160.381 14.9134C160.002 13.9998 159.903 12.9945 160.096 12.0246C160.289 11.0546 160.765 10.1637 161.464 9.46447C162.164 8.76521 163.055 8.28901 164.025 8.09608C164.994 7.90316 166 8.00217 166.913 8.3806C167.827 8.75904 168.608 9.3999 169.157 10.2221C169.707 11.0444 170 12.0111 170 13C170 14.3261 169.473 15.5979 168.536 16.5355C167.598 17.4732 166.326 18 165 18ZM165 -2C164.011 -2 163.044 -2.29324 162.222 -2.84265C161.4 -3.39206 160.759 -4.17295 160.381 -5.08658C160.002 -6.00021 159.903 -7.00554 160.096 -7.97545C160.289 -8.94536 160.765 -9.83627 161.464 -10.5355C162.164 -11.2348 163.055 -11.711 164.025 -11.9039C164.994 -12.0969 166 -11.9978 166.913 -11.6194C167.827 -11.241 168.608 -10.6001 169.157 -9.77785C169.707 -8.9556 170 -7.9889 170 -7C170 -5.67392 169.473 -4.40215 168.536 -3.46446C167.598 -2.52678 166.326 -2 165 -2ZM165 -22C164.011 -22 163.044 -22.2932 162.222 -22.8426C161.4 -23.3921 160.759 -24.1729 160.381 -25.0866C160.002 -26.0002 159.903 -27.0055 160.096 -27.9755C160.289 -28.9454 160.765 -29.8363 161.464 -30.5355C162.164 -31.2348 163.055 -31.711 164.025 -31.9039C164.994 -32.0969 166 -31.9978 166.913 -31.6194C167.827 -31.241 168.608 -30.6001 169.157 -29.7778C169.707 -28.9556 170 -27.9889 170 -27C170 -25.6739 169.473 -24.4021 168.536 -23.4645C167.598 -22.5268 166.326 -22 165 -22ZM145 238C144.011 238 143.044 237.707 142.222 237.157C141.4 236.608 140.759 235.827 140.381 234.913C140.002 234 139.903 232.994 140.096 232.025C140.289 231.055 140.765 230.164 141.464 229.464C142.164 228.765 143.055 228.289 144.025 228.096C144.994 227.903 146 228.002 146.913 228.381C147.827 228.759 148.608 229.4 149.157 230.222C149.707 231.044 150 232.011 150 233C150 234.326 149.473 235.598 148.536 236.536C147.598 237.473 146.326 238 145 238ZM145 218C144.011 218 143.044 217.707 142.222 217.157C141.4 216.608 140.759 215.827 140.381 214.913C140.002 214 139.903 212.994 140.096 212.025C140.289 211.055 140.765 210.164 141.464 209.464C142.164 208.765 143.055 208.289 144.025 208.096C144.994 207.903 146 208.002 146.913 208.381C147.827 208.759 148.608 209.4 149.157 210.222C149.707 211.044 150 212.011 150 213C150 214.326 149.473 215.598 148.536 216.536C147.598 217.473 146.326 218 145 218ZM145 198C144.011 198 143.044 197.707 142.222 197.157C141.4 196.608 140.759 195.827 140.381 194.913C140.002 194 139.903 192.994 140.096 192.025C140.289 191.055 140.765 190.164 141.464 189.464C142.164 188.765 143.055 188.289 144.025 188.096C144.994 187.903 146 188.002 146.913 188.381C147.827 188.759 148.608 189.4 149.157 190.222C149.707 191.044 150 192.011 150 193C150 194.326 149.473 195.598 148.536 196.536C147.598 197.473 146.326 198 145 198ZM145 178C144.011 178 143.044 177.707 142.222 177.157C141.4 176.608 140.759 175.827 140.381 174.913C140.002 174 139.903 172.994 140.096 172.025C140.289 171.055 140.765 170.164 141.464 169.464C142.164 168.765 143.055 168.289 144.025 168.096C144.994 167.903 146 168.002 146.913 168.381C147.827 168.759 148.608 169.4 149.157 170.222C149.707 171.044 150 172.011 150 173C150 174.326 149.473 175.598 148.536 176.536C147.598 177.473 146.326 178 145 178ZM145 158C144.011 158 143.044 157.707 142.222 157.157C141.4 156.608 140.759 155.827 140.381 154.913C140.002 154 139.903 152.994 140.096 152.025C140.289 151.055 140.765 150.164 141.464 149.464C142.164 148.765 143.055 148.289 144.025 148.096C144.994 147.903 146 148.002 146.913 148.381C147.827 148.759 148.608 149.4 149.157 150.222C149.707 151.044 150 152.011 150 153C150 154.326 149.473 155.598 148.536 156.536C147.598 157.473 146.326 158 145 158ZM145 138C144.011 138 143.044 137.707 142.222 137.157C141.4 136.608 140.759 135.827 140.381 134.913C140.002 134 139.903 132.994 140.096 132.025C140.289 131.055 140.765 130.164 141.464 129.464C142.164 128.765 143.055 128.289 144.025 128.096C144.994 127.903 146 128.002 146.913 128.381C147.827 128.759 148.608 129.4 149.157 130.222C149.707 131.044 150 132.011 150 133C150 134.326 149.473 135.598 148.536 136.536C147.598 137.473 146.326 138 145 138ZM145 118C144.011 118 143.044 117.707 142.222 117.157C141.4 116.608 140.759 115.827 140.381 114.913C140.002 114 139.903 112.994 140.096 112.025C140.289 111.055 140.765 110.164 141.464 109.464C142.164 108.765 143.055 108.289 144.025 108.096C144.994 107.903 146 108.002 146.913 108.381C147.827 108.759 148.608 109.4 149.157 110.222C149.707 111.044 150 112.011 150 113C150 114.326 149.473 115.598 148.536 116.536C147.598 117.473 146.326 118 145 118ZM145 98C144.011 98 143.044 97.7068 142.222 97.1573C141.4 96.6079 140.759 95.827 140.381 94.9134C140.002 93.9998 139.903 92.9945 140.096 92.0246C140.289 91.0546 140.765 90.1637 141.464 89.4645C142.164 88.7652 143.055 88.289 144.025 88.0961C144.994 87.9031 146 88.0022 146.913 88.3806C147.827 88.759 148.608 89.3999 149.157 90.2222C149.707 91.0444 150 92.0111 150 93C150 94.3261 149.473 95.5979 148.536 96.5355C147.598 97.4732 146.326 98 145 98ZM145 78C144.011 78 143.044 77.7068 142.222 77.1573C141.4 76.6079 140.759 75.827 140.381 74.9134C140.002 73.9998 139.903 72.9945 140.096 72.0246C140.289 71.0546 140.765 70.1637 141.464 69.4645C142.164 68.7652 143.055 68.289 144.025 68.0961C144.994 67.9031 146 68.0022 146.913 68.3806C147.827 68.759 148.608 69.3999 149.157 70.2222C149.707 71.0444 150 72.0111 150 73C150 74.3261 149.473 75.5979 148.536 76.5355C147.598 77.4732 146.326 78 145 78ZM145 58C144.011 58 143.044 57.7068 142.222 57.1573C141.4 56.6079 140.759 55.827 140.381 54.9134C140.002 53.9998 139.903 52.9945 140.096 52.0246C140.289 51.0546 140.765 50.1637 141.464 49.4645C142.164 48.7652 143.055 48.289 144.025 48.0961C144.994 47.9032 146 48.0022 146.913 48.3806C147.827 48.759 148.608 49.3999 149.157 50.2221C149.707 51.0444 150 52.0111 150 53C150 54.3261 149.473 55.5979 148.536 56.5355C147.598 57.4732 146.326 58 145 58ZM145 38C144.011 38 143.044 37.7068 142.222 37.1573C141.4 36.6079 140.759 35.827 140.381 34.9134C140.002 33.9998 139.903 32.9945 140.096 32.0246C140.289 31.0546 140.765 30.1637 141.464 29.4645C142.164 28.7652 143.055 28.289 144.025 28.0961C144.994 27.9032 146 28.0022 146.913 28.3806C147.827 28.759 148.608 29.3999 149.157 30.2221C149.707 31.0444 150 32.0111 150 33C150 34.3261 149.473 35.5979 148.536 36.5355C147.598 37.4732 146.326 38 145 38ZM145 18C144.011 18 143.044 17.7068 142.222 17.1574C141.4 16.6079 140.759 15.827 140.381 14.9134C140.002 13.9998 139.903 12.9945 140.096 12.0246C140.289 11.0546 140.765 10.1637 141.464 9.46447C142.164 8.76521 143.055 8.28901 144.025 8.09608C144.994 7.90316 146 8.00217 146.913 8.3806C147.827 8.75904 148.608 9.3999 149.157 10.2221C149.707 11.0444 150 12.0111 150 13C150 14.3261 149.473 15.5979 148.536 16.5355C147.598 17.4732 146.326 18 145 18ZM145 -2C144.011 -2 143.044 -2.29324 142.222 -2.84265C141.4 -3.39206 140.759 -4.17295 140.381 -5.08658C140.002 -6.00021 139.903 -7.00554 140.096 -7.97545C140.289 -8.94536 140.765 -9.83627 141.464 -10.5355C142.164 -11.2348 143.055 -11.711 144.025 -11.9039C144.994 -12.0969 146 -11.9978 146.913 -11.6194C147.827 -11.241 148.608 -10.6001 149.157 -9.77785C149.707 -8.9556 150 -7.9889 150 -7C150 -5.67392 149.473 -4.40215 148.536 -3.46446C147.598 -2.52678 146.326 -2 145 -2ZM145 -22C144.011 -22 143.044 -22.2932 142.222 -22.8426C141.4 -23.3921 140.759 -24.1729 140.381 -25.0866C140.002 -26.0002 139.903 -27.0055 140.096 -27.9755C140.289 -28.9454 140.765 -29.8363 141.464 -30.5355C142.164 -31.2348 143.055 -31.711 144.025 -31.9039C144.994 -32.0969 146 -31.9978 146.913 -31.6194C147.827 -31.241 148.608 -30.6001 149.157 -29.7778C149.707 -28.9556 150 -27.9889 150 -27C150 -25.6739 149.473 -24.4021 148.536 -23.4645C147.598 -22.5268 146.326 -22 145 -22Z"
          fill="#E5E5E5"/>
</svg>
