<svg width="38" height="38" viewBox="0 0 38 38" fill="none" xmlns="http://www.w3.org/2000/svg">
<g id="&#231;&#148;&#179;&#232;&#175;&#183; 1">
<path id="Vector" d="M25.3003 34.3254H26.1496C28.6196 34.3254 31.0516 31.5362 31.0516 29.0662V27.8084L25.3003 34.3254ZM24.3997 3.41241H11.9224C8.24775 3.41241 5.26855 6.39161 5.26855 10.0662V27.6716C5.26855 31.3462 8.24775 34.3254 11.9224 34.3254H16.376V28.994C16.376 28.6292 16.5147 28.2777 16.7636 28.0098L28.4201 15.5534C28.9787 14.9568 29.9192 14.9435 30.493 15.523L31.0497 16.0854V10.0662C31.0535 6.39161 28.0743 3.41241 24.3997 3.41241ZM17.1474 23.7709H12.1371C11.4816 23.7709 10.9496 23.2389 10.9496 22.5834C10.9496 21.9279 11.4816 21.3959 12.1371 21.3959H17.1493C17.8048 21.3959 18.3368 21.9279 18.3368 22.5834C18.3349 23.2389 17.8029 23.7709 17.1474 23.7709ZM20.7745 17.594H12.1371C11.4816 17.594 10.9496 17.062 10.9496 16.4065C10.9496 15.751 11.4816 15.219 12.1371 15.219H20.7764C21.4319 15.219 21.9639 15.751 21.9639 16.4065C21.9639 17.062 21.43 17.594 20.7745 17.594ZM24.1831 11.3297H12.1371C11.4816 11.3297 10.9496 10.7977 10.9496 10.1422C10.9496 9.48671 11.4816 8.95471 12.1371 8.95471H24.185C24.8405 8.95471 25.3725 9.48671 25.3725 10.1422C25.3725 10.7977 24.8405 11.3297 24.1831 11.3297Z" fill="white"/>
<path id="Vector_2" d="M26.2614 20.8791L18.7431 29.0225C18.6006 29.1764 18.5227 29.3797 18.5265 29.5906L18.6006 33.6756C18.6019 33.7422 18.6174 33.8078 18.6462 33.8679C18.6751 33.928 18.7165 33.9812 18.7676 34.0239C18.8188 34.0666 18.8785 34.0978 18.9428 34.1154C19.0071 34.133 19.0744 34.1366 19.1402 34.1259L22.8243 33.5293C23.0048 33.5008 23.1701 33.4115 23.2936 33.2766L30.9164 25.0211L26.2614 20.8791ZM33.3598 21.166L29.9778 18.05C29.899 17.9772 29.8067 17.9207 29.706 17.8837C29.6054 17.8467 29.4984 17.83 29.3913 17.8344C29.2841 17.8388 29.1789 17.8643 29.0817 17.9095C28.9844 17.9546 28.897 18.0185 28.8245 18.0975L27.7453 19.2698L32.4022 23.4118L33.4092 22.3193C33.5546 22.1594 33.631 21.9485 33.6217 21.7325C33.6125 21.5165 33.5183 21.3129 33.3598 21.166Z" fill="white"/>
</g>
</svg>
