<svg width="86" height="13" viewBox="0 0 86 13" fill="none" xmlns="http://www.w3.org/2000/svg">
<g id="Stars">
<path id="Vector" d="M12.9681 4.70793C12.8825 4.44465 12.649 4.25825 12.3738 4.23335L8.62048 3.8926L7.13714 0.419814C7.02762 0.164672 6.77843 0 6.50107 0C6.22371 0 5.97442 0.164672 5.8656 0.419814L4.38226 3.8926L0.62834 4.23335C0.353159 4.25875 0.120139 4.44515 0.0340334 4.70793C-0.0515761 4.9712 0.0274862 5.25997 0.235608 5.4425L3.07282 7.93034L2.23627 11.6148C2.17506 11.8857 2.28022 12.1659 2.505 12.3284C2.62583 12.4162 2.76778 12.46 2.91023 12.46C3.03265 12.46 3.15516 12.4275 3.26458 12.362L6.50107 10.4268L9.73697 12.362C9.97436 12.5038 10.2728 12.4909 10.4971 12.3284C10.7219 12.1659 10.8271 11.8857 10.7659 11.6148L9.92932 7.93034L12.7665 5.4425C12.9746 5.25997 13.0537 4.9718 12.9681 4.70793Z" fill="#FD4C5C"/>
<path id="Vector_2" d="M31.1771 4.70793C31.0915 4.44465 30.858 4.25825 30.5828 4.23335L26.8295 3.8926L25.3461 0.419814C25.2366 0.164672 24.9874 0 24.7101 0C24.4327 0 24.1834 0.164672 24.0746 0.419814L22.5912 3.8926L18.8373 4.23335C18.5621 4.25875 18.3291 4.44515 18.243 4.70793C18.1574 4.9712 18.2365 5.25997 18.4446 5.4425L21.2818 7.93034L20.4453 11.6148C20.384 11.8857 20.4892 12.1659 20.714 12.3284C20.8348 12.4162 20.9768 12.46 21.1192 12.46C21.2416 12.46 21.3641 12.4275 21.4736 12.362L24.7101 10.4268L27.946 12.362C28.1833 12.5038 28.4818 12.4909 28.7061 12.3284C28.9309 12.1659 29.0361 11.8857 28.9749 11.6148L28.1383 7.93034L30.9755 5.4425C31.1835 5.25997 31.2627 4.9718 31.1771 4.70793Z" fill="#FD4C5C"/>
<path id="Vector_3" d="M49.388 4.70793C49.3024 4.44465 49.0689 4.25825 48.7937 4.23335L45.0404 3.8926L43.5571 0.419814C43.4475 0.164672 43.1984 0 42.921 0C42.6436 0 42.3943 0.164672 42.2855 0.419814L40.8022 3.8926L37.0483 4.23335C36.7731 4.25875 36.5401 4.44515 36.454 4.70793C36.3683 4.9712 36.4474 5.25997 36.6555 5.4425L39.4927 7.93034L38.6562 11.6148C38.595 11.8857 38.7001 12.1659 38.9249 12.3284C39.0458 12.4162 39.1877 12.46 39.3302 12.46C39.4526 12.46 39.5751 12.4275 39.6845 12.362L42.921 10.4268L46.1569 12.362C46.3943 12.5038 46.6928 12.4909 46.9171 12.3284C47.1418 12.1659 47.247 11.8857 47.1858 11.6148L46.3492 7.93034L49.1865 5.4425C49.3945 5.25997 49.4736 4.9718 49.388 4.70793Z" fill="#FD4C5C"/>
<path id="Vector_4" d="M67.597 4.70793C67.5114 4.44465 67.2779 4.25825 67.0027 4.23335L63.2494 3.8926L61.766 0.419814C61.6565 0.164672 61.4073 0 61.13 0C60.8526 0 60.6033 0.164672 60.4945 0.419814L59.0112 3.8926L55.2572 4.23335C54.9821 4.25875 54.749 4.44515 54.6629 4.70793C54.5773 4.9712 54.6564 5.25997 54.8645 5.4425L57.7017 7.93034L56.8652 11.6148C56.804 11.8857 56.9091 12.1659 57.1339 12.3284C57.2547 12.4162 57.3967 12.46 57.5391 12.46C57.6616 12.46 57.7841 12.4275 57.8935 12.362L61.13 10.4268L64.3659 12.362C64.6033 12.5038 64.9018 12.4909 65.126 12.3284C65.3508 12.1659 65.456 11.8857 65.3948 11.6148L64.5582 7.93034L67.3954 5.4425C67.6035 5.25997 67.6826 4.9718 67.597 4.70793Z" fill="#FD4C5C"/>
<path id="Vector_5" d="M85.808 4.70793C85.7223 4.44465 85.4888 4.25825 85.2136 4.23335L81.4603 3.8926L79.977 0.419814C79.8675 0.164672 79.6183 0 79.3409 0C79.0636 0 78.8143 0.164672 78.7054 0.419814L77.2221 3.8926L73.4682 4.23335C73.193 4.25875 72.96 4.44515 72.8739 4.70793C72.7883 4.9712 72.8673 5.25997 73.0755 5.4425L75.9127 7.93034L75.0761 11.6148C75.0149 11.8857 75.1201 12.1659 75.3448 12.3284C75.4657 12.4162 75.6076 12.46 75.7501 12.46C75.8725 12.46 75.995 12.4275 76.1044 12.362L79.3409 10.4268L82.5768 12.362C82.8142 12.5038 83.1127 12.4909 83.337 12.3284C83.5618 12.1659 83.6669 11.8857 83.6057 11.6148L82.7692 7.93034L85.6064 5.4425C85.8144 5.25997 85.8936 4.9718 85.808 4.70793Z" fill="#FD4C5C"/>
</g>
</svg>
