<svg width="20" height="19" viewBox="0 0 20 19" fill="none" xmlns="http://www.w3.org/2000/svg">
<path id="Star 4" d="M9.30159 0.924796C9.60106 0.00374746 10.9041 0.00374842 11.2036 0.924797L12.724 5.60101C12.858 6.01293 13.2419 6.2918 13.675 6.2918H18.5938C19.5627 6.2918 19.9654 7.53177 19.1814 8.10101L15.2032 10.9893C14.8524 11.244 14.7057 11.6956 14.8397 12.1077L16.3595 16.782C16.659 17.7032 15.6049 18.4695 14.821 17.9004L10.8401 15.0101C10.4897 14.7558 10.0154 14.7558 9.66506 15.0101L5.68416 17.9004C4.90031 18.4695 3.84613 17.7032 4.14565 16.782L5.66547 12.1077C5.7995 11.6956 5.65273 11.244 5.302 10.9893L1.3238 8.10101C0.539754 7.53177 0.942417 6.2918 1.91131 6.2918H6.83013C7.26328 6.2918 7.64719 6.01293 7.78113 5.60101L9.30159 0.924796Z" fill="#F4DF25"/>
</svg>
