<svg width="20" height="19" viewBox="0 0 20 19" fill="none" xmlns="http://www.w3.org/2000/svg">
<path id="Star 3" d="M9.28108 0.924796C9.58056 0.00374746 10.8836 0.00374842 11.1831 0.924797L12.7035 5.60101C12.8375 6.01293 13.2214 6.2918 13.6545 6.2918H18.5733C19.5422 6.2918 19.9449 7.53177 19.1609 8.10101L15.1827 10.9893C14.8319 11.244 14.6852 11.6956 14.8192 12.1077L16.339 16.782C16.6385 17.7032 15.5843 18.4695 14.8005 17.9004L10.8196 15.0101C10.4692 14.7558 9.99493 14.7558 9.64456 15.0101L5.66365 17.9004C4.8798 18.4695 3.82562 17.7032 4.12514 16.782L5.64497 12.1077C5.77899 11.6956 5.63222 11.244 5.28149 10.9893L1.30329 8.10101C0.519246 7.53177 0.921909 6.2918 1.8908 6.2918H6.80962C7.24277 6.2918 7.62668 6.01293 7.76062 5.60101L9.28108 0.924796Z" fill="#F4DF25"/>
</svg>
