<svg width="56" height="56" viewBox="0 0 56 56" fill="none" xmlns="http://www.w3.org/2000/svg">
<g id="&#231;&#148;&#179;&#232;&#175;&#183;&#230;&#157;&#161;&#228;&#187;&#182;&#232;&#135;&#170;&#230;&#181;&#139;">
<circle id="Ellipse 6" cx="28" cy="28" r="28" fill="url(#paint0_linear_737_1323)"/>
<g id="&#232;&#180;&#185;&#231;&#148;&#168;&#232;&#174;&#161;&#231;&#174;&#151;">
<path id="Vector" d="M39.0662 14.0001H31.7301C30.1083 14.0001 28.7963 15.312 28.7963 16.9338V24.27C28.7963 25.8918 30.1083 27.2038 31.7301 27.2038H39.0662C40.688 27.2038 42 25.8918 42 24.27V16.9338C42 15.312 40.688 14.0001 39.0662 14.0001ZM39.263 21.482H31.5333C31.2998 21.482 31.076 21.3893 30.9109 21.2243C30.7459 21.0592 30.6531 20.8353 30.6531 20.6019C30.6531 20.3685 30.7459 20.1446 30.9109 19.9796C31.076 19.8145 31.2998 19.7218 31.5333 19.7218H39.263C39.4965 19.7218 39.7203 19.8145 39.8854 19.9796C40.0504 20.1446 40.1432 20.3685 40.1432 20.6019C40.1432 20.8353 40.0504 21.0592 39.8854 21.2243C39.7203 21.3893 39.4965 21.482 39.263 21.482ZM24.2535 14.0001H16.9301C15.312 14.0001 14 15.312 14 16.9302V24.2536C14 25.8717 15.312 27.1819 16.9301 27.1819H24.2535C25.8717 27.1819 27.1837 25.8699 27.1837 24.2536V16.9283C27.1837 15.312 25.8717 14.0001 24.2535 14.0001ZM24.4503 21.4711H21.471V24.4504C21.471 24.6836 21.3784 24.9072 21.2135 25.0721C21.0486 25.237 20.825 25.3296 20.5918 25.3296C20.3586 25.3296 20.135 25.237 19.9701 25.0721C19.8052 24.9072 19.7126 24.6836 19.7126 24.4504V21.4711H16.7333C16.5001 21.4711 16.2765 21.3785 16.1116 21.2136C15.9467 21.0487 15.8541 20.8251 15.8541 20.5919C15.8541 20.3587 15.9467 20.1351 16.1116 19.9702C16.2765 19.8053 16.5001 19.7127 16.7333 19.7127H19.7126V16.7334C19.7126 16.5002 19.8052 16.2766 19.9701 16.1117C20.135 15.9468 20.3586 15.8542 20.5918 15.8542C20.825 15.8542 21.0486 15.9468 21.2135 16.1117C21.3784 16.2766 21.471 16.5002 21.471 16.7334V19.7127H24.4503C24.6835 19.7127 24.9072 19.8053 25.072 19.9702C25.2369 20.1351 25.3296 20.3587 25.3296 20.5919C25.3296 20.8251 25.2369 21.0487 25.072 21.2136C24.9072 21.3785 24.6835 21.4711 24.4503 21.4711ZM24.2681 28.8911H16.9902C15.3812 28.8911 14.0747 30.194 14.0747 31.803V39.0864C14.0747 40.6954 15.3812 42.0001 16.9902 42.0001H24.2699C25.879 42.0001 27.1837 40.6954 27.1837 39.0845V31.803C27.1837 30.194 25.879 28.8911 24.2681 28.8911ZM23.9583 37.5411C24.0462 37.6207 24.1169 37.7172 24.1662 37.825C24.2156 37.9327 24.2425 38.0493 24.2455 38.1678C24.2484 38.2862 24.2272 38.404 24.1832 38.514C24.1392 38.6241 24.0733 38.724 23.9895 38.8078C23.9058 38.8915 23.8058 38.9574 23.6958 39.0014C23.5858 39.0454 23.468 39.0666 23.3495 39.0637C23.2311 39.0608 23.1145 39.0338 23.0067 38.9845C22.899 38.9351 22.8025 38.8644 22.7229 38.7766L20.6274 36.681L18.5318 38.7766C18.4509 38.8577 18.3548 38.9221 18.2489 38.9661C18.1431 39.01 18.0296 39.0326 17.915 39.0326C17.8004 39.0326 17.6869 39.01 17.5811 38.9661C17.4752 38.9221 17.3791 38.8577 17.2982 38.7766C17.1346 38.6126 17.0428 38.3905 17.0428 38.1589C17.0428 37.9272 17.1346 37.7051 17.2982 37.5411L19.3937 35.4456L17.2982 33.3501C17.2104 33.2705 17.1397 33.1739 17.0903 33.0662C17.041 32.9585 17.014 32.8419 17.0111 32.7234C17.0082 32.605 17.0294 32.4872 17.0733 32.3771C17.1173 32.2671 17.1832 32.1672 17.267 32.0834C17.3508 31.9996 17.4507 31.9337 17.5607 31.8898C17.6708 31.8458 17.7886 31.8246 17.907 31.8275C18.0255 31.8304 18.1421 31.8574 18.2498 31.9067C18.3575 31.9561 18.4541 32.0268 18.5336 32.1146L20.6292 34.2101L22.7247 32.1146C22.8043 32.0268 22.9008 31.9561 23.0086 31.9067C23.1163 31.8574 23.2329 31.8304 23.3514 31.8275C23.4698 31.8246 23.5876 31.8458 23.6976 31.8898C23.8076 31.9337 23.9076 31.9996 23.9914 32.0834C24.0751 32.1672 24.141 32.2671 24.185 32.3771C24.229 32.4872 24.2502 32.605 24.2473 32.7234C24.2444 32.8419 24.2174 32.9585 24.1681 33.0662C24.1187 33.1739 24.048 33.2705 23.9602 33.3501L21.8646 35.4456L23.9602 37.5411H23.9583Z" fill="white"/>
<path id="Vector_2" d="M39.045 28.8001C40.6631 28.8001 41.9732 30.1103 41.9732 31.7266V39.0482C41.9732 40.6645 40.6613 41.9765 39.045 41.9765H31.7252C30.107 41.9765 28.7969 40.6645 28.7969 39.0482V31.7266C28.7969 30.1103 30.1089 28.7983 31.7252 28.7983H39.045V28.8001ZM35.3823 31.7739C35.1494 31.7744 34.9262 31.8674 34.7618 32.0325C34.5974 32.1975 34.5054 32.4211 34.5058 32.6541C34.5063 32.887 34.5993 33.1102 34.7644 33.2746C34.9294 33.439 35.153 33.531 35.386 33.5305C35.6189 33.5305 35.8423 33.438 36.007 33.2733C36.1717 33.1086 36.2643 32.8852 36.2643 32.6522C36.2643 32.4193 36.1717 32.1959 36.007 32.0312C35.8423 31.8665 35.6189 31.7739 35.386 31.7739H35.3823ZM35.386 39.0391C35.6189 39.0391 35.8423 38.9465 36.007 38.7818C36.1717 38.6171 36.2643 38.3937 36.2643 38.1608C36.2643 37.9278 36.1717 37.7044 36.007 37.5397C35.8423 37.375 35.6189 37.2825 35.386 37.2825H35.3823C35.1494 37.2829 34.9262 37.3759 34.7618 37.541C34.5974 37.7061 34.5054 37.9296 34.5058 38.1626C34.5063 38.3955 34.5993 38.6187 34.7644 38.7831C34.9294 38.9475 35.153 39.0396 35.386 39.0391ZM39.2418 36.2657C39.4747 36.2657 39.6981 36.1731 39.8628 36.0084C40.0275 35.8437 40.1201 35.6203 40.1201 35.3874C40.1201 35.1544 40.0275 34.931 39.8628 34.7663C39.6981 34.6016 39.4747 34.5091 39.2418 34.5091H31.5284C31.2954 34.5091 31.072 34.6016 30.9073 34.7663C30.7426 34.931 30.6501 35.1544 30.6501 35.3874C30.6501 35.6203 30.7426 35.8437 30.9073 36.0084C31.072 36.1731 31.2954 36.2657 31.5284 36.2657H39.2418Z" fill="white"/>
</g>
</g>
<defs>
<linearGradient id="paint0_linear_737_1323" x1="2.5" y1="9.5" x2="52" y2="49" gradientUnits="userSpaceOnUse">
<stop offset="0.0535714" stop-color="#11437F"/>
<stop offset="1" stop-color="#1065CA"/>
</linearGradient>
</defs>
</svg>
